<?xml version="1.0" encoding="utf-8"?>
<!-- Generator: Adobe Illustrator 22.0.1, SVG Export Plug-In . SVG Version: 6.00 Build 0)  -->
<svg class="dlogic_svg" version="1.1" id="capa1" xmlns="http://www.w3.org/2000/svg" xmlns:xlink="http://www.w3.org/1999/xlink" x="0px" y="0px"
viewBox="0 0 1822.515 631.377" style="enable-background:new 0 0 1822.515 631.377;" xml:space="preserve">
<style type="text/css">
.Drop_x0020_Shadow{fill:none;}
.Outer_x0020_Glow_x0020_5_x0020_pt{fill:none;}
.Jive_GS{fill:#A6D0E4;}
.st0{
	fill:transparent;fill-opacity:0.84;
	-webkit-animation: bloqueFondo 3s forwards 3s;
	-moz-animation: bloqueFondo 3s forwards 3s;
	-o-animation: bloqueFondo 3s forwards 3s;
	animation: bloqueFondo 3s forwards 3s;
}
.st1{
	fill:transparent;
	-webkit-animation: bloqueL 6s forwards 6s;
	-moz-animation: bloqueL 6s forwards 6s;
	-o-animation: bloqueL 6s forwards 6s;
	animation: bloqueL 6s forwards 6s;
}
.st2{
	fill:transparent;
	-webkit-animation: bloqueD 5s forwards 5s;
	-moz-animation: bloqueD 5s forwards 5s;
	-o-animation: bloqueD 5s forwards 5s;
	animation: bloqueD 5s forwards 5s;} 
	.st3{opacity:1;}
	.st4{enable-background:new    ;}
	.st5{
		fill:transparent;
		-webkit-animation: bloqueDis 5s forwards 5s;
		-moz-animation: bloqueDis 5s forwards 5s;
		-o-animation: bloqueDis 5s forwards 5s;
		animation: bloqueDis 5s forwards 5s;
	}
	.st6{
		fill:transparent;
		-webkit-animation: bloqueL 6s forwards 6s;
		-moz-animation: bloqueL 6s forwards 6s;
		-o-animation: bloqueL 6s forwards 6s;
		animation: bloqueL 6s forwards 6s;
	}
	.st7{
		fill:none;
		stroke:#ffffff;
		stroke-dasharray: 2080;
		stroke-dashoffset: 0;
		stroke-width:10;
		stroke-miterlimit:10;
		-webkit-animation: animacion 7s forwards;
		-moz-animation: animacion 7s forwards;
		-o-animation: animacion 7s forwards;
		animation: animacion 7s forwards;
	}

	@-webkit-keyframes animacion {
		0%{
			stroke-dashoffset: 2080;
		}
		99.99%{
			stroke: #535353;
			stroke-width:1;
		}
		
		100%{
			stroke-dashoffset: 0;
			stroke: #ffffff;
			stroke-width: 0; 
		}

	}
	@keyframes animacion{
		0%{
			stroke-dashoffset: 2080;
		}
		99.99%{
			stroke: #535353;
			stroke-width:1;
		}
		
		100%{
			stroke-dashoffset: 0;
			stroke: #ffffff;
			stroke-width: 0; 
		}

	}

	@-webkit-keyframes bloqueL {
		from{
			fill: transparent;
		}
		to{
			fill: #E6E6E6;
		}
	}
	@keyframes bloqueL {
		from{
			fill: transparent;
		}
		to{
			fill: #E6E6E6;
		}
	}

	@-webkit-keyframes bloqueD {
		from{
			fill: transparent;
		}
		to{
			fill: #999999;
		}
	}
	@keyframes bloqueD {
		from{
			fill: transparent;
		}
		to{
			fill: #999999;
		}
	}
	@-webkit-keyframes bloqueFondo{
		from{
			fill: transparent;
		}
		to{
			fill: #1A1A1A;
		}
	} 
	@keyframes bloqueFondo{
		from{
			fill: transparent;
		}
		to{
			fill: #1A1A1A;
		}
	}
	@-webkit-keyframes bloqueDis{
		from{
			fill: transparent;
		}
		to{
			fill: #999999;
		}
	} 
	@keyframes bloqueDis{
		from{
			fill: transparent;
		}
		to{
			fill: #999999;
		}
	}
	@-webkit-keyframes bloqueLog{
		from{
			fill: transparent;
		}
		to{
			fill: #1A1A1A;
		}
	} 
	@keyframes bloqueLog{
		from{
			fill: transparent;
		}
		to{
			fill: #1A1A1A;
		}
	}




</style>
<rect id="fondo" y="0.11" class="st0" width="634.44" height="631.38"/>
<g id="isotipo">
	<polygon id="log" class="st1" points="221.35,442.94 221.35,215.67 88.14,215.67 88.14,442.94 88.14,442.98 88.14,543.49 
	343.86,543.49 343.86,442.94 	"/>
	<polygon id="dis" class="st2" points="221.61,88.25 87.43,88.25 87.43,192.25 221.61,192.25 221.61,175.2 419.75,175.2 
	419.75,442.98 367.27,442.98 367.27,543.35 547.39,543.35 547.39,442.98 547.39,175.2 547.39,175.2 547.39,88.25 	"/>
</g>
<g id="texto">
	<g class="st3">
		<g class="st4">
			<path class="st5" d="M723.069,88.901h60.493c13.642,0,24.041,1.024,31.197,3.069c9.616,2.778,17.852,7.712,24.711,14.8
			c6.857,7.089,12.076,15.769,15.654,26.035c3.578,10.269,5.367,22.931,5.367,37.985c0,13.229-1.677,24.629-5.032,34.202
			c-4.101,11.694-9.952,21.157-17.555,28.393c-5.741,5.481-13.493,9.757-23.258,12.826c-7.307,2.267-17.071,3.398-29.296,3.398
			h-62.282V88.901z M756.167,116.088v106.445h24.711c9.242,0,15.915-0.511,20.015-1.535c5.367-1.315,9.821-3.544,13.362-6.687
			c3.54-3.142,6.429-8.313,8.666-15.512c2.236-7.197,3.354-17.009,3.354-29.435c0-12.423-1.118-21.96-3.354-28.611
			c-2.236-6.649-5.367-11.84-9.393-15.566c-4.025-3.728-9.132-6.249-15.319-7.564c-4.623-1.022-13.68-1.535-27.171-1.535H756.167z"
			/>
			<path class="st5" d="M888.333,117.403V88.901h31.42v28.502H888.333z M888.333,249.61V133.189h31.42V249.61H888.333z"/>
			<path class="st5" d="M940.887,216.395l31.532-4.714c1.342,5.993,4.063,10.543,8.163,13.648c4.099,3.106,9.84,4.658,17.22,4.658
			c8.124,0,14.237-1.461,18.338-4.385c2.757-2.045,4.137-4.785,4.137-8.222c0-2.338-0.746-4.275-2.236-5.81
			c-1.565-1.462-5.07-2.813-10.511-4.057c-25.346-5.481-41.41-10.486-48.192-15.019c-9.393-6.284-14.089-15.019-14.089-26.2
			c0-10.085,4.062-18.563,12.188-25.433c8.124-6.868,20.723-10.305,37.794-10.305c16.25,0,28.326,2.595,36.229,7.783
			c7.9,5.19,13.343,12.864,16.325,23.021l-29.631,5.371c-1.269-4.53-3.673-8.002-7.213-10.414
			c-3.541-2.412-8.592-3.617-15.15-3.617c-8.274,0-14.201,1.134-17.779,3.397c-2.387,1.608-3.578,3.691-3.578,6.249
			c0,2.192,1.043,4.056,3.131,5.591c2.832,2.047,12.616,4.934,29.352,8.66c16.734,3.728,28.419,8.296,35.055,13.703
			c6.559,5.481,9.84,13.119,9.84,22.911c0,10.672-4.548,19.842-13.642,27.516c-9.096,7.674-22.55,11.511-40.365,11.511
			c-16.177,0-28.98-3.215-38.409-9.646C949.961,236.164,943.794,227.431,940.887,216.395z"/>
			<path class="st5" d="M1109.395,249.61h-31.42V133.189h29.184v16.554c4.993-7.819,9.485-12.972,13.474-15.457
			c3.987-2.484,8.516-3.728,13.586-3.728c7.156,0,14.051,1.938,20.687,5.811l-9.729,26.857c-5.294-3.36-10.214-5.043-14.76-5.043
			c-4.399,0-8.126,1.189-11.182,3.563c-3.058,2.375-5.462,6.67-7.212,12.881c-1.753,6.212-2.628,19.222-2.628,39.025V249.61z"/>
			<path class="st5" d="M1246.593,249.61V232.18c-4.324,6.213-10.008,11.11-17.052,14.69c-7.045,3.579-14.48,5.371-22.308,5.371
			c-7.978,0-15.134-1.718-21.469-5.152c-6.337-3.435-10.921-8.258-13.753-14.471c-2.834-6.21-4.249-14.799-4.249-25.761v-73.668
			h31.42v53.497c0,16.371,0.576,26.402,1.733,30.092c1.154,3.69,3.26,6.615,6.317,8.77c3.056,2.156,6.933,3.234,11.629,3.234
			c5.367,0,10.176-1.442,14.425-4.331c4.249-2.886,7.156-6.468,8.722-10.743c1.565-4.274,2.348-14.744,2.348-31.407v-49.111h31.421
			V249.61H1246.593z"/>
			<path class="st5" d="M1307.422,133.189h29.296v17.102c3.802-5.846,8.945-10.596,15.431-14.251
			c6.485-3.653,13.678-5.481,21.58-5.481c13.79,0,25.494,5.3,35.11,15.896c9.616,10.598,14.425,25.361,14.425,44.288
			c0,19.441-4.847,34.551-14.536,45.33c-9.691,10.78-21.433,16.169-35.223,16.169c-6.561,0-12.506-1.279-17.835-3.837
			c-5.33-2.558-10.94-6.942-16.828-13.154v58.648h-31.42V133.189z M1338.507,189.427c0,13.083,2.645,22.747,7.938,28.995
			c5.292,6.249,11.741,9.373,19.345,9.373c7.305,0,13.379-2.867,18.226-8.605c4.845-5.736,7.269-15.145,7.269-28.228
			c0-12.205-2.499-21.268-7.492-27.188c-4.995-5.919-11.182-8.879-18.562-8.879c-7.679,0-14.052,2.904-19.12,8.715
			C1341.04,169.42,1338.507,178.025,1338.507,189.427z"/>
			<path class="st5" d="M1502.653,133.189v24.556h-21.469v46.919c0,9.502,0.204,15.038,0.615,16.608
			c0.408,1.572,1.342,2.869,2.795,3.892c1.454,1.024,3.224,1.535,5.312,1.535c2.907,0,7.118-0.987,12.636-2.96l2.684,23.897
			c-7.307,3.07-15.581,4.604-24.823,4.604c-5.666,0-10.773-0.932-15.319-2.795c-4.548-1.864-7.883-4.275-10.008-7.235
			c-2.124-2.96-3.597-6.961-4.416-12.004c-0.671-3.58-1.007-10.815-1.007-21.706v-50.756h-14.424v-24.556h14.424v-23.131
			l31.532-17.978v41.108H1502.653z"/>
			<path class="st5" d="M1524.458,117.403V88.901h31.42v28.502H1524.458z M1524.458,249.61V133.189h31.42V249.61H1524.458z"/>
			<path class="st5" d="M1620.731,249.61l-47.857-116.421h32.985l22.363,59.416l6.485,19.843c1.714-5.043,2.796-8.368,3.243-9.977
			c1.043-3.288,2.161-6.577,3.354-9.866l22.587-59.416h32.314l-47.187,116.421H1620.731z"/>
			<path class="st5" d="M1784.207,212.558l31.309,5.152c-4.025,11.255-10.382,19.824-19.064,25.707
			c-8.686,5.884-19.551,8.824-32.595,8.824c-20.649,0-35.932-6.613-45.845-19.842c-7.827-10.596-11.74-23.97-11.74-40.122
			c0-19.294,5.144-34.403,15.431-45.33c10.287-10.925,23.294-16.389,39.023-16.389c17.667,0,31.605,5.72,41.819,17.156
			c10.212,11.438,15.096,28.96,14.648,52.564h-78.719c0.224,9.137,2.757,16.243,7.604,21.322c4.845,5.08,10.883,7.619,18.114,7.619
			c4.92,0,9.057-1.315,12.411-3.947C1779.958,222.643,1782.491,218.405,1784.207,212.558z M1785.996,181.424
			c-0.224-8.915-2.571-15.693-7.044-20.335c-4.473-4.64-9.915-6.961-16.325-6.961c-6.859,0-12.523,2.449-16.996,7.345
			c-4.473,4.897-6.673,11.548-6.598,19.951H1785.996z"/>
		</g>
	</g>
	<g>
		<g class="st4">
			<path class="st6" d="M724.075,541.479V382.086h33.098v132.316h82.297v27.077H724.075z"/>
			<path class="st6" d="M855.571,481.625c0-10.231,2.572-20.134,7.715-29.708c5.144-9.573,12.429-16.883,21.86-21.925
			c9.429-5.043,19.959-7.564,31.587-7.564c17.965,0,32.688,5.72,44.168,17.156c11.479,11.438,17.219,25.89,17.219,43.356
			c0,17.613-5.797,32.212-17.387,43.795c-11.592,11.584-26.184,17.375-43.775,17.375c-10.885,0-21.265-2.411-31.141-7.235
			c-9.878-4.823-17.388-11.894-22.531-21.212S855.571,494.999,855.571,481.625z M887.774,483.27c0,11.548,2.795,20.39,8.386,26.528
			c5.591,6.14,12.484,9.209,20.685,9.209c8.199,0,15.076-3.069,20.631-9.209c5.553-6.139,8.33-15.054,8.33-26.748
			c0-11.4-2.777-20.171-8.33-26.31c-5.555-6.139-12.432-9.209-20.631-9.209c-8.201,0-15.094,3.07-20.685,9.209
			S887.774,471.723,887.774,483.27z"/>
			<path class="st6" d="M999.814,549.153l35.893,4.275c0.596,4.092,1.975,6.906,4.138,8.44c2.98,2.193,7.677,3.289,14.089,3.289
			c8.199,0,14.349-1.206,18.449-3.617c2.757-1.608,4.845-4.204,6.262-7.783c0.968-2.56,1.454-7.273,1.454-14.142v-16.992
			c-9.393,12.571-21.245,18.855-35.558,18.855c-15.953,0-28.589-6.613-37.906-19.842c-7.307-10.45-10.958-23.46-10.958-39.026
			c0-19.513,4.789-34.422,14.368-44.727c9.578-10.305,21.486-15.457,35.726-15.457c14.685,0,26.798,6.322,36.341,18.965v-16.334
			h29.407V529.53c0,13.739-1.156,24.008-3.466,30.805c-2.312,6.797-5.555,12.131-9.729,16.005
			c-4.176,3.873-9.747,6.906-16.717,9.099c-6.971,2.192-15.785,3.289-26.444,3.289c-20.127,0-34.402-3.381-42.825-10.141
			c-8.425-6.761-12.636-15.33-12.636-25.706C999.702,551.856,999.739,550.614,999.814,549.153z M1027.88,480.857
			c0,12.352,2.44,21.396,7.324,27.132c4.881,5.738,10.902,8.605,18.059,8.605c7.677,0,14.162-2.94,19.456-8.824
			c5.292-5.883,7.938-14.598,7.938-26.146c0-12.059-2.535-21.011-7.604-26.858c-5.07-5.846-11.48-8.77-19.232-8.77
			c-7.53,0-13.736,2.869-18.617,8.605C1030.32,460.341,1027.88,469.092,1027.88,480.857z"/>
			<path class="st6" d="M1142.604,409.272v-28.502h31.42v28.502H1142.604z M1142.604,541.479V425.059h31.42v116.421H1142.604z"/>
			<path class="st6" d="M1309.77,459.48l-30.974,5.481c-1.045-6.065-3.41-10.634-7.101-13.703c-3.689-3.069-8.48-4.604-14.368-4.604
			c-7.827,0-14.071,2.65-18.729,7.948c-4.659,5.3-6.988,14.16-6.988,26.584c0,13.813,2.365,23.569,7.101,29.27
			c4.732,5.7,11.087,8.551,19.064,8.551c5.963,0,10.847-1.662,14.648-4.988c3.802-3.324,6.485-9.044,8.051-17.156l30.861,5.152
			c-3.206,13.887-9.356,24.374-18.45,31.462c-9.096,7.09-21.283,10.634-36.563,10.634c-17.37,0-31.217-5.371-41.54-16.114
			c-10.326-10.743-15.486-25.614-15.486-44.617c0-19.221,5.18-34.184,15.542-44.892c10.36-10.705,24.376-16.06,42.043-16.06
			c14.461,0,25.959,3.053,34.495,9.153C1299.91,437.685,1306.041,446.983,1309.77,459.48z"/>
		</g>
	</g>
</g>
<polygon id="bordeL" class="st7" points="221.16,442.87 221.16,215.6 87.95,215.6 87.95,442.87 87.95,442.91 87.95,543.42 
343.67,543.42 343.67,442.87 "/>
<polygon id="bordeD" class="st7" points="221.42,88.18 87.24,88.18 87.24,192.18 221.42,192.18 221.42,175.13 419.56,175.13 
419.56,442.91 367.08,442.91 367.08,543.28 547.2,543.28 547.2,442.91 547.2,175.13 547.2,175.13 547.2,88.18 "/>
<g>
</g>
<g>
</g>
<g>
</g>
<g>
</g>
<g>
</g>
</svg>
