<svg xmlns="http://www.w3.org/2000/svg" id="Graphics" viewBox="0 0 439.8 228"><style>.st1,.st2{opacity:.5;fill:#377dff;enable-background:new}.st2{opacity:.47}.st3{fill:#00c9a7}.st4,.st5{fill:none;stroke:#191c3c;stroke-miterlimit:10}.st5{stroke:#1e2022}.st6{fill:#fcd991}.st7{fill:#00c671}.st11{fill:#191c3c}.st13{fill:#377dff}.st14{fill:#dfe2ec}.st16{fill:#de4437}.st17{fill:#eceef4}.st18{fill:#fff}.st21{fill:#ffc107}.st26{fill:#fec55e}.st27{fill:#bf9447}.st28,.st29{opacity:.5;fill:#fff;enable-background:new}.st29{opacity:.3;fill:#191c3c}.st31{fill:#4d5068}.st32{fill:#272834}.st34{opacity:.3}.st35{fill:#231f20}.st40{fill:#575a8f}.st43{fill:#ddb758}.st44{fill:#efdcb4}.st45{fill:#093a66}.st46{fill:#424559}.st48{fill:#336dc1}.st49{fill:#c6e8f7}.st51{fill:#1e2022}</style><g id="Layer_6" opacity=".15"><ellipse cx="426.6" cy="146.7" class="st1" rx="10.4" ry="10.4"/><path d="M287.7 17.2c0 7.5-6.1 13.5-13.5 13.5-7.5 0-13.5-6.1-13.5-13.5 0-7.5 6.1-13.5 13.5-13.5 7.4-.1 13.5 6 13.5 13.5zM101.8 34.4c0 3.8-3.1 6.9-6.9 6.9S88 38.2 88 34.4s3.1-6.9 6.9-6.9 6.9 3.1 6.9 6.9zM344.1 47.5c0 3.8-3.1 6.9-6.9 6.9s-6.9-3.1-6.9-6.9c0-3.8 3.1-6.9 6.9-6.9s6.9 3.1 6.9 6.9z" class="st1"/><circle cx="179.8" cy="6.9" r="6.9" class="st1"/><path d="M439.8 176.9c0 1.6-1.3 2.8-2.8 2.8-1.6 0-2.8-1.3-2.8-2.8 0-1.6 1.3-2.8 2.8-2.8 1.6-.1 2.8 1.2 2.8 2.8zM329.9 22.7c0 1.2-1 2.1-2.1 2.1-1.2 0-2.1-1-2.1-2.1 0-1.2 1-2.1 2.1-2.1s2.1.9 2.1 2.1z" class="st1"/><circle cx="122.1" cy="6.9" r="2.8" class="st1"/><path d="M25.9 67c0 2-1.6 3.7-3.7 3.7-2 0-3.7-1.6-3.7-3.7 0-2 1.6-3.7 3.7-3.7 2 .1 3.7 1.7 3.7 3.7zM433.9 101.9c0 2-1.6 3.7-3.7 3.7-2 0-3.7-1.6-3.7-3.7 0-2 1.6-3.7 3.7-3.7s3.7 1.7 3.7 3.7z" class="st1"/><ellipse cx="58.8" cy="55.5" class="st1" rx="15.6" ry="15.6"/><path d="M12 183.3c0 2-1.6 3.7-3.7 3.7-2 0-3.7-1.6-3.7-3.7s1.6-3.7 3.7-3.7c2 0 3.7 1.7 3.7 3.7z" class="st1"/><circle cx="406.7" cy="47.5" r="15.1" class="st1"/><ellipse cx="12" cy="115.2" class="st1" rx="12" ry="12"/><path d="M424.6 227.4c0-28.2-6-55.1-16.8-79.3 3.9-8.1 6.1-17.1 6.1-26.7 0-34-27.5-61.5-61.5-61.5-6.4 0-12.5 1-18.3 2.8-30.2-19.2-66.1-30.4-104.6-30.4-4.8 0-9.6.2-14.3.5-8.4-6.3-18.9-10.1-30.2-10.1-21.4 0-39.7 13.4-46.9 32.3-14.8 7.9-28.5 17.6-40.7 28.8-4-.9-8.1-1.4-12.4-1.4-30.8 0-55.7 24.9-55.7 55.7 0 13.4 4.7 25.7 12.6 35.3-4.9 17.1-7.6 35.2-7.6 53.9l390.3.1z" class="st2"/><path d="M370.1 227c0-78.3-63.4-141.7-141.7-141.7S86.7 148.7 86.7 227h283.4z" class="st2"/></g><g id="Layer_13"><path d="M351.2 208.4c-.1 0-.1.1-.2.1-2.2 1-3.4.9-5.5-.1-2-.9-3.9-2-5.5-3.4-2.1-1.8-3.7-4.3-4-7-.1-.6-.1-1.3.3-1.8.5-.7 1.5-.8 2.3-.5s1.4.9 2 1.5c.3.2.6.5.9.6.3.1.8 0 1-.3.3-.5-.2-1.1-.6-1.4-1-.9-2-1.3-3.1-2.1-1.4-1-2.6-2.1-3.3-3.6-.7-1.5-.9-3.3-.1-4.8.2-.4.6-.9 1-1.1.8-.5 1.7-.5 2.6-.3s1.7.5 2.6.6c2.1.2 2.9-1.3 2.9-3.2 0-1.3-.4-2.6-.5-3.8-.1-2.3 1-4.7 3.1-5.7s4.9 0 5.7 2.1c.8 2.3-1 5 .2 7.2.4.7 1.3 1.7 2 2.2 1.1.7 2.8-.1 4.1-.1.3 0 .6.1.8.3.2.2.2.4.3.6.3 1.6-.3 3.4-1.5 4.5-1.4 1.3-3.8 1.9-4.4 3.9-.4 1.2-.2 4.3 1.7 4 .7-.1 1.2-.8 1.9-1.1.9-.3 1.9.3 2.3 1.1.4.8.3 1.8-.1 2.7-.5 1.3-1.6 2.4-2.6 3.5-2.2 2-3.6 4-6.3 5.4z" class="st3"/><path d="M348.3 179.9v47.6M353.8 188.1l-5.5 5.5-5.5-5.5M353.8 199.2l-5.5 5.5-5.5-5.5" class="st4"/><path d="M50.7 203.4c-.1 0-.1.1-.2.1-1.9.9-2.9.7-4.7-.1-1.7-.8-3.3-1.7-4.7-2.9-1.8-1.6-3.1-3.7-3.4-6-.1-.5-.1-1.1.3-1.5.4-.6 1.3-.7 2-.4.7.3 1.2.8 1.7 1.3.2.2.5.4.8.5.3.1.7 0 .8-.3.2-.4-.2-.9-.6-1.2-.9-.7-1.7-1.1-2.6-1.8-1.2-.8-2.2-1.8-2.8-3.1-.6-1.3-.8-2.8-.1-4.1.2-.4.5-.7.8-1 .6-.4 1.5-.4 2.2-.2.7.2 1.5.4 2.2.5 1.8.2 2.5-1.1 2.5-2.7 0-1.1-.4-2.2-.4-3.3-.1-1.9.8-4 2.6-4.8s4.2 0 4.8 1.8c.7 2-.9 4.2.2 6.1.3.6 1.1 1.5 1.7 1.8 1 .6 2.4-.1 3.5-.1.3 0 .5 0 .7.2.1.1.2.3.2.5.3 1.4-.2 2.9-1.3 3.8-1.2 1.1-3.2 1.6-3.7 3.3-.3 1-.2 3.7 1.5 3.4.6-.1 1-.7 1.6-.9.7-.3 1.6.2 1.9.9.3.7.2 1.6-.1 2.3-.5 1.1-1.3 2.1-2.2 3-1.8 2-2.9 3.7-5.2 4.9z" class="st3"/><path d="M48.2 179.1v48.2M52.9 186.1l-4.7 4.7-4.7-4.7M52.9 195.6l-4.7 4.7-4.7-4.7" class="st5"/><g><path d="M66.7 170.8c-.1 0-.2.1-.3.1-3.1 1.5-4.7 1.2-7.7-.2-2.7-1.3-5.4-2.8-7.7-4.8-2.9-2.5-5.1-6-5.6-9.8-.1-.9-.1-1.8.4-2.5.7-1 2.1-1.1 3.2-.7 1.1.4 2 1.3 2.9 2.1.4.3.8.7 1.3.8s1.1 0 1.3-.4c.4-.7-.3-1.5-.9-2-1.4-1.2-2.8-1.9-4.3-2.9-1.9-1.3-3.6-2.9-4.7-5-1-2.1-1.3-4.6-.2-6.6.3-.6.8-1.2 1.4-1.6 1-.7 2.4-.6 3.6-.4 1.2.3 2.4.7 3.6.9 2.9.3 4.1-1.8 4-4.4 0-1.8-.6-3.6-.7-5.4-.2-3.2 1.4-6.5 4.2-7.9 2.9-1.4 6.9-.1 7.9 2.9 1.1 3.3-1.4 6.9.3 10 .5 1 1.8 2.4 2.8 3 1.6 1 3.9-.2 5.8-.1.4 0 .9.1 1.2.4.2.2.3.5.4.8.4 2.3-.4 4.7-2.1 6.3-1.9 1.8-5.3 2.7-6.1 5.4-.5 1.7-.3 6 2.4 5.5 1-.2 1.7-1.2 2.7-1.5 1.2-.4 2.6.4 3.1 1.6s.4 2.5-.1 3.7c-.7 1.9-2.2 3.4-3.6 4.8-2.8 3.2-4.7 6.1-8.5 7.9z" class="st6"/><path d="M62.6 131.1v95.3M70.3 142.6l-7.7 7.7-7.7-7.7M70.3 158.1l-7.7 7.7-7.7-7.7" class="st5"/></g><g><path d="M377.5 182.4c-.1.1-.3.1-.4.2-4.2 2-6.4 1.7-10.4-.2-3.7-1.7-7.3-3.8-10.4-6.5-3.9-3.5-6.9-8.1-7.6-13.3-.1-1.2-.1-2.4.6-3.4.9-1.3 2.9-1.5 4.4-.9 1.5.6 2.7 1.7 3.9 2.8.5.5 1 .9 1.7 1.1s1.5 0 1.8-.6c.5-.9-.4-2-1.2-2.7-1.9-1.6-3.8-2.6-5.8-4-2.6-1.8-4.9-4-6.3-6.8s-1.7-6.3-.3-9c.4-.8 1.1-1.6 1.9-2.1 1.4-.9 3.3-.9 4.9-.5 1.6.4 3.2 1 4.9 1.2 4 .4 5.5-2.4 5.4-6-.1-2.4-.8-4.8-1-7.3-.2-4.3 1.9-8.9 5.8-10.7 3.9-1.8 9.3-.1 10.7 4 1.5 4.4-1.9 9.4.3 13.6.7 1.4 2.4 3.3 3.8 4.1 2.2 1.3 5.3-.2 7.8-.1.6 0 1.2.1 1.6.5.3.3.4.7.5 1.1.6 3.1-.5 6.4-2.8 8.5-2.6 2.4-7.2 3.6-8.3 7.3-.7 2.3-.4 8.1 3.3 7.5 1.4-.2 2.3-1.6 3.6-2 1.6-.6 3.5.5 4.3 2.1.7 1.6.5 3.4-.1 5.1-1 2.5-3 4.6-4.9 6.6-4 3.9-6.6 7.8-11.7 10.4z" class="st6"/><path d="M372 128.4v99.1M382.4 144.1L372 154.5l-10.5-10.4M382.4 165.1L372 175.5l-10.5-10.4" class="st5"/></g><g><path d="M433.1 227.5h-25c0-2.1-1.7-3.8-3.8-3.8-2.1 0-3.8 1.7-3.8 3.8" class="st5"/><path d="M402.2 224.2c0-2.1-1.7-3.8-3.8-3.8-2.1 0-3.8 1.7-3.8 3.8" class="st5"/></g><g><path d="M3.8 227.5h25c0-2.1 1.7-3.8 3.8-3.8s3.8 1.7 3.8 3.8M34.6 224.2c0-2.1 1.7-3.8 3.8-3.8s3.8 1.7 3.8 3.8" class="st5"/></g><g><path d="M279.6 227.3c.8.4 0 0 0 0zm-9.1-4.5c-1.4 1.5-3.1 3.3-2.5 3.6 2 1.2 9.2 1.1 11.7.9 17 .8 34.2-6 45.8-18.4-8-5.5-18.7-6.4-28.1-3.7s-17.6 8.6-24.3 15.6c-.5.6-2.1 1.5-2.6 2z" class="st7"/><path fill="#08492c" d="M270.5 222.8c.5-.5 2.1-1.4 2.6-1.9 6.8-7 15-12.9 24.3-15.6 4.5-1.3 9.3-1.8 14-1.3-5.4.2-10.8 1.6-15.5 4-8.5 4.3-15.3 11.4-20.5 19.4-2.9 0-6.1-.3-7.3-1-.7-.3 1-2.1 2.4-3.6z" opacity=".2"/><path d="M271.9 194.5c3.2-2.9 7.5-4.4 11.6-5.6 6.4-1.8 13-3.1 19.6-3.7-3.6 8-6.2 16-12.7 21.9-2.6 2.3-6.8 4.6-9.5 6.8-3.2 2.6-8.3 9.3-10.9 12.6-3 .6-5.3-3.7-6.6-6.7-1.7-3.8.2-9.6 1.5-13.5 1.6-4.4 3.6-8.7 7-11.8z" class="st7"/><path fill="#f5f7f9" d="M279.2 214.1c2.3-2.6 6-5.6 8.2-8.3 4.5-5.8 6-12.5 7.6-19.4 2.7-.5 5.4-.8 8.1-1.1-3.6 8-6.2 16-12.7 21.9-2.6 2.3-6.8 4.6-9.5 6.8-1.6 1.2-3.5 3.4-5.5 5.7 1.3-2.3 2.7-4.3 3.8-5.6z" opacity=".08"/><path d="M270.9 173c1.5 7.4 2.9 15 1.6 22.4-.5 3-1.5 5.9-2.4 8.8-1.1 3.8-1.7 6.1-2.7 9.9.8-.5-.8 1.8-1.6 3.1-.9 1.4-2.2 3.2-3.2 1.7-1.2-1.7-2.5-3.6-3-5.6-.6-2.4 0-6.4 0-8.9-.1-6.5-.1-13.1 2.1-19.2 1.8-4.8 5-9.1 9.2-12.2z" class="st7"/><path d="M320.7 210.3c-8.4-.3-16.7 0-24.9 2.3-7.7 2.2-14.7 5.8-21.1 10.7-.3.3-.7-.3-.3-.6 6.4-4.8 13.6-8.5 21.3-10.6 8.3-2.3 16.5-2.5 25-2 .1 0 .1.2 0 .2zM300.4 187.7c-6.8 3.2-13 7.4-18.4 12.7-5.8 5.7-9.7 12.5-14 19.2-.1.2-.4 0-.3-.2 7.4-13.9 17.9-25.7 32.7-31.9 0 0 .1.1 0 .2zM270.5 175.9c-4.4 13.2-9.6 25.8-6.6 40 .1.3-.4.4-.5.1-2.8-13.5 1.3-27.9 6.9-40.2.1 0 .2 0 .2.1z" class="st11"/><path d="M314.6 215c-.9-.9-1.8-1.9-2.8-2.7s-2.2-1.3-3.3-2c-.1 0 0-.2.1-.2 2.3.9 4.7 2.8 6 4.9.1 0 .1.1 0 0zM307.8 218.3c-2.4-4.3-5.8-5.5-10.4-6.1-.4 0-.3-.5.1-.5 4.4.7 8.8 2 10.3 6.6.1.1.1.1 0 0zM299.4 218.9c-2.7-2.1-5.5-5.3-9.3-4.3-.2.1-.3-.2-.1-.3 3.8-1 6.9 2.1 9.5 4.5.1.1 0 .2-.1.1zM291.1 223.3c-2.5-3.2-6.2-6.1-10.4-3.9-.2.1-.5-.2-.2-.4 4.2-2.1 8.5.6 10.6 4.3.1 0 0 .1 0 0zM310.4 204.9c-.6 2.7-2.9 4.3-5.1 5.8-.2.1-.3-.2-.1-.3 2.2-1.4 4.3-2.9 5-5.6.1 0 .3 0 .2.1z" class="st11"/><path d="M301.5 205.5c-1 2.6-2.7 4.9-4.7 6.8-.2.2-.4-.1-.2-.2 2.1-1.9 3.5-4.1 4.9-6.6 0-.1 0 0 0 0zM294 208.5c-.5 1.3-1.1 2.4-1.9 3.5-.6.8-1.6 2.3-2.5 2.6-.1 0-.2 0-.2-.1l-.1-.1c-.1-.1-.1-.3 0-.4 0 0 .1 0 .1-.1h.3l.1.1c.1.1.1.2-.1.2-.3 0 1-1.4 1-1.4.4-.4.8-.8 1.1-1.3.8-1 1.5-2.1 2.1-3.2 0 .1.1.1.1.2zM287.7 211.7c-1.7 2.8-4.2 5.3-6.8 7.3-.3.2-.7-.2-.4-.4 2.7-2.1 4.8-4.5 7-7.1.1-.1.3.1.2.2zM296.4 196.6c-4.7-.3-8.7-.1-12.9 2.5-.3.2-.5-.3-.3-.4 3.7-2.4 8.9-3.8 13.2-2.3.2 0 .2.2 0 .2zM289.1 204.4c-2.3 0-4.4-.1-6.7.5-2 .5-3.9 1.2-5.9 1.9-.3.1-.4-.3-.1-.4 3.9-1.5 8.4-3.2 12.7-2.1v.1zM280.3 211.3c-1.6.1-3.2.2-4.7.5-1.8.3-3 1.2-4.2 2.6-.2.2-.5-.1-.3-.3 1.1-1.3 2.2-2.2 3.9-2.6 1.7-.4 3.5-.5 5.3-.4.1 0 .1.2 0 .2z" class="st11"/><path d="M286.8 191.1c-.1 1.7-1 3.4-1.7 4.9-.4 1-.8 2.7-2.1 2.9-.1 0-.2-.1-.1-.2 2.2-1.8 2.3-5.3 3.7-7.7.1 0 .2.1.2.1zM279.7 193.3c-.4 4.7-1.9 9.3-3.5 13.7-.1.2-.4.1-.3-.1 1.7-4.5 2.7-9 3.8-13.6-.2-.1 0-.1 0 0zM272.1 203.1c0 4-1 8-1.6 11.9 0 .3-.5.2-.5-.1.7-3.9 1.3-7.9 1.9-11.8 0-.1.2-.1.2 0zM271.9 183.4c-2.8 3.2-5.1 6.6-6.9 10.4-.1.3-.6 0-.5-.3 1.8-3.9 4.1-7.4 7.2-10.4.2-.1.4.1.2.3z" class="st11"/><path d="M262.8 184.1c1.3 3 1.6 6.9 1.8 10.1 0 .3-.4.3-.5 0-.1-1.9-.3-3.7-.6-5.6-.3-1.5-.7-3-.9-4.5 0-.1.2-.1.2 0zM268 195.5c-2.1 3.3-3.4 6.5-4.9 10.1 0 .1-.2 0-.2-.1.5-3.6 2.6-7.4 4.9-10.2.1 0 .2.1.2.2zM262.7 205.8c-.9-2.3-1.7-4.6-3-6.7-.1-.2.2-.3.3-.2 1.3 2 2.5 4.5 2.7 6.9.1 0 0 0 0 0z" class="st11"/></g></g><g id="Layer_7"><g id="XMLID_145_"><path id="XMLID_160_" fill="#f7f7f9" d="M210.8 227.5H109.5V106.7c0-.6.5-1.2 1.2-1.2h98.9c.6 0 1.2.5 1.2 1.2v120.8z"/><path id="XMLID_159_" d="M210.8 120.8v-11.7c0-1.9-1.6-3.5-3.5-3.5H113c-1.9 0-3.5 1.6-3.5 3.5v11.7h101.3z" class="st13"/><path id="XMLID_158_" d="M124.1 127.1h72.7v39.4h-72.7z" class="st14"/><path id="XMLID_157_" fill="#de4437" d="M128.1 158.6h63.3v2.4h-63.3z" opacity=".1"/><path id="XMLID_156_" d="M128.1 158.6h35.6v2.4h-35.6z" class="st16"/><path id="XMLID_155_" d="M193.7 174.6h-66.6c-1.7 0-3 1.4-3 3 0 1.7 1.4 3 3 3h66.6c1.7 0 3-1.4 3-3 .1-1.6-1.3-3-3-3z" class="st17"/><path id="XMLID_154_" d="M194 187.6h-66.6c-1.7 0-3 1.4-3 3 0 1.7 1.4 3 3 3H194c1.7 0 3-1.4 3-3 0-1.7-1.4-3-3-3z" class="st17"/><path id="XMLID_153_" d="M194.2 200.6h-66.6c-1.7 0-3 1.4-3 3 0 1.7 1.4 3 3 3h66.6c1.7 0 3-1.4 3-3 0-1.7-1.3-3-3-3z" class="st17"/><path id="XMLID_152_" d="M194.4 213.6h-66.6c-1.7 0-3 1.4-3 3 0 1.7 1.4 3 3 3h66.6c1.7 0 3-1.4 3-3 .1-1.7-1.3-3-3-3z" class="st17"/><path id="XMLID_151_" d="M121.4 113.1c0 1.1-.9 2-2 2s-2-.9-2-2 .9-2 2-2 2 .9 2 2z" class="st18"/><path id="XMLID_150_" d="M128.1 113.1c0 1.1-.9 2-2 2s-2-.9-2-2 .9-2 2-2 2 .9 2 2z" class="st18"/><path id="XMLID_149_" d="M134.9 113.1c0 1.1-.9 2-2 2s-2-.9-2-2 .9-2 2-2 2 .9 2 2z" class="st18"/><path id="XMLID_148_" fill="#414042" d="M207.3 105.5h-4.5c1.9 0 3.5 1.6 3.5 3.5v118.5h4.5V109c0-1.9-1.6-3.5-3.5-3.5z" opacity=".2"/><circle id="XMLID_147_" cx="163.7" cy="159.8" r="2.7" class="st13"/><path id="XMLID_146_" d="M165.2 159.8c0 .8-.7 1.5-1.5 1.5s-1.5-.7-1.5-1.5.7-1.5 1.5-1.5c.9 0 1.5.7 1.5 1.5z" class="st16"/></g><path fill="#ffc107" d="M210.8 109v-2.3c0-.6-.5-1.2-1.2-1.2h-19.8v12.9c0 2.6 2.1 4.6 4.6 4.6h7.8v27.7c0 19.1-6.2 37.6-17.7 52.9v14.9H176.2c-1.2 0-2.2 1-2.2 2.2v4.6c0 1.2 1 2.2 2.2 2.2h34.6V109z" opacity=".3"/><g id="XMLID_136_"><path id="XMLID_144_" d="M187.4 203.6h82.4v20.8h-82.4z" class="st16"/><path id="XMLID_143_" d="M269.8 203.6h-82.4c11.5-15.2 17.7-33.8 17.7-52.9v-32.2H252v32.2c.1 19.1 6.3 37.7 17.8 52.9z" class="st21"/><path id="XMLID_142_" fill="#9496a4" d="M196.3 203.6h11.8v20.8h-11.8z"/><path id="XMLID_141_" fill="#f7c66f" d="M219.9 118.6H214v32.2c0 19.1-6.2 37.6-17.7 52.9h11.8c11.5-15.2 11.8-33.8 11.8-52.9v-32.2z"/><path id="XMLID_140_" fill="#231f20" d="M205.1 118.6H252v8.8h-46.9z" opacity=".3"/><path id="XMLID_139_" d="M249.2 77.5v10.8h-13.5V77.5c0-1-.8-1.9-1.9-1.9h-12c-1 0-1.9.8-1.9 1.9v10.8h-13.5V77.5c0-1-.8-1.9-1.9-1.9h-9.9c-1 0-1.9.8-1.9 1.9v40.8c0 2.6 2.1 4.6 4.6 4.6h60.8c2.6 0 4.6-2.1 4.6-4.6V77.5c0-1-.8-1.9-1.9-1.9h-9.9c-.9.1-1.7.9-1.7 1.9z" class="st21"/><path id="XMLID_138_" fill="#d69d0f" d="M278 227.5h-98.7c-1.2 0-2.2-1-2.2-2.2v-4.5c0-1.2 1-2.2 2.2-2.2H278c1.2 0 2.2 1 2.2 2.2v4.5c0 1.2-1 2.2-2.2 2.2z"/><path id="XMLID_137_" d="M278 218.5h-98.8c-1.2 0-2.2 1-2.2 2.2v2.5h103.2v-2.5c0-1.2-1-2.2-2.2-2.2z" class="st21"/></g><g id="XMLID_5_"><path id="XMLID_8_" d="M168.4 205.6h-44c-.3 0-.5-.2-.5-.5v-10.7c0-.3.2-.5.5-.5h44c.3 0 .5.2.5.5v10.7c0 .3-.3.5-.5.5z" class="st26"/><path d="M168.2 203.9h-43.6c-.2 0-.5 0-.7-.1v1.4c0 .2.2.4.4.4h44.1c.2 0 .4-.2.4-.4v-1.4c-.1 0-.4.1-.6.1z" class="st27"/><path id="XMLID_7_" d="M147.4 193.9h10.7v11.7h-10.7z" class="st28"/><path id="XMLID_6_" d="M160.1 193.9h2.8v11.7h-2.8z" class="st28"/></g><g id="XMLID_1_"><path id="XMLID_4_" d="M165.8 216.5h-44c-.3 0-.5-.2-.5-.5v-10.7c0-.3.2-.5.5-.5h44c.3 0 .5.2.5.5V216c0 .3-.3.5-.5.5z" class="st26"/><path d="M165.6 214.8H122c-.2 0-.5 0-.7-.1v1.4c0 .2.2.4.4.4h44.1c.2 0 .4-.2.4-.4v-1.4c-.1.1-.4.1-.6.1z" class="st27"/><path id="XMLID_3_" d="M144.8 204.9h10.7v11.7h-10.7z" class="st28"/><path id="XMLID_2_" d="M157.5 204.8h2.8v11.7h-2.8z" class="st28"/></g><g id="XMLID_810_"><path id="XMLID_814_" d="M163.6 227.5h-44c-.3 0-.5-.2-.5-.5v-10.7c0-.3.2-.5.5-.5h44c.3 0 .5.2.5.5V227c0 .3-.2.5-.5.5z" class="st26"/><path d="M163.4 225.8h-43.6c-.2 0-.5 0-.7-.1v1.4c0 .2.2.4.4.4h44.1c.2 0 .4-.2.4-.4v-1.4c-.1 0-.3.1-.6.1z" class="st27"/><path id="XMLID_812_" d="M142.7 215.8h10.7v11.7h-10.7z" class="st28"/><path id="XMLID_811_" d="M155.3 215.8h2.8v11.7h-2.8z" class="st28"/></g><path id="XMLID_135_" d="M171.8 144.4l-12 6.9c-.8.5-1.8-.1-1.8-1.1v-13.9c0-.9 1-1.5 1.8-1.1l12 6.9c.9.7.9 1.8 0 2.3z" class="st13"/><path d="M108.5 101.8c-11.6 0-21 9.4-21 21s9.4 21 21 21 21-9.4 21-21-9.4-21-21-21z" class="st29"/><g id="XMLID_126_"><path id="XMLID_134_" d="M126.5 122.8c0 11.6-9.4 21-21 21s-21-9.4-21-21 9.4-21 21-21 21 9.4 21 21z" class="st26"/><path id="XMLID_133_" d="M124.2 122.8c0 10.3-8.4 18.7-18.7 18.7s-18.7-8.4-18.7-18.7 8.4-18.7 18.7-18.7 18.7 8.4 18.7 18.7z" class="st6"/><path id="XMLID_132_" d="M122 122.8c0 9.1-7.4 16.5-16.5 16.5S89 131.9 89 122.8s7.4-16.5 16.5-16.5 16.5 7.4 16.5 16.5z" class="st26"/><g id="XMLID_127_"><g id="XMLID_130_"><path id="XMLID_131_" d="M107.6 131.3h-6.1c-1.4 0-2.6-1.1-2.6-2.6v-1.3h3.6v.2h5c1 0 1.8-.8 1.8-1.8 0-.6-.5-1.1-1.1-1.1h-4.5c-2.6 0-4.8-2.1-4.8-4.8v-.7c0-3 2.4-5.4 5.4-5.4h6.1c1.4 0 2.6 1.1 2.6 2.6v1.5h-3.6v-.4h-5c-1 0-1.8.8-1.8 1.8v.7c0 .6.5 1.1 1.1 1.1h4.5c2.6 0 4.8 2.1 4.8 4.8 0 2.9-2.4 5.4-5.4 5.4z" class="st11"/></g><g id="XMLID_128_"><path id="XMLID_129_" d="M104.2 112.1h3.6v21.4h-3.6z" class="st11"/></g></g></g><path d="M164.1 227v-10.5h1.6c.2 0 .4-.2.4-.4v-10.5h2.1c.2 0 .4-.2.4-.4V197.9h-9.1c-.2 0-.4.2-.4.4v2.1c0 .3.2.5.5.5h.4v7.2c0 .1 0 .2.1.4.1.3.3.6.5.8l.2.2 3 2.3c.4.3.4.8 0 1.1l-3 2.3c-.4.3-.7.9-.7 1.4v7.7h-.4c-.3 0-.5.2-.5.5v2.1c0 .2.2.4.4.4h3.8c.5.2.7 0 .7-.3z" class="st29"/><g id="XMLID_12_"><g id="XMLID_95_"><path id="XMLID_125_" fill="#fdfdfe" d="M203.2 227.5h-25.9c-3.1 0-5.6-2.5-5.6-5.6V196c0-3.1 2.5-5.6 5.6-5.6h25.9c3.1 0 5.6 2.5 5.6 5.6v25.9c0 3.1-2.5 5.6-5.6 5.6z"/><path id="XMLID_124_" d="M203.4 190.3h-26.3c-3 0-5.5 2.4-5.5 5.5v5.7h37.2v-5.7c0-3.1-2.4-5.5-5.4-5.5z" class="st13"/><g id="XMLID_121_"><path id="XMLID_123_" d="M197.2 195.5c0 1.6-1.3 2.8-2.8 2.8-1.6 0-2.8-1.3-2.8-2.8 0-1.6 1.3-2.8 2.8-2.8 1.6 0 2.8 1.3 2.8 2.8z" class="st31"/><path id="XMLID_122_" d="M196.3 195.5c0 1.1-.9 1.9-1.9 1.9-1.1 0-1.9-.9-1.9-1.9 0-1.1.9-1.9 1.9-1.9 1.1 0 1.9.9 1.9 1.9z" class="st32"/></g><g id="XMLID_118_"><path id="XMLID_120_" d="M180.1 195.5c0 1.6-1.3 2.8-2.8 2.8-1.6 0-2.8-1.3-2.8-2.8 0-1.6 1.3-2.8 2.8-2.8s2.8 1.3 2.8 2.8z" class="st31"/><path id="XMLID_119_" d="M179.2 195.5c0 1.1-.9 1.9-1.9 1.9-1.1 0-1.9-.9-1.9-1.9 0-1.1.9-1.9 1.9-1.9s1.9.9 1.9 1.9z" class="st32"/></g><g id="XMLID_116_"><path id="XMLID_117_" d="M194.3 196.2c-.8 0-1.5-.7-1.5-1.5v-5.1c0-2.7 2-5.1 4.6-5.3 3.1-.3 5.6 2.1 5.6 5.1v.9h-3v-.8c0-1.1-.8-2.1-1.9-2.2-1.3-.1-2.3.9-2.3 2.1v5.4c0 .7-.6 1.4-1.5 1.4z" class="st11"/></g><g id="XMLID_114_"><path id="XMLID_115_" d="M177.2 196.2c-.8 0-1.5-.7-1.5-1.5v-5.1c0-2.7 2-5.1 4.6-5.3 3.1-.3 5.6 2.1 5.6 5.1v.9h-3v-.8c0-1.1-.8-2.1-1.9-2.2-1.3-.1-2.3.9-2.3 2.1v5.4c0 .7-.7 1.4-1.5 1.4z" class="st11"/></g><path id="XMLID_113_" fill="#8c98a4" d="M203.4 190.3h-2.8c3 0 5.5 2.4 5.5 5.5v26.3c0 3-2.4 5.5-5.5 5.5h2.7c3 0 5.5-2.4 5.5-5.5v-26.3c0-3.1-2.4-5.5-5.4-5.5z" opacity=".3"/><path id="XMLID_112_" d="M190.5 207.9h-2.8c-.3 0-.5-.2-.5-.5v-2.8c0-.3.2-.5.5-.5h2.8c.3 0 .5.2.5.5v2.8c0 .3-.2.5-.5.5z" class="st14"/><path id="XMLID_111_" d="M196.6 207.9h-2.8c-.3 0-.5-.2-.5-.5v-2.8c0-.3.2-.5.5-.5h2.8c.3 0 .5.2.5.5v2.8c0 .3-.2.5-.5.5z" class="st14"/><path id="XMLID_110_" d="M202.7 207.9h-2.8c-.3 0-.5-.2-.5-.5v-2.8c0-.3.2-.5.5-.5h2.8c.3 0 .5.2.5.5v2.8c0 .3-.2.5-.5.5z" class="st14"/><path id="XMLID_109_" d="M178.3 213.4h-2.8c-.3 0-.5-.2-.5-.5v-2.8c0-.3.2-.5.5-.5h2.8c.3 0 .5.2.5.5v2.8c0 .3-.2.5-.5.5z" class="st14"/><path id="XMLID_107_" d="M184.4 213.4h-2.8c-.3 0-.5-.2-.5-.5v-2.8c0-.3.2-.5.5-.5h2.8c.3 0 .5.2.5.5v2.8c0 .3-.2.5-.5.5z" class="st14"/><path id="XMLID_106_" d="M190.5 213.4h-2.8c-.3 0-.5-.2-.5-.5v-2.8c0-.3.2-.5.5-.5h2.8c.3 0 .5.2.5.5v2.8c0 .3-.2.5-.5.5z" class="st14"/><path id="XMLID_105_" d="M196.6 213.4h-2.8c-.3 0-.5-.2-.5-.5v-2.8c0-.3.2-.5.5-.5h2.8c.3 0 .5.2.5.5v2.8c0 .3-.2.5-.5.5z" class="st14"/><path id="XMLID_104_" d="M202.7 213.4h-2.8c-.3 0-.5-.2-.5-.5v-2.8c0-.3.2-.5.5-.5h2.8c.3 0 .5.2.5.5v2.8c0 .3-.2.5-.5.5z" class="st14"/><path id="XMLID_103_" d="M178.3 218.9h-2.8c-.3 0-.5-.2-.5-.5v-2.8c0-.3.2-.5.5-.5h2.8c.3 0 .5.2.5.5v2.8c0 .3-.2.5-.5.5z" class="st14"/><path id="XMLID_102_" d="M184.4 218.9h-2.8c-.3 0-.5-.2-.5-.5v-2.8c0-.3.2-.5.5-.5h2.8c.3 0 .5.2.5.5v2.8c0 .3-.2.5-.5.5z" class="st14"/><path id="XMLID_101_" d="M190.5 218.9h-2.8c-.3 0-.5-.2-.5-.5v-2.8c0-.3.2-.5.5-.5h2.8c.3 0 .5.2.5.5v2.8c0 .3-.2.5-.5.5z" class="st14"/><path id="XMLID_100_" d="M196.6 218.9h-2.8c-.3 0-.5-.2-.5-.5v-2.8c0-.3.2-.5.5-.5h2.8c.3 0 .5.2.5.5v2.8c0 .3-.2.5-.5.5z" class="st14"/><path id="XMLID_99_" d="M202.7 218.9h-2.8c-.3 0-.5-.2-.5-.5v-2.8c0-.3.2-.5.5-.5h2.8c.3 0 .5.2.5.5v2.8c0 .3-.2.5-.5.5z" class="st14"/><path id="XMLID_98_" d="M178.3 224.4h-2.8c-.3 0-.5-.2-.5-.5v-2.8c0-.3.2-.5.5-.5h2.8c.3 0 .5.2.5.5v2.8c0 .3-.2.5-.5.5z" class="st14"/><path id="XMLID_97_" d="M184.4 224.4h-2.8c-.3 0-.5-.2-.5-.5v-2.8c0-.3.2-.5.5-.5h2.8c.3 0 .5.2.5.5v2.8c0 .3-.2.5-.5.5z" class="st14"/><path id="XMLID_96_" d="M190.5 224.4h-2.8c-.3 0-.5-.2-.5-.5v-2.8c0-.3.2-.5.5-.5h2.8c.3 0 .5.2.5.5v2.8c0 .3-.2.5-.5.5z" class="st14"/></g><g id="XMLID_93_" class="st34"><path id="XMLID_94_" d="M178.4 227.1v-2c0-.3-.3-.6-.6-.6h-.2v-7.7c0-.4-.2-.8-.4-1.1l-.3-.3-3-2.3c-.1-.1-.2-.2-.2-.3s-.1-.2-.1-.3c0-.2.1-.4.3-.5l3-2.3.3-.3c.1-.1.2-.2.2-.4.1-.3.2-.5.2-.8V201h.2c.3 0 .6-.3.6-.6V198.4c0-.2-.2-.4-.4-.4h-6.4v24.5c0 2.8 2.3 5.1 5.1 5.1h1.3c.2-.1.4-.3.4-.5z" class="st35"/></g><g id="XMLID_13_"><g id="XMLID_33_"><g id="XMLID_91_"><path id="XMLID_92_" fill="#fbfcfd" d="M162.8 225.6v-8.9c0-.5.3-1.1.7-1.4l3-2.3c.4-.3.4-.8 0-1.1l-3-2.3c-.4-.3-.7-.9-.7-1.4v-8.5h13.5v8.5c0 .5-.3 1.1-.7 1.4l-3 2.3c-.4.3-.4.8 0 1.1l3 2.3c.4.3.7.9.7 1.4v8.9h-13.5z"/></g><g id="XMLID_89_"><path id="XMLID_90_" fill="#eceff6" d="M165 215.3l3-2.3c.4-.3.4-.8 0-1.1l-3-2.3c-.4-.3-.7-.9-.7-1.4v-8.5h-1.5v8.5c0 .5.3 1.1.7 1.4l3 2.3c.4.3.4.8 0 1.1l-3 2.3c-.4.3-.7.9-.7 1.4v8.9h1.5v-8.9c0-.4.3-1.1.7-1.4z"/></g><g id="XMLID_87_" opacity=".39"><path id="XMLID_88_" fill="#f9fafc" d="M175.6 209.6c.4-.3.7-.9.7-1.4v-8.5h-1.8v8.5c0 .5-.3 1.1-.7 1.4l-3 2.3c-.4.3-.4.8 0 1.1l3 2.3c.4.3.7.9.7 1.4v8.9h1.8v-8.9c0-.5-.3-1.1-.7-1.4l-3-2.3c-.4-.3-.4-.8 0-1.1l3-2.3z"/></g><g id="XMLID_85_"><path id="XMLID_86_" d="M164.3 224.7h10.3v-4c0-.8-.5-1.6-1.2-2l-3-1.5c-.7-.4-1.5-.3-2.2 0l-2.7 1.5c-.7.4-1.2 1.2-1.2 2v4z" class="st26"/></g><g id="XMLID_83_" class="st34"><path id="XMLID_84_" d="M162.8 199.7h13.5v2.2h-13.5z" class="st35"/></g><g id="XMLID_81_"><path id="XMLID_82_" d="M176.6 200.9h-14.2c-.3 0-.5-.2-.5-.5v-2c0-.3.2-.5.5-.5h14.2c.3 0 .5.2.5.5v2c0 .3-.2.5-.5.5z" class="st40"/></g><g id="XMLID_79_"><path id="XMLID_80_" fill="#797ba5" d="M176.7 197.8h-14.5c-.2 0-.4.2-.4.4v.6H177v-.6c.1-.2-.1-.4-.3-.4z"/></g><g id="XMLID_42_" class="st34"><path id="XMLID_43_" d="M162.8 223.5h13.5v2h-13.5z" class="st35"/></g><g id="XMLID_40_"><path id="XMLID_41_" d="M176.7 227.5h-14.2c-.3 0-.5-.2-.5-.5v-2c0-.3.2-.5.5-.5h14.2c.3 0 .5.2.5.5v2c0 .3-.3.5-.5.5z" class="st40"/></g><g id="XMLID_38_"><path id="XMLID_39_" fill="#41446b" d="M161.9 226.5v.6c0 .2.2.4.4.4h14.5c.2 0 .4-.2.4-.4v-.6h-15.3z"/></g><g id="XMLID_36_"><path id="XMLID_37_" d="M169.4 215h-.3c-.3 0-.5-.2-.5-.5v-1c0-.3.2-.5.5-.5h.3c.3 0 .5.2.5.5v1c0 .3-.2.5-.5.5z" class="st26"/></g><g id="XMLID_34_"><path id="XMLID_35_" d="M169.4 207.3c-2 0-3.8-.8-5.1-2.2v2c0 .9.5 1.7 1.2 2.1l2.5 1.4c.3.2.5.5.5.9v.6c0 .3.3.6.6.6s.6-.3.6-.6v-.6c0-.4.2-.8.6-.9l2.8-1.4c.8-.4 1.3-1.3 1.3-2.2v-2.1c-1.1 1.5-2.9 2.4-5 2.4z" class="st26"/></g></g><g id="XMLID_14_"><g id="XMLID_31_"><path id="XMLID_32_" d="M183.2 212.2h-.8c-.2 0-.4-.2-.4-.4s.2-.4.4-.4h.8c.2 0 .4.2.4.4s-.1.4-.4.4z" class="st31"/></g><g id="XMLID_29_"><path id="XMLID_30_" d="M183.7 214.9h-.1l-1.6-.4c-.2-.1-.3-.3-.3-.5.1-.2.3-.3.5-.3l1.6.4c.2.1.3.3.3.5-.1.2-.2.3-.4.3z" class="st31"/></g><g id="XMLID_27_"><path id="XMLID_28_" d="M181.9 217.1c-.1 0-.1 0-.2-.1l-.7-.4c-.2-.1-.3-.3-.1-.5.1-.2.3-.3.5-.1l.7.4c.2.1.3.3.1.5 0 .1-.2.2-.3.2z" class="st31"/></g><g id="XMLID_25_"><path id="XMLID_26_" d="M180.9 219.8c-.1 0-.2 0-.3-.1l-1.2-1.2c-.2-.2-.2-.4 0-.6.2-.2.4-.2.6 0l1.2 1.2c.2.2.2.4 0 .6-.1 0-.2.1-.3.1z" class="st31"/></g><g id="XMLID_23_"><path id="XMLID_24_" d="M178.3 220.7c-.1 0-.3-.1-.3-.2l-.4-.7c-.1-.2 0-.4.1-.5.2-.1.4 0 .5.1l.4.7c.1.2 0 .4-.1.5-.1.1-.1.1-.2.1z" class="st31"/></g><g id="XMLID_21_"><path id="XMLID_22_" d="M177.9 204.3c-.1 0-.1 0-.2-.1-.2-.1-.3-.3-.1-.5l.4-.7c.1-.2.3-.3.5-.1.2.1.3.3.1.5l-.4.7c-.1.2-.2.2-.3.2z" class="st31"/></g><g id="XMLID_19_"><path id="XMLID_20_" d="M179.8 205.8c-.1 0-.2 0-.3-.1-.2-.2-.2-.4 0-.6l1.2-1.2c.2-.2.4-.2.6 0s.2.4 0 .6l-1.2 1.2c-.1 0-.2.1-.3.1z" class="st31"/></g><g id="XMLID_17_"><path id="XMLID_18_" d="M181.2 207.6c-.1 0-.3-.1-.3-.2-.1-.2 0-.4.1-.5l.7-.4c.2-.1.4 0 .5.1.1.2 0 .4-.1.5l-.7.4c-.1.1-.1.1-.2.1z" class="st31"/></g><g id="XMLID_15_"><path id="XMLID_16_" d="M182.1 209.8c-.2 0-.3-.1-.4-.3s.1-.4.3-.5l1.6-.4c.2-.1.4.1.5.3s-.1.4-.3.5l-1.6.4h-.1z" class="st31"/></g></g></g></g></g><g id="Layer_8"><path d="M293.5 121.4h7.5v12.3h-7.5z" class="st43" transform="rotate(-41.306 297.27 127.57)"/><path d="M300.1 125l-3.7 7.1-6-6.7 5.6-5z" class="st29"/><path d="M299.6 124.4l-7.2 6.3c-2.2 1.9-5.6 1.7-7.5-.5l-2.4-2.8-1.7.9-.5-5.5c-1.8-.1-3.4-1.1-4.3-2.7l1.3-1.5 5.8-5.1c2.2-1.9 5.5-1.7 7.4.5l9.1 10.4z" class="st44"/><path d="M322.4 212.4l1.8 4.3-3.1 5h10.7v-3.9l-3.2-6.1zM382.9 212.1l3.2 2.9-.5 5.3 8.8-4.4-1.5-3.1-5.1-3.8z" class="st43"/><path d="M325.9 161.3l-19.3 19.4c-.9.9-1.1 2.2-.5 3.3l16.1 31.5 7.8-1.9s-7.2-23.5-11.1-29.3l23.8-15.3-16.8-7.7z" class="st45"/><path d="M325.9 161.3l-3.1 3.2-2 18.6 21.8-14.1z" class="st29"/><path d="M341.1 150.5s7.2 2 10.2 6.9l4 9.5 15.5 19.1s9.6 4.8 19.9 23.3l-6.4 5.7-20.5-20.5-26.4-22.6-10.7-6.2 14.4-15.2z" class="st45"/><path d="M298.3 131.2l-14 7-25.7 1-3.8-5-3-10.2c-.6 1-.9 2.1-.8 3.3l.7 5.5 1 6.3 2.5 4.1 30.5 2 13.6-5-1-9z" class="st43"/><path d="M327.1 165.3c1 .9 1.6 1.4 1.6 1.5 10.2-.9 14.3-10.4 15.7-15-1.9-.9-3.4-1.3-3.4-1.3l-13.9 14.8z" class="st29"/><path d="M300.9 125.8s6.7-2.7 12.3 1.3c0 0 21.8 20.5 29.3 22.2 0 0-2.8 16.3-16.3 17.5 0 0-5-5-14.5-10.3 0 0-12.8-6.2-16.7-22.3l5.9-8.4z" class="st16"/><path d="M331 219l-1.6 1.7-4.7.1-2.5-3-4.4 4.6-9.7.7v2.4l1.8 1.5h22.9v-8.1zM385.8 216.1l-1.7 4.5-2.1 2.4-4.3 1.6v2.1l2.4.8h9l8-8.8-4-6.3-1.2 1v1.8l-2.8 2.3z" class="st26"/><path d="M285.6 145.3l10.2-3.8-2.4-6.1-7.7 2.1-1.4.7-25.7 1-.8-1h-2.2l-3.8-5-.2-.9v.5l1 6.4 2.1 3.4 12.9 1.5zM304.5 131.8l-9.1 3.6c1.3 4.8 3.4 8.6 5.6 11.7l6.9-7.9c2.4-1 2.6-2.2 1.7-4.6h1c-.9-2.6-3.7-3.8-6.1-2.8z" class="st29"/><path d="M308 139.6l-11.5 4.5-3.5-8.8 11.5-4.5c2.4-1 5.2.2 6.1 2.7 1 2.4-.2 5.1-2.6 6.1z" class="st16"/><path d="M293.4 136.4l-10.3 2.8h-27.5l-3.8-5-3-10.2c-.6 1-.9 2.1-.8 3.3l.7 5.5.9 5.9c0 .3.2.6.3.9l2.3 3.7 31.7 3.8 12.3-3.8-2.8-6.9z" class="st43"/><path d="M332.7 225.7l-10.8-4h10.8zM396.6 217.9l-2.8 3-8.2-.2 6.2-2.8 2.9-3z" class="st46"/><linearGradient id="SVGID_1_" x1="274.586" x2="301.212" y1="-20.032" y2="-20.032" gradientTransform="translate(0 136)" gradientUnits="userSpaceOnUse"><stop offset="0" stop-color="#ffc107"/><stop offset="1" stop-color="#dc735c"/></linearGradient><path fill="url(#SVGID_1_)" d="M299.1 116.4c-.2-.2-.4-.5-.5-.7-.7-1-1.2-1.8-1.6-2.9-.2-.6-.4-1.2-.8-1.6-1.3-1.4-3.9-2-5.7-2.4-2.4-.4-4.8-1.9-7.1-1.1-.7.3-1.3.7-2 1.2-1.4 1-2.9 1.9-3.8 3.4-.4.6-.5 1.2-1.1 1.6-.5.4-1.2.6-1.5 1.2-.8 1.2-.3 2.7.1 4 .4 1.2.9 2.5 1.3 3.7.9-.5 1.2-1.5 1.7-2.3.8-1.2 3.7-3.3 5.2-2.7 1 .4 1.3 1.6 2 2.3.8.8 2.1 1.1 2.7 2.1.4.6.5 1.6 1.2 1.8-.3-.1-.4-2.1-.4-2.4 0-.8-.2-1.4-.3-2.2-.1-.5 0-1 .3-1.3.2-.2.5-.2.7-.4.1-.1.2-.2.3-.2.2-.1.5 0 .7.1 1.3.6 1.3 1.7 1.4 3 .2.1.4-.1.6-.2.2-.1.3-.1.5-.1.9-.1 1.8-.2 2.6.4.9.7 1.3 1.5 1.7 2.5.2.4.5.9 1 1.1.2.1.4.1.6.1h1.2c.2 0 .4-.1.5-.2 1.2-.9-.2-2.6 0-3.7.1-.4.3-.7.6-.9-.4-.3-1.2-.4-1.5-.8-.2-.2 0-1.8.3-1.6-.2-.1-.5-.3-.7-.4 0-.1-.1-.2-.2-.4z"/></g><g id="Layer_9"><path d="M90.2 137.2l14 6.6c.4 0 .9.1 1.3.1 1.8 0 3.6-.3 5.2-.7h-.7l-1.5-.1 1.4-1.4c.4-.2.5-.7.3-1.1-.2-.4-.7-.5-1.1-.3l-2.7 1.4-15.7-9.8-4.1-4.6c-.1-.4-.2-.7-.3-.9 0 0-.6-2.8-1.7-6-.1.8-.2 1.6-.2 2.5.1 5.5 2.3 10.6 5.8 14.3.1.1.1 0 0 0z" class="st29"/><path d="M98.5 214.8h3.5v3.9h-3.5z" class="st43"/><path d="M63 213h3.9v3.5H63z" class="st43" transform="rotate(-63.807 64.905 214.797)"/><path d="M72.8 149l5.9 12.8L91 180.4l5.6 35.7h7.2l-2.4-33.7-7.4-24.1-1.8-9.3z" class="st48"/><g class="st34"><path d="M76.4 156.8l16.8-2.6.8 4 .9 2.8c-1.9 4.9-3.8 11.7-4 19.2l-12.3-18.5-2.2-4.9z" class="st11"/></g><path d="M65.7 101.3h7.4v8.6h-7.4z" class="st43"/><path d="M65.6 106.1l7.5-2.7v-2.1h-7.5z" class="st29"/><path d="M74.4 105.6l-10 2.5v1.9s-3.9 5.2-3.7 7.9c.2 2.7 10.5 30 12 31h19.4s-7.8-20.4-8.3-22.6c0 0-2.4-11-6.6-14.3 0 0-1.3-2.1-2.5-2.8.1.1-1.1-1.2-.3-3.6z" class="st49"/><path fill="#272834" d="M73.3 129.2l5.8-7.5-5.3-4.6c-1.8-1.9-4.8-1.9-6.7-.1-1.9 1.8-1.9 4.8-.1 6.7l6.3 5.5z" opacity=".3"/><path d="M74.1 128.3l5.7-7.5-7-5.4c-1.5-1.2-3.7-.9-4.9.7l-1.5 1.9c-1.2 1.5-.9 3.7.7 4.9l7 5.4z" class="st49"/><path d="M86.2 133c.8 2.3 1.8 4.8 2.7 7.2l-4.4-2.1-11.2-9 4.3-5.7 8.6 9.6z" class="st29"/><path d="M104.3 145L86 136.4l-11.2-9 4.3-5.7 9.1 10.2 16.6 10.4-.6.8 3.3.1c1.4.1 5.3-.5 6.8 1.1l-6.7.7h-3.3z" class="st43"/><path d="M72.8 149s-1.2 5.7 0 9.4 2.9 5.9 2.9 5.9L74 182.4l-12.8 30.9 6.9 2.1 15-27 10.8-31-1.7-8.5-19.4.1z" class="st48"/><path d="M62.7 103.2h10.7c1.7 0 3-1.4 3-3v-3.5h2.2c.5-3.6-2.9-6.2-3.4-8-.9-2.8 1.2-3.7 1.2-3.7H62.7v18.2z" class="st44"/><path d="M71.7 147.9h21.4v3H71.7z" class="st51"/><path d="M105.2 143.9l2.2-2.1c.4-.2.5-.7.3-1.1-.2-.4-.7-.5-1.1-.3l-2.9 1.5c-.4.2-.5.7-.3 1.1.3.2 1.4 1.1 1.8.9z" class="st43"/><path d="M97.2 217.5h6.5l2.7 3h5.5c3.5 0 6.7 2 8.3 5.1H97.3l-.1-8.1z" class="st31"/><path d="M98.5 221.5c0 1.1.9 2 2 2s2-.9 2-2-.9-2-2-2-2 .9-2 2z" class="st18"/><path d="M96.4 225.6h24.7v1.9H96.4z" class="st26"/><path d="M61.3 214.4l6 2.5 1.3 3.8 6.5.1c3.2 1.3 4.1 1.4 4.3 4.9H67.3l-9.2-3.9 3.2-7.4z" class="st31"/><path d="M60.8 218.6c-.4 1 .1 2.2 1.1 2.7 1 .4 2.2-.1 2.7-1.1.4-1-.1-2.2-1.1-2.7-1-.4-2.2.1-2.7 1.1z" class="st18"/><path d="M66.3 225.4h13.5v1.9H66.3z" class="st26"/><path d="M61.1 219.5H63v10.1h-1.9z" class="st26" transform="rotate(-66.814 62.014 224.516)"/><path d="M76.5 96.6c-2.2 0-3.4 1.4-4.9 2.1-.7.3-2.2.7-2.6 0-.6-.9-.1-3.1 0-4.1s.3-3.5.7-4.3c.4-.9 1.3-1.9 2.2-2.3.5-.2 1-.3 1.5-.2.8.1 1.1.4 1.9.1.8-.3 1.5-1 2-1.7.3-.4.5-1 .4-1.5-.1-.7-.6-1.2-1.2-1.5-1.4-.8-2.6-.5-4.1 0-.7.2-1.5.3-2-.2-.2-.2-.3-.4-.5-.6-.9-1.1-2.7-1.2-3.7-.3-1 1-1.3 1.7-2.7 2.2-.9.3-2 .7-2.6 1.5-.9 1.4.2 2.1.4 3.4.1.6-.3 1.1-.7 1.6-.6 1-.9 3.7-.7 4.9.1.5.3 1.1.8 1.4 1 .8.9 1.9.9 3.2 0 1-.9 1.5-.9 2.4-.1 1.9 2.8 1.9 3.4.3.8-1.9.1-4.2.2-6.3 0-1.2 1.2-2.6 2.5-1.8.7.5.7 1.3.6 2-.1 1.1-.1 2.2-.1 3.4-.1 1.7-.7 3.9 1.1 5 1.6.9 3 .4 4.7.3.8 0 1.7 0 2.4-.5.9-.6 1.2-1.6 1.6-2.6.2-.7.4-1.4.6-2 .2-.6.4-1.3.4-2-.2-.8-.9-1.9-1.6-1.9z" class="st51"/></g><path id="Layer_12" d="M41.4 227.5h353" class="st5"/></svg>