<?xml version="1.0" encoding="utf-8"?>
<!-- Generator: Adobe Illustrator 22.0.1, SVG Export Plug-In . SVG Version: 6.00 Build 0)  -->
<svg version="1.1" id="Layer_1" xmlns="http://www.w3.org/2000/svg" xmlns:xlink="http://www.w3.org/1999/xlink" x="0px" y="0px"
	 viewBox="0 0 1770 900" style="enable-background:new 0 0 1770 900;" xml:space="preserve">
<style type="text/css">
	.st0{opacity:0.5;fill:none;stroke:url(#SVGID_1_);stroke-miterlimit:10;enable-background:new    ;}
	.st1{opacity:0.5;fill:none;stroke:url(#SVGID_2_);stroke-miterlimit:10;enable-background:new    ;}
	.st2{fill:none;stroke:url(#SVGID_3_);stroke-miterlimit:10;}
	.st3{fill:none;stroke:url(#SVGID_4_);stroke-miterlimit:10;}
	.st4{fill:none;stroke:url(#SVGID_5_);stroke-miterlimit:10;}
	.st5{opacity:0.7;fill:none;stroke:url(#SVGID_6_);stroke-miterlimit:10;enable-background:new    ;}
	.st6{fill:none;stroke:url(#SVGID_7_);stroke-miterlimit:10;}
	.st7{fill:url(#SVGID_8_);}
	.st8{clip-path:url(#SVGID_10_);}
	.st9{fill:url(#SVGID_11_);}
	.st10{fill:#000115;}
	.st11{fill:#3A3A3A;}
	.st12{fill:#FFFFFF;}
	.st13{opacity:0.2;fill:#4A7AFF;enable-background:new    ;}
	.st14{opacity:0.1;fill:#4A7AFF;enable-background:new    ;}
	.st15{opacity:0.5;fill:#4A7AFF;enable-background:new    ;}
	.st16{fill:#4A7AFF;}
	.st17{fill:#1A1A1A;fill-opacity:0.84;}
	.st18{fill:#E6E6E6;}
	.st19{fill:#999999;}
	.st20{opacity:0.5;fill:#FFFFFF;enable-background:new    ;}
	.st21{fill:url(#SVGID_12_);}
	.st22{clip-path:url(#SVGID_14_);}
	.st23{fill:url(#SVGID_15_);}
	.st24{fill:#14004E;}
	.st25{fill:#0F2AA3;}
	.st26{fill:url(#SVGID_16_);}
	.st27{fill:#2469FF;}
	.st28{fill:url(#SVGID_17_);}
	.st29{opacity:0.5;fill:#2469FF;enable-background:new    ;}
	.st30{fill:url(#SVGID_18_);}
	.st31{fill:url(#SVGID_19_);}
	.st32{fill:url(#SVGID_20_);}
	.st33{fill:url(#SVGID_21_);}
	.st34{fill:url(#SVGID_22_);}
	.st35{fill:url(#SVGID_23_);}
	.st36{fill:url(#SVGID_24_);}
	.st37{fill:url(#SVGID_25_);}
	.st38{fill:url(#SVGID_26_);}
	.st39{fill:url(#SVGID_27_);}
	.st40{fill:url(#SVGID_28_);}
	.st41{clip-path:url(#SVGID_30_);}
	.st42{fill:url(#SVGID_31_);}
	.st43{fill:#000865;}
	.st44{fill:#0035AE;}
	.st45{fill:url(#SVGID_32_);}
	
		.st46{opacity:0.3;fill:none;stroke:#2469FF;stroke-linecap:round;stroke-miterlimit:10;stroke-dasharray:0,3;enable-background:new    ;}
	.st47{fill:url(#SVGID_33_);}
	.st48{fill:none;stroke:url(#SVGID_34_);stroke-linecap:round;stroke-miterlimit:10;}
	.st49{fill:url(#SVGID_35_);}
	.st50{fill:url(#SVGID_36_);}
	.st51{fill:none;stroke:url(#SVGID_37_);stroke-width:1.49;stroke-miterlimit:10;}
	.st52{fill:url(#SVGID_38_);}
	.st53{fill:none;stroke:url(#SVGID_39_);stroke-miterlimit:10;}
	.st54{fill:none;stroke:url(#SVGID_40_);stroke-miterlimit:10;}
</style>
<linearGradient id="SVGID_1_" gradientUnits="userSpaceOnUse" x1="274.7511" y1="4078.4199" x2="589.2489" y2="4078.4199" gradientTransform="matrix(1 0 0 1 0 -3364)">
	<stop  offset="0" style="stop-color:#08DCCE;stop-opacity:0"/>
	<stop  offset="1" style="stop-color:#08DCCE"/>
</linearGradient>
<path class="st0" d="M589,624.3L275,804.5"/>
<linearGradient id="SVGID_2_" gradientUnits="userSpaceOnUse" x1="675.1825" y1="3684.0049" x2="886.2496" y2="3684.0049" gradientTransform="matrix(1 0 0 1 0 -3364)">
	<stop  offset="0" style="stop-color:#08DCCE;stop-opacity:0"/>
	<stop  offset="1" style="stop-color:#08DCCE"/>
</linearGradient>
<path class="st1" d="M675.4,271.6l159.4,95.8c2.1,1.2,4.6,1.3,6.7,0.1l44.5-25.6"/>
<linearGradient id="SVGID_3_" gradientUnits="userSpaceOnUse" x1="1278.12" y1="3843.2949" x2="1366.64" y2="3843.2949" gradientTransform="matrix(1 0 0 1 0 -3364)">
	<stop  offset="0" style="stop-color:#08DCCE"/>
	<stop  offset="1" style="stop-color:#08DCCE;stop-opacity:0"/>
</linearGradient>
<path class="st2" d="M1278.4,506.1l88-53.6"/>
<linearGradient id="SVGID_4_" gradientUnits="userSpaceOnUse" x1="1188.2047" y1="4060.1519" x2="1507.2444" y2="4060.1519" gradientTransform="matrix(1 0 0 1 0 -3364)">
	<stop  offset="0" style="stop-color:#08DCCE"/>
	<stop  offset="1" style="stop-color:#08DCCE;stop-opacity:0"/>
</linearGradient>
<path class="st3" d="M1188.5,728.3l62.2,36.9c2.3,1.4,5.3,1.5,7.7,0.1L1507,625.9"/>
<linearGradient id="SVGID_5_" gradientUnits="userSpaceOnUse" x1="777.0633" y1="3696.314" x2="1274.7261" y2="3696.314" gradientTransform="matrix(1 0 0 1 0 -3364)">
	<stop  offset="0" style="stop-color:#08DCCE;stop-opacity:0"/>
	<stop  offset="1" style="stop-color:#08DCCE"/>
</linearGradient>
<path class="st4" d="M1198.2,505.8l74.6-45.4c1.4-0.9,1.8-2.7,0.9-4.1c-0.2-0.4-0.6-0.7-0.9-0.9L777.3,158.8"/>
<linearGradient id="SVGID_6_" gradientUnits="userSpaceOnUse" x1="140.7425" y1="4012.675" x2="796.7892" y2="4012.675" gradientTransform="matrix(1 0 0 1 0 -3364)">
	<stop  offset="0" style="stop-color:#08DCCE;stop-opacity:0"/>
	<stop  offset="1" style="stop-color:#08DCCE"/>
</linearGradient>
<path class="st5" d="M141,500.4l491.7,295.4c2.2,1.3,5,1.4,7.3,0.1l156.6-90"/>
<linearGradient id="SVGID_7_" gradientUnits="userSpaceOnUse" x1="287.1924" y1="3904.521" x2="567.2593" y2="3904.521" gradientTransform="matrix(1 0 0 1 0 -3364)">
	<stop  offset="0" style="stop-color:#08DCCE;stop-opacity:0"/>
	<stop  offset="1" style="stop-color:#08DCCE"/>
</linearGradient>
<path class="st6" d="M287.5,484.6l184,110.6c2.4,1.4,5.3,1.5,7.8,0.1l87.8-50.5"/>
<image style="overflow:visible;enable-background:new    ;" width="994" height="619" xlink:href="56B88B23.png"  transform="matrix(0.9616 0 0 0.9616 523.3292 466.49)">
</image>
<linearGradient id="SVGID_8_" gradientUnits="userSpaceOnUse" x1="996.085" y1="3970.53" x2="996.085" y2="4179.3604" gradientTransform="matrix(1 0 0 1 0 -3364)">
	<stop  offset="0" style="stop-color:#08DCCE;stop-opacity:0.3"/>
	<stop  offset="1" style="stop-color:#08DCCE;stop-opacity:0"/>
</linearGradient>
<path class="st7" d="M548.5,605.4h895.2v210.1H548.5V605.4z"/>
<g id="Layer_2">
</g>
<g>
	<defs>
		<path id="SVGID_9_" d="M1053.8,372.1l-54.1-31.3c-2.2-1.2-4.9-1.2-7.1,0L551,595.6c-1.6,0.9-2.6,2.6-2.6,4.4v5.5
			c0,2.4,1.3,4.6,3.3,5.8l54.3,31.4v0.3l386.2,222.7c2.3,1.3,5.2,1.3,7.5,0L1440,611.5c2.2-1.3,3.5-3.6,3.5-6.1v-5.3
			c0-1.8-1-3.5-2.6-4.4L1053.8,372.1z M606.2,630.4l0.5,0.3h-0.5V630.4z"/>
	</defs>
	<clipPath id="SVGID_10_">
		<use xlink:href="#SVGID_9_"  style="overflow:visible;"/>
	</clipPath>
	<g class="st8">
		
			<linearGradient id="SVGID_11_" gradientUnits="userSpaceOnUse" x1="-715.7634" y1="2977.4312" x2="-688.0967" y2="2993.4312" gradientTransform="matrix(1 0 0 1 0 -3364)">
			<stop  offset="0" style="stop-color:#B2CEFF"/>
			<stop  offset="0.53" style="stop-color:#CBD8FF"/>
			<stop  offset="1" style="stop-color:#E4EAFF"/>
		</linearGradient>
		<path class="st9" d="M606.2,643.1l386.2,222.7c2.3,1.3,5.2,1.3,7.5,0l440.3-254.3c2.2-1.3,3.5-3.6,3.5-6.1v-8.2l-837.5,33.6
			L606.2,643.1z"/>
		<path class="st10" d="M548.5,597.1v8.2c0,2.5,1.3,4.9,3.5,6.1l54.1,31.3v-12.3L548.5,597.1z"/>
		<path class="st11" d="M992.5,340.8l-444,256.4l57.7,33.3l447.5-258.4l-54.1-31.3C997.4,339.4,994.7,339.4,992.5,340.8L992.5,340.8
			z"/>
		<path class="st12" d="M1443.7,597.1l-389.9-225.1L606.2,630.4l386.2,222.9c2.3,1.3,5.2,1.3,7.5,0L1443.7,597.1z"/>
		<path class="st13" d="M871,737.5l8.1,4.7l8.1-4.7l-8.1-4.7L871,737.5z M920.3,721.6c2.1,5.5-2.8,10.6-10.8,11.4
			s-16.3-3.2-18.3-8.7s2.8-10.6,10.8-11.4S918.2,716,920.3,721.6z"/>
		<path class="st14" d="M1119.3,597.6l3.7,2.3c0.3,0.2,0.6,0.2,0.9,0L1149,585c0.4-0.2,0.5-0.7,0.3-1.1c-0.1-0.1-0.2-0.3-0.3-0.3
			l-3.7-2.3c-0.3-0.2-0.6-0.2-0.9,0l-25.2,14.9c-0.4,0.3-0.5,0.8-0.2,1.2C1119.1,597.5,1119.2,597.6,1119.3,597.6z M1047.9,638.7
			l3.7,2.3c0.3,0.2,0.6,0.2,0.9,0l43.5-25.8c0.4-0.2,0.5-0.7,0.3-1.1c-0.1-0.1-0.2-0.3-0.3-0.3l-3.7-2.3c-0.3-0.2-0.6-0.2-0.9,0
			l-43.5,25.8c-0.4,0.3-0.5,0.8-0.3,1.2C1047.8,638.5,1047.8,638.6,1047.9,638.7z"/>
		<path class="st15" d="M1196.1,553.1l3.7,2.3c0.3,0.2,0.6,0.2,0.9,0l25.2-14.9c0.4-0.2,0.5-0.7,0.3-1.1c-0.1-0.1-0.2-0.3-0.3-0.3
			l-3.7-2.3c-0.3-0.2-0.6-0.2-0.9,0l-25.2,14.9c-0.4,0.3-0.5,0.9-0.2,1.3C1196,553,1196,553.1,1196.1,553.1z M923.8,710.3l3.7,2.3
			c0.3,0.2,0.6,0.2,0.9,0l69.2-40.2c0.4-0.3,0.6-0.8,0.3-1.2c-0.1-0.1-0.2-0.2-0.3-0.3l-3.7-2.3c-0.3-0.2-0.6-0.2-0.9,0l-69.2,40.2
			c-0.4,0.3-0.6,0.8-0.3,1.2C923.6,710.1,923.7,710.2,923.8,710.3z"/>
		<path class="st13" d="M966.7,793l8.1,4.7l8.1-4.7l-8.1-4.7L966.7,793z M1016.2,777.1c2.1,5.5-2.8,10.6-10.8,11.4
			s-16.3-3.2-18.3-8.7s2.8-10.6,10.8-11.4S1014.1,771.5,1016.2,777.1z"/>
		<path class="st14" d="M1215.2,653l3.7,2.3c0.3,0.2,0.6,0.2,0.9,0l25.2-14.9c0.4-0.2,0.5-0.7,0.3-1.1c-0.1-0.1-0.2-0.3-0.3-0.3
			l-3.7-2.3c-0.3-0.2-0.6-0.2-0.9,0l-25.2,14.9c-0.4,0.2-0.5,0.7-0.3,1.1C1214.9,652.8,1215,652.9,1215.2,653z M1143.8,694.1
			l3.7,2.3c0.3,0.2,0.6,0.2,0.9,0l43.5-25.8c0.4-0.2,0.5-0.7,0.3-1.1c-0.1-0.1-0.2-0.3-0.3-0.3l-3.7-2.3c-0.3-0.2-0.6-0.2-0.9,0
			l-43.5,25.8c-0.4,0.2-0.5,0.7-0.3,1.1C1143.5,693.9,1143.6,694.1,1143.8,694.1z"/>
		<path class="st15" d="M1292,608.5l3.7,2.3c0.3,0.2,0.6,0.2,0.9,0l25.2-14.9c0.4-0.2,0.5-0.7,0.3-1.1c-0.1-0.1-0.2-0.3-0.3-0.3
			l-3.7-2.3c-0.3-0.2-0.6-0.2-0.9,0l-25.2,14.9c-0.4,0.2-0.6,0.7-0.3,1.1C1291.7,608.3,1291.9,608.5,1292,608.5z M1019.5,765.7
			l3.7,2.3c0.3,0.2,0.6,0.2,0.9,0l69.2-40.2c0.4-0.3,0.6-0.8,0.3-1.2c-0.1-0.1-0.2-0.2-0.3-0.3l-3.7-2.3c-0.3-0.2-0.6-0.2-0.9,0
			l-69.2,40.2c-0.4,0.3-0.6,0.8-0.3,1.2C1019.3,765.5,1019.4,765.6,1019.5,765.7z"/>
		<path class="st13" d="M770,679.1l8.1,4.7l8.1-4.7l-8.1-4.7L770,679.1z"/>
		<path class="st16" d="M728.3,596.3l4.4,2.7c0.1,0.1,0.3,0.1,0.5,0l42.4-24.3c0.2-0.1,0.3-0.4,0.2-0.6c0-0.1-0.1-0.2-0.2-0.2
			l-4.4-2.7c-0.1-0.1-0.3-0.1-0.5,0l-42.4,24.3c-0.2,0.2-0.3,0.5-0.1,0.8C728.3,596.2,728.3,596.3,728.3,596.3z"/>
		<path class="st13" d="M785.6,563.5l4.4,2.7c0.1,0.1,0.3,0.1,0.5,0l42.4-24.3c0.2-0.1,0.3-0.4,0.2-0.6c0-0.1-0.1-0.2-0.2-0.2
			l-4.4-2.7c-0.1-0.1-0.3-0.1-0.5,0l-42.4,24.3c-0.2,0.1-0.3,0.4-0.2,0.6C785.4,563.3,785.5,563.4,785.6,563.5z M840.4,531.7
			l4.4,2.7c0.1,0.1,0.3,0.1,0.5,0l42.4-24.3c0.2-0.1,0.3-0.4,0.2-0.6c0-0.1-0.1-0.2-0.2-0.2l-4.4-2.7c-0.1-0.1-0.3-0.1-0.5,0
			l-42.4,24.3c-0.2,0.1-0.3,0.4-0.2,0.6C840.2,531.6,840.3,531.7,840.4,531.7z M895.4,500l4.4,2.7c0.1,0.1,0.3,0.1,0.5,0l42.4-24.3
			c0.2-0.1,0.3-0.4,0.2-0.6c0-0.1-0.1-0.2-0.2-0.2l-4.4-2.7c-0.1-0.1-0.3-0.1-0.5,0l-42.4,24.3C895.1,499.3,895.1,499.9,895.4,500z"
			/>
		<path class="st16" d="M977.9,445.3l14.9,8.7c1.2,0.7,2.6,0.7,3.8,0l39.4-22.6c0.7-0.4,0.9-1.2,0.5-1.8c-0.1-0.2-0.3-0.4-0.5-0.5
			l-14.9-8.7c-1.2-0.7-2.6-0.7-3.8,0l-39.4,22.6c-0.7,0.4-0.8,1.3-0.4,2C977.6,445.1,977.7,445.2,977.9,445.3z"/>
		<g>
			<polygon id="fondo" class="st17" points="667,616.3 694.2,600.5 718.1,617.7 690.9,633.5 			"/>
			<g id="isotipo">
				<polygon id="log" class="st18" points="693.2,622.9 684.6,616.7 678.9,620 687.5,626.2 687.5,626.2 691.3,628.9 702.3,622.5 
					698.5,619.8 				"/>
				<polygon id="dis" class="st19" points="679.8,613.2 674.1,616.5 678,619.4 683.7,616 683.1,615.6 691.6,610.6 701.7,617.9 
					699.4,619.2 703.3,622 711,617.5 707.2,614.7 697.1,607.5 697.1,607.5 693.8,605.1 				"/>
			</g>
		</g>
		<path class="st13" d="M1059.3,412.7c1.8,4.9-2.4,9.4-9.6,10s-14.3-2.8-16.3-7.6s2.4-9.4,9.6-10S1057.4,407.7,1059.3,412.7z
			 M819.4,663.2c2.1,5.5-2.8,10.6-10.8,11.4s-16.3-3.2-18.3-8.7s2.8-10.6,10.8-11.4S817.4,657.7,819.4,663.2z"/>
		<path class="st14" d="M1018.4,539.3l3.7,2.3c0.3,0.2,0.6,0.2,0.9,0l25.2-14.9c0.4-0.2,0.5-0.7,0.3-1.1c-0.1-0.1-0.2-0.3-0.3-0.3
			l-3.7-2.3c-0.3-0.2-0.6-0.2-0.9,0l-25.2,14.9c-0.4,0.3-0.5,0.9-0.2,1.3C1018.3,539.2,1018.3,539.2,1018.4,539.3L1018.4,539.3z
			 M947,580.3l3.7,2.3c0.3,0.2,0.6,0.2,0.9,0l43.5-25.8c0.4-0.2,0.5-0.7,0.3-1.1c-0.1-0.1-0.2-0.3-0.3-0.3l-3.7-2.3
			c-0.3-0.2-0.6-0.2-0.9,0L947,578.9c-0.4,0.3-0.5,0.9-0.2,1.3C946.9,580.2,946.9,580.3,947,580.3z"/>
		<path class="st15" d="M1095.3,494.8l3.7,2.3c0.3,0.2,0.6,0.2,0.9,0l25.1-14.9c0.4-0.2,0.5-0.7,0.3-1.1c-0.1-0.1-0.2-0.3-0.3-0.3
			l-3.7-2.3c-0.3-0.2-0.6-0.2-0.9,0l-25.2,14.9c-0.4,0.2-0.5,0.7-0.3,1.1C1095,494.6,1095.1,494.7,1095.3,494.8L1095.3,494.8z
			 M822.8,652l3.7,2.3c0.3,0.2,0.6,0.2,0.9,0l69.2-40.2c0.4-0.3,0.6-0.8,0.3-1.2c-0.1-0.1-0.2-0.2-0.3-0.3l-3.7-2.3
			c-0.3-0.2-0.6-0.2-0.9,0l-69.2,40.2c-0.4,0.3-0.6,0.8-0.3,1.2C822.6,651.8,822.7,651.9,822.8,652z"/>
		<path class="st13" d="M729.1,655.8l9.3,5.5c0.8,0.5,1.9,0.5,2.7,0l41-23.2c0.5-0.3,0.6-0.8,0.3-1.3c-0.1-0.1-0.2-0.3-0.3-0.3
			l-9.3-5.5c-0.8-0.5-1.9-0.5-2.7,0l-41,23.3c-0.4,0.3-0.6,0.8-0.3,1.2C728.9,655.6,729,655.7,729.1,655.8z"/>
		<path class="st12" d="M658.7,574.5c2.1,5.5-2.8,10.6-10.8,11.4s-16.3-3.2-18.3-8.7s2.8-10.6,10.8-11.4S656.6,568.9,658.7,574.5z"
			/>
		<path class="st20" d="M934.5,405.9l3.7,2.3c0.3,0.2,0.6,0.2,0.9,0l25.2-14.9c0.4-0.2,0.5-0.7,0.3-1.1c-0.1-0.1-0.2-0.3-0.3-0.3
			l-3.7-2.3c-0.3-0.2-0.6-0.2-0.9,0l-25.2,14.9c-0.4,0.2-0.5,0.7-0.3,1.1C934.2,405.7,934.3,405.8,934.5,405.9z M685.8,550.3
			l3.7,2.3c0.3,0.2,0.6,0.2,0.9,0l194.2-112.4c0.4-0.3,0.6-0.8,0.3-1.2c-0.1-0.1-0.2-0.2-0.3-0.3l-3.7-2.3c-0.3-0.2-0.6-0.2-0.9,0
			L685.8,548.7c-0.4,0.3-0.6,0.8-0.3,1.2C685.5,550.1,685.6,550.2,685.8,550.3L685.8,550.3z"/>
		<path class="st13" d="M919.1,765.2l8.1,4.7l8.1-4.7l-8.1-4.7L919.1,765.2z M968.4,749.3c2.1,5.5-2.8,10.6-10.8,11.4
			s-16.3-3.2-18.3-8.7s2.8-10.6,10.8-11.4S966.4,743.8,968.4,749.3z"/>
		<path class="st14" d="M1167.5,625.4l3.7,2.3c0.3,0.2,0.6,0.2,0.9,0l25.2-14.9c0.4-0.2,0.5-0.7,0.3-1.1c-0.1-0.1-0.2-0.3-0.3-0.3
			l-3.7-2.3c-0.3-0.2-0.6-0.2-0.9,0l-25.2,14.9c-0.4,0.2-0.5,0.7-0.3,1.1C1167.3,625.2,1167.4,625.3,1167.5,625.4z M1096.2,666.4
			l3.7,2.3c0.3,0.2,0.6,0.2,0.9,0l43.5-25.8c0.4-0.2,0.5-0.7,0.3-1.1c-0.1-0.1-0.2-0.3-0.3-0.3l-3.7-2.3c-0.3-0.2-0.6-0.2-0.9,0
			l-43.5,25.9c-0.4,0.2-0.5,0.7-0.3,1.1C1095.9,666.2,1096,666.3,1096.2,666.4z"/>
		<path class="st15" d="M1244.3,580.9l3.7,2.3c0.3,0.2,0.6,0.2,0.9,0l25.2-14.9c0.4-0.2,0.5-0.7,0.3-1.1c-0.1-0.1-0.2-0.3-0.3-0.3
			l-3.7-2.3c-0.3-0.2-0.6-0.2-0.9,0l-25.2,14.9c-0.4,0.2-0.5,0.7-0.3,1.1C1244.1,580.7,1244.2,580.8,1244.3,580.9z M971.9,738
			l3.7,2.3c0.3,0.2,0.6,0.2,0.9,0l69.2-40.2c0.4-0.3,0.6-0.8,0.3-1.2c-0.1-0.1-0.2-0.2-0.3-0.3l-3.7-2.3c-0.3-0.2-0.6-0.2-0.9,0
			l-69.2,40.2c-0.4,0.3-0.6,0.8-0.3,1.2C971.7,737.8,971.8,737.9,971.9,738z"/>
		<path class="st13" d="M830.6,714.5l8.4,4.9c1,0.6,2.3,0.6,3.3,0l85.5-47.5c0.6-0.3,0.8-1.1,0.5-1.7c-0.1-0.2-0.3-0.4-0.5-0.5
			l-8.4-4.9c-1-0.6-2.3-0.6-3.3,0l-85.5,47.5c-0.6,0.3-0.8,1.1-0.5,1.7C830.2,714.2,830.4,714.4,830.6,714.5L830.6,714.5z"/>
		<path class="st15" d="M1107.9,551.6l15.3,8.9c1,0.6,2.3,0.6,3.3,0l66.8-38.7c0.6-0.4,0.8-1.2,0.5-1.8c-0.1-0.2-0.3-0.3-0.5-0.5
			l-15.3-8.9c-1-0.6-2.3-0.6-3.3,0l-66.8,38.7c-0.6,0.4-0.8,1.2-0.5,1.8C1107.6,551.3,1107.7,551.5,1107.9,551.6L1107.9,551.6z"/>
	</g>
</g>
<linearGradient id="SVGID_12_" gradientUnits="userSpaceOnUse" x1="1068.785" y1="3683.1599" x2="1068.785" y2="3868.8401" gradientTransform="matrix(1 0 0 1 0 -3364)">
	<stop  offset="0" style="stop-color:#08DCCE;stop-opacity:0.3"/>
	<stop  offset="1" style="stop-color:#08DCCE;stop-opacity:0"/>
</linearGradient>
<path class="st21" d="M1337.7,502H799.9v-182h537.8L1337.7,502L1337.7,502z"/>
<image style="overflow:visible;enable-background:new    ;" width="550" height="349" xlink:href="56B88B21.png"  transform="matrix(0.9617 0 0 0.9617 792.89 338.4854)">
</image>
<g>
	<defs>
		<path id="SVGID_13_" d="M1066.2,156L802.7,306.1c-1.6,0.9-2.6,2.6-2.7,4.5l-0.1,5.6c0,1.9,1,3.7,2.7,4.7l262.3,153
			c2.2,1.2,4.9,1.2,7.1,0l263.2-149.7c1.6-0.9,2.7-2.7,2.7-4.6V314c0-1.9-1-3.6-2.6-4.6L1073.3,156
			C1071.1,154.7,1068.4,154.7,1066.2,156L1066.2,156z"/>
	</defs>
	<clipPath id="SVGID_14_">
		<use xlink:href="#SVGID_13_"  style="overflow:visible;"/>
	</clipPath>
	<g class="st22">
		
			<linearGradient id="SVGID_15_" gradientUnits="userSpaceOnUse" x1="1068.47" y1="3755.9099" x2="802.5" y2="3755.9099" gradientTransform="matrix(1 0 0 1 0 -3364)">
			<stop  offset="0" style="stop-color:#1F2D89"/>
			<stop  offset="1" style="stop-color:#2636AF"/>
		</linearGradient>
		<path class="st23" d="M1068.3,476.1L799.8,319.5v-11.8l269,152.2L1068.3,476.1z"/>
		<path class="st24" d="M1068.3,476.1l0.5-16.3L1307,328.4v12L1068.3,476.1L1068.3,476.1z"/>
		<path class="st25" d="M1307,328.4v12l30.8-17.5v-12L1307,328.4L1307,328.4z"/>
		
			<linearGradient id="SVGID_16_" gradientUnits="userSpaceOnUse" x1="1068.76" y1="727.21" x2="1068.76" y2="442.2" gradientTransform="matrix(1 0 0 -1 0 900)">
			<stop  offset="0" style="stop-color:#1B238A"/>
			<stop  offset="1" style="stop-color:#120F5E"/>
		</linearGradient>
		<path class="st26" d="M1064.8,462.2l-265-154.6l270-153.6l268,157l-265.9,151.3C1069.6,463.4,1067,463.4,1064.8,462.2z"/>
		<path class="st27" d="M1307,328.4l-268.5-156.7l31.3-17.8l268,157L1307,328.4z"/>
		<path class="st12" d="M1076.5,178.8c1.9-0.9,2.6-3.2,1.7-5.1c-0.2-0.4-0.5-0.8-0.9-1.2c-2.1-2.1-5.3-2.6-7.9-1.2
			c-1.9,0.9-2.6,3.2-1.7,5.1c0.2,0.4,0.5,0.8,0.9,1.2C1070.7,179.6,1073.9,180.1,1076.5,178.8z"/>
		
			<linearGradient id="SVGID_17_" gradientUnits="userSpaceOnUse" x1="1072.4949" y1="430.78" x2="1072.4949" y2="229.94" gradientTransform="matrix(1 0 0 1 0 -3364)">
			<stop  offset="0" style="stop-color:#08DCCE"/>
			<stop  offset="1" style="stop-color:#08DCCE;stop-opacity:0"/>
		</linearGradient>
		<path class="st28" d="M1105.7,259.2l-62.2-36.3c-0.3-0.2-0.7-0.2-1,0l-3.3,1.8c-0.5,0.3-0.6,0.9-0.3,1.4c0.1,0.1,0.2,0.3,0.3,0.3
			l62.2,36.3c0.3,0.2,0.7,0.2,1,0l3.3-1.8c0.5-0.3,0.6-0.9,0.3-1.4C1106,259.4,1105.9,259.3,1105.7,259.2z"/>
		<path class="st29" d="M1050.5,243l-3.3,1.8c-0.5,0.3-0.6,0.9-0.3,1.4c0.1,0.1,0.2,0.3,0.3,0.3l19,11.1c0.3,0.2,0.7,0.2,1,0
			l3.3-1.8c0.5-0.3,0.6-0.9,0.3-1.4c-0.1-0.1-0.2-0.3-0.3-0.3l-19-11.1C1051.2,242.8,1050.8,242.8,1050.5,243z"/>
		
			<linearGradient id="SVGID_18_" gradientUnits="userSpaceOnUse" x1="1120.51" y1="430.78" x2="1120.51" y2="229.94" gradientTransform="matrix(1 0 0 1 0 -3364)">
			<stop  offset="0" style="stop-color:#08DCCE"/>
			<stop  offset="1" style="stop-color:#08DCCE;stop-opacity:0"/>
		</linearGradient>
		<path class="st30" d="M1078.2,264.5l80.4,47c0.3,0.2,0.7,0.2,1,0l3.3-1.8c0.5-0.3,0.6-0.9,0.3-1.4c-0.1-0.1-0.2-0.3-0.3-0.3
			l-80.4-47c-0.3-0.2-0.7-0.2-1,0l-3.3,1.8c-0.5,0.3-0.6,0.9-0.3,1.4C1077.9,264.2,1078,264.4,1078.2,264.5z"/>
		<path class="st29" d="M1037.1,250.6l-3.3,1.8c-0.5,0.3-0.6,0.9-0.3,1.4c0.1,0.1,0.2,0.3,0.3,0.3l27.4,16c0.3,0.2,0.7,0.2,1,0
			l3.3-1.8c0.5-0.3,0.6-0.9,0.3-1.4c-0.1-0.1-0.2-0.3-0.3-0.3l-27.4-16C1037.8,250.4,1037.4,250.4,1037.1,250.6z"/>
		
			<linearGradient id="SVGID_19_" gradientUnits="userSpaceOnUse" x1="1091.005" y1="430.78" x2="1091.005" y2="229.94" gradientTransform="matrix(1 0 0 1 0 -3364)">
			<stop  offset="0" style="stop-color:#08DCCE"/>
			<stop  offset="1" style="stop-color:#08DCCE;stop-opacity:0"/>
		</linearGradient>
		<path class="st31" d="M1076.3,273.4l-3.3,1.8c-0.5,0.3-0.6,0.9-0.3,1.4c0.1,0.1,0.2,0.3,0.3,0.3l31.8,18.6c0.3,0.2,0.7,0.2,1,0
			l3.3-1.8c0.5-0.3,0.6-0.9,0.3-1.4c-0.1-0.1-0.2-0.3-0.3-0.3l-31.7-18.6C1077,273.2,1076.6,273.2,1076.3,273.4z"/>
		
			<linearGradient id="SVGID_20_" gradientUnits="userSpaceOnUse" x1="1064.005" y1="430.78" x2="1064.005" y2="229.94" gradientTransform="matrix(1 0 0 1 0 -3364)">
			<stop  offset="0" style="stop-color:#08DCCE"/>
			<stop  offset="1" style="stop-color:#08DCCE;stop-opacity:0"/>
		</linearGradient>
		<path class="st32" d="M1073.4,291.9l3.3-1.8c0.5-0.3,0.6-0.9,0.3-1.4c-0.1-0.1-0.2-0.3-0.3-0.3l-21-12.2c-0.3-0.2-0.7-0.2-1,0
			l-3.3,1.8c-0.5,0.3-0.6,0.9-0.3,1.4c0.1,0.1,0.2,0.3,0.3,0.3l21,12.2C1072.7,292.1,1073.1,292.1,1073.4,291.9z"/>
		<path class="st29" d="M1023.8,258.2l-3.3,1.8c-0.5,0.3-0.6,0.9-0.3,1.4c0.1,0.1,0.2,0.3,0.3,0.3l19,11.1c0.3,0.2,0.7,0.2,1,0
			l3.3-1.8c0.5-0.3,0.6-0.9,0.3-1.4c-0.1-0.1-0.2-0.3-0.3-0.3l-19-11.1C1024.5,258,1024.1,258,1023.8,258.2L1023.8,258.2z
			 M1010.4,265.8l-3.3,1.8c-0.5,0.3-0.6,0.9-0.3,1.4c0.1,0.1,0.2,0.3,0.3,0.3l27.8,16.3c0.3,0.2,0.7,0.2,1,0l3.3-1.8
			c0.5-0.3,0.6-0.9,0.3-1.4c-0.1-0.1-0.2-0.3-0.3-0.3l-27.8-16.3C1011.1,265.6,1010.7,265.6,1010.4,265.8L1010.4,265.8z"/>
		
			<linearGradient id="SVGID_21_" gradientUnits="userSpaceOnUse" x1="1062.3149" y1="430.78" x2="1062.3149" y2="229.94" gradientTransform="matrix(1 0 0 1 0 -3364)">
			<stop  offset="0" style="stop-color:#08DCCE"/>
			<stop  offset="1" style="stop-color:#08DCCE;stop-opacity:0"/>
		</linearGradient>
		<path class="st33" d="M1050,288.9l-3.3,1.8c-0.5,0.3-0.6,0.9-0.3,1.4c0.1,0.1,0.2,0.3,0.3,0.3l26.9,15.7c0.3,0.2,0.7,0.2,1,0
			l3.3-1.8c0.5-0.3,0.6-0.9,0.3-1.4c-0.1-0.1-0.2-0.3-0.3-0.3l-26.9-15.7C1050.7,288.7,1050.3,288.7,1050,288.9z"/>
		<path class="st29" d="M997,273.4l-3.3,1.8c-0.5,0.3-0.6,0.9-0.3,1.4c0.1,0.1,0.2,0.3,0.3,0.3l19,11.1c0.3,0.2,0.7,0.2,1,0l3.3-1.8
			c0.5-0.3,0.6-0.9,0.3-1.4c-0.1-0.1-0.2-0.3-0.3-0.3l-19-11.1C997.7,273.2,997.3,273.2,997,273.4z"/>
		
			<linearGradient id="SVGID_22_" gradientUnits="userSpaceOnUse" x1="1041.65" y1="430.78" x2="1041.65" y2="229.94" gradientTransform="matrix(1 0 0 1 0 -3364)">
			<stop  offset="0" style="stop-color:#08DCCE"/>
			<stop  offset="1" style="stop-color:#08DCCE;stop-opacity:0"/>
		</linearGradient>
		<path class="st34" d="M1027.8,291.4l-3.3,1.8c-0.5,0.3-0.6,0.9-0.3,1.4c0.1,0.1,0.2,0.3,0.3,0.3l29.8,17.4c0.3,0.2,0.7,0.2,1,0
			l3.3-1.8c0.5-0.3,0.6-0.9,0.3-1.4c-0.1-0.1-0.2-0.3-0.3-0.3l-29.8-17.4C1028.5,291.2,1028.2,291.2,1027.8,291.4z"/>
		
			<linearGradient id="SVGID_23_" gradientUnits="userSpaceOnUse" x1="997.5001" y1="430.78" x2="997.5001" y2="229.94" gradientTransform="matrix(1 0 0 1 0 -3364)">
			<stop  offset="0" style="stop-color:#08DCCE"/>
			<stop  offset="1" style="stop-color:#08DCCE;stop-opacity:0"/>
		</linearGradient>
		<path class="st35" d="M950.1,275.5l-3.3,1.8c-0.5,0.3-0.6,0.9-0.3,1.4c0.1,0.1,0.2,0.3,0.3,0.3l97.1,56.6c0.3,0.2,0.7,0.2,1,0
			l3.3-1.8c0.5-0.3,0.6-0.9,0.3-1.4c-0.1-0.1-0.2-0.3-0.3-0.3L951,275.5C950.7,275.5,950.4,275.5,950.1,275.5z"/>
		<path class="st29" d="M949.3,302.4l-3.3,1.8c-0.5,0.3-0.6,0.9-0.3,1.4c0.1,0.1,0.2,0.3,0.3,0.3l27.4,16c0.3,0.2,0.7,0.2,1,0
			l3.3-1.8c0.5-0.3,0.6-0.9,0.3-1.4c-0.1-0.1-0.2-0.3-0.3-0.3l-27.4-16C950,302.2,949.6,302.2,949.3,302.4z"/>
		
			<linearGradient id="SVGID_24_" gradientUnits="userSpaceOnUse" x1="1003.185" y1="430.78" x2="1003.185" y2="229.94" gradientTransform="matrix(1 0 0 1 0 -3364)">
			<stop  offset="0" style="stop-color:#08DCCE"/>
			<stop  offset="1" style="stop-color:#08DCCE;stop-opacity:0"/>
		</linearGradient>
		<path class="st36" d="M988.4,325.2l-3.3,1.8c-0.5,0.3-0.6,0.9-0.3,1.4c0.1,0.1,0.2,0.3,0.3,0.3l31.8,18.6c0.3,0.2,0.7,0.2,1,0
			l3.3-1.8c0.5-0.3,0.6-0.9,0.3-1.4c-0.1-0.1-0.2-0.3-0.3-0.3l-31.8-18.6C989.1,325.1,988.8,325.1,988.4,325.2z"/>
		
			<linearGradient id="SVGID_25_" gradientUnits="userSpaceOnUse" x1="976.095" y1="430.78" x2="976.095" y2="229.94" gradientTransform="matrix(1 0 0 1 0 -3364)">
			<stop  offset="0" style="stop-color:#08DCCE"/>
			<stop  offset="1" style="stop-color:#08DCCE;stop-opacity:0"/>
		</linearGradient>
		<path class="st37" d="M985.5,343.8l3.3-1.8c0.5-0.3,0.6-0.9,0.3-1.4c-0.1-0.1-0.2-0.3-0.3-0.3l-21-12.2c-0.3-0.2-0.7-0.2-1,0
			l-3.3,1.8c-0.5,0.3-0.6,0.9-0.3,1.4c0.1,0.1,0.2,0.3,0.3,0.3l21,12.2C984.8,344,985.2,344,985.5,343.8z"/>
		<path class="st29" d="M935.9,310l-3.3,1.8c-0.5,0.3-0.6,0.9-0.3,1.4c0.1,0.1,0.2,0.3,0.3,0.3l19,11.1c0.3,0.2,0.7,0.2,1,0l3.3-1.8
			c0.5-0.3,0.6-0.9,0.3-1.4c-0.1-0.1-0.2-0.3-0.3-0.3l-19-11.1C936.6,309.8,936.2,309.8,935.9,310z M922.5,317.6l-3.3,1.8
			c-0.5,0.3-0.6,0.9-0.3,1.4c0.1,0.1,0.2,0.3,0.3,0.3l27.8,16.3c0.3,0.2,0.7,0.2,1,0l3.3-1.8c0.5-0.3,0.6-0.9,0.3-1.4
			c-0.1-0.1-0.2-0.3-0.3-0.3l-27.8-16.3C923.2,317.4,922.8,317.4,922.5,317.6z"/>
		
			<linearGradient id="SVGID_26_" gradientUnits="userSpaceOnUse" x1="974.445" y1="430.78" x2="974.445" y2="229.94" gradientTransform="matrix(1 0 0 1 0 -3364)">
			<stop  offset="0" style="stop-color:#08DCCE"/>
			<stop  offset="1" style="stop-color:#08DCCE;stop-opacity:0"/>
		</linearGradient>
		<path class="st38" d="M962.1,340.7l-3.3,1.8c-0.5,0.3-0.6,0.9-0.3,1.4c0.1,0.1,0.2,0.3,0.3,0.3l26.9,15.7c0.3,0.2,0.7,0.2,1,0
			l3.3-1.8c0.5-0.3,0.6-0.9,0.3-1.4c-0.1-0.1-0.2-0.3-0.3-0.3l-26.9-15.7C962.8,340.6,962.5,340.6,962.1,340.7z"/>
		<path class="st29" d="M909.1,325.2l-3.3,1.8c-0.5,0.3-0.6,0.9-0.3,1.4c0.1,0.1,0.2,0.3,0.3,0.3l19,11.1c0.3,0.2,0.7,0.2,1,0
			l3.3-1.8c0.5-0.3,0.6-0.9,0.3-1.4c-0.1-0.1-0.2-0.3-0.3-0.3l-19-11.1C909.8,325.1,909.5,325.1,909.1,325.2z"/>
		
			<linearGradient id="SVGID_27_" gradientUnits="userSpaceOnUse" x1="953.74" y1="430.78" x2="953.74" y2="229.94" gradientTransform="matrix(1 0 0 1 0 -3364)">
			<stop  offset="0" style="stop-color:#08DCCE"/>
			<stop  offset="1" style="stop-color:#08DCCE;stop-opacity:0"/>
		</linearGradient>
		<path class="st39" d="M939.9,343.2l-3.3,1.8c-0.5,0.3-0.6,0.9-0.3,1.4c0.1,0.1,0.2,0.3,0.3,0.3l29.8,17.4c0.3,0.2,0.7,0.2,1,0
			l3.3-1.8c0.5-0.3,0.6-0.9,0.3-1.4c-0.1-0.1-0.2-0.3-0.3-0.3l-29.8-17.4C940.6,343.1,940.3,343.1,939.9,343.2L939.9,343.2z"/>
	</g>
</g>
<image style="overflow:visible;enable-background:new    ;" width="389" height="260" xlink:href="56B88B27.png"  transform="matrix(0.9563 0 0 0.9563 475.0681 528.67)">
</image>
<linearGradient id="SVGID_28_" gradientUnits="userSpaceOnUse" x1="3309.6318" y1="3866.7769" x2="3309.6318" y2="4030.2468" gradientTransform="matrix(-1 0 0 1 3965.8601 -3364)">
	<stop  offset="0" style="stop-color:#08DCCE;stop-opacity:0.3"/>
	<stop  offset="1" style="stop-color:#08DCCE;stop-opacity:0"/>
</linearGradient>
<path class="st40" d="M495,672.3h322.4V485.2L495,508.6V672.3z"/>
<g>
	<defs>
		<path id="SVGID_29_" d="M680.3,402.2L818.2,481c1.1,0.6,1.8,1.8,1.8,3.1l0.1,3.7c0,1.3-0.6,2.5-1.7,3.2L643,593.2
			c-1.8,1-4.1,1-5.9,0l-137.6-78.5c-1.1-0.6-1.8-1.8-1.8-3.1v-3.8c0-1.2,0.7-2.4,1.7-3.1l175-102.4
			C676.2,401.2,678.5,401.1,680.3,402.2L680.3,402.2z"/>
	</defs>
	<clipPath id="SVGID_30_">
		<use xlink:href="#SVGID_29_"  style="overflow:visible;"/>
	</clipPath>
	<g class="st41">
		
			<linearGradient id="SVGID_31_" gradientUnits="userSpaceOnUse" x1="618.8403" y1="3942.9194" x2="496.0502" y2="3872.8096" gradientTransform="matrix(1 0 0 1 0 -3364)">
			<stop  offset="0" style="stop-color:#B2CEFF"/>
			<stop  offset="0.53" style="stop-color:#CBD8FF"/>
			<stop  offset="1" style="stop-color:#E4EAFF"/>
		</linearGradient>
		<path class="st42" d="M640,595v-8l-142.4-81.3v8L640,595L640,595z"/>
		<path class="st43" d="M640,595l180-105V482l-180,96.5L640,595L640,595z"/>
		<path class="st44" d="M640,580.3V595l-19.3-11V576L640,580.3z"/>
		<path class="st12" d="M620.7,576l180-105l-123.5-70.5L497.6,505.7L620.7,576z"/>
		
			<linearGradient id="SVGID_32_" gradientUnits="userSpaceOnUse" x1="638.757" y1="323.518" x2="815.607" y2="426.878" gradientTransform="matrix(1 0 0 -1 0 900)">
			<stop  offset="0" style="stop-color:#001F87"/>
			<stop  offset="1" style="stop-color:#1934B9"/>
		</linearGradient>
		<path class="st45" d="M642.3,585.6L820,481.9l-19.6-11.2L620.6,575.9l16.9,9.7C639,586.4,640.9,586.4,642.3,585.6z"/>
		<path class="st46" d="M764.8,470.9l-144.6,84.8 M735.5,453.9l-144.6,84.8 M706.2,437l-144.5,84.8 M677.1,420.2l-144.6,84.6"/>
		
			<linearGradient id="SVGID_33_" gradientUnits="userSpaceOnUse" x1="665.3784" y1="3821.9951" x2="698.8784" y2="3878.7151" gradientTransform="matrix(1 0 0 1 0 -3364)">
			<stop  offset="0" style="stop-color:#2469FF;stop-opacity:0.4"/>
			<stop  offset="1" style="stop-color:#2469FF;stop-opacity:0"/>
		</linearGradient>
		<path class="st47" d="M621.6,549.1l2.8-8.2c0.6-1.7,2.5-2.6,4.2-2c0.2,0.1,0.3,0.1,0.5,0.2c1.6,0.9,3.6,0.3,4.4-1.3
			c0.1-0.2,0.2-0.4,0.2-0.6l5.4-16.8c0.5-1.7,2.3-2.6,4-2.1c0.3,0.1,0.5,0.2,0.7,0.3l9.5,5.3c1.6,0.9,3.6,0.3,4.5-1.3
			c0.1-0.3,0.3-0.6,0.3-0.9l13.2-67.3c0.4-1.8,2.1-2.9,3.9-2.6c0.3,0.1,0.7,0.2,1,0.4l53,31.6c1,0.6,2.3,0.6,3.3,0l27.8-16.8
			l12.1,7.2l-140.6,82.8L621.6,549.1z"/>
		
			<linearGradient id="SVGID_34_" gradientUnits="userSpaceOnUse" x1="621.09" y1="399.6054" x2="760.89" y2="399.6054" gradientTransform="matrix(1 0 0 -1 0 900)">
			<stop  offset="0" style="stop-color:#2469FF;stop-opacity:0"/>
			<stop  offset="0.43" style="stop-color:#2469FF;stop-opacity:0.6"/>
			<stop  offset="1" style="stop-color:#2469FF;stop-opacity:0"/>
		</linearGradient>
		<path class="st48" d="M621.6,549.1l2.8-8.2c0.6-1.7,2.5-2.6,4.2-2c0.2,0.1,0.3,0.1,0.5,0.2c1.6,0.9,3.6,0.3,4.4-1.3
			c0.1-0.2,0.2-0.4,0.2-0.6l5.4-16.8c0.5-1.7,2.3-2.6,4-2.1c0.3,0.1,0.5,0.2,0.7,0.3l9.5,5.3c1.6,0.9,3.6,0.3,4.5-1.3
			c0.1-0.3,0.3-0.6,0.3-0.9l13.2-67.3c0.4-1.8,2.1-2.9,3.9-2.6c0.3,0.1,0.7,0.2,1,0.4l52,31c1.7,1,3.8,1,5.5,0l26.8-16.1"/>
	</g>
</g>
<linearGradient id="SVGID_35_" gradientUnits="userSpaceOnUse" x1="-871.65" y1="3196.5701" x2="-775.41" y2="3196.5701" gradientTransform="matrix(0 1 -1 0 3868.0901 1262.55)">
	<stop  offset="0" style="stop-color:#2469FF;stop-opacity:0.2"/>
	<stop  offset="1" style="stop-color:#2469FF;stop-opacity:0"/>
</linearGradient>
<circle class="st49" cx="671.5" cy="439" r="48.1"/>
<linearGradient id="SVGID_36_" gradientUnits="userSpaceOnUse" x1="-844.96" y1="3196.5701" x2="-802.6801" y2="3196.5701" gradientTransform="matrix(0 1 -1 0 3868.0901 1262.55)">
	<stop  offset="0" style="stop-color:#2469FF;stop-opacity:0.2"/>
	<stop  offset="1" style="stop-color:#2469FF;stop-opacity:0"/>
</linearGradient>
<circle class="st50" cx="671.5" cy="438.7" r="21.1"/>
<circle class="st27" cx="671.5" cy="439.1" r="3.1"/>
<linearGradient id="SVGID_37_" gradientUnits="userSpaceOnUse" x1="671.04" y1="3716.9299" x2="671.04" y2="3794.1299" gradientTransform="matrix(1 0 0 1 0 -3364)">
	<stop  offset="0" style="stop-color:#2469FF"/>
	<stop  offset="1" style="stop-color:#2469FF;stop-opacity:0"/>
</linearGradient>
<path class="st51" d="M671,430.1v-77.2"/>
<linearGradient id="SVGID_38_" gradientUnits="userSpaceOnUse" x1="670.9" y1="3717.6951" x2="704.08" y2="3717.6951" gradientTransform="matrix(1 0 0 1 0 -3364)">
	<stop  offset="0" style="stop-color:#2469FF"/>
	<stop  offset="1" style="stop-color:#2469FF;stop-opacity:0.2"/>
</linearGradient>
<path class="st52" d="M703.1,358.8h-32c-0.5,0.1-0.9-0.3-1-0.8c0-0.1,0-0.1,0-0.2v-8.1c-0.1-0.5,0.3-0.9,0.8-1c0.1,0,0.1,0,0.2,0h32
	c0.5-0.1,0.9,0.3,1,0.8c0,0.1,0,0.1,0,0.2v8.1C704.1,358.3,703.6,358.8,703.1,358.8z"/>
<linearGradient id="SVGID_39_" gradientUnits="userSpaceOnUse" x1="683.5079" y1="3624.1411" x2="1033.752" y2="3624.1411" gradientTransform="matrix(1 0 0 1 0 -3364)">
	<stop  offset="0" style="stop-color:#08DCCE;stop-opacity:0"/>
	<stop  offset="1" style="stop-color:#08DCCE"/>
</linearGradient>
<path class="st53" d="M1033.5,218.1l-63.4-39c-2.1-1.3-4.8-1.4-6.9-0.1L683.8,342.2"/>
<path class="st12" d="M1034.1,219.1c0.8-0.4,1.1-1.4,0.7-2.3c-0.1-0.2-0.2-0.3-0.3-0.4c-0.9-0.9-2.2-1.1-3.3-0.6
	c-0.8,0.4-1.1,1.4-0.7,2.3c0.1,0.2,0.2,0.3,0.3,0.4C1031.6,219.4,1032.9,219.7,1034.1,219.1z M907.8,214c0.8-0.4,1.1-1.4,0.7-2.3
	c-0.1-0.2-0.2-0.3-0.3-0.4c-0.9-0.9-2.2-1.1-3.3-0.6c-0.8,0.4-1.1,1.4-0.7,2.3c0.1,0.2,0.2,0.3,0.3,0.4
	C905.3,214.3,906.7,214.6,907.8,214z"/>
<linearGradient id="SVGID_40_" gradientUnits="userSpaceOnUse" x1="382.5116" y1="4010.2715" x2="767.1392" y2="4010.2715" gradientTransform="matrix(1 0 0 1 0 -3364)">
	<stop  offset="0" style="stop-color:#08DCCE"/>
	<stop  offset="1" style="stop-color:#08DCCE;stop-opacity:0"/>
</linearGradient>
<path class="st54" d="M510.5,532.5l-125.6,72.1c-1.8,1.1-2.5,3.4-1.4,5.3c0.3,0.5,0.8,1,1.3,1.3l245.3,147.4c3,1.8,6.7,1.8,9.7,0.1
	l127.1-73.1"/>
<path class="st12" d="M511.7,534.3c0.8-0.4,1.1-1.4,0.7-2.3c-0.1-0.2-0.2-0.3-0.3-0.4c-0.9-0.9-2.2-1.1-3.4-0.6
	c-0.8,0.5-1.1,1.5-0.6,2.4c0.1,0.1,0.1,0.2,0.2,0.3C509.2,534.7,510.6,534.9,511.7,534.3z M438.5,576.6c0.8-0.4,1.1-1.4,0.7-2.3
	c-0.1-0.2-0.2-0.3-0.3-0.4c-0.9-0.9-2.2-1.1-3.4-0.6c-0.8,0.5-1.1,1.5-0.6,2.4c0.1,0.1,0.1,0.2,0.2,0.3
	C436,576.9,437.4,577.1,438.5,576.6z M416.8,630.7c0.8-0.4,1.1-1.4,0.7-2.3c-0.1-0.2-0.2-0.3-0.3-0.4c-0.9-0.9-2.2-1.1-3.4-0.6
	c-0.8,0.4-1.1,1.4-0.7,2.3c0.1,0.2,0.2,0.3,0.3,0.4C414.3,631.1,415.7,631.3,416.8,630.7z"/>
</svg>
