<svg xmlns="http://www.w3.org/2000/svg" id="Graphics" viewBox="0 0 440.6 228.1"><style>.st1,.st2{opacity:.5;fill:#377dff;enable-background:new}.st2{opacity:.47}.st3{fill:#00c9a7}.st4{fill:none;stroke:#1e2022;stroke-miterlimit:10}.st5{fill:#4d5068}.st6{fill:#ffc107}.st7{fill:#377dff}.st10{fill:#de4437}.st11{fill:#19a0ff}.st13{fill:#efa02e}.st14{fill:#1e2022}.st15{fill:#fff}.st16{fill:#191c3c}.st17{fill:#ffe8bf}.st19{fill:#bfd1dd}.st20{fill:none;stroke:#196eff;stroke-width:.75;stroke-miterlimit:10}.st21{fill:#e7eaf3}.st24,.st26{opacity:.3;fill:#191c3c;enable-background:new}.st26{opacity:.4}.st27{fill:#e2c076}.st30{fill:#efdcb4}.st31{opacity:.3}.st32{fill:#717386}.st33{fill:none;stroke:#191c3c;stroke-width:.5;stroke-miterlimit:10}.st35{fill:#3e4154}.st38{fill:#fec55e}.st41{fill:#f8fafd}.st42{fill:none}.st44{fill:#231f20;enable-background:new}.st44,.st45{opacity:.1}.st46{fill:#231f20}.st48{fill:#f2d188}.st49{opacity:.3;fill:#231f20;enable-background:new}.st51{fill:#fedc9e}</style><g id="Layer_6" opacity=".15"><ellipse cx="426.6" cy="146.7" class="st1" rx="10.4" ry="10.4"/><path d="M287.7 17.2c0 7.5-6.1 13.5-13.5 13.5-7.5 0-13.5-6.1-13.5-13.5 0-7.5 6.1-13.5 13.5-13.5 7.4-.1 13.5 6 13.5 13.5zM101.8 34.4c0 3.8-3.1 6.9-6.9 6.9S88 38.2 88 34.4s3.1-6.9 6.9-6.9 6.9 3.1 6.9 6.9zM344.1 47.5c0 3.8-3.1 6.9-6.9 6.9s-6.9-3.1-6.9-6.9c0-3.8 3.1-6.9 6.9-6.9s6.9 3.1 6.9 6.9z" class="st1"/><circle cx="179.8" cy="6.9" r="6.9" class="st1"/><path d="M439.8 176.9c0 1.6-1.3 2.8-2.8 2.8-1.6 0-2.8-1.3-2.8-2.8 0-1.6 1.3-2.8 2.8-2.8 1.6-.1 2.8 1.2 2.8 2.8zM329.9 22.7c0 1.2-1 2.1-2.1 2.1-1.2 0-2.1-1-2.1-2.1 0-1.2 1-2.1 2.1-2.1s2.1.9 2.1 2.1z" class="st1"/><circle cx="122.1" cy="6.9" r="2.8" class="st1"/><path d="M25.9 67c0 2-1.6 3.7-3.7 3.7-2 0-3.7-1.6-3.7-3.7 0-2 1.6-3.7 3.7-3.7 2 .1 3.7 1.7 3.7 3.7zM433.9 101.9c0 2-1.6 3.7-3.7 3.7-2 0-3.7-1.6-3.7-3.7 0-2 1.6-3.7 3.7-3.7s3.7 1.7 3.7 3.7z" class="st1"/><ellipse cx="58.8" cy="55.5" class="st1" rx="15.6" ry="15.6"/><path d="M12 183.3c0 2-1.6 3.7-3.7 3.7-2 0-3.7-1.6-3.7-3.7s1.6-3.7 3.7-3.7c2 0 3.7 1.7 3.7 3.7z" class="st1"/><circle cx="406.7" cy="47.5" r="15.1" class="st1"/><ellipse cx="12" cy="115.2" class="st1" rx="12" ry="12"/><path d="M424.6 227.4c0-28.2-6-55.1-16.8-79.3 3.9-8.1 6.1-17.1 6.1-26.7 0-34-27.5-61.5-61.5-61.5-6.4 0-12.5 1-18.3 2.8-30.2-19.2-66.1-30.4-104.6-30.4-4.8 0-9.6.2-14.3.5-8.4-6.3-18.9-10.1-30.2-10.1-21.4 0-39.7 13.4-46.9 32.3-14.8 7.9-28.5 17.6-40.7 28.8-4-.9-8.1-1.4-12.4-1.4-30.8 0-55.7 24.9-55.7 55.7 0 13.4 4.7 25.7 12.6 35.3-4.9 17.1-7.6 35.2-7.6 53.9l390.3.1z" class="st2"/><path d="M370.1 227c0-78.3-63.4-141.7-141.7-141.7S86.7 148.7 86.7 227h283.4z" class="st2"/></g><g id="Layer_13"><path d="M376.8 140.3c-.1 0-.2.1-.2.1-2.6 1.2-4 1-6.5-.1-2.3-1.1-4.6-2.3-6.5-4-2.4-2.1-4.3-5.1-4.7-8.3-.1-.7-.1-1.5.3-2.1.6-.8 1.8-.9 2.7-.6.9.4 1.7 1.1 2.4 1.8.3.3.7.6 1.1.7s.9 0 1.1-.4c.3-.6-.2-1.3-.8-1.7-1.2-1-2.3-1.6-3.6-2.5-1.6-1.1-3.1-2.5-3.9-4.2-.9-1.7-1.1-3.9-.2-5.6.3-.5.7-1 1.2-1.3.9-.6 2-.5 3.1-.3 1 .2 2 .6 3.1.7 2.5.3 3.4-1.5 3.4-3.8 0-1.5-.5-3-.6-4.5-.2-2.7 1.2-5.5 3.6-6.7 2.4-1.1 5.8 0 6.7 2.5.9 2.8-1.2 5.9.2 8.5.5.9 1.5 2 2.3 2.5 1.4.8 3.3-.1 4.9-.1.4 0 .7.1 1 .3.2.2.3.4.3.7.4 1.9-.3 4-1.8 5.3-1.6 1.5-4.5 2.2-5.2 4.6-.4 1.4-.2 5 2.1 4.7.9-.1 1.4-1 2.3-1.3 1-.3 2.2.3 2.7 1.3s.3 2.1-.1 3.1c-.6 1.6-1.8 2.9-3 4.1-2.6 2.6-4.2 5-7.4 6.6z" class="st3"/><path d="M373.4 106.8v78M379.9 116.5l-6.5 6.5-6.5-6.5M379.9 129.6l-6.5 6.5-6.5-6.5" class="st4"/><path d="M54.2 200.7c-.1 0-.1.1-.2.1-1.9.9-2.8.7-4.6-.1-1.7-.8-3.3-1.7-4.7-2.9-1.7-1.5-3.1-3.6-3.4-5.9-.1-.5-.1-1.1.2-1.5.4-.6 1.3-.7 2-.4s1.2.8 1.7 1.3c.2.2.5.4.8.5s.7 0 .8-.3c.2-.4-.2-.9-.5-1.2-.9-.7-1.7-1.1-2.6-1.8-1.1-.8-2.2-1.8-2.8-3s-.8-2.8-.1-4c.2-.4.5-.7.8-.9.6-.4 1.5-.4 2.2-.2s1.4.4 2.2.5c1.8.2 2.5-1.1 2.4-2.7 0-1.1-.4-2.2-.4-3.2-.1-1.9.8-4 2.6-4.8 1.7-.8 4.2 0 4.8 1.8.7 2-.9 4.2.2 6.1.3.6 1.1 1.5 1.7 1.8 1 .6 2.4-.1 3.5-.1.3 0 .5 0 .7.2.1.1.2.3.2.5.3 1.4-.2 2.9-1.3 3.8-1.2 1.1-3.2 1.6-3.7 3.3-.3 1-.2 3.6 1.5 3.4.6-.1 1-.7 1.6-.9.7-.2 1.6.2 1.9.9.3.7.2 1.5-.1 2.3-.5 1.1-1.3 2-2.2 2.9-1.7 1.6-2.9 3.3-5.2 4.5z" class="st3"/><path d="M51.7 176.6V227M56.4 183.6l-4.7 4.6-4.6-4.6M56.4 192.9l-4.7 4.7-4.6-4.7" class="st4"/><g><path d="M184.8 113.4c-.1.1-.3.1-.4.2-4 1.9-6.1 1.6-10-.2-3.6-1.7-7-3.6-10-6.2-3.8-3.3-6.7-7.8-7.3-12.8-.1-1.1-.1-2.3.5-3.2.9-1.2 2.8-1.4 4.2-.9 1.4.6 2.6 1.7 3.7 2.7.5.4 1 .9 1.6 1 .6.2 1.4 0 1.7-.6.5-.9-.4-2-1.2-2.6-1.9-1.6-3.6-2.4-5.6-3.8-2.5-1.7-4.7-3.8-6.1-6.5-1.3-2.7-1.6-6-.2-8.7.4-.8 1-1.5 1.8-2 1.4-.9 3.1-.8 4.7-.5 1.6.3 3.1.9 4.7 1.1 3.8.4 5.3-2.3 5.2-5.8-.1-2.3-.8-4.6-.9-7-.2-4.1 1.8-8.5 5.5-10.3s9-.1 10.3 3.8c1.5 4.3-1.9 9 .3 13.1.7 1.3 2.3 3.1 3.6 3.9 2.1 1.3 5.1-.2 7.5-.1.5 0 1.1.1 1.5.5.3.3.4.7.5 1.1.6 3-.5 6.2-2.7 8.2-2.5 2.3-6.9 3.5-7.9 7-.7 2.2-.4 7.8 3.2 7.2 1.3-.2 2.2-1.5 3.5-2 1.6-.5 3.4.5 4.1 2 .7 1.5.5 3.3-.1 4.9-1 2.4-2.8 4.4-4.7 6.3-3.6 4.1-6.1 7.8-11 10.2z" class="st3"/><path d="M179.5 61.7v95M189.5 76.7l-10 10-10-10M189.5 96.8l-10 10.1-10-10.1" class="st4"/></g><g><path d="M440.6 227.6h-25c0-2.1-1.7-3.8-3.8-3.8-2.1 0-3.8 1.7-3.8 3.8" class="st4"/><path d="M409.8 224.3c0-2.1-1.7-3.8-3.8-3.8s-3.8 1.7-3.8 3.8" class="st4"/></g><g><path d="M10 227.6h25c0-2.1 1.7-3.8 3.8-3.8s3.8 1.7 3.8 3.8M40.9 224.3c0-2.1 1.7-3.8 3.8-3.8s3.8 1.7 3.8 3.8" class="st4"/></g><g id="XMLID_957_"><path id="XMLID_980_" d="M396 185.9h2.7v5.2H396z" class="st5"/><path id="XMLID_979_" d="M394.8 190h5.2v37.6h-5.2z" class="st6"/><path id="XMLID_976_" d="M397.4 157.3c-8.9 0-16.1 7.2-16.1 16.1 0 8.9 7.2 16.1 16.1 16.1s16.1-7.2 16.1-16.1c-.1-8.9-7.3-16.1-16.1-16.1zm0 28.7c-7 0-12.7-5.7-12.7-12.7s5.7-12.7 12.7-12.7 12.7 5.7 12.7 12.7c-.1 7-5.8 12.7-12.7 12.7z" class="st7"/><path id="XMLID_973_" fill="#1265dd" d="M410.1 173.3c0-7-5.7-12.8-12.8-12.8-7 0-12.8 5.7-12.8 12.8 0 7 5.7 12.8 12.8 12.8s12.8-5.8 12.8-12.8zm-12.7 11.5c-6.4 0-11.5-5.2-11.5-11.5 0-6.4 5.2-11.5 11.5-11.5 6.4 0 11.5 5.2 11.5 11.5 0 6.4-5.2 11.5-11.5 11.5z"/><path id="XMLID_972_" fill="#f4d076" d="M394.7 190h2.7v37.6h-2.7z"/><g id="XMLID_959_"><path id="XMLID_1021_" d="M404.3 167.3l-6.4 6.4v9.1c2.3 0 4.6-.9 6.4-2.6 3.6-3.6 3.6-9.4 0-12.9z" class="st6"/><path id="XMLID_1020_" d="M397.3 163.4c-2.3 0-4.6.9-6.4 2.6l6.4 6.4 6.4-6.4c-1.8-1.7-4.1-2.6-6.4-2.6z" class="st10"/><path id="XMLID_1019_" d="M396.7 173.7l-6.4-6.4c-3.5 3.5-3.5 9.3 0 12.8 1.8 1.8 4.1 2.6 6.4 2.7v-9.1z" class="st7"/></g></g></g><g id="Layer_9"><g id="XMLID_404_"><path id="XMLID_433_" d="M72.7 227.6h-5.1V132c0-1.4 1.1-2.5 2.5-2.5s2.5 1.1 2.5 2.5l.1 95.6z" class="st7"/><path id="XMLID_432_" d="M70.2 129.5c-1.4 0-2.5 1.1-2.5 2.5v95.5h2.6l-.1-98c.1 0 0 0 0 0z" class="st11"/><g id="XMLID_430_"><path id="XMLID_431_" d="M52.5 138.9H88v3.8H52.5z" class="st7"/></g><path id="XMLID_429_" d="M75.6 140.5c0 2.9-2.4 5.3-5.3 5.3s-5.3-2.4-5.3-5.3 2.4-5.3 5.3-5.3 5.3 2.3 5.3 5.3z" class="st6"/><path id="XMLID_428_" fill="#fcd991" d="M73.1 140.5c0 1.6-1.3 2.9-2.9 2.9s-2.9-1.3-2.9-2.9 1.3-2.9 2.9-2.9c1.6 0 2.9 1.3 2.9 2.9z"/><path id="XMLID_427_" d="M68 141.1c0-1.6 1.3-2.9 2.9-2.9.6 0 1.2.2 1.7.5-.5-.7-1.4-1.2-2.3-1.2-1.6 0-2.9 1.3-2.9 2.9 0 1 .5 1.8 1.2 2.3-.4-.4-.6-.9-.6-1.6z" class="st13"/><g id="XMLID_425_"><path id="XMLID_426_" d="M87.4 138.5h1.7v20.3h-1.7z" class="st14" transform="rotate(-19.712 88.243 148.648)"/></g><g id="XMLID_423_"><path id="XMLID_424_" d="M72.8 147.8h20.5v1.7H72.8z" class="st14" transform="rotate(-68.777 83.032 148.618)"/></g><path id="XMLID_422_" d="M94.1 157.5c0 4.7-3.8 8.5-8.5 8.5s-8.5-3.8-8.5-8.5h17z" class="st6"/><path id="XMLID_421_" d="M78.8 157.5h-1.7c0 4.7 3.8 8.5 8.5 8.5h.9c-4.4-.5-7.7-4.1-7.7-8.5z" class="st13"/><g id="XMLID_419_"><path id="XMLID_420_" d="M41.9 147.8h20.3v1.7H41.9z" class="st14" transform="rotate(-70.293 52.098 148.67)"/></g><g id="XMLID_417_"><path id="XMLID_418_" d="M56.6 138.4h1.7v20.5h-1.7z" class="st14" transform="rotate(-21.235 57.449 148.647)"/></g><path id="XMLID_416_" d="M46.4 157.5c0 4.7 3.8 8.5 8.5 8.5s8.5-3.8 8.5-8.5h-17z" class="st6"/><path id="XMLID_415_" d="M61.7 157.5c0 4.4-3.4 8-7.7 8.5h.9c4.7 0 8.5-3.8 8.5-8.5h-1.7z" class="st13"/><path id="XMLID_414_" d="M87.8 140.8c0 1.2-1 2.2-2.2 2.2s-2.2-1-2.2-2.2 1-2.2 2.2-2.2 2.2 1 2.2 2.2z" class="st6"/><g id="XMLID_410_"><path id="XMLID_411_" d="M85.6 143.9c-1.7 0-3.1-1.4-3.1-3.1 0-1.7 1.4-3.1 3.1-3.1s3.1 1.4 3.1 3.1-1.4 3.1-3.1 3.1zm0-4.5c-.8 0-1.4.6-1.4 1.4 0 .8.6 1.4 1.4 1.4s1.4-.6 1.4-1.4-.6-1.4-1.4-1.4z" class="st14"/></g><path id="XMLID_409_" d="M57.1 140.8c0 1.2-1 2.2-2.2 2.2s-2.2-1-2.2-2.2 1-2.2 2.2-2.2 2.2 1 2.2 2.2z" class="st6"/><g id="XMLID_405_"><path id="XMLID_406_" d="M54.9 143.9c-1.7 0-3.1-1.4-3.1-3.1 0-1.7 1.4-3.1 3.1-3.1 1.7 0 3.1 1.4 3.1 3.1s-1.4 3.1-3.1 3.1zm0-4.5c-.8 0-1.4.6-1.4 1.4 0 .8.6 1.4 1.4 1.4s1.4-.6 1.4-1.4c0-.8-.6-1.4-1.4-1.4z" class="st14"/></g></g><g id="XMLID_384_"><path id="XMLID_403_" d="M108.8 227.6H82.4c-.6 0-1.1-.5-1.1-1.1v-36.8c0-.6.5-1.1 1.1-1.1h26.3c.6 0 1.1.5 1.1 1.1v36.8c0 .7-.4 1.1-1 1.1z" class="st7"/><path id="XMLID_402_" d="M83.4 192.2h24.4v6.7H83.4z" class="st6"/><path id="XMLID_401_" d="M87.6 206H84c-.3 0-.6-.3-.6-.6v-3.7c0-.3.3-.6.6-.6h3.7c.3 0 .6.3.6.6v3.7c-.1.4-.3.6-.7.6z" class="st15"/><path id="XMLID_400_" d="M94.1 206h-3.7c-.3 0-.6-.3-.6-.6v-3.7c0-.3.3-.6.6-.6h3.7c.3 0 .6.3.6.6v3.7c0 .4-.2.6-.6.6z" class="st15"/><path id="XMLID_399_" d="M100.7 206H97c-.3 0-.6-.3-.6-.6v-3.7c0-.3.3-.6.6-.6h3.7c.3 0 .6.3.6.6v3.7c-.1.4-.3.6-.6.6z" class="st15"/><path id="XMLID_398_" d="M107.2 206h-3.7c-.3 0-.6-.3-.6-.6v-3.7c0-.3.3-.6.6-.6h3.7c.3 0 .6.3.6.6v3.7c-.1.4-.3.6-.6.6z" class="st15"/><path id="XMLID_397_" d="M87.6 212.4H84c-.3 0-.6-.3-.6-.6v-3.7c0-.3.3-.6.6-.6h3.7c.3 0 .6.3.6.6v3.7c-.1.4-.3.6-.7.6z" class="st15"/><path id="XMLID_396_" d="M94.1 212.4h-3.7c-.3 0-.6-.3-.6-.6v-3.7c0-.3.3-.6.6-.6h3.7c.3 0 .6.3.6.6v3.7c0 .4-.2.6-.6.6z" class="st15"/><path id="XMLID_395_" d="M100.7 212.4H97c-.3 0-.6-.3-.6-.6v-3.7c0-.3.3-.6.6-.6h3.7c.3 0 .6.3.6.6v3.7c-.1.4-.3.6-.6.6z" class="st15"/><path id="XMLID_394_" d="M107.2 212.4h-3.7c-.3 0-.6-.3-.6-.6v-3.7c0-.3.3-.6.6-.6h3.7c.3 0 .6.3.6.6v3.7c-.1.4-.3.6-.6.6z" class="st15"/><path id="XMLID_393_" d="M87.9 225.2h-4.2c-.2 0-.3-.1-.3-.3v-10.6c0-.2.1-.3.3-.3h4.2c.2 0 .3.1.3.3v10.6c0 .1-.1.3-.3.3z" class="st16"/><path id="XMLID_392_" d="M94.1 218.8h-3.7c-.3 0-.6-.3-.6-.6v-3.7c0-.3.3-.6.6-.6h3.7c.3 0 .6.3.6.6v3.7c0 .3-.2.6-.6.6z" class="st15"/><path id="XMLID_391_" d="M100.7 218.8H97c-.3 0-.6-.3-.6-.6v-3.7c0-.3.3-.6.6-.6h3.7c.3 0 .6.3.6.6v3.7c-.1.3-.3.6-.6.6z" class="st15"/><path id="XMLID_390_" d="M107.2 218.8h-3.7c-.3 0-.6-.3-.6-.6v-3.7c0-.3.3-.6.6-.6h3.7c.3 0 .6.3.6.6v3.7c-.1.3-.3.6-.6.6z" class="st15"/><path id="XMLID_389_" d="M94.1 225.2h-3.7c-.3 0-.6-.3-.6-.6v-3.7c0-.3.3-.6.6-.6h3.7c.3 0 .6.3.6.6v3.7c0 .3-.2.6-.6.6z" class="st15"/><path id="XMLID_388_" d="M100.7 225.2H97c-.3 0-.6-.3-.6-.6v-3.7c0-.3.3-.6.6-.6h3.7c.3 0 .6.3.6.6v3.7c-.1.3-.3.6-.6.6z" class="st15"/><path id="XMLID_387_" d="M107.2 225.2h-3.7c-.3 0-.6-.3-.6-.6v-3.7c0-.3.3-.6.6-.6h3.7c.3 0 .6.3.6.6v3.7c-.1.3-.3.6-.6.6z" class="st15"/><path id="XMLID_386_" d="M88.8 192.2h-5.3l6.7 6.7h5.3z" class="st17"/><path id="XMLID_385_" d="M100.5 198.9l-6.6-6.7h-3l6.6 6.7z" class="st17"/></g><g id="XMLID_1605_"><g id="XMLID_1611_"><g id="XMLID_1612_"><path id="XMLID_1613_" d="M374.5 179.5l7.6 7.4v40.7H346v-45c0-1.7 1.4-3.1 3.1-3.1h25.4z" class="st15"/></g></g><g id="XMLID_1617_" opacity=".35"><g id="XMLID_1618_"><path id="XMLID_1619_" d="M374.9 186.1l7.2 8.3v-7.5z" class="st19"/></g></g><g id="XMLID_1614_"><g id="XMLID_1615_"><path id="XMLID_1616_" d="M374.5 179.5l7.6 7.4h-5.6c-1.1 0-2-.9-2-2v-5.4z" class="st7"/></g></g><path id="XMLID_961_" d="M350.4 191.1h27.3v33.1h-27.3z" class="st7"/><path id="XMLID_964_" d="M350.4 191.1h6.8v33.1h-6.8z" class="st15"/><path id="XMLID_963_" d="M350.4 191.1h27.3v6.1h-27.3z" class="st19"/><path id="XMLID_966_" d="M351.2 224.3h25.7c.4 0 .8-.4.8-.8V192c0-.4-.4-.8-.8-.8h-25.7c-.4 0-.8.4-.8.8v31.5c0 .4.4.8.8.8z" class="st20"/><path id="XMLID_970_" d="M350.4 197.2h27.3" class="st20"/><path id="XMLID_967_" d="M350.4 200.6h27.3" class="st20"/><path id="XMLID_999_" d="M357.2 224.3v-27.1" class="st20"/><path id="XMLID_981_" d="M350.4 204h27.3" class="st20"/><path id="XMLID_982_" d="M350.4 207.4h27.3" class="st20"/><path id="XMLID_984_" d="M350.4 210.8h27.3" class="st20"/><path id="XMLID_985_" d="M350.4 214.1h27.3" class="st20"/><path id="XMLID_986_" d="M350.5 217.5h27.2" class="st20"/><path id="XMLID_995_" d="M350.5 220.9h27.2" class="st20"/><path id="XMLID_997_" d="M362.8 189.6h-11.4c-.6 0-1-.5-1-1 0-.6.5-1 1-1h11.4c.6 0 1 .5 1 1 .1.5-.4 1-1 1z" class="st21"/></g></g><g id="Layer_8"><g id="XMLID_330_"><g id="XMLID_347_"><path id="XMLID_802_" fill="#2873ea" d="M309.2 214H132.9V104.5c0-.7.6-1.3 1.3-1.3h173.7c.7 0 1.3.6 1.3 1.3V214z"/><path id="XMLID_799_" d="M142 113.2h158.2v91.9H142z" class="st11"/><path id="XMLID_362_" d="M319.5 218.9H122.7c5.6 5.6 13.2 8.7 21.1 8.7h154.6c7.9 0 15.4-3.1 21.1-8.7z" class="st21"/><path id="XMLID_361_" fill="#f6f9fc" d="M122.7 213.4h196.8v5.5H122.7z"/><path id="XMLID_360_" d="M233.2 217.7h-24.4c-.8 0-1.5-.7-1.5-1.5s.7-1.5 1.5-1.5h24.4c.8 0 1.5.7 1.5 1.5s-.6 1.5-1.5 1.5z" class="st21"/></g><g id="XMLID_311_"><path id="XMLID_781_" d="M142 205v-26.9l14.9-5.4V205z" class="st15"/><path id="XMLID_832_" d="M156.9 205v-32.3l14.8-2.8V205z" class="st6"/><path id="XMLID_846_" d="M186.6 205v-42l14.9-3.6V205z" class="st6"/><path id="XMLID_848_" d="M216.4 205v-58.8l14.9 3.5V205z" class="st6"/><path id="XMLID_866_" d="M246.9 205v-71l14.8 15.7V205z" class="st6"/><path id="XMLID_883_" d="M277.4 205v-50.3l14.8-5V205z" class="st6"/><path id="XMLID_833_" d="M171.7 205v-35.1l14.9-6.9v42z" class="st15"/><path id="XMLID_847_" d="M201.5 205v-45.6l14.9-13V205z" class="st15"/><path id="XMLID_850_" d="M231.2 205v-55.1l15.7-15.8V205z" class="st15"/><path id="XMLID_881_" d="M261.7 205v-55.1l15.7 4.9V205z" class="st15"/><path id="XMLID_884_" d="M292.2 205v-55.1l8 4.9V205z" class="st15"/></g><path id="XMLID_333_" d="M216.7 103.2c.1.1.1.2.2.4 4.8 7.6 11.5 12.6 18.8 15.4l9.7 14.2c.9 1.4 2.9 1.4 3.9 0l8.7-12.6c9.4-2.1 18.1-7.7 24-17 .1-.1.1-.2.2-.3l-65.5-.1z" class="st24"/><g id="XMLID_864_"><path id="XMLID_854_" d="M245.5 128.5l-9.7-14.2c-7.4-2.8-14-7.9-18.8-15.4-8.1-12.8-7.8-29.7.8-42.1 15.6-22.4 48.2-22.3 63.6.3 8.5 12.4 8.7 29.1.7 41.8-5.9 9.3-14.6 14.9-24 17l-8.7 12.6c-1 1.4-3 1.4-3.9 0z" class="st6"/><path id="XMLID_871_" fill="#f4e1b8" fill-opacity=".6" d="M268.8 59.2c10.8 10.8 10.8 28.2 0 39s-28.2 10.8-39 0-10.8-28.2 0-39 28.3-10.8 39 0z" opacity=".5"/></g><g id="XMLID_346_"><g id="XMLID_344_"><path id="XMLID_363_" d="M242.2 94.1c-.3 0-.6-.1-.9-.2-.9-.5-1.2-1.6-.7-2.5L256 64.2c.5-.9 1.6-1.2 2.5-.7s1.2 1.6.7 2.5l-15.4 27.1c-.4.6-1 1-1.6 1z" class="st15"/></g><g id="XMLID_343_"><path id="XMLID_354_" d="M239.2 81.9c-3.6 0-6.6-3.6-6.6-8s3-8 6.6-8 6.6 3.6 6.6 8-2.9 8-6.6 8zm0-12.5c-1.7 0-3.1 2.1-3.1 4.5s1.4 4.5 3.1 4.5c1.7 0 3.1-2.1 3.1-4.5s-1.4-4.5-3.1-4.5z" class="st15"/></g><g id="XMLID_345_"><path id="XMLID_350_" d="M259.4 92.2c-3.6 0-6.6-3.6-6.6-8s3-8 6.6-8 6.6 3.6 6.6 8-2.9 8-6.6 8zm0-12.5c-1.7 0-3.1 2.1-3.1 4.5s1.4 4.5 3.1 4.5 3.1-2.1 3.1-4.5-1.4-4.5-3.1-4.5z" class="st15"/></g></g></g></g><g id="Layer_10"><path d="M282.9 83.3c-.1.8.2 1.6.8 2.1l3 2.5c.8-3.1 1.2-6.2 1.2-9.4h-3.1c-.5 0-.9.2-1.1.6-.2-.2-.5-.3-.8-.3-.6 0-1 .4-1.1 1l-21-9.4-.9 2.1L283 82.9l-.1.4zM309.2 111.1v-6.7c0-.6-.5-1.2-1.2-1.2h-14l2.8 6.3c.2.4.5.6.9.7 1.6.2 6.6 1.1 11.5.9z" class="st26"/><g><path d="M286.3 80.9h-2.2v-1.4c0-.6.5-1.1 1.1-1.1.6 0 1.1.5 1.1 1.1v1.4z" class="st27"/><path d="M277.2 60.9h2.3v34.3h-2.3z" class="st16" transform="rotate(-65.983 278.34 78.048)"/><path d="M293.7 87.6h4.2v11.6h-4.2z" class="st27" transform="rotate(-25.96 295.791 93.425)"/><path fill="#e6b255" d="M347.5 96.5c.3-1.4 1.2-2.9.7-4.2-.4-1.1-1.6-1.8-2.4-2.6-1.4-1.5-1.9-3.6-1.9-5.6 0-1 .1-2-.1-2.9-.4-2-1.9-3.5-2.9-5.2-.4-.6-.7-1.2-1.2-1.7-.6-.5-1.3-.8-2-1-1.6-.5-3.2-1.1-4.8-1.5-.8-.2-1.6-.5-2.4-.2-.6.2-1 .7-1.4 1.2-.8.9-1.7 1.9-2.5 2.8-.7.4-1.2 1.1-1.4 1.8-.3 1.2 0 2.4.2 3.6s.4 2.5-.1 3.6-1.7 1.9-1.9 3.1c-.3 1.2.4 2.3 1 3.3 1.1 1.8 2 3.8 1.6 5.8-.2 1.2-1 2.3-1.1 3.5-.2 1.4.5 2.8 1.6 3.6.7.5 1.5.8 1.8 1.5.2.6 0 1.2.1 1.8.2 1.3 1.6 2 2.9 1.9s2.4-.8 3.5-1.5 2.2-1.4 3.5-1.4c2.5-.1 4.8 2.1 7.1 1.3 1.9-.7 2.5-3.1 2.3-5 0-2-.6-4-.2-6z"/><path fill="#dbb361" d="M332.2 93.6h10v11.6h-10z"/><path d="M333.7 87.7h5.1v11.6h-5.1z" class="st27"/><path d="M338.8 90.6l-5.1 2.5v-5.4h5.1z" class="st26"/><path d="M331.3 91.9c-1.8.9-4.9-1.9-4.8-6.4 0-.2-2.2-.4-2.1-.6 2.4-3.2 2.7-9.3 4.1-10.7 3.1-3.1 15.9 0 15.9 0v7.5c0 6.8-13.1 10.2-13.1 10.2z" class="st30"/><path d="M329.2 189.5s5 17.4 5.8 25.5l5.6-2s-1.8-7.9-.7-15.8l-10.7-7.7z" class="st27"/><path d="M335.1 215l-5.1 8.1-8.4 2.2v.8l8.4 1.5s2.7 0 3-.7l6.4-6.1h1v6.1h1.3s-.8-5 0-6c0 0 2-2.8.5-7.3l-1.5-.7-5.6 2.1z" class="st16"/><path d="M330.5 194.2l9.1 8.4c0-1.7.1-3.6.4-5.4l-10.8-7.8c0 .1.6 2 1.3 4.8z" class="st24"/><path d="M323.4 185.7l23.6 21.8 2.8-4.9-12.6-16.9z" class="st27"/><path d="M347 207.5l5 11.2-2.3 5.5 1 2.8 5.3-7.5s1.2-2.2 0-5.1l-1.5-5.6s-.7-1.2.7-.8c1.3.3 4.8 2.8 4.8 2.8v-1.3l-3.6-3.1-2-2.9s-3.3-2-4.5-.8l-2.9 4.8z" class="st16"/><path d="M342.8 144.2s2.8 8.6 0 15.3c-1.6 3.7-1.9 8.4-2.1 12.3-.3 3.8-.2 9.7.5 13.4.4 2.5.6 2.8-2.2 3-1.9.1-3.9-.2-5.7-1-.6-.2-1.1-.5-1.7-.5-.7 0-1.4.3-2.1.5-1.7.6-3.6.6-5.3.1-.6-.2-1.2-.4-1.8-.5-1.9-.3-3.6 1.4-5.3 1.1-1.5-.2-1.2-.7-.9-2.1.4-2.3.9-6.5 1.4-8.8.8-4.1 2.3-8.8 2.1-13v-19.2s-.9-4.7-1.6-6.8l24.7 6.2z" class="st5"/><g class="st31"><path d="M317.7 185.7c.4-2.3 1.4-6.5 1.9-8.8.7-3.8 1.6-8.1 1.6-12 0-1.2.1-2.3.3-3.5l2.2-16.7s-3.3-4.1-4-6.4l-1.6-.4c.7 2.1 1.6 6.8 1.6 6.8v19.2c.2 4.2-1.3 9-2.1 13-.4 2.3-1 6.5-1.4 8.8-.2 1.4-.6 1.9.9 2.1.4 0 .7 0 1.1-.1-1-.2-.7-.7-.5-2z" class="st32"/></g><path d="M342.8 144.2l-24.2-6.2-.4.8c.4 1.4.8 3.4 1.2 5.1 3.8 2.3 11.8 5.8 24.3 4.5-.3-2.5-.9-4.2-.9-4.2z" class="st24"/><path d="M332.1 93.7l-4.2-.1c-1 0-1.9.3-2.7.9l-5.9 4.4c-.5.3-1 .6-1.5.7l-10.6 2.8c-.7.2-1.5-.1-1.9-.7l-7.8-11.1-5.1 3.5 6.7 14.9c.2.4.5.6.9.7 2.8.6 14.8 2.6 20.5-1.6l-.3 19.5c0 .6-.1 1.2-.4 1.8l-3.8 8.9s8.6 8.3 26.9 6v-6.6l7.8-35.8-7-6.6-10 3.5-1.6-5.1z" class="st5"/><path d="M320.5 106c-6.5 4.8-20.4 2.3-20.4 2.3L292.5 94l6.7 14.9c.2.4.5.6.9.7 2.8.6 14.7 2.6 20.4-1.6v-2z" class="st26"/><path d="M342.2 102.8l3.1 23.4 5.3-24.5z" class="st24"/><path d="M328.8 80.4h6.6M327.4 80.4h-1.1M328.8 80.4c0 1.7-.3 3-.7 3s-.7-1.4-.7-3c0-1.7.3-3 .7-3s.7 1.3.7 3z" class="st33"/><g opacity=".18"><path d="M342.7 145.6c.6 2.6 0 5.4-1.6 7.5-.7.9-1.6 1.7-2.4 2.7-1.2 1.5-2 3.2-2.8 5-.9 1.9-1.7 4-1.3 6 .3 1.2 1 2.2 1.5 3.3 1.2 2.5 1.3 5.5.3 8.1-.7 1.8-1.8 3.4-2.6 5.2-.5 1.2-.7 2.6-.5 3.9 1.8.7 3.7 1 5.6.9 2.8-.1 2.6-.5 2.2-3-.6-3.8-.7-9.6-.5-13.4.3-3.9.6-8.6 2.1-12.3 2.3-5.4.9-12.1.2-14.4 0 .1-.1.3-.2.5z" class="st16"/><path d="M342.7 146.7l.1-1c-.2.3-.2.6-.1 1zM342.7 145.7v-.2.2z" class="st16"/></g><path d="M295.5 87.9v-5.3c0-.5-.2-1-.5-1.4l-1.6-2c-.5-.7-1.4-1.1-2.2-1.1h-4.1c-.7 0-1.4.5-1.4 1.3l-.4 3.5c-.1.8.2 1.6.8 2.1l5.7 4.8 3.7-1.9z" class="st27"/><path d="M342.8 137.6l1.7-7.7-16.7-.5v5.2l15 3.3z" class="st24"/><path d="M337.5 104s-8.6 11.1-12.4 27.6c0 0 1.4-25.5 3.9-31.3l1.6-2.9 3 1.1 4.6.9-.7 4.6z" class="st10"/><path d="M325.2 131.7s9.2-20.5 11.2-21.1l.8 1.3.6-4.8 1 2 4.9-14s-14.5 17.6-18.5 36.6zM323.6 133.8s3.6-22.2 2.3-23.7l-1.4.6 2.2-4.3-2 1.1 6.2-12.6c.1-.1-1 18.2-7.3 38.9z" class="st35"/><path d="M332.1 95.2l-3 2.9v3.8l1.5-3.5 1.5 4.5 3.4-1.5 1.8 4.5 6.4-10.8-.9-2.2-9.1 7.2-.8-4.4z" class="st24"/><path fill="#f5f7f9" d="M332.1 93.7l-3 2.9v3.8l1.5-2 1.5 3h3.4l2 2.6 6.2-8.9-.9-3.7-9.1 7.2-.8-4.3z"/><path d="M324.4 132.1s-1 10.6 1.9 11.2c0 0-6.6-2.6-7.1-2.9-.6-.3 3.9-.6 5.2-8.3z" class="st10"/><path d="M319.6 140.4c-.5-.3 2.9-.6 4.6-5.9 0-1.5.1-2.5.1-2.5-1.3 7.7-5.8 8-5.2 8.4.5.3.5 0 .5 0z" class="st35"/><path d="M328.9 125.9h4.2v11.6h-4.2z" class="st27" transform="rotate(-83.921 331.041 131.649)"/><path d="M327.8 128l19.7.6-5.3-24.8c-.6-2.5 1.1-4.9 3.6-5.3 2.4-.4 4.7 1.2 5.1 3.6l4.8 29.4c.5 3.4-2.3 6.4-5.7 6.1l-22.3-3.4.1-6.2z" class="st5"/><g class="st31"><path d="M347.2 128.6l-19.4-.6v.5s18.4 3.1 20.9 2.1c.6-.3-2-.7-2-.8 0-.2 2.2.2 2.1 0-.4-.7-1.6-1.2-1.6-1.2z" class="st32"/></g><path d="M326.3 129.1c0-.2-.9-1.4-1.1-1.6s-.4-.3-.5-.5c-.5-.4-1.1-.6-1.7-.6-.6.1-1.1.2-1.7.1-.8-.1-1.5-.5-2.4-.4-.4.1-.8.4-.7.8 0 .5.6.8.5 1.3 0 .3-.4.6-.5.9-.1.4.4.8.3 1.3 0 .4-.4.7-.5 1-.2.4-.1.8.1 1.1s.5.6.8.8c.9.5 1.7.5 2.7.5.9 0 1.8-.4 2.8-.3.7 0 1.3-.5 1.4-1.2.1-.5.1-.2.2-.7.2-1 .2-1.5.3-2.5z" class="st27"/><path d="M355.7 131.5l-3.3-20.3c-.1.7-.3 1.4-.5 2.1-.3.8-.7 1.7-.9 2.6-.1.9.1 1.8.3 2.7.5 2.1 1 4.3 2 6.2.2.5.5 1 .5 1.5s-.3 1-.5 1.4c-1.1 2.4-.7 5.3 1 7.3.1.2.3.3.4.5.9-1.1 1.3-2.5 1-4z" class="st16" opacity=".2"/><path d="M353.3 103.5c-1.7-2-2.7-4.6-2.9-7.2-.2-2.7 1.5-5.5.7-8.2-.6-2-2.5-3.2-3.3-5.1-.8-1.8-.3-3.9-.6-5.8-.9-6.7-9.4-7.6-14.8-6.7-1.6.3-5.6.9-6.3 2.9-.9 2.6 3.2 3.8 5 2.9.5-.3 1-.7 1.6-.9.8-.3 1.7-.1 2.3.5.6.6.9 1.5.7 2.3-.1.5-.4.9-.4 1.4-.1 1.2 1.5 1.9 2.7 1.9.4 0 .7 0 1 .2.2.2.3.4.3.6 1.1 3.4-1.4 5.6 1.4 8.4 2 1.9 6.5 5.4 4.6 8.6-.4.6-1 1.1-1.1 1.8-.2 1 .7 1.8 1.6 2.4.9.5 1.9 1 2.3 1.9.4 1 0 2.1 0 3.1-.2 3.2 1.9 3.5 3.8 5.2 1.4 1.2 1.8 3.8 1.6 5.5 0 .3 0 .6.3.7.1 0 .2 0 .3-.1.6-.4 1.3-.8 1.8-1.3s.8-1.3.7-2c-.1-.5-.3-.9-.5-1.4-.4-1.5.8-3 1-4.6.5-3.2-2.1-4.9-3.8-7z" class="st38"/></g></g><g id="Layer_7"><path d="M132.9 104.3v71.4l2.1-29.5c.2 0 .4-.2.4-.5v-4.9c0-.3-.2-.5-.5-.5l.3-3.5h.2v-.8c1.8.3 3.6-.1 4.6-1.6.6-.9.9-2.2 1.2-3.7.4 0 .8.1 1.1 0 .4-.1.8-.3 1-.6.2-.4-.1-.9-.5-.9.2-.2.5-.3.7-.3.1-.6-.2-1.3-.8-1.6.6-.1 1.1-.7 1-1.3-.1-.6-.6-1.2-1.2-1.2 0-.5.7-.5.9-.9.3-.5-.3-1.1-.9-1.3-.3-.1-.6-.1-.9-.1 0-.7-.1-1.2-.1-1.2.2-1.7.1-3.3-.1-4.9-.1-1.4-.4-2.7-.8-4.1-.1-.5-.2-1-.4-1.6 0-.2-.1-.4-.2-.5 0-.1 0-.2-.1-.3-.6-2.6-2-4.8-3.8-6.7l-.1-.1h-2.2c-.3.1-.9.6-.9 1.2zM145.5 227.6l-.1-.4c-.5-1.7-1.8-3-3.5-3.6l-6.8-2.3-5.1-4.3.3-3.6H127l.1 3.6-1.1 1.8v3c5.1 3.8 11.3 5.9 17.8 5.9l1.7-.1z" class="st26"/><g><path id="XMLID_1451_" fill="#093a66" d="M122.4 145.4l10.4-.3-4.2 71.8h-3.8l-1.7-60.6h-2l-3.6 60.6h-3.8l-1.7-71.8z"/><path id="XMLID_1457_" d="M117.1 153.2c2.4 4 4 3.1 4 3.1l-3.6 60.6h-1.9c.1-2.8.1-5.6.2-8.4.1-3.5.2-6.9.7-10.3.5-3.7.6-7.4.7-11.2 0-1.6.1-3.2-.1-4.8-.3-2.8-1-5.6-.9-8.4.1-1.2.4-2.3.5-3.5.1-1.5.1-3.1.1-4.6.1-3 .1-6.1.2-9.1.1-.6.5-2.7.1-3.4z" class="st24"/><path id="XMLID_1458_" d="M127.4 145.6c.1-.1.3-.3.4-.3 1.2-.5 3.6-.1 4.9-.1l-4.2 71.8h-2.4s.5-6.8.4-7.3c-.3-1.2-.7-2.4-.8-3.6-.1-1 0-2.1.1-3.1.3-2.9.2-5.7.6-8.6.3-2.2-.2-4.6.3-6.7.3-1.4.7-2.9.4-4.3-.2-.7-.5-1.4-.7-2.1-.3-1.1-.2-2.3-.2-3.4.3-5.6.4-11.2.5-16.8 0-2.7.1-5.4-.3-8 0-1.7-.1-6.1 1-7.5z" class="st24"/><path id="XMLID_1389_" d="M120.3 85h5.1v17.3h-5.1z" class="st27"/><path id="XMLID_1454_" fill="#ddab52" d="M125.4 98.1l-5.1-3.3v-1.5l5.1 1.6z"/><path id="XMLID_1410_" d="M139.1 120.9v-.3c.1.1.1.2 0 .3zm-31.9 10.5c.5 1.5 1.3 3.1 2.8 3.7.6.2 1.2.2 1.9.2h.2v6h20.4l.5-6.1c1.5.7 2.9.9 4.3-1.3 2.1-3.3 1.9-9.1 1.7-13 0 .1.3-1.1.1-1.1.3-3.6-.5-6.3-1.4-9.8-.8-3.3-2.8-6-5.3-8.2-2.5-2.3-5.5-1.4-7.1-4.6l-2.3 2.5-2.8-2.5c-1.4 1.9-4.4 1.8-6.4 2.5-2.5.9-3.8 3-4.8 5.4-3.1 7.7-4.4 18.2-1.8 26.3z" class="st41"/><path id="XMLID_1382_" d="M134.6 77.1c.2 2.1-.5 4.3-.3 6.4.1 1.2 1.6 4.1.1 4.7-.7.3-1.5.1-2-.4.5 2.6-1 6.7-4.2 7.6-2.4.7-3.4-.2-5.7-.7-.9-.2-1.6-.5-2.5-.7-1.4-.4-1.4-.6-1.6-2-.3-2.3-.6-4.7-1-7-.2-1.2-.3-2.6.2-3.7.5-1.2 1.6-2 2.6-2.7 2-1.4 4-2.8 5.9-4.2.4-.3.8-.6 1.3-.6.6-.1 1.2.1 1.8.4 1.9.9 3.7 2.1 5.3 3.6" class="st30"/><path id="XMLID_1368_" d="M135 71.7c0 .3.2.5.5.5" class="st42"/><path id="XMLID_1375_" d="M137.4 76.7c.4-1.3.7-2.6.5-3.8-.3-1.2-.6-2.5-1.8-3.1-1-.5-2-.1-2.9-.5-1.2-.6-1.9-1.5-3.4-1.1-.7.1-1.3.5-2 .7-2.2.6-4.3-2.1-6.5-.2-.9.8-1.2 2.1-2.3 2.6-1.7.9-1.8 1.1-2.4 2.8-.5 1.4-1.5 2-1.8 3.6-.2 1.3-.9 2.4-1.1 3.7-.2 1.3.3 2.5.4 3.8 0 1.6-.2 3.2-.1 4.8 0 .6.1 1.1.1 1.7.1 1.1.1 1.9 1.2 2.4 1 .4 2.6.2 3.7 0 .5-.1 1-.3 1.2-.7.1-.2.1-.4.1-.6 0-2.1-.6-4.2-.8-6.3 0-.4-.1-.9.1-1.3.1-.4.4-.8.8-.9 1.2-.3 3.2 1.2 3.3-.5.1-1.6-.2-3.3.2-4.4.1-.2-.2-.3-.1-.5.1-.1.1-.1.3-.1.7-.2 1.5-.3 1.8-.9.2-.3.1-.7.3-1 .3-.6 1-.8 1.6-.7.9.2 1.6 1.5 2.6 1.4.6-.1.9-.9 1.5-1.1.5-.2 1 .1 1.4.4s.7.7 1.1.9c.3.2 2.4-.1 2.6-.4.1-.2.2-.5.4-.7" class="st16"/><path id="XMLID_1403_" d="M126.2 97.7c4.9 1.3 8.6 5.5 10.5 10.2s2.3 9.8 2.3 14.9" class="st42"/><path id="XMLID_1437_" d="M112.3 146.2c6.8.9 13.6.9 20.4 0 .2 0 .4-.2.4-.5v-4.9c0-.3-.3-.5-.5-.5-6.7.8-13.5.8-20.2 0-.3 0-.5.2-.5.5v4.9c0 .3.1.5.4.5z" class="st16"/><path id="XMLID_1449_" d="M125.6 146.8c-2 .1-4 .1-6 0V141c2 .1 4 .1 6 0v5.8z" class="st38"/><path id="XMLID_1444_" d="M128.6 216.9l5.1 4.3 6.8 2.3c1.7.6 3 1.9 3.5 3.6l.1.4h-13.5l-1.1-2.3v2.3h-4.9v-8.9l1.1-1.8 2.9.1z" class="st16"/><path id="XMLID_1448_" d="M114.1 216.9l-5.1 4.3-6.8 2.3c-1.7.6-3 1.9-3.5 3.6l-.1.4h13.5l1.1-2.3v2.3h4.9v-8.9l-1.1-1.8-2.9.1z" class="st16"/><path id="XMLID_1438_" d="M123.9 90.3v-12h-2.3v9.5c0 1.4 1.1 2.5 2.3 2.5z" class="st16"/><path d="M120 136.5l3.2 3 3.2-3-2-31.7H122z" class="st7"/><path fill="#679df4" d="M122.4 138.8l-2.4-2.3 2-31.7h1.2v34.7z"/><g id="XMLID_1426_"><path id="XMLID_1431_" d="M117.9 123.6c0 .1 0 .1 0 0z" class="st27"/><path id="XMLID_1430_" d="M118.4 125.6c-.3-.5-.4-1.1-.6-1.6.1-.1.1-.2.1-.4-.2.3-.7.3-.9 0-.3-.3-.3-.7-.4-1.1-.2-1.6-.2-3.3-.2-4.9-.6-.2-1.1.3-1.4.8-.5.9-.7 2.1-.4 3.1-.9-.7-2.1-.9-3.2-.6-.6.2-1.2.8-.9 1.3.2.4.9.5.9.9-.6 0-1.2.5-1.2 1.2-.1.6.4 1.2 1 1.3-.6.3-.9 1-.8 1.6.3 0 .6.1.7.3-.4 0-.6.5-.5.9.2.4.6.6 1 .6.4.1.8 0 1.2 0 .7 0 1.3.1 2 0s1.3.2 2.1.2h.5c.5-.1.8-.6 1-1.1s.3-1.1.7-1.5c-.2-.2-.6-.7-.7-1z" class="st27"/></g><path id="XMLID_1440_" d="M139.1 121v-.3c.1.1.1.3 0 .3zm-1.3 12.1l.3-.6c1.4-3.3-3.7-4.3-3.7-4.3-.8.4-1.7-.3-2.4-.9-1-.9-1.7-1.8-3-2.2-3.7-1-8-1.8-11.7-3.1 0 1.7-.5 3.2-.9 4.9 1.6.3 3 1.1 4.4 1.8 2.5 1.3 4.3 2 6.6 3.5 1.2.8 2.8.4 4.1 1 2.4 1.3 4.3 2.9 6.3-.1z" class="st44"/><g id="XMLID_1445_" class="st45"><path id="XMLID_1446_" d="M139.1 120.9v-.3c.1.1.1.2 0 .3z" class="st46"/><path id="XMLID_1447_" d="M133.1 136.9c-1.2-.2-2.3-.6-3.2-1-3.1-1.6-6.2-3.4-9.3-5-1.4-.7-2.9-1.5-4.4-1.8.4-1.7 1-3.2.9-4.9 3.7 1.3 8 2.1 11.8 3.2 1.3.4 2.1 1.3 3.1 2.2.7.6 1.6 1.3 2.4.9 0 0 5.1.2 3 3.5-1.4 2.2-2.8 2-4.3 1.3v1.6z" class="st46"/></g><g id="XMLID_1427_" class="st45"><path id="XMLID_1435_" d="M130.3 128.3c.7.6 2-19.6 2-19.6s4.2-1.1 5 2.2c.9 3.5 1.5 7.1 1.1 10.8.1 0 .2-.1.3-.2.2 3.9.4 9.6-1.7 13-1.6 2.4-7.7-7.1-6.7-6.2z" class="st46"/><path id="XMLID_1434_" d="M138.7 121.4v-.3c.1.1.1.2 0 .3z" class="st46"/></g><g id="XMLID_1417_"><path id="XMLID_1432_" d="M117.1 123.2c3.7 1.3 8 2.1 11.8 3.2 1.3.4 2.4-.8 3.4.1l.2-20s-2.1-6.4.4-4.2c2.5 2.3 4.4 5.2 5.2 8.5.9 3.5 1.6 6.9 1.3 10.5.1 0 .5 9.7-1.6 13-1.6 2.6-5.6 1.7-7.8.6-3.1-1.6-6.2-3.4-9.3-5-1.4-.7-3-1.2-4.6-1.5.4-1.7.8-3.8 1-5.2z" class="st41"/></g><path id="XMLID_1396_" fill="#231f20" d="M114.6 99.7c-2.5.9-3.8 3-4.8 5.4-3.2 7.7-4.5 18.3-1.9 26.3.5 1.5 1.3 3.1 2.8 3.7.6.2 1.2.2 1.9.2l2.2-6.8-.7-19.7c.1-.1 2.6-9.9.5-9.1z" opacity=".2"/><g id="XMLID_1418_"><path id="XMLID_1424_" d="M133.8 125.2s0 .1 0 0c0 .1 0 .1 0 0z" class="st27"/><path id="XMLID_1425_" d="M133.3 127.3c.3-.5.4-1.1.6-1.6-.1-.1-.1-.2-.1-.4.2.3.7.3.9 0 .3-.3.3-.7.4-1.1.2-1.6.2-3.3.2-4.9.6-.2 1.1.3 1.4.8.5.9.7 2.1.4 3.1.9-.7 2.1-.9 3.2-.6.6.2 1.2.8.9 1.3-.2.4-.9.5-.9.9.6 0 1.2.5 1.2 1.2.1.6-.4 1.2-1 1.3.6.3.9 1 .8 1.6-.3 0-.6.1-.7.3.4 0 .6.5.5.9-.2.4-.6.6-1 .6-.4.1-.8 0-1.2 0-.7 0-1.3.1-2 0s-1.3.2-2.1.2h-.5c-.5-.1-.8-.6-1-1.1s-.3-1.1-.7-1.5c.1-.3.6-.7.7-1z" class="st27"/></g><path id="XMLID_1436_" d="M113.1 130.9c6.3-1.3 12.7-2.5 19-3.8.7-.1 1.4-.2 2 .1.4.2.6.7.8 1.1.6 1.4-.3 3.1-.7 4.5-1.6.4-3.3.9-4.9 1.3-5.6 1.5-11.2 3-17 3.1v-2h-.2c-.6 0-1.3 0-1.9-.2-1.6-.5 2.9-4.1 2.9-4.1z" class="st44"/><path id="XMLID_1411_" d="M119 99.6c-1.4 1.9-3.2-.6-5.3.1-2.5.9-3.8 3-4.8 5.4-3.2 7.7-4.5 18.3-1.9 26.3.5 1.5 1.3 3.1 2.8 3.7.6.2 1.2.2 1.9.2 5.9 0 11.7-1.6 17.4-3.1 1.8-.5 3.8-1.1 5.7-1 .2-.7-.7-6.1-.7-6.1-1.6.5-8.4 1.6-10.2 1.9-1 .2-11.2 2-11.2 2l1.2-20.4 5.1-9z" class="st41"/><path id="XMLID_1439_" d="M120.3 104.5l-3.1-5.6c1.3-.3 2.4-.8 3.2-1.8l2.8 2.5-2.9 4.9z" class="st38"/><path d="M121.1 103l.8 1.8h2.5l.7-1.7-2-3.5z" class="st7"/><path id="XMLID_1443_" d="M128.3 99.7l-2.4 4.8-2.8-4.9 2.3-2.5c.7 1.5 1.7 2.1 2.9 2.6z" class="st38"/></g></g><g id="Layer_11"><g id="XMLID_193_"><path id="XMLID_196_" d="M255.8 205.4V216l7.5 7.5c1.9-1.9 3.1-4.5 3.1-7.5 0-5.9-4.7-10.6-10.6-10.6z" class="st3"/><path id="XMLID_195_" d="M247 208.7c-1.9 1.9-3.1 4.6-3.1 7.5h10.6v-10.6c-3 0-5.6 1.2-7.5 3.1z" class="st10"/><path id="XMLID_194_" d="M254.4 217.6h-10.6c0 5.8 4.7 10.6 10.6 10.6 2.9 0 5.6-1.2 7.5-3.1l-7.5-7.5z" class="st7"/></g><path d="M260.2 206.3c-1.4 2.2-2.3 4.8-2.3 7.6 0 1.8.3 3.5 1 5.1l4.4 4.4c1.9-1.9 3.1-4.5 3.1-7.5 0-4.2-2.6-7.9-6.2-9.6z" class="st24"/><g id="XMLID_183_"><g id="XMLID_184_"><path id="XMLID_192_" d="M288 214c0 7.8-6.3 14-14 14-7.8 0-14-6.3-14-14 0-7.8 6.3-14 14-14 7.7-.1 14 6.2 14 14z" class="st6"/><path id="XMLID_191_" d="M286.5 214c0 6.9-5.6 12.5-12.5 12.5s-12.5-5.6-12.5-12.5 5.6-12.5 12.5-12.5 12.5 5.6 12.5 12.5z" class="st13"/><path id="XMLID_190_" d="M285 214c0 6.1-4.9 11-11 11s-11-4.9-11-11 4.9-11 11-11c6-.1 11 4.9 11 11z" class="st6"/><g id="XMLID_185_"><g id="XMLID_188_"><path id="XMLID_189_" d="M275.4 219.6h-4.1c-.9 0-1.7-.8-1.7-1.7v-.9h2.4v.2h3.4c.6 0 1.2-.5 1.2-1.2 0-.4-.3-.8-.8-.8h-3c-1.8 0-3.2-1.4-3.2-3.2v-.4c0-2 1.6-3.6 3.6-3.6h4.1c.9 0 1.7.8 1.7 1.7v1h-2.4v-.3h-3.4c-.6 0-1.2.5-1.2 1.2v.4c0 .4.3.8.8.8h3c1.8 0 3.2 1.4 3.2 3.2 0 2-1.6 3.6-3.6 3.6z" class="st14"/></g><g id="XMLID_186_"><path id="XMLID_187_" d="M273.1 206.8h2.4v14.3h-2.4z" class="st14"/></g></g></g></g><g id="XMLID_57_"><g id="XMLID_119_"><g id="XMLID_121_"><path id="XMLID_122_" d="M183.1 227.6h-8.9c-.5 0-.9-.5-.8-1l1.2-6c.1-.3.3-.5.7-.5h6.8c.3 0 .6.2.7.5l1.2 6c0 .6-.4 1-.9 1z" class="st48"/></g><path id="XMLID_120_" d="M183.8 227.3l-7.1-7.2H175.1c-.2.1-.4.3-.4.5l-.6 2.9-.6 3.2c-.1.5.3 1 .8 1h8.9c.2-.1.4-.2.6-.4z" class="st6"/></g><g id="XMLID_115_"><g id="XMLID_117_"><path id="XMLID_118_" d="M171.7 227.6h-8.9c-.5 0-.9-.5-.8-1l1.2-6c.1-.3.3-.5.7-.5h6.8c.3 0 .6.2.7.5l1.2 6c0 .6-.4 1-.9 1z" class="st48"/></g><path id="XMLID_116_" d="M172.3 227.3l-7.1-7.2H163.6c-.2.1-.4.3-.4.5l-.6 2.9-.6 3.2c-.1.5.3 1 .8 1h8.9c.3-.1.5-.2.6-.4z" class="st6"/></g><g id="XMLID_105_"><g id="XMLID_111_"><path id="XMLID_112_" d="M183 212.6h-9c-.5 0-.9-.5-.8-1l1.2-6c.1-.3.3-.5.7-.5h6.8c.3 0 .6.2.7.5l1.2 6c.1.6-.3 1-.8 1z" class="st48"/></g><path id="XMLID_109_" d="M183.6 212.3l-7.1-7.2H174.9c-.2.1-.4.3-.4.5l-.6 2.9-.6 3.2c-.1.5.3 1 .8 1h8.9c.3-.1.5-.2.6-.4z" class="st6"/></g><g id="XMLID_99_"><g id="XMLID_103_"><path id="XMLID_104_" d="M194.4 227.6h-8.9c-.5 0-.9-.5-.8-1l1.2-6c.1-.3.3-.5.7-.5h6.8c.3 0 .6.2.7.5l1.2 6c0 .6-.4 1-.9 1z" class="st48"/></g><path id="XMLID_101_" d="M195 227.3l-7.1-7.2H186.3c-.2.1-.4.3-.4.5l-.6 2.9-.6 3.2c-.1.5.3 1 .8 1h8.9c.3-.1.5-.2.6-.4z" class="st6"/></g><g id="XMLID_76_"><g id="XMLID_97_"><path id="XMLID_98_" d="M177.4 220.1h-8.9c-.5 0-.9-.5-.8-1l1.2-6c.1-.3.3-.5.7-.5h6.8c.3 0 .6.2.7.5l1.2 6c0 .6-.4 1-.9 1z" class="st48"/></g><path id="XMLID_88_" d="M178.1 219.8l-7.1-7.2H169.4c-.2.1-.4.3-.4.5l-.6 2.9-.6 3.2c-.1.5.3 1 .8 1h8.9c.2-.1.4-.2.6-.4z" class="st6"/></g><g id="XMLID_72_"><g id="XMLID_74_"><path id="XMLID_75_" d="M188.8 220.1h-8.9c-.5 0-.9-.5-.8-1l1.2-6c.1-.3.3-.5.7-.5h6.8c.3 0 .6.2.7.5l1.2 6c0 .6-.4 1-.9 1z" class="st48"/></g><path id="XMLID_73_" d="M189.4 219.8l-7.1-7.2H180.7c-.2.1-.4.3-.4.5l-.6 2.9-.6 3.2c-.1.5.3 1 .8 1h8.9c.3-.1.5-.2.6-.4z" class="st6"/></g><path id="XMLID_71_" d="M178.6 203.5c-.2 0-.4-.2-.4-.4v-1.4c0-.2.2-.4.4-.4s.4.2.4.4v1.4c-.1.2-.2.4-.4.4z" class="st16"/><path id="XMLID_70_" d="M180.5 203.8c-.3-.1-.4-.3-.4-.5l.7-2.7c.1-.2.3-.3.4-.3.2.1.3.3.3.4l-.7 2.7c.1.3-.1.4-.3.4z" class="st16"/><path id="XMLID_69_" d="M182.4 204.5h-.2c-.2-.1-.2-.3-.1-.5l.7-1.2c.1-.2.3-.2.5-.1s.2.3.1.5l-.7 1.2c-.1.1-.2.1-.3.1z" class="st16"/><path id="XMLID_67_" d="M184 205.7c-.1 0-.2 0-.3-.1s-.1-.4 0-.5l2-2c.1-.1.4-.1.5 0s.1.4 0 .5l-2 2c0 .1-.1.1-.2.1z" class="st16"/><path id="XMLID_66_" d="M185.2 207.3c-.1 0-.2-.1-.3-.2-.1-.2 0-.4.1-.5l1.2-.7c.2-.1.4 0 .5.1.1.2 0 .4-.1.5l-1.2.7c-.1.1-.1.1-.2.1z" class="st16"/><path id="XMLID_65_" d="M186 209.2c-.2 0-.3-.1-.3-.3-.1-.2.1-.4.3-.4l2.7-.7c.2-.1.4.1.4.3.1.2-.1.4-.3.4l-2.8.7z" class="st16"/><path id="XMLID_64_" d="M186.2 211.2c-.2 0-.4-.2-.4-.4s.2-.4.4-.4h1.4c.2 0 .4.2.4.4s-.2.4-.4.4h-1.4z" class="st16"/><path id="XMLID_63_" d="M169.5 211.2c-.2 0-.4-.2-.4-.4s.2-.4.4-.4h1.4c.2 0 .4.2.4.4s-.2.4-.4.4h-1.4z" class="st16"/><path id="XMLID_62_" d="M171.1 209.2l-2.8-.7c-.2-.1-.3-.2-.3-.4.1-.2.2-.3.4-.3l2.7.7c.2.1.3.2.3.4.1.2-.1.3-.3.3z" class="st16"/><path id="XMLID_61_" d="M171.9 207.4h-.2l-1.3-.7c-.2-.1-.2-.3-.1-.5s.3-.2.5-.1l1.3.7c.2.1.2.3.1.5 0 0-.2.1-.3.1z" class="st16"/><path id="XMLID_60_" d="M173.1 205.8c-.1 0-.2 0-.3-.1l-2-2c-.1-.1-.1-.4 0-.5s.4-.1.5 0l2 2c.1.1.1.4 0 .5 0 0-.1.1-.2.1z" class="st16"/><path id="XMLID_59_" d="M174.7 204.5c-.1 0-.2-.1-.3-.2l-.7-1.2c-.1-.2 0-.4.1-.5.2-.1.4 0 .5.1l.7 1.2c.1.2 0 .4-.1.5-.1.1-.1.1-.2.1z" class="st16"/><path id="XMLID_58_" d="M176.5 203.8c-.2 0-.3-.1-.3-.3l-.7-2.7c-.1-.2.1-.4.3-.4s.4.1.4.3l.7 2.7c0 .1-.1.3-.4.4.1 0 .1 0 0 0z" class="st16"/></g><g id="XMLID_2_"><g id="XMLID_55_"><path id="XMLID_56_" d="M150 208.4c-2.9 0-5.5-1.6-6.6-4.1l-3.6-8.1c-.5-1.1-.4-2.2.3-3.2s1.9-1.7 3.2-1.7h5.9v1.2h-5.9c-.9 0-1.7.4-2.2 1.1-.4.6-.5 1.4-.2 2.1l3.6 8.1c.9 2.1 3.1 3.4 5.5 3.4v1.2z" class="st6"/></g><path id="XMLID_54_" d="M152.2 209.2h5.3V220h-5.3z" class="st6"/><path id="XMLID_53_" d="M157.6 212.3l-5.4.8v-3.9h5.4z" class="st49"/><g id="XMLID_50_"><path id="XMLID_52_" d="M149.2 191.3h-4.7l.1 1.2h4.6z" class="st49"/><path id="XMLID_51_" d="M146.8 207.6c1 .5 2.1.7 3.2.7v-1.2c-1.5 0-2.9-.5-4-1.4.2.7.4 1.4.8 1.9z" class="st49"/></g><g id="XMLID_48_"><path id="XMLID_49_" d="M160 208.4c2.9 0 5.5-1.6 6.6-4.1l3.6-8.1c.5-1.1.4-2.2-.3-3.2s-1.9-1.7-3.2-1.7h-5.9v1.2h5.9c.9 0 1.7.4 2.2 1.1.4.6.5 1.4.2 2.1l-3.6 8.1c-.9 2.1-3.1 3.4-5.5 3.4v1.2z" class="st6"/></g><g id="XMLID_45_"><path id="XMLID_47_" d="M160.8 191.3h4.6l-.1 1.2h-4.5z" class="st49"/><path id="XMLID_46_" d="M163.2 207.6c-1 .5-2.1.7-3.2.7v-1.2c1.5 0 2.9-.5 4-1.4-.2.7-.5 1.4-.8 1.9z" class="st49"/></g><path id="XMLID_44_" d="M155 212.2c-4.5 0-8.3-3.5-8.7-8l-1.3-13.9v-.4h19.9l-1.2 14.3c-.4 4.5-4.2 8-8.7 8z" class="st6"/><path id="XMLID_43_" fill="#f7de9f" d="M163.9 189.9l-1.2 14.3c-.3 4.4-3.8 7.8-8.2 8h.5c4.6 0 8.3-3.5 8.7-8.1l1.2-14.3h-1v.1z"/><path id="XMLID_42_" d="M147.9 204.2l-1.3-13.9v-.4H145v.4l1.3 13.9c.4 4.5 4.1 8 8.7 8h.8c-4.2-.4-7.6-3.8-7.9-8z" class="st13"/><path id="XMLID_41_" d="M156.3 212.1c1.2-.2 2.3-.6 3.3-1.2 0-.3.1-.7.1-1l1-19.6h-3.5c0-.1-.6 14.2-.9 21.8z" class="st51"/><path id="XMLID_40_" d="M157.5 215.7h-5.1c-.5 0-.9-.4-.9-.9v-.3c0-.5.4-.9.9-.9h5.1c.5 0 .9.4.9.9v.3c0 .5-.4.9-.9.9z" class="st6"/><path id="XMLID_39_" d="M157.5 219h-5.1c-.5 0-.9-.4-.9-.9v-.3c0-.5.4-.9.9-.9h5.1c.5 0 .9.4.9.9v.3c0 .5-.4.9-.9.9z" class="st6"/><path id="XMLID_38_" d="M161 220.8c0-1-.8-1.8-1.8-1.8h-8.6c-1 0-1.8.8-1.8 1.8H161z" class="st6"/><path id="XMLID_37_" d="M148.8 220.8H161c0-.2 0-.4-.1-.6H149c-.1.2-.2.4-.2.6z" class="st38"/><path id="XMLID_36_" d="M151.4 214.6v.2c0 .5.4.9.9.9h5.1c.5 0 .9-.4.9-.9v-.2h-6.9z" class="st51"/><path id="XMLID_35_" d="M151.4 217.9v.2c0 .5.4.9.9.9h5.1c.5 0 .9-.4.9-.9v-.2h-6.9z" class="st51"/><path id="XMLID_34_" d="M145 190.3l.2 1.4 19.6-.7.1-1.1H145z" class="st49"/><path id="XMLID_33_" d="M144.3 189.3h21.3v1.3h-21.3z" class="st38"/><path id="XMLID_32_" d="M156.8 189.3h4.2v1.3h-4.2z" class="st51"/><path id="XMLID_31_" d="M162.6 189.3h.7v1.3h-.7z" class="st51"/><g id="XMLID_28_"><path id="XMLID_30_" fill="#1b1d1f" d="M163.8 227.9h-17.6c-.2 0-.4-.2-.4-.4v-6.2c0-.2.2-.4.4-.4h17.6c.2 0 .4.2.4.4v6.2c0 .2-.2.4-.4.4z"/><path id="XMLID_29_" fill="#434c51" d="M153.7 227.9l9.1-7h-16.5c-.2 0-.4.2-.4.4v6.2c0 .2.2.4.4.4h7.4z"/></g><path id="XMLID_27_" d="M150.5 221.8h8.9v5.1h-8.9z" class="st15"/><g id="XMLID_23_"><path id="XMLID_25_" fill="#212121" d="M154.2 225.2h.4v-2h-.5v-.5h1v2.5h.4v.5h-1.4v-.5h.1z"/></g></g></g></svg>