<svg xmlns="http://www.w3.org/2000/svg" id="Graphics" viewBox="0 0 348.7 196.5"><style>.st0{fill:#191c3c}.st1{fill:#fff}.st2{fill:#fec55e}.st3{fill:#32364c}.st4{fill:#4d5068}.st5{fill:#e2b34b}.st6{opacity:.3;fill:#191c3c;enable-background:new}.st7{fill:#4a5594}.st8{fill:#e08f4c}.st9{fill:#394e91}.st10{fill:#d8b056}.st11{fill:#2f3975}.st14{fill:#474963}.st16{fill:#c5c7d3}.st17{opacity:.1;fill:#191c3c;enable-background:new}.st19{fill:#dfe2ec}.st20{fill:#676b82}.st21{fill:#1e2022}.st26{fill:#00c9a7}.st27{fill:none;stroke:#191c3c;stroke-miterlimit:10}.st28{fill:#ffc107}.st32{fill:#19a0ff}.st33{fill:#377dff}.st34{fill:#81c3ea}</style><g id="Layer_16"><path d="M137.8 98.6l-13.6 5.6c-5.1 2.1-8.4 7.1-8.4 12.6l-4.5 49.1 90.8.4v-16.9c0-13-3.5-25.8-10.2-36.9l-4.3-7.2c-2.7-4.5-7.4-7.6-12.7-8.2l-11.8-1.4-3.2-2.4-22.1 5.3z" class="st0"/><path d="M136.9 98.9l.9 6.4v17.9l8.6 42.8 9.9-38.7 6.6-30.8-3.1-2.4-22 4.5z" class="st1"/><path d="M144.1 114.3l-1.8 33.7 3.9 17.4 3.9-16.4 1.2-34.7z" class="st2"/><path d="M164.6 73.3c0-.9-.2-1.8-.8-2.5-.4-.4-.9-.8-1.2-1.3-.1-.2-.1-.5-.2-.8-.1-.6-.3-1.2-.7-1.7-.9-1.2-2.5-1-3.6-1.9-.4-.3-.8-.8-1.1-1.2-.4-.5-.7-1.4-1.2-1.7-.4-.2-1 0-1.4.2-.9.5-1.9 1.4-3 1.1-1-.3-1.7-1-2.7-1.2-2.3-.4-4.1 2.3-6.4 2.3-.7 0-1.4-.3-2.1-.1-.8.2-1.3 1-1.7 1.8-.3.8-.6 1.6-1.1 2.3-.5.6-1.3.9-1.9 1.5-1 1-1.1 2.5-1.2 3.9-.1 1.2-.2 2.3-.1 3.5.1 3 .9 6.1 2.5 8.7h.1c.2-.4.7-.6 1.1-.7 1-.2 2-.5 3.1-.7.9-.2 1.8-.4 2.7-.4s1.8.2 2.7.5c2.1.5 4.3 1.1 6.4 1.6 1.5.4 3.1.8 4.5 1.6 1.3.7 2.4 1.7 3.2 2.8.6-2.3 1.5-4.6 2.8-6.6.2-.4.5-.8.6-1.2.2-.7-.1-1.4-.1-2.1 0-1.2.6-2.3.7-3.4 0-.7-.2-1.4-.2-2.1.1-.6.3-1.1.4-1.6-.1-.2-.1-.4-.1-.6z" class="st3"/><path d="M164 95.7l2.6 8.9-3.5 1.9 3.5 3-20.2 56.5-.4-2.5 11.9-65.7 2.1-4.6 3.1 2.4z" class="st4"/><path d="M136.9 98.9l-7.2 11.7 3.4 2.5-3.4 4 16.7 48.9z" class="st4"/><path d="M148.1 109.3l-7.3 5.6h14l.1-.5z" class="st2"/><path d="M135.1 80.1c-.8.9-1.2 2.1-1.1 3.4l.4 4.1c.1.9.4 1.7.9 2.4 0 0 0 .1.1.1.9 1.1 2.7 1.1 3.6-.1l.3-.4-.8-7.9-3.4-1.6zm26.9 2c.8.9 1.2 2.1 1.1 3.4l-.4 4.1c-.1.9-.4 1.7-.9 2.4 0 0 0 .1-.1.1-.9 1.1-2.7 1.1-3.6-.1l-.3-.4.8-7.9 3.4-1.6z" class="st5"/><path d="M158.5 94.3l-20.8 4.2-.9.4.1.7c.2.5.5 1 .8 1.5l3.3 5.5c1.2 2.1 3.4 3.3 5.8 3.3s4.5-1.2 5.8-3.2l3.6-5.7c1.1-1.7 1.8-3.6 2.1-5.6l.2-1.1z" class="st6"/><path d="M136.8 78.7v14.4c0 2.8.8 5.6 2.2 8l3.3 5.5c1.2 2.1 3.4 3.3 5.8 3.3s4.5-1.2 5.8-3.2l3.6-5.7c1.1-1.7 1.8-3.6 2.1-5.6l.9-5.3V76.4l-23.7-.6v2.9z" class="st5"/><path d="M151.5 89.6l-1.4 7c-.1.6-.6.9-1.2.7l-1.7-.7-.5.8 2.8 1.1c.5.2 1.1-.1 1.2-.7l.8-8.2z" class="st7"/><path d="M160.5 90.5c-.8-3.2-1.2-6.4-1.3-9.7 0-1 0-2.1-.4-3.1-.4-.9-1.6-.3-2.4-.5-1.1-.3-2-1-3.2-1-1.1-.1-1.7.4-2.6 1-.4.3-.9.7-1.4.9-.7.3-1.5.3-2.2.1-1.5-.4-2.8-1.3-4.3-1.8s-3.4-.5-4.3.8c-.6.9-.5 2.1-.3 3.2s.6 2.1.4 3.2c-.1 1.1-.8 7.4-1.9 7.3l-1.1-18.8 14.4-3.1 12.1 2.9-1.5 18.6z" class="st3"/><path d="M140.8 158.1v-2.9c0-.3-.1-.6-.3-.9l-2.2-3.2-7.3-2.2-4.3 2.2c-.4.2-.7.6-.9 1l-1.8 5.3-3.1 2.8s-1.6 1.1-2.1 3.6c-.3 1.9 2.2 2 2.2 2l3.3.1h3.1v-1.2l3 .1c.3 0 .6-.1.8-.2.9-.5 1.2-1.9.3-2.4l-3.2-2.1c-.2-.1-.8-.2-.7-.5.1-.3.5-.4.7-.2l4.3 3c.6.4 1.3.4 1.9-.1.7-.5.8-1.4.3-2.1l-1.1-1.6-4.1-2.1c.3-.4.8-.6 1.2-.3l3 1.8 1.4 1.7c.6.7 1.6.8 2.3.2.6-.5 1-1.4.6-2.1l-1.8-2.8-4.9-2.5c.3-.4.8-.5 1.2-.3l3.3 2 1.9 1.6v.2c.5 1.3 1.7 2.2 3 2.1z" class="st5"/><path d="M123.5 157.4s-11.1 9.2.8 8.5h-6.5s-3-3.3 6.8-10.3l-.7 1.9-.4-.1z" class="st1"/></g><g id="Layer_14"><path d="M79.7 93h19v34.9h-19z" class="st8"/><path d="M128.5 116.4l-10.5 8-.4-7.4 7.5-7.2z" class="st7"/><path d="M103.7 111.9l12.9 5.9-13.9 48.4H59l13.7-56 7.1-.7 6-4.7z" class="st9"/><path d="M86 103.4s-.3 4.6-1.4 5.8l-1.5 4.9v28.5l11.8.9 3.8-27.8s0-2.5 1.4-3.2-5.7-9-5.7-9l-8.4-.1z" class="st10"/><path d="M84.1 118.7l-1.1 7.5-.7 31.9 6.9 1.7 7.9-38.1c-4 2.5-9.3 1.6-12.2-2.1l-.8-.9z" class="st1"/><path d="M79.8 109.5l-3.7 11.7 4.5 3.6-4.5 2.3 2.2 29.2 6.2.1-.3-50.4zM102.9 112.4l3.8 10-5.7 1.8 4.5 4.6-14.8 31-6.2-.6 16.4-48.7z" class="st11"/><path d="M106.1 86.6c-.2-1.5-.5-3-1.6-4.1-.6-.6-1.4-1.1-2.2-1.6-1.7-1-3.3-2-5-2.9-.9-.5-2-1.1-3-.8-.5.2-.9.5-1.4.6-.7.2-1.4-.2-2.1-.3-1.6-.3-3.2.6-4.5 1.5-1.2.8-2.5 1.6-3.5 2.6-1.7 1.8-2.4 4.2-2.7 6.5-.3 2.3-.4 8.5-.4 8.5 3.9 1.9 8.7.1 12.9-1.1 4.2-1.2 8-3.4 11.6-5.7.8-.5 1.6-1 1.8-1.8.3-.3.2-.9.1-1.4z" class="st8"/><path d="M86 103.4s0 .3-.1.9h.4l.9 2.6c.7 1.8 2.1 3.3 3.9 3.9l4.8 1.1c.9.3 3.4.5 4 .6.2-.4-.4.2 0 0 1.4-.7-5.7-9-5.7-9l-8.2-.1z" class="st6"/><path d="M106.3 85.7s.7 4.6 1.1 6.1c.1.3.1.6.1 1l-.2 1.6s.9 2.7 1.1 4.2c0 0 .4 2.5-.6 5.3 0 0-2.3 6.5-3.5 7.6 0 0-1.9 1.7-5.6.4l-5.7-2c-1.8-.6-3.3-2.1-3.9-3.9l-.9-2.6h-2c-.5 0-.9-.2-1.2-.5l-.9-1c-1-1.1-1.5-2.5-1.5-4v-1.3s.6-2.6 3-1.3l1.9 2 .4-.1V93s4.2-7.8 10-8.6c.6-.1 1-.6 1-1.1V83c-.3-.1 4.4-1.1 7.4 2.7z" class="st10"/><path d="M105.3 99.2l-1.9-4.1 1 4.1c.4 1-.3 2-1.3 2h.9c1.1 0 1.8-1.1 1.3-2z" class="st7"/><path d="M91.6 103.4c-2.1-4-4.7-8.4-3-13 .2-.6-.8-.9-1-.3-.6 1.7-.7 3.4-.5 5.1-.2.1-.3.2-.3.5-.1 3.4 1.3 6.3 3.9 8.4.5.3 1.2-.1.9-.7z" class="st8"/><path d="M77.8 112l2.1-2.5-10.2 1c-4.1.4-7.6 3.2-8.8 7.2L48.3 160c-.9 3.1 1.4 6.2 4.6 6.2H87v-9.8l-23.4-.4 4.2-17.8 4.3-21 5.7-5.2z" class="st9"/><path d="M87 157.6h2.8c1.8 0 3.4-.9 4.3-2.5l8-13.4 6.4-2.6-.7 1.9-4.3 1.8-1.1 1.9 1.9-1.3h2.6l-5.9 16.5-1.3 1.1c-1.3 1.1-2.9 1.9-4.6 2.1l-8.2 1.3.1-6.8z" class="st10"/><path d="M105.9 141.8l2-.8.7-1.9-2.1.8zM99.8 161.1l1.3-1.1 5.9-16.5h-1.7l-6.6 18.4c.4-.2.7-.5 1.1-.8z" class="st6"/><path d="M98.9 166.2l10.9-30.7 9.4.8-5.5 29.9z" class="st9"/><path d="M124.1 112.3l1.1-1c.4-.4.4-1 0-1.4l-.3-.3c-.4-.4-1-.4-1.4 0l-1.1 1c-.4.4-.4 1 0 1.4l.3.3c.4.3 1 .4 1.4 0zm.3 3.4l3.2-2.2c.4-.3.5-.9.2-1.3l-.2-.3c-.3-.4-.9-.5-1.3-.2l-3.2 2.2c-.4.3-.5.9-.2 1.3l.2.3c.3.3.9.5 1.3.2zm1.3 2l3.3-2.1c.5-.3.6-.9.3-1.3l-.2-.3c-.3-.5-.9-.6-1.3-.3l-3.3 2.1c-.5.3-.6.9-.3 1.3l.2.3c.3.4.9.6 1.3.3z" class="st10"/><path d="M128.4 116l-10 6.9c1.6-1.4.8-3.6.8-3.6V117l1.9-1.2c.6-.4.7-1.1.4-1.7-.4-.6-1.1-.7-1.7-.4l-3.7 2.3-4.8 9.3v10.1l6.8.7 3-9.3c5.9-1.8 7.7-9.1 7.7-9.1l-.4-1.7z" class="st10"/><path fill="#3a3c4e" d="M57 141.1c4 0-1.3-4.8 2.8-5 1.6-.1 4.1.2 3.4-1.3-.7-1.3-2.9-1.1-3.7-2.3-1.6-2.6 0-5.5.8-8.2.8-3 3.3-8.7 4.1-11.8-1.6 1.3-2.8 3-3.4 5.1l-4.6 15.6-.4.8-.3.9-7.4 25.1c-.2.8-.3 1.6-.1 2.3 2.1-3.7 3.6-8.7 4.7-12.7.7-2.8 2.7-8.5 4.1-8.5z" opacity=".4"/><path d="M85.1 104.9l-.5-1.5-2.9-2.8-1.2-9.5c-1.3 1.7-.5 3.7-1 5.6-.4 1.4-1.5 2.8-1.8 4.2-.3 2.1 1.3 4.3.2 6.2-1.1 1.9-4.5 3-4.6 5.1 0 1.4 1.6 2.6 1.6 4 0 1.2-1.3 2.3-.8 3.4.2.5.7.9.7 1.4s-.5 1-.3 1.5c.2.8 2 .9 2.7.3.8-.6.7-1.5.3-2.3-.4-.8-1.1-1.4-1.4-2.2-.1-.3-.2-.6 0-.9.4-.7 1.9-.6 2.7-1.1 1.4-.8.4-2.3-.6-3.3.8-.7 2.1-.8 3.3-1 1.2-.2 2.5-.7 2.6-1.6.1-.8-1-1.5-.8-2.3.1-.7 1-1.1 1.7-1.5.5-.5.8-1.4.1-1.7z" class="st8"/><path d="M129.9 125.1l-1.2 1.3-9.8-16.8c-.3-.6.1-1.3.8-1.3.3 0 .6.2.8.4l9.4 16.4z" class="st0"/><path fill="#75778a" d="M129.5 125.1l-9.5-16.4c-.1-.2-.3-.3-.5-.4-.1 0-.2.1-.2.1.1.1.3.2.3.3l9.5 16.4h.4z"/><circle cx="129.2" cy="125.7" r=".9" class="st14"/><path fill="#2c2d3b" d="M74.5 156.2c-1.9-.1-4.4-.2-6.9-.4-2.5-.1-5-.2-6.9-.1-1.9 0-3.2.1-3.2.1l.1 1.1c-1.1.3-1.9.6-1.9.6s2-.4 4.2-.6c-.8.6-1.5 1.3-1.5 1.3s.9-.5 1.9-.9c.4-.2.8-.3 1.1-.5 1.7-.1 3.2-.3 3.6-.4.9 0 1.7-.1 2.6-.1 2.5 0 5-.1 6.9-.1 1.9 0 3.1-.1 3.1-.1s-1.2.2-3.1.1z" opacity=".4"/></g><g id="Layer_17"><path d="M278 165.9h-22.2l-4.6-10-3.4 10h-23.6v-31.5H278z" class="st16"/><path d="M233.1 151.6l-.3-.1c-.1 0-.1 0-.2-.1s-.3-.1-.3-.2c-.1-.2-.1-.4-.1-.7v-.6c0-.3 0-.5-.1-.8-.1-.4-.5-.8-.7-1.1l-.7-.7c-.3-.4-.4-.9-.1-1.4.3-.5.7-1 1.2-1.5l1.5-1.4 6-5.6-6.4 5.1-.2.2 1-1.3-3.8-7h-5.6v31.5H235c.4-1.4.6-2.9.4-4.4-.1-1-.5-2-1-2.9l-.2-.3-.1-.1s-.1-.1-.1-.2c-.1-.1-.1-.3 0-.4 0-.1.1-.1.2-.2h.1l.1-.1.3-.2.5-.4.8-.6.1-.1c1.3-1 1-3-.6-3.6l-.7-.2-1.7-.6z" class="st17"/><path d="M288.7 133.1c-.1-.3-.2-.7-.1-1.1.1-.4.3-.7.5-1 1.3-1.9 1.1-4.4.9-6.6 0-.3-.1-.5-.3-.7-.1-.1-.3-.1-.5-.2-2.1-.2-4.4-.4-6 1l.8-.3c-1.5.5-2.9 1-4.2 2-1.2 1-2.1 2.4-1.9 4 .1 1.4 1.2 2.6 1.3 4.1.1.6 0 1.3.3 1.9.3.6 1 .9 1.7 1.1 2.2.7 4.4 1.1 6.7 1.1.7 0 1.6-.2 1.8-.8.1-.3 0-.6-.1-.9-.2-1.3-.5-2.4-.9-3.6z" class="st2"/><path fill="#2e3347" d="M234 46.6l22-6.7 9.9 2.5 4 48v44h-38.3l-3.8-71.3z"/><path d="M229.9 130.9H278v5.9h-48.1z" class="st0"/><path d="M242.9 130.9h12v5.9h-12z" class="st19"/><path d="M260.9 39.6l12.1 1.6c3.7.5 6.5 3.6 6.6 7.4l.4 26.1-6.8 22.5 9.8 43.7c-11 1.2-21.2-5.9-23.9-16.7l-5.1-20.7s7.6-11.1 8.4-28.9l-4.6-35h3.1zM231.2 42.7l-14.8 9.9c-2 1.3-3.1 3.6-2.8 6l8.6 85.7c14 0 26.1-9.6 29.2-23.3l3.4-14.6 1.9-5.7L241.3 56l-10.1-13.3z" class="st16"/><path d="M231.2 42.7l-.8 10.6 4.5 2.3-2.2 4.4 22.3 41.1 1-2.4-13.7-44z" class="st20"/><path d="M260.9 39.6l4.7 9.2-1.5 2.2 2.4 2.5s4 19.8-.9 28.7l-11.7 21.3s6.4-16.4 7.1-26.5l-4.6-37.7 4.5.3z" class="st20"/><path d="M257.6 23.6c-.2-1.6-.2-3.3-1-4.7-.4-.6-.9-1.2-1.4-1.7-.4-.4-.9-.9-1.3-1.2-.9-.6-2-.9-3-1.3-1.1-.3-2.2-.7-3.4-.8-1.8-.3-3.7-.1-5.5 0-1.4.1-2.8.2-4.1.7-2.6 1-4.2 3.5-5.5 6-.3.5-.5 1-.7 1.5-.2.8-.2 1.6-.2 2.4.1 2.4.1 4.7.2 7.1 0 0-.4 0 0 .3.4.4.9.6 1.4.7 1.8.5 3.7.2 5.6.2 3.3.1 6.5 1 9.6 2 .7.2 1.5.5 2.2.8.6.3 1.1.6 1.7.8 1.4.5 3.1.4 4.6.2.6-.1 1.2-.2 1.6-.6.4-.4.5-1.1.6-1.7.1-1 .2-1.9.2-2.9-.2-2.7-1.2-5.2-1.6-7.8z" class="st21"/><path d="M231.2 42.7l-15.3 10.2c-1.7 1.1-2.8 3-2.9 5.1l-1.6 48.7L216 145h11.5l-1.4-40.9 2.1-26 3-35.4z" class="st16"/><path d="M217.9 145v3.1l-1.6 1.7c-.9.9-1.4 2.1-1.6 3.3l-1.3 11.1c-.1.8.6 1.6 1.4 1.6h.4c.7 0 1.3-.6 1.4-1.3l.3-5 .8 5.1c.1.7.7 1.2 1.4 1.2h.8c.8 0 1.4-.6 1.4-1.4v-7c0-.1.2-.1.2 0l1.2 7.2c.1.7.7 1.2 1.4 1.2h.4c.8 0 1.5-.7 1.4-1.6l-.4-3.4c-.1-.4 0-.9.1-1.3l1.5-5 1.9 2.4c-.5 1.9.5 3.8 2.4 4.5l.2.1-.3-7.6c-.1-1.3-.6-2.6-1.6-3.4l-3.7-3.3V145h-8.1z" class="st2"/><path d="M233 26.4v16.9c0 .8.2 1.5.5 2.2l5.9 13.2c.9 2.1 3 3.4 5.3 3.4 1.8 0 3.4-.8 4.5-2.2l7.1-9.8c.9-1.2.3-1.8.3-3.2v-17c0-1.5.5-2.8-.7-3.6l-9.2-5.4-11.3 2.6c-1.5.3-2.4 1.5-2.4 2.9z" class="st6"/><path d="M231.3 25.8v16.9c0 .8.2 1.5.5 2.2l5.9 13.2c.9 2.1 3 3.4 5.3 3.4 1.8 0 3.4-.8 4.5-2.2l7.3-9c.9-1.2 1.5-2.6 1.5-4.1l1-17c0-1.5-1.8-2.8-3-3.6l-9.2-5.4-11.3 2.6c-1.5.3-2.5 1.5-2.5 3z" class="st2"/><path fill="#212121" d="M239.3 44.4c-.5-.3-.6-1-.4-1.5.3-.7-.3-7.7-.3-8.4l-.2-.2s.5 6.8-.5 8.9c-.2.5-.1 1.2.4 1.5.7.5 1.8.9 3.2.6l-.1-.2c-.9 0-1.6-.3-2.1-.7z" opacity=".3"/><path d="M256.2 34.6s.7-1.2 1.9-2c1.1-.6 2.5.2 2.4 1.5 0 0-.3 2.5-1.4 3.8 0 0-.9 2.2-2.9 2.3v-5.6z" class="st2"/><path d="M231.4 28c.9-.2 1.4-1.2 1.9-2s1.4-1.5 2.3-1.2c.4.2.6.5.9.8 1.1 1.1 2.7 1.3 4.2 1.5 1.4.1 2.9.2 4.2-.4.6-.3 1.1-.7 1.7-1 1.9-.8 4.4.3 5 2.3.2.7.2 1.5.2 2.2v2.3c0 .2 0 .4.1.7.1.4.6.7 1.1.8s.9 0 1.4-.1c.1.7-.1 1.5 0 2.2 0 .3.1.5.2.8.1.4 0 .7 0 1.1-.1.3-.2.6-.2 1 0 .5 2.2 2.5 2.2 2 .1-3.8-.2-7.3 1.5-8.4.3-5.9.1-3.7-.2-9.6-.1-1.2-.2-2.5-.9-3.5-.7-.9-1.9-1.4-3.1-1.7-4.3-1.2-8.8-1.4-13.2-.5-.7.1-1.4.3-2.1.6-.7.3-1.4.7-2.1.9-.9.3-2-.1-2.7.3-.9.4-1.5 2-1.8 2.9-.3 1.2-.4 2.5-.5 3.7-.1.7-.1 1.5-.2 2.2" class="st21"/><path d="M256.3 104.2c0 .5-.4 1-1 1s-1-.4-1-1 .4-1 1-1 1 .4 1 1z" class="st4"/><path d="M273.4 97.6l-.3-.3c.1 0 .2-.1.2-.1l6.8-22.5v-2.9c-1.1 2.1-3.5 3-4.3 5.2-.4 1.1 0 1.7-.1 2.8-.2 1.3-1.1 1.9-1.6 3.1-.7 1.6-.4 4-.7 5.6-.2 1-.1 1.9-.2 2.9-.4 3.3-2.7 3.4-5.5 3.5-2 .1-2.3 2.7-.5 3.4 1.2.5 2.7.9 3.7 1.8 1.8 1.4 1.7 3 1.8 5 .1 2.8 1.5 5.2 2.1 7.9 1.2 4.9 1.7 9.9 5.1 13.7l-6.5-29.1z" class="st17"/><path d="M260.9 39.6l14.9 2c2.4.3 4.6 1.6 6 3.4l18.5 38.8c1 2.2 1.3 4.7.7 7l-8.8 34h-12l6.8-35.2-14.3-27-11.8-23z" class="st16"/><path d="M227.8 142.3v-.8-2.1c0-1.9 0-4.5-.2-7.7s-.5-6.9-1-10.8c-.4-3.9-.9-8.2-1.3-12.4-.4-4.2-.6-8.5-.6-12.5s.3-7.7.7-10.9c.4-3.1 1-7.2 1.5-8.9.2-.9 0-1.8.1-2.2.2-.4.1-2.5.1-2.5l1.4 4.4s.2.7.1 1.2c-.1.4-.3 1.3-.5 2.1-.5 1.6-1.5 3.2-2 6.3-.5 3-.8 6.7-.8 10.6-.1 3.9.1 8.2.5 12.4.3 4.2.8 8.4 1.1 12.4.4 4 .7 7.7.8 10.9.2 3.2.2 5.8.1 7.7 0 .9 0 1.7-.1 2.1.1.4.1.7.1.7z" class="st0" opacity=".1"/><path d="M256.2 46.2l.2-5.4-2.2-1.7.2 6.6-6.7 7.8-.5-2.4-4.5-3.3-4.9.2-2.4 5 2.2 4.8c.9 2.1 3 3.4 5.3 3.4 1.8 0 3.4-.8 4.5-2.2l7.3-9c1-.8 1.5-2.3 1.5-3.8z" class="st21"/><path d="M238.6 50.9l4.9-.3 2.1 2 .6 3.4-2.5 2.6h-3.4l-2.1-1.9-.6-3.4z" class="st2"/><path d="M240.7 55.2h2.4v4.6h-2.4z" class="st21"/></g><g id="Layer_13"><path d="M13.3 173.1h320.9v23.4H13.3z" class="st1"/><path d="M334.2 183.6l-320.9-5.5v-9.5h320.9z" class="st19"/><path d="M1.2 164.4h347.5v7.9H1.2z" class="st1"/><g id="XMLID_90_"><g id="XMLID_97_"><g id="XMLID_98_"><path id="XMLID_99_" d="M220.3 165.2h-66.5c-2.1 0-4-1.2-4.8-3.1l-1.6-3.5h79.5l-1.6 3.5c-1 1.9-2.9 3.1-5 3.1z" class="st19"/></g></g><g id="XMLID_94_"><g id="XMLID_95_"><path id="XMLID_96_" fill="#f5f7f9" d="M221.3 161.9h-68.4c-1.8 0-3.2-1.4-3.2-3.2v-41.8c0-1.8 1.4-3.2 3.2-3.2h68.4c1.8 0 3.2 1.4 3.2 3.2v41.8c0 1.7-1.4 3.2-3.2 3.2z"/></g></g><g id="XMLID_91_"><g id="XMLID_92_"><circle id="XMLID_93_" cx="187.1" cy="139.3" r="5.3" fill="#e6e7e8"/></g></g></g><path d="M30.9 144.3c-.1 0-.1.1-.2.1-1.8.9-2.8.7-4.6-.1-1.6-.8-3.2-1.7-4.6-2.9-1.7-1.5-3.1-3.6-3.3-5.8-.1-.5-.1-1.1.2-1.5.4-.6 1.3-.7 1.9-.4.7.3 1.2.8 1.7 1.2.2.2.5.4.8.5s.6 0 .8-.3c.2-.4-.2-.9-.5-1.2-.9-.7-1.7-1.1-2.5-1.8-1.1-.8-2.2-1.8-2.8-3-.6-1.2-.8-2.8-.1-4 .2-.4.5-.7.8-.9.6-.4 1.4-.4 2.2-.2.7.2 1.4.4 2.2.5 1.7.2 2.4-1 2.4-2.6 0-1.1-.4-2.1-.4-3.2-.1-1.9.8-3.9 2.5-4.7 1.7-.8 4.1 0 4.7 1.8.7 1.9-.9 4.1.2 6 .3.6 1.1 1.4 1.6 1.8 1 .6 2.3-.1 3.4-.1.2 0 .5 0 .7.2.1.1.2.3.2.5.3 1.4-.2 2.8-1.2 3.8-1.2 1-3.2 1.6-3.6 3.2-.3 1-.2 3.6 1.5 3.3.6-.1 1-.7 1.6-.9.7-.2 1.5.2 1.9.9.3.7.2 1.5-.1 2.2-.4 1.1-1.3 2-2.1 2.9-1.9 1.9-3 3.6-5.3 4.7z" class="st26"/><path d="M28.5 120.6v23.7M33.1 127.5l-4.6 4.6-4.6-4.6M33.1 136.7l-4.6 4.6-4.6-4.6" class="st27"/><path d="M28.6 164.2c-7.2 0-13-5.8-13-13v-6.8h26.1v6.8c0 7.2-5.9 13-13.1 13z" class="st28"/><path fill="#efa02e" d="M37.2 144.3v6.8c0 6.4-4.7 11.8-10.8 12.8.7.1 1.5.2 2.2.2 7.2 0 13-5.8 13-13v-6.8h-4.4z"/><path d="M296.2 98.4l.3-.6h2.8l1.5-5.6h-14.2l-1.6 8.2h7.5c1.5-.1 2.9-.9 3.7-2zm2.1.7c0 .5.1 1 .3 1.5l.4-1.5h-.7z" class="st6"/><g id="XMLID_1_"><g id="XMLID_87_"><g id="XMLID_88_"><path id="XMLID_89_" fill="#fed17e" d="M279.8 98.6h12.8c2.4 0 4.4-2 4.4-4.4h-21.5c-.1 2.5 1.8 4.4 4.3 4.4z"/></g></g><g id="XMLID_84_"><g id="XMLID_85_"><path id="XMLID_86_" fill="#fde8bd" d="M279.8 97.7h12.8c2.1 0 3.9-1.5 4.3-3.4h.1c0 2.4-2 4.4-4.4 4.4h-12.8c-2.4 0-4.4-2-4.4-4.4h.1c.4 1.9 2.2 3.4 4.3 3.4z"/></g></g><g id="XMLID_81_"><g id="XMLID_82_"><path id="XMLID_83_" d="M301 94.2h2.2v5.7H301z" class="st0"/></g></g><g id="XMLID_78_"><g id="XMLID_79_"><path id="XMLID_80_" d="M306.5 99.2h2.2v5.7h-2.2z" class="st0"/></g></g><g id="XMLID_75_"><g id="XMLID_76_"><path id="XMLID_77_" d="M305.8 100h5.7v2.2h-5.7z" class="st0"/></g></g><g id="XMLID_72_"><g id="XMLID_73_"><path id="XMLID_74_" d="M272 96.1h32v-5.6h-26.3c-3.2 0-5.7 2.5-5.7 5.6z" class="st0"/></g></g><g id="XMLID_69_"><g id="XMLID_70_"><path id="XMLID_71_" d="M277.3 92.6c-2.3 0-4.3 1.4-5.2 3.5h-.1c0-3.1 2.5-5.6 5.6-5.6H304v2.2l-26.7-.1z" class="st14"/></g></g><g id="XMLID_63_"><g id="XMLID_64_"><path id="XMLID_68_" d="M298.3 97.5h10.9v5h-5.9c-2.8 0-5-2.3-5-5z" class="st0"/></g></g><g id="XMLID_60_"><g id="XMLID_61_"><path id="XMLID_62_" d="M318.7 98.6h1.4v32.9h-1.4z" class="st0" transform="rotate(-32.092 319.42 115.054)"/></g></g><g id="XMLID_57_"><g id="XMLID_58_"><path id="XMLID_59_" d="M314.7 102h1.4v29.6h-1.4z" class="st0" transform="rotate(-31.951 315.398 116.836)"/></g></g><g id="XMLID_49_"><g id="XMLID_50_"><path id="XMLID_51_" d="M299.2 142.6h32.9v1.4h-32.9z" class="st0" transform="rotate(-57.912 315.65 143.333)"/></g></g><g id="XMLID_46_"><g id="XMLID_47_"><path id="XMLID_48_" d="M304.8 144.5h29.6v1.4h-29.6z" class="st0" transform="rotate(-58.041 319.629 145.162)"/></g></g><g id="XMLID_43_"><g id="XMLID_44_"><path id="XMLID_45_" d="M326.1 130.9c0 1.3 1 2.3 2.3 2.3s2.3-1 2.3-2.3-1-2.3-2.3-2.3-2.3 1-2.3 2.3z" class="st0"/></g></g><g id="XMLID_40_"><g id="XMLID_41_"><path id="XMLID_42_" d="M322.9 128.5h5.7v4.7h-5.7z" class="st0"/></g></g><g id="XMLID_37_"><g id="XMLID_38_"><path id="XMLID_39_" d="M320.5 130.9c0 1.3 1 2.3 2.3 2.3s2.3-1 2.3-2.3-1-2.3-2.3-2.3-2.3 1-2.3 2.3z" class="st14"/></g></g><g id="XMLID_34_"><g id="XMLID_35_"><circle id="XMLID_36_" cx="313" cy="156.7" r="2.3" class="st0"/></g></g><g id="XMLID_31_"><g id="XMLID_32_"><path id="XMLID_33_" d="M307.5 154.3h5.7v4.7h-5.7z" class="st0"/></g></g><g id="XMLID_28_"><g id="XMLID_29_"><path id="XMLID_30_" d="M305.1 156.7c0 1.3 1 2.3 2.3 2.3s2.3-1 2.3-2.3-1-2.3-2.3-2.3c-1.2-.1-2.3 1-2.3 2.3z" class="st14"/></g></g><g id="XMLID_2_"><g id="XMLID_26_"><path id="XMLID_27_" d="M296.8 164.1h26.1c0-3-2.4-5.4-5.4-5.4h-15.4c-2.9.1-5.3 2.5-5.3 5.4z" class="st0"/></g></g></g><g id="XMLID_919_"><path id="XMLID_882_" d="M130.7 16.8h2.7c.5 0 1-.4 1-1v-3.4c0-.5-.4-1-1-1h-2.1c-.3 0-.6-.2-.8-.5-.1-.2-.2-.4-.2-.6-.1-.3-.1-.7.2-.9l1.5-1.5c.4-.4.4-1 0-1.4l-2.4-2.4c-.4-.4-1-.4-1.4 0l-1.5 1.5c-.2.2-.6.3-.9.2l-.6-.3c-.3-.1-.5-.4-.5-.8V2.6c0-.5-.4-1-1-1h-3.4c-.5 0-1 .4-1 1v2.1c0 .3-.2.6-.5.8l-.6.3c-.3.1-.7.1-.9-.2l-1.5-1.5c-.4-.4-1-.4-1.4 0L112 6.5c-.4.4-.4 1 0 1.4l1.5 1.5c.2.2.3.6.2.9l-.3.6c-.1.3-.4.5-.8.5h-2.1c-.5 0-1 .4-1 1v3.4c0 .5.4 1 1 1h2.1c.3 0 .6.2.8.5.1.2.2.4.2.6.1.3.1.7-.2.9l-1.5 1.5c-.4.4-.4 1 0 1.4l2.4 2.4c.4.4 1 .4 1.4 0l1.5-1.5c.2-.2.6-.3.9-.2l.6.3c.3.1.5.4.5.8v2.1c0 .5.4 1 1 1h3.4c.5 0 1-.4 1-1v-2.1c0-.3.2-.6.5-.8.2-.1.4-.2.6-.2.3-.1.7-.1.9.2l1.5 1.5c.4.4 1 .4 1.4 0l2.4-2.4c.4-.4.4-1 0-1.4l-1.5-1.5c-.2-.2-.3-.6-.2-.9.3-.6.5-1.2.5-1.2zm-13.5-3.6c.6-3 3.7-4.7 6.5-3.6 2.1.8 3.4 3.1 3 5.4-.6 3-3.7 4.7-6.5 3.6-2.1-.8-3.4-3.1-3-5.4z" class="st32"/><path id="XMLID_906_" d="M128 14.1c0 3.4-2.7 6.1-6.1 6.1s-6.1-2.7-6.1-6.1 2.7-6.1 6.1-6.1 6.1 2.7 6.1 6.1z" class="st1"/><circle id="XMLID_907_" cx="121.9" cy="14.1" r="2" class="st33"/><g id="XMLID_918_"><path id="XMLID_925_" d="M135 27.5h-2.5c-.3 0-.5-.2-.5-.5s.2-.5.5-.5h1.5v-1.6c0-.3.2-.5.5-.5s.5.2.5.5v2.6z" class="st32"/></g><g id="XMLID_923_"><path id="XMLID_924_" d="M109.6 3.2c-.3 0-.5-.2-.5-.5V0h2.5c.3 0 .5.2.5.5s-.2.5-.5.5h-1.5v1.6c0 .4-.3.6-.5.6z" class="st32"/></g></g><g id="XMLID_957_"><g id="XMLID_969_"><path id="XMLID_980_" d="M66.6 60.6h2.6v5h-2.6z" class="st33" transform="rotate(-45.001 67.882 63.055)"/><path id="XMLID_979_" d="M68.9 63.1h5v7.1h-5z" class="st34" transform="rotate(-45.001 71.438 66.668)"/><path id="XMLID_976_" d="M46.7 41.9c-6 6-6 15.7 0 21.7s15.7 6 21.7 0 6-15.7 0-21.7c-6-5.9-15.7-5.9-21.7 0zm19.4 19.5c-4.7 4.7-12.4 4.7-17.2 0-4.7-4.7-4.7-12.4 0-17.2 4.7-4.7 12.4-4.7 17.2 0 4.8 4.8 4.8 12.5 0 17.2z" class="st32"/><path id="XMLID_973_" d="M66.2 44.2c-4.8-4.8-12.5-4.8-17.3 0s-4.8 12.5 0 17.3 12.5 4.8 17.3 0 4.8-12.6 0-17.3zm-.8 16.4c-4.3 4.3-11.3 4.3-15.6 0s-4.3-11.3 0-15.6 11.3-4.3 15.6 0 4.3 11.3 0 15.6z" class="st34"/><path id="XMLID_972_" d="M69.2 64h2.6v7.1h-2.6z" class="st32" transform="rotate(-45.001 70.486 67.546)"/></g><g id="XMLID_959_"><path id="XMLID_1021_" d="M58.2 44v8.7l6.1 6.1c1.6-1.6 2.5-3.7 2.5-6.1.1-4.8-3.8-8.7-8.6-8.7z" class="st26"/><path id="XMLID_1020_" fill="#de4437" d="M50.8 46.1c-1.6 1.6-2.5 3.7-2.5 6.1H57v-8.7c-2.5.1-4.6 1.1-6.2 2.6z"/><path id="XMLID_1019_" d="M57.4 53.5h-8.7c0 4.8 3.9 8.7 8.7 8.7 2.4 0 4.6-1 6.1-2.5l-6.1-6.2z" class="st28"/></g></g><g id="XMLID_519_"><path id="XMLID_515_" fill="#5dafd8" d="M127.8 44.8v23.5c0 .5-.4.8-.8.8h-5v9.4c0 .4-.5.6-.8.3l-10-9.7H87.4c-.5 0-.8-.4-.8-.8V44.8c0-.5.4-.8.8-.8H127c.4 0 .8.3.8.8z"/><path id="XMLID_509_" d="M123.5 52.5H91.2c-.6 0-1.1-.5-1.1-1.1 0-.6.5-1.1 1.1-1.1h32.3c.6 0 1.1.5 1.1 1.1 0 .6-.5 1.1-1.1 1.1z" class="st1"/><path id="XMLID_508_" d="M123.5 57.7H91.2c-.6 0-1.1-.5-1.1-1.1 0-.6.5-1.1 1.1-1.1h32.3c.6 0 1.1.5 1.1 1.1 0 .7-.5 1.1-1.1 1.1z" class="st1"/><path id="XMLID_507_" d="M123.5 63H97.9c-.6 0-1.1-.5-1.1-1.1 0-.6.5-1.1 1.1-1.1h25.6c.6 0 1.1.5 1.1 1.1 0 .6-.5 1.1-1.1 1.1z" class="st1"/></g><g id="XMLID_3_"><path id="XMLID_7_" d="M262.6.8v23.5c0 .5.4.8.8.8h5v9.4c0 .4.5.6.8.3l10-9.7H303c.5 0 .8-.4.8-.8V.8c0-.5-.4-.8-.8-.8h-39.5c-.5 0-.9.4-.9.8z" class="st32"/><path id="XMLID_6_" d="M266.9 8.5h32.3c.6 0 1.1-.5 1.1-1.1 0-.6-.5-1.1-1.1-1.1h-32.3c-.6 0-1.1.5-1.1 1.1 0 .7.5 1.1 1.1 1.1z" class="st1"/><path id="XMLID_5_" d="M266.9 13.8h32.3c.6 0 1.1-.5 1.1-1.1 0-.6-.5-1.1-1.1-1.1h-32.3c-.6 0-1.1.5-1.1 1.1 0 .6.5 1.1 1.1 1.1z" class="st1"/><path id="XMLID_4_" d="M266.9 19h25.6c.6 0 1.1-.5 1.1-1.1 0-.6-.5-1.1-1.1-1.1h-25.6c-.6 0-1.1.5-1.1 1.1 0 .6.5 1.1 1.1 1.1z" class="st1"/></g><path d="M292.2 142.8H275.1l-6.6 21.3H291.3l-2.5-10.5z" class="st6"/><g id="XMLID_360_"><g id="XMLID_365_"><g id="XMLID_195_"><path id="XMLID_627_" fill="#273747" d="M290.6 164.1h2.7l-2.7-11.4-9.9 11.4z"/></g></g><g id="XMLID_364_"><g id="XMLID_196_"><path id="XMLID_624_" d="M287.6 164.1h-15.4l6.6-21.3h15.4z" class="st0"/></g></g><g id="XMLID_363_"><g id="XMLID_197_"><path id="XMLID_621_" d="M285.9 164.1h-15.4l6.6-21.3h15.4z" class="st14"/></g></g><g id="XMLID_362_"><g id="XMLID_198_"><path id="XMLID_618_" fill="#fcd991" d="M284.8 161.3h-11.4l4.9-15.7h11.3z"/></g></g><g id="XMLID_361_"><g id="XMLID_199_"><path id="XMLID_615_" d="M274.2 160.9l4.8-15.3h-.7l-4.9 15.7h11.4l.1-.4z" class="st2"/></g></g></g></g><path id="fondo" fill="#1a1a1a" fill-opacity=".84" d="M261.4 60.7h3.1v2.7h-3.1z" transform="rotate(-3.678 262.923 62.09) scale(.99996)"/><g id="isotipo"><path id="log" fill="#e6e6e6" d="M262.5 62.7l-.1-1h-.6v1l.1.4h1.2v-.5z"/><path id="dis" fill="#999" d="M262.4 61.2h-.7l.1.4h.6v-.1h1l.1 1.1h-.3v.5l.9-.1v-.4l-.1-1.2v-.3z"/></g></svg>