<?xml version="1.0" encoding="utf-8"?>
<!-- Generator: Adobe Illustrator 22.0.1, SVG Export Plug-In . SVG Version: 6.00 Build 0)  -->
<svg version="1.1" id="Layer_1" xmlns="http://www.w3.org/2000/svg" xmlns:xlink="http://www.w3.org/1999/xlink" x="0px" y="0px"
	 viewBox="0 0 438 300.6" style="enable-background:new 0 0 438 300.6;" xml:space="preserve">
<style type="text/css">
	.st0{fill:#F2F2F2;}
	.st1{enable-background:new    ;}
	.st2{fill:#FFF3FF;}
	.st3{fill:#FFFFFF;}
	.st4{font-family:'MyriadPro-Regular';}
	.st5{font-size:12px;}
</style>
<title>404</title>
<g>
	<g id="Layer_2_1_">
		<g id="Layer_1-2">
			<g id="_404_text">
				<g id="text_404">
					<image style="overflow:visible;opacity:0.2;enable-background:new    ;" width="438" height="198" xlink:href="359F4DCF.png" >
					</image>
					<path id="_Compound_Clipping_Path_" class="st0" d="M79.8,182.5V154H6.4v-27.6L49.1,9.6h39.8L42.6,122.5h37.2V74h36.2v48.5
						h16.5V154h-16.5v28.6L79.8,182.5z"/>
					<path id="_Compound_Clipping_Path_2" class="st0" d="M165.8,27.9c11.3-14.3,28-21.5,50.2-21.5c22.2,0,38.9,7.2,50.2,21.5
						c11.3,14.3,16.9,37.3,16.9,69s-5.6,54.4-16.8,68.2c-11.2,13.7-27.9,20.6-50.3,20.6c-22.4,0-39.1-6.9-50.3-20.6
						c-11.2-13.7-16.8-36.4-16.8-68.1S154.6,42.3,165.8,27.9z M245.8,96.2c0-21.6-2.3-36.7-6.8-45.3c-4.5-8.7-12.2-13-22.9-13
						c-10.7,0-18.4,4.4-23,13.2c-4.6,8.7-6.9,23.8-6.9,45.3c0,21.5,2.4,36.5,7.1,45.1c4.7,8.6,12.4,12.8,23.1,12.8
						c10.7,0,18.3-4.3,22.8-12.8S245.9,117.8,245.8,96.2L245.8,96.2z"/>
					<path id="_Compound_Clipping_Path_3" class="st0" d="M373.2,182.5V154h-73.4v-27.6L342.5,9.6h39.8L336,122.5h37.2V74h36.2v48.5
						h16.5V154h-16.5v28.6L373.2,182.5z"/>
				</g>
			</g>
		</g>
	</g>
	<g>
		<g>
			<g class="st1">
				<g>
					<rect x="2.4" y="255.4" class="st2" width="1.9" height="0"/>
				</g>
				<g>
					<rect x="14.4" y="255.4" class="st2" width="2.1" height="0"/>
				</g>
				<g>
					<polygon class="st2" points="8.3,244.9 8.3,244.9 14.4,255.4 14.4,255.4 					"/>
				</g>
				<g>
					<rect x="14.7" y="234.9" class="st3" width="1.9" height="0"/>
				</g>
				<g>
					<path class="st3" d="M16.5,234.9v20.5h-2.1l-6.1-10.5c-1.6-2.8-2.8-5-3.6-7l-0.1-0.2l-0.5,0.2l0,0.2c0.1,2.6,0.2,5.1,0.2,8.7
						v8.7H2.4v-20.5h2.3l6.2,10.5c1.4,2.4,2.5,4.6,3.5,6.8l0.1,0.3l0.4-0.2l0-0.2c-0.2-2.9-0.3-5.6-0.3-8.6v-8.6H16.5z"/>
				</g>
				<g>
					<polygon class="st3" points="4.8,234.9 4.8,234.9 10.9,245.4 10.9,245.4 					"/>
				</g>
				<g>
					<rect x="2.4" y="234.9" class="st3" width="2.3" height="0"/>
				</g>
				<g>
					<rect x="1.9" y="234.4" class="st2" width="3.1" height="0"/>
				</g>
				<g>
					<path class="st2" d="M14.2,234.4H17v21.5h-2.9l-0.1-0.1l-6.2-10.7c-1.4-2.3-2.4-4.3-3.2-6c0.1,2.3,0.1,4.6,0.1,7.6v9.2H1.9
						v-21.5h3.1l6.3,10.8c1.2,2,2.2,3.9,3,5.7c-0.2-2.4-0.2-4.8-0.2-7.4V234.4z M16.5,255.4v-20.5h-1.9v8.6c0,3.1,0.1,5.7,0.3,8.6
						l0,0.2l-0.5,0.2l-0.1-0.3c-0.9-2.2-2.1-4.4-3.5-6.8l-6.2-10.5H2.4v20.5h1.9v-8.7c0-3.5-0.1-6-0.2-8.7l0-0.2l0.5-0.2l0.1,0.2
						c0.9,2,2,4.2,3.6,7l6.1,10.5H16.5"/>
				</g>
				<g>
					<rect x="14.2" y="234.4" class="st2" width="2.9" height="0"/>
				</g>
				<g>
					<polygon class="st2" points="5.1,234.4 5.1,234.4 11.4,245.2 11.4,245.2 					"/>
				</g>
			</g>
			<g class="st1">
				<g>
					<path class="st2" d="M29,234.1c5.4,0,9,4.4,9,10.9c0,7.8-4.7,11.3-9.3,11.3c-5.3,0-9-4.5-9-10.9
						C19.7,238.7,23.6,234.1,29,234.1z M28.7,255.8c5.3,0,8.8-4.2,8.8-10.8c0-6.2-3.4-10.4-8.5-10.4c-5.2,0-8.8,4.4-8.8,10.8
						C20.2,251.5,23.7,255.8,28.7,255.8"/>
				</g>
				<g>
					<path class="st2" d="M28.9,236.3c4.4,0,6.4,4.6,6.4,8.8c0,5.3-2.7,9-6.5,9c-4.2,0-6.4-4.4-6.4-8.8
						C22.4,240.8,24.4,236.3,28.9,236.3z M28.9,253.6c4.1,0,6-4.3,6-8.5c0-4-1.9-8.3-5.9-8.3c-4.1,0-6,4.3-6,8.5
						C22.9,249.4,25,253.6,28.9,253.6"/>
				</g>
				<g>
					<path class="st3" d="M29,234.6c5.1,0,8.5,4.2,8.5,10.4c0,6.6-3.4,10.8-8.8,10.8c-5,0-8.5-4.3-8.5-10.4
						C20.2,239,23.8,234.6,29,234.6z M28.9,254.1c3.8,0,6.5-3.7,6.5-9c0-4.2-2-8.8-6.4-8.8c-4.5,0-6.5,4.5-6.5,9
						C22.4,249.6,24.6,254.1,28.9,254.1"/>
				</g>
			</g>
			<g class="st1">
				<g>
					<rect x="47.3" y="255.4" class="st2" width="10.4" height="0"/>
				</g>
				<g>
					<rect x="49.3" y="253.6" class="st3" width="8.4" height="0"/>
				</g>
				<g>
					<rect x="49.9" y="253.1" class="st2" width="8.4" height="0"/>
				</g>
				<g>
					<rect x="49.3" y="245.6" class="st2" width="7.6" height="0"/>
				</g>
				<g>
					<rect x="49.3" y="243.8" class="st3" width="7.6" height="0"/>
				</g>
				<g>
					<rect x="49.9" y="243.3" class="st2" width="7.6" height="0"/>
				</g>
				<g>
					<rect x="49.3" y="236.7" class="st2" width="8" height="0"/>
				</g>
				<g>
					<polygon class="st3" points="57.3,234.9 57.3,236.7 49.3,236.7 49.3,243.8 56.9,243.8 56.9,245.6 49.3,245.6 49.3,253.6 
						57.8,253.6 57.8,255.4 47.3,255.4 47.3,234.9 					"/>
				</g>
				<g>
					<rect x="47.3" y="234.9" class="st3" width="10" height="0"/>
				</g>
				<g>
					<rect x="46.8" y="234.4" class="st2" width="11" height="0"/>
				</g>
				<g>
					<path class="st2" d="M49.9,253.1h8.4v2.8H46.8v-21.5h11v2.8h-8v6.1h7.6v2.7h-7.6V253.1z M57.8,255.4v-1.8h-8.4v-8.1h7.6v-1.7
						h-7.6v-7.1h8v-1.8h-10v20.5H57.8"/>
				</g>
			</g>
			<g class="st1">
				<g>
					<rect x="61.5" y="255.4" class="st2" width="1.9" height="0"/>
				</g>
				<g>
					<rect x="73.4" y="255.4" class="st2" width="2.1" height="0"/>
				</g>
				<g>
					<polygon class="st2" points="67.4,244.9 67.4,244.9 73.4,255.4 73.4,255.4 					"/>
				</g>
				<g>
					<rect x="73.7" y="234.9" class="st3" width="1.9" height="0"/>
				</g>
				<g>
					<path class="st3" d="M75.6,234.9v20.5h-2.1l-6.1-10.5c-1.6-2.8-2.8-5-3.6-7l-0.1-0.2l-0.5,0.2l0,0.2c0.1,2.6,0.2,5.1,0.2,8.7
						v8.7h-1.9v-20.5h2.3l6.1,10.5c1.4,2.4,2.5,4.6,3.5,6.8l0.1,0.3l0.4-0.2l0-0.2c-0.2-2.9-0.3-5.6-0.3-8.6v-8.6H75.6z"/>
				</g>
				<g>
					<polygon class="st3" points="63.9,234.9 63.9,234.9 70,245.4 70,245.4 					"/>
				</g>
				<g>
					<rect x="61.5" y="234.9" class="st3" width="2.3" height="0"/>
				</g>
				<g>
					<rect x="61" y="234.4" class="st2" width="3.1" height="0"/>
				</g>
				<g>
					<path class="st2" d="M73.2,234.4h2.9v21.5h-2.9l-0.1-0.1l-6.2-10.7c-1.4-2.3-2.4-4.3-3.2-6c0.1,2.3,0.2,4.6,0.2,7.6v9.2H61
						v-21.5h3.1l6.3,10.8c1.2,2,2.2,3.9,3,5.7c-0.2-2.4-0.2-4.8-0.2-7.4V234.4z M75.6,255.4v-20.5h-1.9v8.6c0,3.1,0.1,5.7,0.3,8.6
						l0,0.2l-0.4,0.2l-0.1-0.3c-0.9-2.2-2.1-4.4-3.5-6.8l-6.1-10.5h-2.3v20.5h1.9v-8.7c0-3.5-0.1-6-0.2-8.7l0-0.2l0.5-0.2l0.1,0.2
						c0.8,2,2,4.2,3.6,7l6.1,10.5H75.6"/>
				</g>
				<g>
					<rect x="73.2" y="234.4" class="st2" width="2.9" height="0"/>
				</g>
				<g>
					<polygon class="st2" points="64.1,234.4 64.1,234.4 70.4,245.2 70.4,245.2 					"/>
				</g>
			</g>
			<g class="st1">
				<g>
					<polygon class="st2" points="93.4,252.5 93.4,252.5 94.1,255.1 94.1,255.1 					"/>
				</g>
				<g>
					<path class="st2" d="M93.1,252.6l0.3-0.2l0.6,2.7l-0.2,0.1c-0.9,0.5-2.8,1-5.2,1c-6,0-9.8-4.3-9.8-10.9
						c0-6.8,4.2-11.3,10.4-11.3c2.8,0,4.3,0.7,4.7,1l0.2,0.1l-0.7,2.7l-0.3-0.1c-1-0.5-2.4-0.8-3.8-0.8c-4.5,0-7.3,3.2-7.3,8.4
						c0,5.1,2.7,8.2,7.2,8.2C90.6,253.5,92.2,253.1,93.1,252.6z M88.7,255.7c2.2,0,3.9-0.4,4.8-0.9l-0.4-1.7c-1,0.5-2.5,0.8-3.9,0.8
						c-4.8,0-7.7-3.3-7.7-8.7c0-5.5,3-8.9,7.8-8.9c1.4,0,2.7,0.3,3.8,0.8l0.5-1.7c-0.5-0.3-1.9-0.8-4.3-0.8c-5.9,0-9.9,4.3-9.9,10.8
						C79.3,251.7,83,255.7,88.7,255.7"/>
				</g>
				<g>
					<path class="st3" d="M89.2,234.6c2.4,0,3.8,0.5,4.3,0.8l-0.5,1.7c-1.1-0.5-2.4-0.8-3.8-0.8c-4.8,0-7.8,3.4-7.8,8.9
						c0,5.4,3,8.7,7.7,8.7c1.4,0,2.9-0.3,3.9-0.8l0.4,1.7c-0.9,0.4-2.6,0.9-4.8,0.9c-5.7,0-9.3-4.1-9.3-10.4
						C79.3,238.9,83.3,234.6,89.2,234.6z"/>
				</g>
			</g>
			<g class="st1">
				<g>
					<path class="st2" d="M104.8,234.1c5.4,0,9,4.4,9,10.9c0,7.8-4.7,11.3-9.3,11.3c-5.3,0-9-4.5-9-10.9
						C95.5,238.7,99.3,234.1,104.8,234.1z M104.5,255.8c5.3,0,8.8-4.2,8.8-10.8c0-6.2-3.4-10.4-8.5-10.4c-5.2,0-8.8,4.4-8.8,10.8
						C96,251.5,99.5,255.8,104.5,255.8"/>
				</g>
				<g>
					<path class="st2" d="M104.7,236.3c4.4,0,6.4,4.6,6.4,8.8c0,5.3-2.7,9-6.5,9c-4.2,0-6.4-4.4-6.4-8.8
						C98.2,240.8,100.2,236.3,104.7,236.3z M104.6,253.6c4.1,0,6-4.3,6-8.5c0-4-1.9-8.3-5.9-8.3c-4.1,0-6,4.3-6,8.5
						C98.7,249.4,100.7,253.6,104.6,253.6"/>
				</g>
				<g>
					<path class="st3" d="M104.8,234.6c5.1,0,8.5,4.2,8.5,10.4c0,6.6-3.4,10.8-8.8,10.8c-5,0-8.5-4.3-8.5-10.4
						C96,239,99.6,234.6,104.8,234.6z M104.6,254.1c3.8,0,6.5-3.7,6.5-9c0-4.2-2-8.8-6.4-8.8c-4.5,0-6.5,4.5-6.5,9
						C98.2,249.6,100.4,254.1,104.6,254.1"/>
				</g>
			</g>
			<g class="st1">
				<g>
					<rect x="117" y="255.4" class="st2" width="1.9" height="0"/>
				</g>
				<g>
					<rect x="129" y="255.4" class="st2" width="2.1" height="0"/>
				</g>
				<g>
					<polygon class="st2" points="122.9,244.9 122.9,244.9 129,255.4 129,255.4 					"/>
				</g>
				<g>
					<rect x="129.2" y="234.9" class="st3" width="1.9" height="0"/>
				</g>
				<g>
					<path class="st3" d="M131.1,234.9v20.5H129l-6.1-10.5c-1.6-2.8-2.8-5-3.6-7l-0.1-0.2l-0.5,0.2l0,0.2c0.1,2.6,0.2,5.1,0.2,8.7
						v8.7H117v-20.5h2.3l6.1,10.5c1.4,2.4,2.5,4.6,3.5,6.8l0.1,0.3l0.4-0.2l0-0.2c-0.2-2.9-0.3-5.6-0.3-8.6v-8.6H131.1z"/>
				</g>
				<g>
					<polygon class="st3" points="119.4,234.9 119.4,234.9 125.5,245.4 125.5,245.4 					"/>
				</g>
				<g>
					<rect x="117" y="234.9" class="st3" width="2.3" height="0"/>
				</g>
				<g>
					<rect x="116.5" y="234.4" class="st2" width="3.1" height="0"/>
				</g>
				<g>
					<path class="st2" d="M128.7,234.4h2.9v21.5h-2.9l-0.1-0.1l-6.2-10.7c-1.4-2.3-2.4-4.3-3.2-6c0.1,2.3,0.1,4.6,0.1,7.6v9.2h-2.9
						v-21.5h3.1l6.3,10.8c1.2,2,2.2,3.9,3,5.7c-0.2-2.4-0.2-4.8-0.2-7.4V234.4z M131.1,255.4v-20.5h-1.9v8.6c0,3.1,0,5.7,0.3,8.6
						l0,0.2l-0.4,0.2l-0.1-0.3c-0.9-2.2-2.1-4.4-3.5-6.8l-6.1-10.5H117v20.5h1.9v-8.7c0-3.5-0.1-6-0.2-8.7l0-0.2l0.5-0.2l0.1,0.2
						c0.8,2,2,4.2,3.6,7l6.1,10.5H131.1"/>
				</g>
				<g>
					<rect x="128.7" y="234.4" class="st2" width="2.9" height="0"/>
				</g>
				<g>
					<polygon class="st2" points="119.7,234.4 119.7,234.4 125.9,245.2 125.9,245.2 					"/>
				</g>
			</g>
			<g class="st1">
				<g>
					<rect x="139.7" y="255.4" class="st2" width="2" height="0"/>
				</g>
				<g>
					<rect x="141.7" y="236.7" class="st2" width="5.9" height="0"/>
				</g>
				<g>
					<rect x="133.8" y="236.7" class="st2" width="5.9" height="0"/>
				</g>
				<g>
					<rect x="133.8" y="234.9" class="st3" width="13.9" height="0"/>
				</g>
				<g>
					<polygon class="st3" points="147.6,234.9 147.6,236.7 141.7,236.7 141.7,255.4 139.7,255.4 139.7,236.7 133.8,236.7 
						133.8,234.9 					"/>
				</g>
				<g>
					<rect x="133.3" y="234.4" class="st2" width="14.9" height="0"/>
				</g>
				<g>
					<path class="st2" d="M133.3,234.4h14.9v2.8h-5.9v18.7h-3v-18.7h-5.9V234.4z M147.6,236.7v-1.8h-13.9v1.8h5.9v18.7h2v-18.7
						H147.6"/>
				</g>
			</g>
			<g class="st1">
				<g>
					<rect x="160.3" y="255.4" class="st2" width="2.1" height="0"/>
				</g>
				<g>
					<rect x="150.3" y="255.4" class="st2" width="2" height="0"/>
				</g>
				<g>
					<rect x="152.3" y="246.3" class="st2" width="2.6" height="0"/>
				</g>
				<g>
					<rect x="152.3" y="244.8" class="st3" width="2.8" height="0"/>
				</g>
				<g>
					<rect x="152.8" y="244.3" class="st2" width="2.3" height="0"/>
				</g>
				<g>
					<path class="st2" d="M159.7,240.5c0,2.6-1.8,4.2-4.6,4.2h-2.8v-8.1l0.2-0.1c0.4-0.1,1.3-0.3,2.5-0.3
						C158.1,236.4,159.7,237.8,159.7,240.5z M155.1,244.3c2.5,0,4.1-1.5,4.1-3.7c0-3-2.3-3.7-4.2-3.7c-1,0-1.8,0.1-2.2,0.2v7.2
						H155.1"/>
				</g>
				<g>
					<path class="st3" d="M160.9,250c0.5,2.5,1,4.5,1.4,5.5h-2.1c-0.3-0.8-0.8-3-1.2-4.8c-0.6-3-1.7-4.2-4.1-4.3h-2.6v9.1h-2v-20.3
						c1.2-0.3,2.9-0.4,4.6-0.4c2.6,0,4.3,0.5,5.4,1.6c0.9,0.9,1.4,2.2,1.4,3.8c0,2.4-1.3,4.3-3.5,5.1l-0.2,0.1v0.4l0.2,0.1
						C159.6,246.4,160.5,247.7,160.9,250z M155.1,244.8c2.8,0,4.6-1.7,4.6-4.2c0-2.7-1.7-4.1-4.7-4.2c-1.3,0-2.1,0.1-2.5,0.3
						l-0.2,0.1v8.1H155.1"/>
				</g>
				<g>
					<path class="st2" d="M162.9,255.6l0.2,0.4h-3.1l-0.1-0.1c-0.3-0.6-0.7-2-1.3-5.1c-0.5-2.8-1.5-3.8-3.7-3.9h-2.1v9.1h-3v-21.2
						l0.2,0c1.3-0.3,3.1-0.4,4.9-0.4c2.7,0,4.5,0.5,5.8,1.8c1,1,1.6,2.5,1.6,4.2c0,2.5-1.3,4.5-3.4,5.4c1.3,0.7,2.1,2.1,2.6,4.2
						C162,252.6,162.5,254.8,162.9,255.6z M160.3,255.4h2.1c-0.4-1-0.8-2.9-1.4-5.5c-0.5-2.2-1.3-3.6-2.7-4.1l-0.2-0.1v-0.4l0.2-0.1
						c2.2-0.8,3.5-2.7,3.5-5.1c0-1.6-0.5-2.9-1.4-3.8c-1.2-1.1-2.8-1.6-5.4-1.6c-1.7,0-3.4,0.1-4.6,0.4v20.3h2v-9.1h2.6
						c2.4,0.1,3.5,1.3,4.1,4.3C159.4,252.5,159.9,254.6,160.3,255.4"/>
				</g>
			</g>
			<g class="st1">
				<g>
					<rect x="164.4" y="255.4" class="st2" width="2.1" height="0"/>
				</g>
				<g>
					<rect x="177.8" y="255.4" class="st2" width="2.2" height="0"/>
				</g>
				<g>
					<polygon class="st2" points="166.5,255.4 166.5,255.4 168.5,248.8 168.5,248.8 					"/>
				</g>
				<g>
					<rect x="168.5" y="248.8" class="st2" width="7.3" height="0"/>
				</g>
				<g>
					<polygon class="st2" points="175.8,248.8 175.8,248.8 177.8,255.4 177.8,255.4 					"/>
				</g>
				<g>
					<rect x="168.9" y="247.2" class="st3" width="6.5" height="0"/>
				</g>
				<g>
					<rect x="169.5" y="246.7" class="st2" width="5.2" height="0"/>
				</g>
				<g>
					<polygon class="st2" points="173.4,240.8 173.4,240.8 175.4,247.2 175.4,247.2 					"/>
				</g>
				<g>
					<polygon class="st2" points="168.9,247.2 168.9,247.2 170.9,240.8 170.9,240.8 					"/>
				</g>
				<g>
					<path class="st3" d="M173.5,234.9l6.5,20.5h-2.2l-2.1-6.6h-7.3l-2,6.6h-2.1l6.4-20.5H173.5z M168.9,247.2h6.5l-2-6.4
						c-0.4-1.3-0.7-2.5-1-3.6l-0.1-0.2l-0.1-0.2h-0.4l0,0.2c-0.3,1.5-0.7,2.7-1,3.8L168.9,247.2"/>
				</g>
				<g>
					<rect x="170.8" y="234.9" class="st3" width="2.7" height="0"/>
				</g>
				<g>
					<path class="st2" d="M173.9,234.6l6.7,21.4h-3.2l-2.1-6.6h-6.5l-2,6.6h-3.1l6.8-21.5h3.4L173.9,234.6z M175.8,248.8l2.1,6.6
						h2.2l-6.5-20.5h-2.7l-6.4,20.5h2.1l2-6.6H175.8"/>
				</g>
				<g>
					<path class="st2" d="M172.4,237.2c0.3,1.1,0.5,2.3,1,3.6l2,6.4h-6.5l2-6.4c0.3-1.1,0.6-2.3,1-3.8l0-0.2h0.4l0.1,0.2
						L172.4,237.2z M169.5,246.7h5.2l-1.8-5.7c-0.3-1-0.6-2-0.8-3c-0.3,1.1-0.5,2-0.8,2.9L169.5,246.7"/>
				</g>
				<g>
					<polygon class="st3" points="164.4,255.4 164.4,255.4 170.8,234.9 170.8,234.9 					"/>
				</g>
				<g>
					<polygon class="st3" points="173.5,234.9 173.5,234.9 180,255.4 180,255.4 					"/>
				</g>
				<g>
					<polygon class="st2" points="173.9,234.6 173.9,234.6 180.7,255.9 180.7,255.9 					"/>
				</g>
				<g>
					<rect x="170.5" y="234.4" class="st2" width="3.4" height="0"/>
				</g>
				<g>
					<polygon class="st2" points="163.7,255.9 163.7,255.9 170.5,234.4 170.5,234.4 					"/>
				</g>
			</g>
			<g class="st1">
				<g>
					<rect x="182.9" y="255.4" class="st2" width="1.9" height="0"/>
				</g>
				<g>
					<rect x="200.3" y="255.4" class="st2" width="1.9" height="0"/>
				</g>
				<g>
					<rect x="191.6" y="255.3" class="st2" width="1.5" height="0"/>
				</g>
				<g>
					<polygon class="st2" points="188.5,245.5 188.5,245.5 191.6,255.3 191.6,255.3 					"/>
				</g>
				<g>
					<polygon class="st2" points="193.1,255.3 193.1,255.3 196.5,245.3 196.5,245.3 					"/>
				</g>
				<g>
					<rect x="199" y="237.1" class="st2" width="0.5" height="0"/>
				</g>
				<g>
					<polygon class="st3" points="187,234.9 187,234.9 190.3,244.9 190.3,244.9 					"/>
				</g>
				<g>
					<rect x="184.2" y="234.9" class="st3" width="2.8" height="0"/>
				</g>
				<g>
					<polygon class="st3" points="182.9,255.4 182.9,255.4 184.2,234.9 184.2,234.9 					"/>
				</g>
				<g>
					<rect x="198.2" y="234.9" class="st3" width="2.8" height="0"/>
				</g>
				<g>
					<polygon class="st3" points="194.8,244.9 194.8,244.9 198.2,234.9 198.2,234.9 					"/>
				</g>
				<g>
					<path class="st2" d="M201.5,234.4l1.2,21.5h-3l-0.5-9.5c-0.1-2.4-0.3-5.2-0.3-7.6c-0.6,2-1.3,4.2-2.1,6.6l-3.5,10.4h-2.3
						l-3.2-10.2c-0.8-2.6-1.4-4.7-1.9-6.5c-0.1,2.3-0.2,5-0.3,7.6l-0.5,9.3h-2.9l1.4-21.5h3.6l3.4,10.4c0.8,2.5,1.3,4.5,1.8,6.3
						c0.4-1.7,1-3.7,1.8-6.3l3.5-10.4H201.5z M199.8,246.4l0.5,9h1.9l-1.2-20.5h-2.8l-3.4,10c-1,3-1.6,5.2-2,7.1l0,0.2h-0.5l0-0.2
						c-0.4-2-1-4.1-2-7.1l-3.3-10h-2.8l-1.3,20.5h1.9l0.5-8.8c0.2-3.2,0.3-6.7,0.4-9.3l0-0.2h0.5l0.1,0.2c0.5,2.2,1.2,4.7,2.2,8.2
						l3.1,9.8h1.5l3.4-10c1-2.9,1.8-5.6,2.4-8l0-0.2h0.5v0.3C199.5,240,199.6,243.6,199.8,246.4"/>
				</g>
				<g>
					<path class="st3" d="M201,234.9l1.2,20.5h-1.9l-0.5-9c-0.1-2.9-0.3-6.4-0.3-9.1v-0.3H199l0,0.2c-0.7,2.4-1.4,5-2.4,8l-3.4,10
						h-1.5l-3.1-9.8c-1.1-3.4-1.8-5.9-2.2-8.2l-0.1-0.2h-0.5l0,0.2c-0.1,2.6-0.2,6-0.4,9.3l-0.5,8.8h-1.9l1.3-20.5h2.8l3.3,10
						c0.9,2.9,1.5,5.1,2,7.1l0,0.2h0.5l0-0.2c0.4-1.9,1.1-4.1,2-7.1l3.4-10H201z"/>
				</g>
				<g>
					<polygon class="st3" points="201,234.9 201,234.9 202.2,255.4 202.2,255.4 					"/>
				</g>
				<g>
					<polygon class="st2" points="194.4,244.7 194.4,244.7 197.9,234.4 197.9,234.4 					"/>
				</g>
				<g>
					<polygon class="st2" points="187.4,234.4 187.4,234.4 190.8,244.7 190.8,244.7 					"/>
				</g>
				<g>
					<polygon class="st2" points="182.4,255.9 182.4,255.9 183.8,234.4 183.8,234.4 					"/>
				</g>
				<g>
					<polygon class="st2" points="201.5,234.4 201.5,234.4 202.7,255.9 202.7,255.9 					"/>
				</g>
				<g>
					<rect x="183.8" y="234.4" class="st2" width="3.6" height="0"/>
				</g>
				<g>
					<rect x="197.9" y="234.4" class="st2" width="3.6" height="0"/>
				</g>
			</g>
			<g class="st1">
				<g>
					<path class="st2" d="M214.2,234.1c5.4,0,9,4.4,9,10.9c0,7.8-4.7,11.3-9.3,11.3c-5.3,0-9-4.5-9-10.9
						C204.9,238.7,208.7,234.1,214.2,234.1z M213.9,255.8c5.3,0,8.8-4.2,8.8-10.8c0-6.2-3.4-10.4-8.5-10.4c-5.2,0-8.8,4.4-8.8,10.8
						C205.4,251.5,208.9,255.8,213.9,255.8"/>
				</g>
				<g>
					<path class="st2" d="M214.1,236.3c4.4,0,6.4,4.6,6.4,8.8c0,5.3-2.7,9-6.5,9c-4.2,0-6.4-4.4-6.4-8.8
						C207.6,240.8,209.6,236.3,214.1,236.3z M214,253.6c4.1,0,6-4.3,6-8.5c0-4-1.9-8.3-5.9-8.3c-4.1,0-6,4.3-6,8.5
						C208.1,249.4,210.1,253.6,214,253.6"/>
				</g>
				<g>
					<path class="st3" d="M214.2,234.6c5.1,0,8.5,4.2,8.5,10.4c0,6.6-3.4,10.8-8.8,10.8c-5,0-8.5-4.3-8.5-10.4
						C205.4,239,209,234.6,214.2,234.6z M214,254.1c3.8,0,6.5-3.7,6.5-9c0-4.2-2-8.8-6.4-8.8c-4.5,0-6.5,4.5-6.5,9
						C207.6,249.6,209.8,254.1,214,254.1"/>
				</g>
			</g>
			<g class="st1">
				<g>
					<polygon class="st2" points="224.9,254.8 224.9,254.8 225.7,252 225.7,252 					"/>
				</g>
				<g>
					<polygon class="st2" points="235.3,237.2 235.3,237.2 235.9,235.4 235.9,235.4 					"/>
				</g>
				<g>
					<path class="st3" d="M231.9,234.6c2,0,3.3,0.5,4,0.9l-0.5,1.7c-0.8-0.4-2-0.9-3.5-0.9c-2.7,0-3.9,1.7-3.9,3.4
						c0,2.2,1.4,3.2,4,4.3c3.4,1.4,4.8,3.1,4.8,5.9c0,2.7-1.7,5.8-6.6,5.8c-1.7,0-3.6-0.5-4.7-1.2l0.5-1.8c1.3,0.8,2.9,1.2,4.3,1.2
						c2.6,0,4.3-1.5,4.3-3.8c0-2-1.1-3.3-3.8-4.4c-3.4-1.3-5-3.1-5-5.7C225.8,236.8,228.3,234.6,231.9,234.6z"/>
				</g>
				<g>
					<path class="st2" d="M232.1,243.5c3.6,1.5,5.1,3.4,5.1,6.4c0,2.9-1.8,6.3-7,6.3c-1.8,0-4-0.6-5.1-1.4l-0.1-0.1l0.8-2.8l0.3,0.2
						c1.3,0.8,2.9,1.3,4.4,1.3c2.3,0,3.8-1.3,3.8-3.3c0-1.8-1-2.9-3.5-4c-3.6-1.4-5.3-3.3-5.3-6.2c0-3.5,2.7-6,6.5-6
						c2.3,0,3.8,0.7,4.4,1.1l0.2,0.1l-0.8,2.7l-0.3-0.2c-0.7-0.4-2-1-3.6-1c-2.3,0-3.4,1.5-3.4,2.9
						C228.4,241.4,229.3,242.3,232.1,243.5z M230.1,255.7c4.8,0,6.6-3.1,6.6-5.8c0-2.8-1.4-4.5-4.8-5.9c-2.6-1.1-4-2.1-4-4.3
						c0-1.7,1.2-3.4,3.9-3.4c1.5,0,2.7,0.4,3.5,0.9l0.5-1.7c-0.7-0.4-2-0.9-4-0.9c-3.6,0-6,2.2-6,5.5c0,2.6,1.6,4.4,5,5.7
						c2.7,1.1,3.8,2.4,3.8,4.4c0,2.3-1.7,3.8-4.3,3.8c-1.5,0-3.1-0.4-4.3-1.2l-0.5,1.8C226.6,255.2,228.5,255.7,230.1,255.7"/>
				</g>
			</g>
			<g class="st1">
				<g>
					<rect x="246.7" y="255.4" class="st2" width="10.3" height="0"/>
				</g>
				<g>
					<rect x="248.7" y="253.6" class="st3" width="8.3" height="0"/>
				</g>
				<g>
					<rect x="249.2" y="253.1" class="st2" width="8.3" height="0"/>
				</g>
				<g>
					<rect x="246.7" y="234.9" class="st3" width="2" height="0"/>
				</g>
				<g>
					<polygon class="st3" points="248.7,234.9 248.7,253.6 257,253.6 257,255.4 246.7,255.4 246.7,234.9 					"/>
				</g>
				<g>
					<rect x="246.2" y="234.4" class="st2" width="3" height="0"/>
				</g>
				<g>
					<path class="st2" d="M249.2,253.1h8.3v2.8h-11.3v-21.5h3V253.1z M257,255.4v-1.8h-8.3v-18.7h-2v20.5H257"/>
				</g>
			</g>
			<g class="st1">
				<g>
					<path class="st2" d="M267.9,234.1c5.4,0,9,4.4,9,10.9c0,7.8-4.7,11.3-9.3,11.3c-5.3,0-9-4.5-9-10.9
						C258.7,238.7,262.5,234.1,267.9,234.1z M267.7,255.8c5.3,0,8.8-4.2,8.8-10.8c0-6.2-3.4-10.4-8.5-10.4c-5.2,0-8.8,4.4-8.8,10.8
						C259.2,251.5,262.7,255.8,267.7,255.8"/>
				</g>
				<g>
					<path class="st2" d="M267.8,236.3c4.4,0,6.4,4.6,6.4,8.8c0,5.3-2.7,9-6.5,9c-4.2,0-6.4-4.4-6.4-8.8
						C261.4,240.8,263.3,236.3,267.8,236.3z M267.8,253.6c4.1,0,6-4.3,6-8.5c0-4-1.9-8.3-5.9-8.3c-4.1,0-6,4.3-6,8.5
						C261.9,249.4,263.9,253.6,267.8,253.6"/>
				</g>
				<g>
					<path class="st3" d="M267.9,234.6c5.1,0,8.5,4.2,8.5,10.4c0,6.6-3.4,10.8-8.8,10.8c-5,0-8.5-4.3-8.5-10.4
						C259.2,239,262.8,234.6,267.9,234.6z M267.8,254.1c3.8,0,6.5-3.7,6.5-9c0-4.2-2-8.8-6.4-8.8c-4.5,0-6.5,4.5-6.5,9
						C261.4,249.6,263.6,254.1,267.8,254.1"/>
				</g>
			</g>
			<g class="st1">
				<g>
					<polygon class="st2" points="301.9,258.5 301.9,258.5 302.4,256.7 302.4,256.7 					"/>
				</g>
				<g>
					<path class="st3" d="M297,255.4c1.8,0.5,3.8,1,5.4,1.3l-0.6,1.8c-2.5-0.7-5-1.5-7.2-2.4c-0.4-0.2-0.9-0.3-1.3-0.3
						c-4.1-0.2-8.3-3.4-8.3-10.4c0-6.5,3.5-10.8,8.8-10.8c5.1,0,8.5,4.2,8.5,10.4c0,4.9-2,8.6-5.4,9.8l-0.2,0.1v0.5L297,255.4z
						 M293.7,254.1c3.9,0,6.5-3.6,6.5-9c0-4.2-2-8.8-6.4-8.8c-1.6,0-2.9,0.6-4,1.7c-1.6,1.6-2.5,4.3-2.5,7.4c0,2.9,0.9,5.5,2.5,7.1
						C290.9,253.5,292.2,254.1,293.7,254.1"/>
				</g>
				<g>
					<path class="st2" d="M302.8,256.2l0.3,0l-0.9,2.8L302,259c-2.6-0.7-5.2-1.6-7.5-2.4c-0.4-0.2-0.8-0.3-1.1-0.3
						c-4.4-0.2-8.8-3.6-8.8-10.9c0-6.7,3.8-11.3,9.3-11.3c5.4,0,8.9,4.4,8.9,10.9c0,4.9-1.9,8.6-5.2,10.1
						C299.5,255.5,301.3,256,302.8,256.2z M301.9,258.5l0.6-1.8c-1.6-0.3-3.6-0.8-5.4-1.3l-0.2-0.1v-0.5l0.2-0.1
						c3.4-1.3,5.4-5,5.4-9.8c0-6.2-3.4-10.4-8.5-10.4c-5.3,0-8.8,4.3-8.8,10.8c0,6.9,4.2,10.2,8.3,10.4c0.4,0,0.8,0.2,1.3,0.3
						C296.9,256.9,299.4,257.7,301.9,258.5"/>
				</g>
				<g>
					<path class="st2" d="M300.2,245.1c0,5.4-2.6,9-6.5,9c-1.5,0-2.9-0.6-3.9-1.7c-1.6-1.6-2.5-4.2-2.5-7.1c0-3.1,0.9-5.8,2.5-7.4
						c1.1-1.1,2.5-1.7,4-1.7C298.2,236.3,300.2,240.8,300.2,245.1z M293.7,253.6c4.1,0,6-4.3,6-8.5c0-4-1.8-8.3-5.9-8.3
						c-1.4,0-2.7,0.5-3.7,1.5c-1.5,1.5-2.4,4.1-2.3,7c0,2.7,0.9,5.2,2.3,6.7C291.1,253,292.3,253.6,293.7,253.6"/>
				</g>
			</g>
			<g class="st1">
				<g>
					<rect x="306.1" y="234.9" class="st3" width="2" height="0"/>
				</g>
				<g>
					<rect x="317.9" y="234.9" class="st3" width="2" height="0"/>
				</g>
				<g>
					<path class="st2" d="M317.4,234.4h3v12.5c0,5.9-2.8,9.4-7.6,9.4c-4.7,0-7.2-3.3-7.2-9.2v-12.6h3v12.7c0,4.2,1.5,6.5,4.3,6.5
						c2.9,0,4.5-2.2,4.5-6.5V234.4z M319.9,246.9v-12h-2v12.2c0,4.5-1.8,7-5,7c-3,0-4.8-2.5-4.8-7v-12.2h-2V247
						c0,5.7,2.3,8.7,6.7,8.7C317.4,255.8,319.9,252.6,319.9,246.9"/>
				</g>
				<g>
					<path class="st3" d="M319.9,234.9v12c0,5.7-2.5,8.9-7.1,8.9c-4.4,0-6.7-3-6.7-8.7v-12.1h2v12.2c0,4.4,1.7,7,4.8,7
						c3.2,0,5-2.5,5-7v-12.2H319.9z"/>
				</g>
				<g>
					<rect x="317.4" y="234.4" class="st2" width="3" height="0"/>
				</g>
				<g>
					<rect x="305.6" y="234.4" class="st2" width="3" height="0"/>
				</g>
			</g>
			<g class="st1">
				<g>
					<rect x="324.8" y="255.4" class="st2" width="10.4" height="0"/>
				</g>
				<g>
					<rect x="326.8" y="253.6" class="st3" width="8.4" height="0"/>
				</g>
				<g>
					<rect x="327.3" y="253.1" class="st2" width="8.4" height="0"/>
				</g>
				<g>
					<rect x="326.8" y="245.6" class="st2" width="7.6" height="0"/>
				</g>
				<g>
					<rect x="326.8" y="243.8" class="st3" width="7.6" height="0"/>
				</g>
				<g>
					<rect x="327.3" y="243.3" class="st2" width="7.6" height="0"/>
				</g>
				<g>
					<rect x="326.8" y="236.7" class="st2" width="8" height="0"/>
				</g>
				<g>
					<polygon class="st3" points="334.7,234.9 334.7,236.7 326.8,236.7 326.8,243.8 334.3,243.8 334.3,245.6 326.8,245.6 
						326.8,253.6 335.2,253.6 335.2,255.4 324.8,255.4 324.8,234.9 					"/>
				</g>
				<g>
					<rect x="324.8" y="234.9" class="st3" width="10" height="0"/>
				</g>
				<g>
					<rect x="324.3" y="234.4" class="st2" width="11" height="0"/>
				</g>
				<g>
					<path class="st2" d="M327.3,253.1h8.4v2.8h-11.4v-21.5h11v2.8h-8v6.1h7.6v2.7h-7.6V253.1z M335.2,255.4v-1.8h-8.4v-8.1h7.6
						v-1.7h-7.6v-7.1h8v-1.8h-10v20.5H335.2"/>
				</g>
			</g>
			<g class="st1">
				<g>
					<rect x="347" y="245.3" class="st2" width="2.3" height="0"/>
				</g>
				<g>
					<rect x="347" y="243.8" class="st3" width="2.5" height="0"/>
				</g>
				<g>
					<rect x="347.5" y="243.3" class="st2" width="2" height="0"/>
				</g>
				<g>
					<path class="st3" d="M353,244.7c1.8,0.5,3.8,2.1,3.8,5c0,1.6-0.5,2.9-1.6,4c-1.3,1.3-3.4,1.9-6.5,1.9c-1.7,0-3-0.1-3.6-0.2
						v-20.3c1.2-0.2,2.8-0.4,4.3-0.4c2.4,0,4,0.4,5.2,1.5c1,0.8,1.5,2,1.5,3.5c0,1.9-1.2,3.6-3.1,4.4l-0.2,0.1v0.4L353,244.7z
						 M349.4,254c3.3,0,5.2-1.6,5.2-4.3c0-2.7-2-4.3-5.3-4.3H347v8.5l0.2,0C347.7,254,348.4,254,349.4,254 M347,236.6v7.2h2.5
						c2.7,0,4.5-1.5,4.5-3.8c0-2.4-1.6-3.7-4.5-3.7c-1,0-1.7,0.1-2.3,0.2L347,236.6"/>
				</g>
				<g>
					<path class="st2" d="M349.4,245.3c3.3,0,5.3,1.6,5.3,4.3c0,2.8-1.9,4.3-5.2,4.3c-1,0-1.7,0-2.2-0.1l-0.2,0v-8.5H349.4z
						 M349.4,253.5c1.8,0,4.7-0.5,4.7-3.8c0-3.4-3.3-3.8-4.8-3.8h-1.8v7.6C348,253.5,348.6,253.5,349.4,253.5"/>
				</g>
				<g>
					<path class="st2" d="M354,240c0,2.3-1.8,3.8-4.5,3.8H347v-7.2l0.2,0c0.6-0.1,1.3-0.2,2.3-0.2C352.5,236.3,354,237.6,354,240z
						 M347.5,237v6.3h2c2.4,0,4-1.3,4-3.3c0-2.1-1.4-3.2-4-3.2C348.7,236.8,348,236.9,347.5,237"/>
				</g>
				<g>
					<path class="st2" d="M353.6,244.3c1.8,0.7,3.6,2.4,3.6,5.3c0,1.7-0.6,3.2-1.7,4.4c-1.4,1.4-3.6,2-6.9,2c-1.9,0-3.3-0.2-3.9-0.3
						l-0.2,0v-21.1l0.2,0c1.2-0.3,3-0.4,4.6-0.4c2.5,0,4.2,0.5,5.5,1.6c1.1,0.9,1.7,2.2,1.7,3.9
						C356.6,241.7,355.5,243.4,353.6,244.3z M355.2,253.7c1-1.1,1.6-2.4,1.6-4c0-3-2.1-4.6-3.8-5l-0.2-0.1v-0.4l0.2-0.1
						c1.9-0.8,3.1-2.4,3.1-4.4c0-1.5-0.5-2.7-1.5-3.5c-1.2-1-2.7-1.5-5.2-1.5c-1.5,0-3.2,0.2-4.3,0.4v20.3c0.7,0.1,1.9,0.2,3.6,0.2
						C351.8,255.6,353.9,255,355.2,253.7"/>
				</g>
			</g>
			<g class="st1">
				<g>
					<rect x="360.6" y="234.9" class="st3" width="2" height="0"/>
				</g>
				<g>
					<rect x="372.4" y="234.9" class="st3" width="2" height="0"/>
				</g>
				<g>
					<path class="st2" d="M371.9,234.4h3v12.5c0,5.9-2.8,9.4-7.6,9.4c-4.7,0-7.2-3.3-7.2-9.2v-12.6h3v12.7c0,4.2,1.5,6.5,4.3,6.5
						c2.9,0,4.5-2.2,4.5-6.5V234.4z M374.4,246.9v-12h-2v12.2c0,4.5-1.8,7-5,7c-3,0-4.8-2.5-4.8-7v-12.2h-2V247
						c0,5.7,2.3,8.7,6.7,8.7C371.9,255.8,374.4,252.6,374.4,246.9"/>
				</g>
				<g>
					<path class="st3" d="M374.4,234.9v12c0,5.7-2.5,8.9-7.1,8.9c-4.4,0-6.7-3-6.7-8.7v-12.1h2v12.2c0,4.4,1.7,7,4.8,7
						c3.2,0,5-2.5,5-7v-12.2H374.4z"/>
				</g>
				<g>
					<rect x="371.9" y="234.4" class="st2" width="3" height="0"/>
				</g>
				<g>
					<rect x="360.1" y="234.4" class="st2" width="3" height="0"/>
				</g>
			</g>
			<g class="st1">
				<g>
					<polygon class="st2" points="377.8,254.8 377.8,254.8 378.5,252 378.5,252 					"/>
				</g>
				<g>
					<polygon class="st2" points="388.2,237.2 388.2,237.2 388.7,235.4 388.7,235.4 					"/>
				</g>
				<g>
					<path class="st3" d="M384.7,234.6c2,0,3.3,0.5,4,0.9l-0.5,1.7c-0.8-0.4-2-0.9-3.5-0.9c-2.7,0-3.9,1.7-3.9,3.4
						c0,2.2,1.4,3.2,4,4.3c3.4,1.4,4.8,3.1,4.8,5.9c0,2.7-1.7,5.8-6.6,5.8c-1.7,0-3.6-0.5-4.7-1.2l0.5-1.8c1.3,0.8,2.9,1.2,4.3,1.2
						c2.6,0,4.3-1.5,4.3-3.8c0-2-1.1-3.3-3.8-4.4c-3.4-1.3-5-3.1-5-5.7C378.7,236.8,381.2,234.6,384.7,234.6z"/>
				</g>
				<g>
					<path class="st2" d="M384.9,243.5c3.6,1.5,5.1,3.4,5.1,6.4c0,2.9-1.8,6.3-7,6.3c-1.8,0-4-0.6-5.1-1.4l-0.1-0.1l0.8-2.8l0.3,0.2
						c1.3,0.8,2.9,1.3,4.4,1.3c2.3,0,3.8-1.3,3.8-3.3c0-1.8-1-2.9-3.5-4c-3.6-1.4-5.3-3.3-5.3-6.2c0-3.5,2.7-6,6.5-6
						c2.3,0,3.8,0.7,4.4,1.1l0.2,0.1l-0.8,2.7l-0.3-0.2c-0.7-0.4-2-1-3.6-1c-2.3,0-3.4,1.5-3.4,2.9
						C381.2,241.4,382.1,242.3,384.9,243.5z M383,255.7c4.8,0,6.6-3.1,6.6-5.8c0-2.8-1.4-4.5-4.8-5.9c-2.6-1.1-4-2.1-4-4.3
						c0-1.7,1.2-3.4,3.9-3.4c1.5,0,2.7,0.4,3.5,0.9l0.5-1.7c-0.7-0.4-2-0.9-4-0.9c-3.6,0-6,2.2-6,5.5c0,2.6,1.6,4.4,5,5.7
						c2.7,1.1,3.8,2.4,3.8,4.4c0,2.3-1.7,3.8-4.3,3.8c-1.5,0-3-0.4-4.3-1.2l-0.5,1.8C379.4,255.2,381.3,255.7,383,255.7"/>
				</g>
			</g>
			<g class="st1">
				<g>
					<polygon class="st2" points="406.5,252.5 406.5,252.5 407.1,255.1 407.1,255.1 					"/>
				</g>
				<g>
					<path class="st2" d="M406.2,252.6l0.3-0.2l0.6,2.7l-0.2,0.1c-0.9,0.5-2.8,1-5.2,1c-6,0-9.8-4.3-9.8-10.9
						c0-6.8,4.2-11.3,10.4-11.3c2.8,0,4.3,0.7,4.7,1l0.2,0.1l-0.7,2.7l-0.3-0.1c-1-0.5-2.4-0.8-3.8-0.8c-4.5,0-7.3,3.2-7.3,8.4
						c0,5.1,2.7,8.2,7.2,8.2C403.7,253.5,405.2,253.1,406.2,252.6z M401.7,255.7c2.2,0,3.9-0.4,4.8-0.9l-0.4-1.7
						c-1.1,0.5-2.5,0.8-3.9,0.8c-4.8,0-7.7-3.3-7.7-8.7c0-5.5,3-8.9,7.8-8.9c1.4,0,2.7,0.3,3.8,0.8l0.5-1.7
						c-0.5-0.3-1.9-0.8-4.3-0.8c-5.9,0-9.9,4.3-9.9,10.8C392.3,251.7,396,255.7,401.7,255.7"/>
				</g>
				<g>
					<path class="st3" d="M402.2,234.6c2.4,0,3.8,0.5,4.3,0.8l-0.5,1.7c-1.1-0.5-2.4-0.8-3.8-0.8c-4.8,0-7.8,3.4-7.8,8.9
						c0,5.4,3,8.7,7.7,8.7c1.4,0,2.9-0.3,3.9-0.8l0.4,1.7c-0.9,0.4-2.6,0.9-4.8,0.9c-5.7,0-9.3-4.1-9.3-10.4
						C392.3,238.9,396.3,234.6,402.2,234.6z"/>
				</g>
			</g>
			<g class="st1">
				<g>
					<rect x="408.8" y="255.4" class="st2" width="2.1" height="0"/>
				</g>
				<g>
					<rect x="422.2" y="255.4" class="st2" width="2.2" height="0"/>
				</g>
				<g>
					<polygon class="st2" points="410.9,255.4 410.9,255.4 412.9,248.8 412.9,248.8 					"/>
				</g>
				<g>
					<rect x="412.9" y="248.8" class="st2" width="7.3" height="0"/>
				</g>
				<g>
					<polygon class="st2" points="420.2,248.8 420.2,248.8 422.2,255.4 422.2,255.4 					"/>
				</g>
				<g>
					<rect x="413.3" y="247.2" class="st3" width="6.5" height="0"/>
				</g>
				<g>
					<rect x="413.9" y="246.7" class="st2" width="5.2" height="0"/>
				</g>
				<g>
					<polygon class="st2" points="417.8,240.8 417.8,240.8 419.8,247.2 419.8,247.2 					"/>
				</g>
				<g>
					<polygon class="st2" points="413.3,247.2 413.3,247.2 415.3,240.8 415.3,240.8 					"/>
				</g>
				<g>
					<path class="st3" d="M417.9,234.9l6.5,20.5h-2.2l-2.1-6.6h-7.3l-2,6.6h-2.1l6.4-20.5H417.9z M413.3,247.2h6.5l-2-6.4
						c-0.4-1.3-0.7-2.5-1-3.7l0-0.2l-0.1-0.2h-0.4l0,0.2c-0.3,1.5-0.6,2.7-1,3.8L413.3,247.2"/>
				</g>
				<g>
					<path class="st2" d="M416.8,237.2c0.3,1.2,0.5,2.3,1,3.7l2,6.4h-6.5l2-6.4c0.3-1.1,0.6-2.3,1-3.8l0-0.2h0.4l0.1,0.2
						L416.8,237.2z M413.9,246.7h5.2l-1.8-5.7c-0.3-1-0.6-2-0.8-3c-0.3,1.1-0.5,2-0.8,2.9L413.9,246.7"/>
				</g>
				<g>
					<polygon class="st3" points="408.8,255.4 408.8,255.4 415.3,234.9 415.3,234.9 					"/>
				</g>
				<g>
					<rect x="415.3" y="234.9" class="st3" width="2.7" height="0"/>
				</g>
				<g>
					<polygon class="st3" points="417.9,234.9 417.9,234.9 424.4,255.4 424.4,255.4 					"/>
				</g>
				<g>
					<polygon class="st2" points="418.3,234.6 418.3,234.6 425.1,255.9 425.1,255.9 					"/>
				</g>
				<g>
					<rect x="414.9" y="234.4" class="st2" width="3.4" height="0"/>
				</g>
				<g>
					<polygon class="st2" points="408.2,255.6 408.2,255.6 414.9,234.4 414.9,234.4 					"/>
				</g>
				<g>
					<path class="st2" d="M418.3,234.6l6.7,21.4h-3.2l-2.1-6.6h-6.5l-2,6.6h-3.1l0.1-0.3l6.7-21.2h3.4L418.3,234.6z M420.2,248.8
						l2.1,6.6h2.2l-6.5-20.5h-2.7l-6.4,20.5h2.1l2-6.6H420.2"/>
				</g>
			</g>
			<g class="st1">
				<g>
					<polygon class="st2" points="426.3,254.8 426.3,254.8 427.1,252 427.1,252 					"/>
				</g>
				<g>
					<polygon class="st2" points="436.7,237.2 436.7,237.2 437.3,235.4 437.3,235.4 					"/>
				</g>
				<g>
					<path class="st3" d="M433.3,234.6c2,0,3.3,0.5,4,0.9l-0.5,1.7c-0.8-0.4-2-0.9-3.5-0.9c-2.7,0-3.9,1.7-3.9,3.4
						c0,2.2,1.4,3.2,4,4.3c3.4,1.4,4.8,3.1,4.8,5.9c0,2.7-1.7,5.8-6.5,5.8c-1.7,0-3.6-0.5-4.7-1.2l0.5-1.8c1.3,0.8,2.9,1.2,4.3,1.2
						c2.6,0,4.3-1.5,4.3-3.8c0-2-1.1-3.3-3.8-4.4c-3.4-1.3-5-3.1-5-5.7C427.2,236.8,429.7,234.6,433.3,234.6z"/>
				</g>
				<g>
					<path class="st2" d="M433.5,243.5c3.6,1.5,5.1,3.4,5.1,6.4c0,2.9-1.8,6.3-7,6.3c-1.8,0-4-0.6-5.1-1.4l-0.1-0.1l0.8-2.8l0.3,0.2
						c1.3,0.8,2.9,1.3,4.4,1.3c2.3,0,3.8-1.3,3.8-3.3c0-1.8-1-2.9-3.5-4c-3.6-1.4-5.3-3.3-5.3-6.2c0-3.5,2.7-6,6.5-6
						c2.3,0,3.8,0.7,4.4,1.1l0.2,0.1l-0.8,2.7l-0.3-0.2c-0.7-0.4-2-1-3.6-1c-2.3,0-3.4,1.5-3.4,2.9
						C429.8,241.4,430.7,242.3,433.5,243.5z M431.5,255.7c4.8,0,6.5-3.1,6.5-5.8c0-2.8-1.4-4.5-4.8-5.9c-2.6-1.1-4-2.1-4-4.3
						c0-1.7,1.2-3.4,3.9-3.4c1.5,0,2.7,0.4,3.5,0.9l0.5-1.7c-0.7-0.4-2-0.9-4-0.9c-3.6,0-6,2.2-6,5.5c0,2.6,1.6,4.4,5,5.7
						c2.7,1.1,3.8,2.4,3.8,4.4c0,2.3-1.7,3.8-4.3,3.8c-1.5,0-3.1-0.4-4.3-1.2l-0.5,1.8C428,255.2,429.9,255.7,431.5,255.7"/>
				</g>
			</g>
		</g>
	</g>
	<text transform="matrix(1 0 0 1 314 266)" class="st4 st5">Lorem ipsum</text>
</g>
</svg>
