<?xml version="1.0" encoding="utf-8"?>
<!-- Generator: Adobe Illustrator 22.0.1, SVG Export Plug-In . SVG Version: 6.00 Build 0)  -->
<svg version="1.1" id="Layer_1" xmlns="http://www.w3.org/2000/svg" xmlns:xlink="http://www.w3.org/1999/xlink" x="0px" y="0px"
	 viewBox="0 0 139.6 139.6" style="enable-background:new 0 0 139.6 139.6;" xml:space="preserve">
<style type="text/css">
	.st0{opacity:0.1;fill:#FFFFFF;enable-background:new    ;}
	.st1{fill:#5BCBF5;}
	.st2{clip-path:url(#SVGID_2_);}
	.st3{fill:#257793;}
	.st4{opacity:0.2;enable-background:new    ;}
</style>
<title>earth</title>
<g id="Layer_2_1_">
	<g id="Layer_1-2">
		<g id="earth">
			<circle class="st0" cx="69.8" cy="69.8" r="69.8"/>
			<circle class="st1" cx="69.8" cy="69.8" r="60.9"/>
			<g>
				<defs>
					<circle id="SVGID_1_" cx="69.8" cy="69.8" r="60.9"/>
				</defs>
				<clipPath id="SVGID_2_">
					<use xlink:href="#SVGID_1_"  style="overflow:visible;"/>
				</clipPath>
				<g class="st2">
					<path class="st3" d="M2.6,74.4c0.1-15.2,6.7-29.7,18.2-39.6c0,0-1.3,4,6.3,2.3s6.3,1.7,6,3.4s-4.4,0.8-7.1,0.2
						s-10.2,1.2-13,6.1s-5.3,8.9-3.5,9.7s6.3-7.7,9-9.8s3.2,0.2,2.4,4.2s0.9,6.5,4.7,5.7s7.1-3.4,7-4.8s-6.8-5.3,0.1-7.1
						s12.2-3.8,11.3,3.2s-2,15-0.2,17.4c1.8,2.4,5,2.9,4.3,3.8s-2.4,0.5-3.7,0.2s-4.1,1.7-5,3.3s-1.6,5.6,1.4,6.3s4.1-1.8,6.7-2.5
						s7.1,1,7.4,2s-2.1,1.5-5.6,0.1s-4.5,2.4-6.5,3.4s-3.6,1.9-7.9,0.4s-8.6,0.7-11.5,0.3c-8.5-1.3-11.4-5.3-13.8-6.3
						C7.3,75.5,5,74.8,2.6,74.4L2.6,74.4z"/>
					<path class="st3" d="M57.8,68.9c0,0,4.6-3.3,8.4-3.3c3.8,0,4.7,0.5,8.5-1.7c3.9-2.1,6.9-1.5,7.9,3.9s2.1,14.4,1.7,17.8
						s-1.4,6.7,0.2,10.3s2.8,5.6,5.7,5.1c0,0,1.1,3.3-3.9,2.1s-6.4-6.5-7.8-9s-5.8-9.9-7.9-10.8s-6.2,0.9-9.9-1.6
						S52.9,71.5,57.8,68.9z"/>
					<path class="st3" d="M106.1,17.4c1.2,4.3-2.6,5.6-6.6,8.8c-5.1,4.1-10.2,3.6-15.9,6c-5.3,2.2-7.2,8.2-6.7,13.5
						c0.3,3.9,2.1,12,6.2,13.4c2,0.6,4.1,0.7,6.2,0.5c3-0.1,6-0.4,8.9-1c3.4-0.7,6.9-2,10.1-0.9c2.7,1,4.5,3.4,5.8,5.9
						c3.6,6.8,1.9,16.2,10.9,18.5c3.3,0.9,6.8,0.3,9.6-1.6C135.9,56.1,125.2,32.6,106.1,17.4L106.1,17.4z"/>
					<path class="st3" d="M46.7,13.4c-0.7,1-1.2,2.2-1.3,3.4c-0.1,2.6,2.4,4.5,4,6.2c0.6,0.6,1.2,1.1,1.8,1.6c8.3,6.1,13-3.1,20-4.6
						c4.4-1,9,1.4,13.6,1c5.1-0.5,7.2-5.7,7.5-10.9c-2.5-1.9-5.1-3.8-7.8-5.5c-12.8-8.3-30-4.5-37.8,8.6L46.7,13.4z"/>
					<path class="st3" d="M43.5,125.2c6.9,4,14.8,6,22.8,5.7c0,0-1.8-3.8-3.9-4.5s-3.6,1.4-4.9,0.4s1.5-1.7-1-5.8s-8.2-6.2-10.3-3.5
						S43.5,125.2,43.5,125.2L43.5,125.2z"/>
					<path class="st3" d="M108.5,88.2c1.3,0.3,2.1-2.1,4.5,1.2s1.6,4.8,3.6,5.8s1,3.7,0.5,3.8s-2.2,0.7-3.1,1.1s-3.4,1.1-4.1-0.1
						s-0.4-2.1-2-3.2s-2-0.6-3.3-0.7s-1.3-1.4-2.7-0.3s-4,3.8-4.2,2.1c-0.2-1.3,0-2.7,0.6-3.9c0.6-1.6-0.6,0.1,0.6-1.6
						s0.5-1.7,2-2.3S108.5,88.2,108.5,88.2z"/>
					<path class="st4" d="M123.4,39.4c-0.2,23.7-10.7,46.2-28.9,61.4c-16.4,13.8-40.2,20.5-60,19.4c1.5,1.1,3.1,2.1,4.7,3
						c29.4,17.1,67,7.1,84.1-22.2C134.4,82,134.4,58.5,123.4,39.4L123.4,39.4z"/>
				</g>
			</g>
		</g>
	</g>
</g>
</svg>
