<svg id="Layer_1" data-name="Layer 1" xmlns="http://www.w3.org/2000/svg" viewBox="0 0 899.33817 364.06277"><defs><style>.cls-1{fill:#282a35;}.cls-2{fill:#d5d5d5;opacity:0.2;}.cls-3{fill:#cb3f38;}.cls-4{fill:#939394;}.cls-5{fill:#cd4038;}.cls-6{fill:#d2534c;}.cls-7{fill:#a8302a;}.cls-8{fill:#ad3d37;}.cls-9{fill:#ae3d37;}.cls-10{fill:#f1f1f1;}.cls-11{fill:#f0f0f0;}.cls-12{fill:#d55f59;}.cls-13{fill:#d45f59;}.cls-14{fill:#ab3d37;}.cls-15{fill:#cacaca;}.cls-16{fill:#d0d0d0;}.cls-17{fill:#efefef;}.cls-18{fill:#cc4038;}.cls-19{fill:#d86f6a;}.cls-20{fill:#9a9a9b;}.cls-21{fill:#9a9a9c;}.cls-22{fill:#9b9b9c;}.cls-23{fill:#d86f69;}.cls-24{fill:#c8c8c8;}.cls-25{fill:#76777e;}.cls-26{fill:#e4aaa7;}.cls-27{fill:#cc5a54;}.cls-28{fill:#8e3a36;}.cls-29{fill:#923b36;}.cls-30{fill:#8f302c;}.cls-31{fill:#e59e9a;}.cls-32{fill:#af5450;}.cls-33{fill:#d15e58;}.cls-34{fill:#ca5953;}.cls-35{fill:#484953;}.cls-36{fill:#e2640d;}.cls-37{fill:#e67b32;}.cls-38{fill:#1a1a1a;fill-opacity:0.84;}.cls-39{fill:#e6e6e6;}.cls-40{fill:#999;}</style></defs><title>tesla</title><path class="cls-1" d="M325.29321,446.36284q162.40182-43.695,324.7974-87.41335c30.7061-8.27971,61.33176-16.85771,92.01348-25.22886a42.29418,42.29418,0,0,1,6.38772-.76088c8.137-.99437,15.58905,1.33412,22.771,4.80062,34.14941,16.48232,71.15034-1.567,84.88754-25.826,3.31491-5.85423,9.44291-7.51957,13.965-11.4863,28.02989-9.536,56.9394-15.93438,85.47032-23.66132,7.66222-2.07513,8.41369-4.39018,6.28913-11.83388-5.29728-18.56-17.48887-33.6884-24.03957-51.51379-1.06871-2.90816-4.73438-5.14661-3.19486-8.67069,4.66507-10.67817-2.716-14.458-10.18616-17.7957-20.71711-9.25672-42.97746-12.19212-65.2-14.55791-67.85-7.22307-135.56352-5.25866-203.09126,4.23632-5.35121.7524-10.68149,1.65408-16.02144,2.48638-23.35926,4.8064-40.771-10.41838-60.095-18.4947-15.5065-6.4808-30.80588-13.67247-45.96282-21.051-2.91472-1.41881-5.77988-2.88909-9.18013-2.00815-5.03451.211-10.7227-9.00919-15.10353,1.35539-3.6825,8.71244-1.87809,15.01787,7.49326,19.51425,22.7615,10.92087,45.72429,21.42214,69.20759,32.37309-5.56973,6.89345-11.81486,13.03483-13.59224,21.89408-.94838,4.72682-5.63929,4.10223-8.75,4.793-8.69209,1.93016-18.97883,9.17788-25.39239,5.03-5.47246-3.53925-5.46292-15.5601-7.87-23.8314-1.20983-4.15715-2.42112-8.3141-3.59583-12.48119-1.83118-6.49645-6.3485-8.59192-12.48749-7.06247-6.44642,1.606-10.64412,5.64863-8.11434,12.62795,2.45027,6.76047-1.03068,6.98031-6.1166,8.63233-21.93132,7.12349-43.61405,15.01177-65.38728,22.62157-3.65546,1.27761-7.31106,2.55529-13.58893,4.74955,3.18134-4.96952,4.97807-7.7292,6.72841-10.51784a52.06566,52.06566,0,1,0-88.0005-.5802c3.78,5.89444,4.78128,8.89112-2.1394,12.91589-6.65553,3.8706-9.62749,11.34518-13.23737,20.3007-8.65685-14.002-16.43382-26.63852-24.2724-39.23686-4.47134-7.18636-9.93492-13.62-19.25989-8.67771-15.97665,8.46762-24.0201,13.98-18.55,25.58029,3.237,6.86429-2.59113,6.25209-5.381,7.53281-30.3992,13.95366-61.28393,26.89361-89.58521,45.04829C143.483,295.8334,120.191,312.81329,101.39923,335.256c2.67249,3.64208,5.78042,6.3363,10.76444,4.95235,10.413-15.76728,25.89487-25.98849,40.77857-36.7526,33.00729-23.87135,70.031-40.35764,106.74015-57.40233,5.44675-2.52912,10.3999-2.64341,15.05768,1.49651,3.6112,1.84523,7.317,3.58815,10.83016-.00808,2.72153-2.78572,1.98224-6.11865.34453-8.99316-3.81023-6.68752-.00887-9.71879,5.288-12.5719,6.0791-3.27429,10.2658-1.24388,13.51617,4.13682,10.75954,17.81147,22.41684,35.05877,33.18129,52.86931,2.06439,3.41548,3.01211,8.64909,9.06352,7.38818a13.16026,13.16026,0,0,0,2.69555-1.77552c20.62687-8.412,42.59715-12.19053,63.79051-18.62682,7.52878-2.28642,15.33132-3.61935,22.85188-5.99349,7.39918-2.52322,15.084-3.983,22.60938-6.03716,14.5923-4.28509,29.452-7.57091,44.06273-11.76961,19.72765-5.93,39.86371-10.381,59.61163-16.24021,5.55568-1.64845,9.92233-.841,12.93684,4.43569,17.48489,16.49907,32.63626,18.218,55.03521,6.32067,10.62663-1.19142,11.20372,7.99594,14.64041,14.21113,5.84972,15.17038,8.76311,31.17771,13.55751,46.62742,2.36467,7.61988.31591,11.22161-7.37625,13.23837-27.83669,7.29847-55.567,15.00222-83.41772,22.26372-14.21889,3.92393-28.39033,8.01642-42.77684,11.30032-7.9711,2.93-16.26778,4.66162-24.51145,6.59536-29.41928,8.30145-59.06728,15.7437-88.57362,23.7136-26.58579,7.75086-53.53412,14.16058-80.20578,21.59328-7.09718,2.8861-12.30316,3.1563-16.57149-5.52453-18.12824-36.86829-58.368-50.90616-92.829-32.95019-30.96661,16.13553-48.93067,56.45-27.48342,94.86739,6.40693,9.8941,5.74888,11.465-5.83448,12.3661-6.00754.46724-12.088.80342-18.0001-1.03491-30.45618-6.93963-50.30641-25.35052-60.11359-54.97015-2.04173-6.16643-1.41575-10.54129,4.9236-13.19285,3.648-2.3061,7.64088-4.00039,11.24732-6.35128,6.3041-4.10931,10.60171-9.62126,11.44157-17.34019,1.187-10.90835-3.79645-14.75357-14.10453-10.82076-8.60847,3.2843-16.28884,9.131-25.94284,9.316-2.83839-2.95209-.705-4.48,1.70463-5.927,31.06547-13.70208,62.28068-26.98663,93.29182-40.734,6.75835-2.99615,12.43515-3.41224,19.41559.01517a25.17527,25.17527,0,0,0,35.37342-14.37452c4.648-13.3241-4.71688-29.49885-18.885-32.61724-14.03721-3.08951-28.84431,7.08936-30.25848,22.15493-.73676,7.84508-4.22128,11.19152-10.872,14.00819-22.59162,9.56793-44.94817,19.69154-67.614,29.09708-9.553,5.05134-19.81445,8.54408-29.48646,13.2966-4.84462,2.38044-11.1156,4.32862-9.32961,12.10758,8.15926,8.0457,9.658,19.13281,12.87243,29.286,4.01484,12.68175,6.75624,25.7503,13.8623,37.29351,19.48449,31.65012,52.62668,46.74888,89.47072,40.68144a41.57865,41.57865,0,0,1,5.38023-.20367c10.56991.34744,20.01693,4.827,29.86386,7.93876,27.59473,8.72045,51.12294.907,70.54118-19.3537C310.87172,460.04717,316.85422,451.995,325.29321,446.36284Z" transform="translate(-63.56355 -134.00608)"/><path class="cls-2" d="M870.11539,300.44811c-7.03835-.29484-11.42038,2.50056-15.36829,8.94062-18.72043,30.53728-55.58872,40.44278-87.70222,23.40392-7.06075-3.7463-12.39672-3.373-18.55307.1671C794.08783,371.83465,856.503,347.26251,870.11539,300.44811Z" transform="translate(-63.56355 -134.00608)"/><path class="cls-2" d="M325.29321,446.36284c-8.002.76274-12.98931,5.0092-17.734,11.713-20.43938,28.87916-53.58594,37.35089-84.82235,21.49774-7.03424-3.57013-12.62941-3.85715-19.18449-.897C243.91961,515.64264,308.9189,496.9511,325.29321,446.36284Z" transform="translate(-63.56355 -134.00608)"/><path class="cls-3" d="M81.96668,371.61932c2.53654-7.29728,9.36088-8.88622,15.30614-11.9324,7.84813-4.02106,17.1128-5.25156,23.62893-11.88827,1.164-3.5423-1.53343-5.2786-3.43868-7.39666-1.6116-1.13311-3.2187-2.32677-5.34339-1.22586-4.46193,1.122-6.33591-4.82674-10.71913-3.92155l.24992-.13715c-6.88,3.14662-14.08942,5.66447-20.07046,10.52526-1.34473.3228-2.72178.54926-4.02941.98337-12.9644,4.30264-13.26175,5.178-5.84031,16.79239,1.19525,3.32988,4.03842,5.4445,6.03484,8.18364Q79.856,371.61064,81.96668,371.61932Z" transform="translate(-63.56355 -134.00608)"/><path class="cls-4" d="M524.90353,137.5837q46.239,21.87524,92.46932,43.76849c8.097,3.845,15.26718-.59968,22.76866-2.2146q-51.6775-20.59368-103.37078-41.14708C532.961,136.48114,529.00145,133.26747,524.90353,137.5837Z" transform="translate(-63.56355 -134.00608)"/><path class="cls-1" d="M66.81035,359.68692c16.37512-9.51676,35.0139-14.06233,48.72836-29.42266C96.68888,334.34605,76.879,336.32341,66.81035,359.68692Z" transform="translate(-63.56355 -134.00608)"/><path class="cls-1" d="M92.41421,335.91359c1.62611,6.85161-14.27969,15.703-27.77509,24.28173C60.48176,353.63419,70.653,345.43523,92.41421,335.91359Z" transform="translate(-63.56355 -134.00608)"/><path class="cls-5" d="M116.56676,341.3358q2.16816,3.23275,4.33578,6.46418c7.92233-.19056,14.25-4.81773,21.16872-7.73152,17.981-7.57251,35.82952-15.461,53.81637-23.01957,4.49665-1.88968,6.49333-3.8166,5.95321-9.53a22.4459,22.4459,0,0,1,16.38823-23.86121c9.82838-2.77758,20.62595,1.82249,25.99134,11.07273,5.26442,9.07637,3.37825,20.3003-4.6485,27.66164-8.30689,7.61829-18.65922,8.41521-28.7558,1.28212-3.68912-2.60644-6.43635-3.52322-10.6571-1.64526q-51.45092,22.89371-103.03593,45.48544c-1.29755,2.78181-.69277,5.90657-1.58033,8.76232,1.88246,6.3477,5.55064,2.42986,8.36784,1.23607,8.26156-3.50122,16.40678-7.2774,24.58009-10.98428,5.65506-2.56476,7.90219-.50845,8.01642,5.407.16908,8.74748-3.453,15.24042-10.93591,19.58732-3.70344,2.15146-7.53938,4.07434-11.31543,6.1007-1.7094,15.46012,7.13972,26.847,15.80492,37.65925,11.6997,14.59866,27.89208,22.66543,46.083,26.36621,11.33927,2.307,13.7857-.8062,9.64445-12.25824-5.292-14.63351-7.17762-29.30307-3.17975-44.60351,8.22526-31.48063,32.7648-52.37664,65.75275-55.65656,28.46984-2.831,57.58447,14.4472,71.26589,41.78843,2.5637,5.12356,2.56171,13.90695,12.38665,11.75285,26.94913-6.382,53.808-13.0989,80.1745-21.63967,1.92023-4.97183-1.61372-8.25626-3.97786-11.62536-15.7315-22.41989-31.53509-44.7893-47.02079-67.38012a35.59231,35.59231,0,0,0-14.44746-12.63405c-5.15682-.01716-4.5747-5.00562-6.33445-7.72615-11.57846-17.89992-23.02825-35.89088-34.0878-54.11439-4.05352-6.67931-8.17092-10.20286-15.35026-4.53978-5.38222,4.2456-16.57905,5.97448-7.40673,16.85056,1.32736,1.57371,4.03219,3.95918,1.13363,6.54335-3.10912,2.772-6.152-.37441-9.24877-.40422-4.63406-1.61346-8.534.9301-12.34093,2.63307-37.81826,16.91688-75.33492,34.388-109.661,57.97465-11.33424,7.78823-21.2901,17.16554-31.926,25.75216C118.79852,334.559,115.88433,337.06628,116.56676,341.3358Z" transform="translate(-63.56355 -134.00608)"/><path class="cls-5" d="M639.6373,194.19759c6.05287,9.28687,8.65963,18.92152,3.04777,29.42723-1.1991,2.24495-2.41065,4.55469-.00981,6.84117,16.79756,15.99878,18.75674,38.36315,24.80828,58.83552,7.1698,24.255,6.72642,24.4165,31.1528,17.99692,8.6897-2.28377,17.33383-4.74074,25.99876-7.11859,5.22811-3.05313,2.72735-7.6487,2.06824-11.62709a73.49713,73.49713,0,0,1,55.26658-83.60934c36.413-8.88827,75.05956,13.04351,86.52392,49.10155,4.60836,14.49424,6.39183,15.80657,20.84075,11.87429,14.92637-4.06214,30.19819-6.958,44.6536-12.68784A7.96915,7.96915,0,0,0,936.12,250.747c1.13072-6.78207-3.21672-10.87661-7.4172-15.04357-9.91054-9.72655-17.91158-20.48906-18.99169-35.0063-2.10163-4.98853-6.7549-4.84422-10.9799-5.27488-9.81314-1.00007-19.1613-3.16133-26.967-9.735a14.25353,14.25353,0,0,0-3.72411-1.01663c-37.629-5.03133-75.50586-6.10487-113.27641-4.37248-35.15425,1.6124-70.50752,2.01682-105.32811,8.3952C645.46278,189.42108,641.49578,189.8475,639.6373,194.19759Z" transform="translate(-63.56355 -134.00608)"/><path class="cls-5" d="M631.2908,237.684c-19.11213,10.84951-37.33247,11.39135-54.11585-4.681a8.94815,8.94815,0,0,0-7.21936-1.43218c-20.43645,5.5833-41.50459,8.95884-61.11974,17.40658-3.228,3.06075-1.25688,6.12077.49943,8.66327,18.32383,26.52589,36.54721,53.12453,55.63867,79.11037a14.732,14.732,0,0,0,3.34062,2.686c30.014-7.86125,59.99273-15.862,90.07457-23.45434,5.37626-1.35685,6.42-4.12356,5.02007-8.54328-5.76611-18.2043-8.64307-37.25283-16.08332-54.96346C641.53315,248.03059,639.13827,239.902,631.2908,237.684Z" transform="translate(-63.56355 -134.00608)"/><path class="cls-6" d="M346.74206,289.39274c-2.39634,7.40474,6.08281,4.19982,8.24,8.4545,4.4822,8.83958,11.45761,16.389,17.15441,24.6439,13.42912,19.45872,26.70942,39.02007,40.05081,58.54047q44.99178-10.13335,89.04523-23.77522c1.81541-4.00913-.749-6.94837-2.70655-9.80094-18.444-26.87685-37.2364-53.51167-55.92119-80.2354a7.21509,7.21509,0,0,0-3.2358-.58192c-24.244,5.21327-47.96294,12.4639-71.92288,18.77509-6.69845,1.76446-13.22385,2.81441-20.06224,2.14987A14.22078,14.22078,0,0,0,346.74206,289.39274Z" transform="translate(-63.56355 -134.00608)"/><path class="cls-7" d="M329.53186,434.928q144.37362-38.467,288.74711-76.9342c6.27773-1.67256,12.48046-4.33458,18.8491-4.82183,17.48224-1.338,23.33514-12.70454,25.96086-29.37111-14.74191,3.89206-28.85717,7.58224-42.95282,11.3461q-143.832,38.40681-287.65123,76.86145a19.799,19.799,0,0,0-2.96707,1.33068C325.0152,420.53833,324.77933,427.73477,329.53186,434.928Z" transform="translate(-63.56355 -134.00608)"/><path class="cls-6" d="M568.31457,339.437c-8.72111-16.98281-21.39041-31.33162-31.6309-47.31887C527.58013,277.906,517.331,264.42744,507.58759,250.625c-.48142-.26549-.9627-.53091-1.44186-.80461-13.81048.75-26.51622,5.90173-39.51427,9.9263a7.77172,7.77172,0,0,0-3.24216,3.60882c-.69489,4.788,2.15848,8.26846,4.62478,11.75728,15.83619,22.402,31.50144,44.92313,47.26368,67.376,2.47055,3.51911,4.19677,8.7027,10.16045,8.21214C540.07968,348.27622,554.26146,344.10145,568.31457,339.437Z" transform="translate(-63.56355 -134.00608)"/><path class="cls-8" d="M935.22161,250.5454c-17.68035,4.80725-35.38561,9.52565-53.0278,14.46886-6.34651,1.77824-8.42839-1.69124-9.78213-6.82467-8.13541-30.84974-28.21369-49.324-58.96405-56.60886-38.49473-9.11957-81.38036,19.6394-89.142,58.243-2.78791,13.86687.45359,26.92873.32943,40.35692,9.23472-.37561,12.106-4.51275,10.26368-13.94055-6.1178-31.30664,12.57415-61.21886,44.529-72.45213,27.37157-9.62212,61.68663,4.34254,75.94036,30.66708a81.09866,81.09866,0,0,1,8.52526,25.47315c4.43781,2.24978,8.1757,4.61955,8.0844,10.73741-.05831,3.90213.49479,9.12487,7.18689,7.00058a596.94485,596.94485,0,0,0,65.01307-17.4403C944.35974,262.2243,942.80034,255.01528,935.22161,250.5454Z" transform="translate(-63.56355 -134.00608)"/><path class="cls-9" d="M332.01367,402.67194c-5.73749-.16458-6.29218-4.84688-7.98833-8.8103-12.94558-30.24668-36.41271-46.5619-68.79693-47.59111-54.82267-1.74213-92.38783,53.41711-72.09077,104.31015,1.12687,2.82621,4.56475,5.73576,1.84058,8.83163-2.25853,2.56648-5.51327-.12218-8.08877-.64387-33.95634-6.87841-53.94014-28.27346-62.6321-61.14254-9.34922,2.55508-8.777,8.32013-6.22406,16.05615,8.61881,26.11392,25.68073,43.94056,51.02594,54.07862,3.65361,1.46133,7.44264,2.637,11.49909,2.173,1.97866,1.1514,4.16642.83416,6.29562.87352,14.17953.26171,14.17953.25681,20.44573-14.4635-7.74556-16.79955-11.78769-33.90294-6.29907-52.44143,7.56588-25.55551,31.12405-44.93758,57.85824-46.86853,26.73924-1.93136,53.66107,13.30057,63.48641,38.35227C317.02317,407.31328,322.54347,408.08185,332.01367,402.67194Z" transform="translate(-63.56355 -134.00608)"/><path class="cls-10" d="M420.91061,211.50161c3.24918-3.86729,5.90127-6.67077-1.63546-9.75689-8.57442-3.51109-16.17449-9.334-24.42558-13.72429-6.13674-3.26521-7.28946-7.24248-3.66355-13.08962,3.41138-5.50161,6.08467-11.50518,9.86005-16.7258,4.97594-6.88059,1.69509-8.77657-4.71423-10.62762-19.81272-5.72231-40.13681,3.08195-49.80485,22.00585-4.34187,20.74859,3.778,38.90751,22.01467,49.23188C386.73244,229.11365,405.30539,226.5198,420.91061,211.50161Z" transform="translate(-63.56355 -134.00608)"/><path class="cls-5" d="M525.43821,350.70092c-21.81842-28.08807-41.721-57.525-61.36489-87.14435-8.38175-4.41541-15.29792-1.49115-21.63741,4.32074,6.47359,17.41042,19.83592,30.38343,29.511,45.73549,9.34074,14.82161,20.96253,28.12544,29.28505,43.6424C509.5901,356.13879,517.763,354.33876,525.43821,350.70092Z" transform="translate(-63.56355 -134.00608)"/><path class="cls-11" d="M375.13517,267.70928q66.16863-17.45265,132.3154-34.98648c4.95739-1.32439,9.65015-3.741,8.48352-10.45523-4.25786-9.132-7.95758-10.90835-18.86421-8.32066-10.52459,2.49691-20.39948,6.99051-30.50521,10.72064-26.97736,9.95758-54.17362,19.3335-80.906,29.93462C380.10117,256.806,372.73459,258.63357,375.13517,267.70928Z" transform="translate(-63.56355 -134.00608)"/><path class="cls-5" d="M609.70441,192.40709a31.85128,31.85128,0,0,0-20.38584,8.51533c-6.63538,6.21863-10.69116,14.0657-6.65261,23.16188,4.47982,10.09009,13.80757,13.18682,23.988,12.94267,6.35512-.15252,12.74337-1.70158,17.89251-6.113,13.293-18.21623,9.72064-32.04023-9.59834-37.21692C613.20735,193.23059,611.40162,193.0405,609.70441,192.40709Z" transform="translate(-63.56355 -134.00608)"/><path class="cls-12" d="M116.56676,341.33567c19.48821-19.88747,41.83044-35.98689,65.87493-49.87409,29.95687-17.302,61.479-31.37973,93.00586-45.45881-2.90333-3.4995-4.83018-7.47623-11.20147-4.67434-48.55248,21.35211-96.536,43.68739-137.07972,78.81811-6.00436,5.20294-15.02893,8.79314-15.04721,19.0321Q114.34335,340.25458,116.56676,341.33567Z" transform="translate(-63.56355 -134.00608)"/><path class="cls-13" d="M639.6373,194.19759c11.9389-4.20863,24.63655-4.22341,36.94528-6.234,13.03224-2.1288,26.46493-2.54992,39.71277-2.447,21.60521.16756,43.02093-2.76015,64.65542-2.583,29.84941.24448,59.55717,2.01285,89.25949,4.511,1.42172-2.80368-.54024-4.41257-2.16775-6.13959-72.34188-8.78287-176.98954-4.21334-233.18291,6.66327C634.31723,191.67848,637.60855,192.46977,639.6373,194.19759Z" transform="translate(-63.56355 -134.00608)"/><path class="cls-14" d="M728.93616,306.67178c-16.93763,3.13449-33.36018,8.25593-49.93154,12.81949-3.75961,1.03532-5.58668,3.45716-5.95546,6.74935-.70086,6.25547-4.02226,11.42328-7.71005,19.45507,25.39013-6.842,48.85328-13.16449,72.31644-19.48721,5.61385-3.474,1.49062-6.97951-.32744-9.98395C735.14313,312.61386,733.44923,308.3293,728.93616,306.67178Z" transform="translate(-63.56355 -134.00608)"/><path class="cls-15" d="M420.91061,211.50161c-11.98885,5.04093-22.79781,13.57395-37.41622,9.735-23.47137-6.16391-36.23249-21.81186-36.60207-46.29867-.027-1.78619-.239-3.56953-.3652-5.35439-11.52691,20.558-4.26647,45.83322,16.54884,57.61018C383.99131,239.02723,409.2003,232.18752,420.91061,211.50161Z" transform="translate(-63.56355 -134.00608)"/><path class="cls-16" d="M375.13517,267.70928c.47929-6.15589,5.24613-8.35783,9.95731-10.09081q55.046-20.24883,110.20122-40.20069c7.81116-2.83051,15.45826-3.97746,20.64039,4.84979-2.95951-13.56017-7.53646-16.60177-20.17475-12.07273-37.82567,13.55514-75.55011,27.39292-113.26965,41.24163-2.98045,1.09422-6.29827,2.54581-8.25679,4.85237C371.17,259.89607,367.8037,264.49787,375.13517,267.70928Z" transform="translate(-63.56355 -134.00608)"/><path class="cls-17" d="M338.74618,241.95434c-4.18127,4.94686-5.37825,10.75895-4.87232,17.03529.53919,6.68726,2.93593,13.97678,8.31722,16.52684,5.91969,2.8052,12.84911-2.32181,19.38909-3.75035,2.22407-.48578,2.24368-2.58384,1.577-4.35346-1.95415-5.18783.49864-9.81884,1.65334-14.62046C357.73057,240.90147,349.873,237.6342,338.74618,241.95434Z" transform="translate(-63.56355 -134.00608)"/><path class="cls-18" d="M224.60208,289.53155a16.495,16.495,0,0,0-16.574,16.43209,16.744,16.744,0,0,0,15.96817,16.03913,16.56861,16.56861,0,0,0,16.48708-15.43124A16.26866,16.26866,0,0,0,224.60208,289.53155Z" transform="translate(-63.56355 -134.00608)"/><path class="cls-19" d="M347.38381,287.56309c2.24236,3.20148,5.1975,5.22983,9.16026,3.97534,27.65-8.75305,56.32561-13.87833,83.67-23.69889,1.48029-4.09838-1.66885-5.02821-4.314-6.303q-42.14861,10.96051-84.2882,21.955C349.57648,284.02463,347.37745,284.74278,347.38381,287.56309Z" transform="translate(-63.56355 -134.00608)"/><path class="cls-13" d="M507.58759,250.625q34.79361-8.81026,69.58736-17.62118c-1.72649-6.43185-4.44245-9.22605-12.1627-6.79493-20.46534,6.44477-41.27389,11.79942-61.946,17.58773-1.50056,4.19982,1.76559,5.20922,4.43119,6.62054Z" transform="translate(-63.56355 -134.00608)"/><path class="cls-20" d="M258.181,418.66051c12.62146-3.392,22.59891-6.01483,32.53357-8.79148,2.05525-.5743,4.18087-1.48055,2.85787-4.52155a42.114,42.114,0,0,0-12.93922-17.07107c-2.80752-2.1541-4.56992-.63605-6.02,1.89041C269.63,398.84911,264.6142,407.51245,258.181,418.66051Z" transform="translate(-63.56355 -134.00608)"/><path class="cls-20" d="M249.77476,417.48407c-3.02046-11.79127-5.606-21.44155-7.934-31.15332-1.21381-5.06393-4.00476-5.10912-7.7779-3.01967-1.57688.87325-3.13919,1.78347-4.64612,2.77147-13.75363,9.01781-13.71838,11.89742.16538,19.79709C235.71821,409.37106,241.8254,412.91322,249.77476,417.48407Z" transform="translate(-63.56355 -134.00608)"/><path class="cls-20" d="M254.33767,416.34659c6.1692-10.6901,11.21471-19.65914,16.50351-28.48255,2.01762-3.36619,1.21049-5.16239-2.27363-6.34757a46.89636,46.89636,0,0,0-17.92775-2.8478c-4.81918.27138-6.222,2.06082-4.776,6.85058C248.73163,395.0186,251.15474,404.65219,254.33767,416.34659Z" transform="translate(-63.56355 -134.00608)"/><path class="cls-20" d="M792.96267,275.4471c-10.94452-6.41475-19.89634-11.54646-28.72094-16.88847-3.72583-2.25547-5.13694-.24229-6.23838,2.79-.48883,1.34572-.79467,2.75723-1.20307,4.133-1.7632,5.9383-4.02875,13.209-.13794,17.57533,3.50108,3.9289,9.84348-.99973,14.89654-2.06082C777.86352,279.67216,784.05127,277.79076,792.96267,275.4471Z" transform="translate(-63.56355 -134.00608)"/><path class="cls-20" d="M802.17978,280.6377c3.28893,12.10778,6.08665,21.70413,8.444,31.40755,1.0426,4.29212,2.89432,5.32895,6.66824,3.22447,1.25635-.70052,2.55748-1.32134,3.80746-2.03246,15.62271-8.88781,15.81339-12.40566,1.07957-21.094C816.31558,288.68566,810.38039,285.34961,802.17978,280.6377Z" transform="translate(-63.56355 -134.00608)"/><path class="cls-20" d="M797.891,282.08791c-6.17464,10.62153-10.91206,19.11267-16.00368,27.38589-2.56648,4.16981-1.86391,6.5464,2.82912,7.77743.69807.1832,1.39151.39078,2.09739.537,6.31405,1.30888,13.8509,4.86728,18.69181.30557,4.38773-4.13476-.992-10.65227-2.12985-16.07093C802.12479,296.06589,800.177,290.25519,797.891,282.08791Z" transform="translate(-63.56355 -134.00608)"/><path class="cls-20" d="M247.648,421.353c-10.44641-6.06465-18.68571-10.45807-26.49859-15.511-5.90869-3.82137-8.19716-1.791-9.205,4.2189-.29524,1.76055-1.06778,3.43907-1.38687,5.1979-2.61684,14.426-.49347,16.41367,13.58641,12.64438C231.37845,425.96653,238.57463,423.8873,247.648,421.353Z" transform="translate(-63.56355 -134.00608)"/><path class="cls-21" d="M259.26179,422.99284c10.85468,6.22884,19.88614,11.26481,28.75461,16.57335,3.5142,2.10362,5.232.93076,6.35525-2.42682.45637-1.3638.80342-2.76445,1.19485-4.14973,1.68966-5.97958,3.66-13.28958-.04425-17.6659-3.49751-4.13224-9.77869.9399-14.79067,2.04664C274.23984,418.80349,267.85371,420.71457,259.26179,422.99284Z" transform="translate(-63.56355 -134.00608)"/><path class="cls-21" d="M795.052,271.20567c-3.156-12.06153-5.6483-21.40558-8.03324-30.77693-1.19645-4.70151-3.63837-5.82163-7.7502-3.1125-1.204.79328-2.52991,1.40019-3.74584,2.177-14.83069,9.47305-14.82194,12.15436.21242,20.92516C781.31186,263.67192,787.00708,266.72293,795.052,271.20567Z" transform="translate(-63.56355 -134.00608)"/><path class="cls-20" d="M805.0138,272.13523c10.79413-2.91922,20.706-5.682,30.66887-8.24665,3.17418-.81707,4.331-2.22043,2.71781-5.2894-1.00431-1.91061-1.86113-3.91048-2.99569-5.739-9.14542-14.73986-12.42865-14.8032-20.65868-.06341C811.46605,258.67114,806.95245,263.958,805.0138,272.13523Z" transform="translate(-63.56355 -134.00608)"/><path class="cls-20" d="M804.87374,276.93586c10.37459,6.11574,19.27141,11.35286,28.15936,16.60482,2.41754,1.42841,4.66652,2.06877,6.056-1.25a41.79061,41.79061,0,0,0,2.66931-21.08172c-.40058-3.64121-2.98959-3.65559-5.54441-2.96978C826.25752,270.91169,816.34248,273.7379,804.87374,276.93586Z" transform="translate(-63.56355 -134.00608)"/><path class="cls-22" d="M248.72845,425.78764c-12.41845,3.37388-22.374,6.08917-32.33678,8.77717-2.24422.60544-4.221,1.27675-2.94467,4.30092a41.01582,41.01582,0,0,0,12.93763,17.07809c2.71622,2.07195,4.67977.83641,6.1472-1.73179C237.50526,445.508,242.45986,436.79325,248.72845,425.78764Z" transform="translate(-63.56355 -134.00608)"/><path class="cls-20" d="M257.15248,426.98316c3.23487,12.30794,5.8101,21.89753,8.25838,31.51946,1.06354,4.179,3.17736,5.19233,6.86953,2.8478,1.8109-1.1498,3.7832-2.05313,5.555-3.25554,13.601-9.23062,13.52532-11.72449-.51586-19.68671C271.4404,435.07445,265.55848,431.7451,257.15248,426.98316Z" transform="translate(-63.56355 -134.00608)"/><path class="cls-20" d="M252.65768,428.15973c-6.16523,10.63577-11.313,19.59077-16.54538,28.49607-1.51329,2.5755-1.76294,4.64573,1.45683,5.96991a42.03038,42.03038,0,0,0,21.1279,2.61843c3.7143-.42523,3.39813-2.92122,2.66931-5.55793C258.639,449.82192,255.91561,439.95644,252.65768,428.15973Z" transform="translate(-63.56355 -134.00608)"/><path class="cls-21" d="M800.27055,269.16466c5.41906-9.43794,10.4814-18.40943,15.71163-27.282,1.9295-3.27357,1.37984-5.32664-2.2629-6.46763-2.0534-.64327-4.08016-1.424-6.17716-1.86834-15.9781-3.3858-18.09657-1.20394-14.002,14.26678,1.6499,6.234,3.25939,12.47875,4.93817,18.70487C798.63085,267.08356,799.15653,267.54808,800.27055,269.16466Z" transform="translate(-63.56355 -134.00608)"/><path class="cls-22" d="M792.24194,280.31848c-10.64584,2.74975-20.20482,5.23467-29.77321,7.68276-4.28914,1.09739-4.78354,3.595-2.72285,7.091,1.272,2.15809,2.40681,4.41959,3.87874,6.4335,9.01092,12.3296,11.17192,12.27236,18.38637-.83959C785.40223,294.52253,790.04583,288.95512,792.24194,280.31848Z" transform="translate(-63.56355 -134.00608)"/><path class="cls-23" d="M507.49748,250.41713q-2.21466-3.31027-4.43039-6.62048-22.61495,5.80858-45.22844,11.61735c.17041,5.75306,3.01106,7.71708,8.46842,5.96792Q486.90234,255.89953,507.49748,250.41713Z" transform="translate(-63.56355 -134.00608)"/><path class="cls-24" d="M338.74618,241.95434c10.95406-1.83667,18.39565,4.77373,26.06435,10.83786,4.331-4.36652,9.47895-7.52765,16.496-10.19378a258.51361,258.51361,0,0,1-26.3356-9.6689C347.69866,229.65694,342.67621,236.14146,338.74618,241.95434Z" transform="translate(-63.56355 -134.00608)"/><path class="cls-25" d="M422.7508,168.20453c-1.90817-3.08341-2.74206-4.57052-3.70648-5.96759-7.23553-10.48365-9.20015-10.41859-15.41017.45981-2.48724,4.35685-4.96268,8.72059-7.47007,13.06577-1.77724,3.07983-2.714,5.80672,1.3866,8.04968,3.762,2.0579,5.98807.80083,7.872-2.55211,1.57769-2.80752,3.62221-5.37248,5.0149-8.25957C412.70033,168.30928,415.83052,165.58974,422.7508,168.20453Z" transform="translate(-63.56355 -134.00608)"/><path class="cls-26" d="M868.04251,181.305q1.08348,3.07007,2.16736,6.13992a7.81824,7.81824,0,0,0,1.57317.31432c13.25381,6.84766,27.63184,8.2071,42.19883,8.64478,2.57258-.99231,5.14529-1.98456,9.29873-3.58669C904.385,185.19655,886.402,182.3657,868.04251,181.305Z" transform="translate(-63.56355 -134.00608)"/><path class="cls-27" d="M609.70441,192.40709a47.409,47.409,0,0,0,5.47259,3.19174c15.86587,6.68667,19.01567,15.84,10.51492,30.871-.78393,1.38588-2.96719,2.39316-1.14436,4.44384,9.1629-5.33763,14.6461-12.87044,11.86375-23.78462C633.78122,196.81271,623.96132,191.81994,609.70441,192.40709Z" transform="translate(-63.56355 -134.00608)"/><path class="cls-28" d="M728.93616,306.67178c1.581,7.10454,10.17913,11.07783,8.71925,19.538,4.62757-1.25906,13.5338-1.91506,12.90026-4.34386-1.65718-6.35241-6.25639-12.41189-11.02774-17.26619C737.3244,302.3578,732.22642,304.32692,728.93616,306.67178Z" transform="translate(-63.56355 -134.00608)"/><path class="cls-29" d="M879.16473,287.66618c-5.79751-.93308-5.02179-5.51526-4.61365-9.2442.96627-8.82779-2.00252-12.06246-10.6591-8.49326-.74524,7.10162.62188,14.36272-2.20048,22.55677C868.23836,291.59283,873.84373,290.293,879.16473,287.66618Z" transform="translate(-63.56355 -134.00608)"/><path class="cls-30" d="M329.53186,434.928q-.007-10.79465-.014-21.58917c-7.88867-.13742-11.765,3.15006-11.04086,11.6039.34771,4.05644-.85761,8.24606-1.38514,12.58634A21.55727,21.55727,0,0,0,329.53186,434.928Z" transform="translate(-63.56355 -134.00608)"/><path class="cls-31" d="M913.98187,196.404c-13.6626-4.84488-28.102-5.89974-42.19671-8.64545,6.01536,9.56064,16.47953,8.43357,25.55194,10.36744,4.10838.8757,8.47265.56152,12.371,2.572Q911.848,198.55006,913.98187,196.404Z" transform="translate(-63.56355 -134.00608)"/><path class="cls-32" d="M935.22161,250.54553q4.47684,9.83888,8.95513,19.67909c7.44913.3222,10.06372-2.39879,6.46232-9.66069-2.0648-4.16371-3.14238-8.8248-6.43158-12.352-3.6071-1.81-6.29509-.00113-8.87032,2.25249Z" transform="translate(-63.56355 -134.00608)"/><path class="cls-13" d="M466.30707,261.38186c-4.15092-.10555-6.46776-2.81362-8.46908-5.96819q-10.96818,3.06152-21.93781,6.12263,2.15723,3.152,4.31431,6.30331,1.10991.01848,2.22116.03737c7.24454-1.28238,14.05616-4.73192,21.63807-4.321Q465.19,262.46952,466.30707,261.38186Z" transform="translate(-63.56355 -134.00608)"/><path class="cls-8" d="M197.29967,456.34361c-.50434,5.10169-15.36365,2.69157-4.5144,13.58826-8.79691,0-15.50835,0-22.22324.00093,10.65684,4.43529,21.20926,1.14847,31.77175-.48963,3.19009-.4948,3.1673-2.44948,1.579-4.60942C201.78837,461.94487,199.51129,459.16835,197.29967,456.34361Z" transform="translate(-63.56355 -134.00608)"/><path class="cls-33" d="M935.33716,250.46443c3.2456.38813,6.07976-.8439,8.86979-2.25229-3.05678-6.78539-4.84966-15.13772-15.50332-12.50936C928.95792,241.503,934.64836,244.85973,935.33716,250.46443Z" transform="translate(-63.56355 -134.00608)"/><path class="cls-34" d="M631.2908,237.684c4.7895,5.53,8.979,11.71031,16.03178,14.7918a42.17058,42.17058,0,0,0-9.99906-14.96261C635.13364,235.34911,633.22414,234.78706,631.2908,237.684Z" transform="translate(-63.56355 -134.00608)"/><path class="cls-35" d="M427.99454,193.71319a8.83979,8.83979,0,0,0,.56225-8.55229C425.82771,188.08788,428.00408,191.01566,427.99454,193.71319Z" transform="translate(-63.56355 -134.00608)"/><path class="cls-12" d="M95.54275,376.2767c1.75339-2.699,3.64963-5.37228,1.57927-8.7614C91.5735,369.52921,94.748,373.11763,95.54275,376.2767Z" transform="translate(-63.56355 -134.00608)"/><path class="cls-36" d="M733.27644,206.95229c-5.27356.95428-10.61762,1.63771-15.79021,2.98078-2.46206.63923-6.13356,1.32472-4.70469,5.62213,1.08315,3.2578,2.89167,4.39832,6.54846,3.111,5.31967-1.87265,11.253-1.83,16.19489-5.01443C735.82993,211.06472,735.59208,208.65983,733.27644,206.95229Z" transform="translate(-63.56355 -134.00608)"/><path class="cls-37" d="M733.27644,206.95229c.12853,2.44093-.27934,5.062,2.24832,6.69859,5.06976-.02584,10.41567-1.66216,8.02675-7.42721C741.75638,201.89161,736.68755,204.85622,733.27644,206.95229Z" transform="translate(-63.56355 -134.00608)"/><path class="cls-1" d="M87.94617,379.50726C79.79424,371.89283,70.34653,368.06193,63.71766,356,73.28619,359.47791,83.40417,361.3542,87.94617,379.50726Z" transform="translate(-63.56355 -134.00608)"/><rect id="fondo" class="cls-38" x="365.52618" y="191.2158" width="22.22471" height="22.18035" transform="translate(-33.86439 318.13457) rotate(-63.99988)"/><g id="isotipo"><polygon id="log" class="cls-39" points="314.151 73.785 317.651 66.608 321.838 68.65 318.337 75.827 318.337 75.827 316.782 79.016 308.728 75.088 310.283 71.899 314.151 73.785"/><polygon id="dis" class="cls-40" points="319.575 62.562 323.802 64.623 322.207 67.892 317.981 65.831 318.234 65.313 312.014 62.279 307.891 70.732 309.566 71.549 308.01 74.738 302.348 71.977 303.904 68.787 308.027 60.334 308.027 60.334 309.368 57.583 319.575 62.562"/></g><path class="cls-1" d="M85.04942,377.17125c-7.22846-6.25617-15.5945-9.41594-21.48587-19.31189C72.03566,360.73025,80.99014,362.29039,85.04942,377.17125Z" transform="translate(-63.56355 -134.00608)"/><path class="cls-12" d="M116.82633,341.21344q-4.00777-2.04787-8.01645-4.09581c-3.20322,1.92827-3.71557,3.54733-.63251,4.97765,1.76767.82012,3.22744,2.07535,5.37274,2.3493,1.90823-.38384,2.64841-1.71969,3.24512-3.1726Z" transform="translate(-63.56355 -134.00608)"/></svg>