<?xml version="1.0" encoding="UTF-8"?>
<svg width="1137px" height="776px" viewBox="0 0 1137 776" version="1.1" xmlns="http://www.w3.org/2000/svg" xmlns:xlink="http://www.w3.org/1999/xlink">
    <!-- Generator: Sketch 48.2 (47327) - http://www.bohemiancoding.com/sketch -->
    <title>Group 25</title>
    <desc>Created with Sketch.</desc>
    <defs>
        <linearGradient x1="2.88529403%" y1="95.9689527%" x2="98.5564819%" y2="0%" id="linearGradient-1">
            <stop stop-color="#54BC4C" offset="0%"></stop>
            <stop stop-color="#4BBB65" offset="26.6711251%"></stop>
            <stop stop-color="#33BAAA" offset="100%"></stop>
        </linearGradient>
        <linearGradient x1="27.6417862%" y1="9.94985346%" x2="86.7501951%" y2="100%" id="linearGradient-2">
            <stop stop-color="#36BD92" offset="0%"></stop>
            <stop stop-color="#067E92" offset="100%"></stop>
        </linearGradient>
        <linearGradient x1="42.4240829%" y1="14.5707218%" x2="79.2753795%" y2="88.836662%" id="linearGradient-3">
            <stop stop-color="#F6FFFC" offset="0%"></stop>
            <stop stop-color="#E6FFF7" offset="100%"></stop>
        </linearGradient>
        <linearGradient x1="38.9220802%" y1="5.52483132%" x2="80.1625363%" y2="90.6188708%" id="linearGradient-4">
            <stop stop-color="#2C9796" offset="0%"></stop>
            <stop stop-color="#48B8B2" offset="38.4008291%"></stop>
            <stop stop-color="#8EDDE2" offset="70.369572%"></stop>
            <stop stop-color="#43B2C0" offset="100%"></stop>
        </linearGradient>
        <linearGradient x1="50%" y1="25.1311062%" x2="80.2804062%" y2="90.8620792%" id="linearGradient-5">
            <stop stop-color="#9EF2F8" offset="0%"></stop>
            <stop stop-color="#9AEEE9" offset="100%"></stop>
        </linearGradient>
        <linearGradient x1="1.75427438%" y1="1.23849492%" x2="85.3110592%" y2="94.5765742%" id="linearGradient-6">
            <stop stop-color="#1A8793" offset="0%"></stop>
            <stop stop-color="#1EABBB" offset="16.078918%"></stop>
            <stop stop-color="#42CFE0" offset="34.8827398%"></stop>
            <stop stop-color="#2DA8BA" offset="65.0568722%"></stop>
            <stop stop-color="#188193" offset="100%"></stop>
        </linearGradient>
        <path d="M12.7166326,1.36552809 L201.366473,126.479378 C217.662447,137.286978 227.410389,155.582868 227.290758,175.136606 L226.835339,249.574648 C226.803409,254.793641 222.546694,258.998587 217.327701,258.966656 C215.488507,258.955404 213.692568,258.407694 212.160101,257.390685 L23.9393132,132.479539 C8.98782147,122.557107 1.64084108e-14,105.805456 1.42108547e-14,87.8610484 L3.55271368e-15,8.19089968 C2.99877996e-15,3.66768758 3.6667879,0.000899684644 8.19,0.000899684644 C9.80021796,0.000899684644 11.3747112,0.475556773 12.7166326,1.36552809 Z" id="path-7"></path>
        <path d="M26.9020363,6.9546953 C27.4132607,2.63275395 31.3290062,-0.456169123 35.6480986,0.0553925239 C39.967191,0.566954171 43.0540779,4.48528255 42.5428534,8.8072239 C39.9888167,30.3993002 28.9531906,44.6747534 10.0784005,50.1736508 C5.90254108,51.3902271 1.53175828,48.9890211 0.315983909,44.8104072 C-0.899790458,40.6317933 1.49983263,36.2581274 5.67569208,35.0415511 C18.1999109,31.3928009 25.0612172,22.5171598 26.9020363,6.9546953 Z" id="path-9"></path>
        <radialGradient cx="31.0980353%" cy="17.6389152%" fx="31.0980353%" fy="17.6389152%" r="90.0211409%" gradientTransform="translate(0.310980,0.176389),scale(0.672160,1.000000),rotate(39.184036),translate(-0.310980,-0.176389)" id="radialGradient-11">
            <stop stop-color="#7ECC79" offset="0%"></stop>
            <stop stop-color="#209E8F" offset="100%"></stop>
        </radialGradient>
        <linearGradient x1="3.008194%" y1="34.0457673%" x2="90.1666618%" y2="50%" id="linearGradient-12">
            <stop stop-color="#B6F4DF" offset="0%"></stop>
            <stop stop-color="#4ABB94" offset="100%"></stop>
        </linearGradient>
        <linearGradient x1="5.26650677%" y1="0%" x2="54.2722126%" y2="121.624712%" id="linearGradient-13">
            <stop stop-color="#7ED2C0" offset="0%"></stop>
            <stop stop-color="#2598AC" offset="100%"></stop>
        </linearGradient>
        <linearGradient x1="23.2916903%" y1="14.537225%" x2="78.8050321%" y2="119.862794%" id="linearGradient-14">
            <stop stop-color="#7ED2C0" offset="0%"></stop>
            <stop stop-color="#2598AC" offset="100%"></stop>
        </linearGradient>
        <radialGradient cx="31.0980353%" cy="17.6389152%" fx="31.0980353%" fy="17.6389152%" r="90.0211409%" gradientTransform="translate(0.310980,0.176389),scale(1.000000,0.999341),rotate(50.508906),translate(-0.310980,-0.176389)" id="radialGradient-15">
            <stop stop-color="#7ECC79" offset="0%"></stop>
            <stop stop-color="#209E8F" offset="100%"></stop>
        </radialGradient>
        <linearGradient x1="50%" y1="25.1311062%" x2="80.2804062%" y2="90.8620792%" id="linearGradient-16">
            <stop stop-color="#95F1D5" offset="0%"></stop>
            <stop stop-color="#B1F6DF" offset="100%"></stop>
        </linearGradient>
        <linearGradient x1="57.6964029%" y1="-28.1753217%" x2="43.1413235%" y2="92.9334256%" id="linearGradient-17">
            <stop stop-color="#0D6574" offset="0%"></stop>
            <stop stop-color="#398279" offset="100%"></stop>
        </linearGradient>
        <linearGradient x1="57.6964029%" y1="-28.1753217%" x2="43.5201687%" y2="89.7811611%" id="linearGradient-18">
            <stop stop-color="#96EDB8" offset="0%"></stop>
            <stop stop-color="#2EB5B1" offset="100%"></stop>
        </linearGradient>
        <polygon id="path-19" points="0.410991489 0.190315753 61.4667325 45.3488676 20.4501874 73.1377273"></polygon>
        <filter x="-59.0%" y="-49.4%" width="217.9%" height="198.7%" filterUnits="objectBoundingBox" id="filter-21">
            <feOffset dx="0" dy="0" in="SourceAlpha" result="shadowOffsetOuter1"></feOffset>
            <feGaussianBlur stdDeviation="12" in="shadowOffsetOuter1" result="shadowBlurOuter1"></feGaussianBlur>
            <feColorMatrix values="0 0 0 0 0.414386489   0 0 0 0 0.762223639   0 0 0 0 0.392089236  0 0 0 0.748245018 0" type="matrix" in="shadowBlurOuter1"></feColorMatrix>
        </filter>
        <linearGradient x1="57.6964029%" y1="-28.1753217%" x2="43.1413235%" y2="92.9334256%" id="linearGradient-22">
            <stop stop-color="#7BCC75" offset="0%"></stop>
            <stop stop-color="#2EB5A5" offset="100%"></stop>
        </linearGradient>
        <linearGradient x1="11.5884416%" y1="20.3503406%" x2="81.0877102%" y2="92.6145286%" id="linearGradient-23">
            <stop stop-color="#E3FDF5" offset="0%"></stop>
            <stop stop-color="#7FD9BB" offset="100%"></stop>
        </linearGradient>
        <ellipse id="path-24" cx="80.64" cy="80.6931919" rx="80.64" ry="80.6931919"></ellipse>
        <linearGradient x1="9.38355439%" y1="15.4514204%" x2="90.1666618%" y2="50%" id="linearGradient-26">
            <stop stop-color="#B6F4DF" offset="0%"></stop>
            <stop stop-color="#79DDBA" offset="100%"></stop>
        </linearGradient>
        <linearGradient x1="0%" y1="34.7205331%" x2="100%" y2="43.4353966%" id="linearGradient-27">
            <stop stop-color="#56A78B" offset="0%"></stop>
            <stop stop-color="#79DDBA" stop-opacity="0" offset="100%"></stop>
        </linearGradient>
        <path d="M12.6,97.3262063 L12.6,89.0150913 C12.6,87.204332 14.0679105,85.7364215 15.8786698,85.7364215 C16.5573152,85.7364215 17.2192386,85.9470121 17.773128,86.3391422 L17.773128,86.3391422 C21.0176879,88.6361527 22.946256,92.3644484 22.946256,96.3398007 L22.946256,103.532946" id="path-28"></path>
        <filter x="-154.1%" y="-89.6%" width="408.2%" height="279.2%" filterUnits="objectBoundingBox" id="filter-29">
            <feMorphology radius="0.945" operator="dilate" in="SourceAlpha" result="shadowSpreadOuter1"></feMorphology>
            <feOffset dx="0" dy="0" in="shadowSpreadOuter1" result="shadowOffsetOuter1"></feOffset>
            <feMorphology radius="1" operator="erode" in="SourceAlpha" result="shadowInner"></feMorphology>
            <feOffset dx="0" dy="0" in="shadowInner" result="shadowInner"></feOffset>
            <feComposite in="shadowOffsetOuter1" in2="shadowInner" operator="out" result="shadowOffsetOuter1"></feComposite>
            <feGaussianBlur stdDeviation="5" in="shadowOffsetOuter1" result="shadowBlurOuter1"></feGaussianBlur>
            <feColorMatrix values="0 0 0 0 0.414386489   0 0 0 0 0.762223639   0 0 0 0 0.392089236  0 0 0 1 0" type="matrix" in="shadowBlurOuter1"></feColorMatrix>
        </filter>
        <path d="M32.893128,125.222395 L32.893128,125.220699 C32.893128,124.118099 33.7869621,123.224265 34.8895623,123.224265 C35.3028002,123.224265 35.7058559,123.352497 36.043128,123.591271 L36.043128,123.591271 C38.0187922,124.989957 39.193128,127.260176 39.193128,129.680831 L39.193128,129.682527" id="path-30"></path>
        <filter x="-253.1%" y="-246.9%" width="606.2%" height="593.8%" filterUnits="objectBoundingBox" id="filter-31">
            <feMorphology radius="0.945" operator="dilate" in="SourceAlpha" result="shadowSpreadOuter1"></feMorphology>
            <feOffset dx="0" dy="0" in="shadowSpreadOuter1" result="shadowOffsetOuter1"></feOffset>
            <feMorphology radius="1" operator="erode" in="SourceAlpha" result="shadowInner"></feMorphology>
            <feOffset dx="0" dy="0" in="shadowInner" result="shadowInner"></feOffset>
            <feComposite in="shadowOffsetOuter1" in2="shadowInner" operator="out" result="shadowOffsetOuter1"></feComposite>
            <feGaussianBlur stdDeviation="5" in="shadowOffsetOuter1" result="shadowBlurOuter1"></feGaussianBlur>
            <feColorMatrix values="0 0 0 0 0.414386489   0 0 0 0 0.762223639   0 0 0 0 0.392089236  0 0 0 1 0" type="matrix" in="shadowBlurOuter1"></feColorMatrix>
        </filter>
        <path d="M59.22,116.238673 L59.22,107.927558 C59.22,106.116799 60.6879105,104.648888 62.4986698,104.648888 C63.1773152,104.648888 63.8392386,104.859479 64.393128,105.251609 L64.393128,105.251609 C67.6376879,107.54862 69.566256,111.276915 69.566256,115.252268 L69.566256,122.445413" id="path-32"></path>
        <filter x="-154.1%" y="-89.6%" width="408.2%" height="279.2%" filterUnits="objectBoundingBox" id="filter-33">
            <feMorphology radius="0.945" operator="dilate" in="SourceAlpha" result="shadowSpreadOuter1"></feMorphology>
            <feOffset dx="0" dy="0" in="shadowSpreadOuter1" result="shadowOffsetOuter1"></feOffset>
            <feMorphology radius="1" operator="erode" in="SourceAlpha" result="shadowInner"></feMorphology>
            <feOffset dx="0" dy="0" in="shadowInner" result="shadowInner"></feOffset>
            <feComposite in="shadowOffsetOuter1" in2="shadowInner" operator="out" result="shadowOffsetOuter1"></feComposite>
            <feGaussianBlur stdDeviation="5" in="shadowOffsetOuter1" result="shadowBlurOuter1"></feGaussianBlur>
            <feColorMatrix values="0 0 0 0 0.414386489   0 0 0 0 0.762223639   0 0 0 0 0.392089236  0 0 0 1 0" type="matrix" in="shadowBlurOuter1"></feColorMatrix>
        </filter>
        <path d="M26.9020363,6.9546953 C27.4132607,2.63275395 31.3290062,-0.456169123 35.6480986,0.0553925239 C39.967191,0.566954171 43.0540779,4.48528255 42.5428534,8.8072239 C39.9888167,30.3993002 28.9531906,44.6747534 10.0784005,50.1736508 C5.90254108,51.3902271 1.53175828,48.9890211 0.315983909,44.8104072 C-0.899790458,40.6317933 1.49983263,36.2581274 5.67569208,35.0415511 C18.1999109,31.3928009 25.0612172,22.5171598 26.9020363,6.9546953 Z" id="path-34"></path>
        <linearGradient x1="5.26650677%" y1="0%" x2="54.2722126%" y2="121.624712%" id="linearGradient-36">
            <stop stop-color="#8DEBD7" offset="0%"></stop>
            <stop stop-color="#2598AC" offset="100%"></stop>
        </linearGradient>
        <linearGradient x1="23.2916903%" y1="14.537225%" x2="78.8050321%" y2="119.862794%" id="linearGradient-37">
            <stop stop-color="#AFF7E7" offset="0%"></stop>
            <stop stop-color="#5DD1E4" offset="100%"></stop>
        </linearGradient>
        <path d="M61.425,106.638274 C66.1221818,110.033874 69.93,108.976221 69.93,104.275941 C69.93,99.5756611 66.1221818,93.0126538 61.425,89.6170542 C56.7278182,86.2214546 52.92,87.2791071 52.92,91.9793873 C52.92,96.6796674 56.7278182,103.242675 61.425,106.638274 Z" id="path-38"></path>
        <filter x="-123.5%" y="-100.0%" width="346.9%" height="300.0%" filterUnits="objectBoundingBox" id="filter-39">
            <feOffset dx="0" dy="0" in="SourceAlpha" result="shadowOffsetOuter1"></feOffset>
            <feGaussianBlur stdDeviation="7" in="shadowOffsetOuter1" result="shadowBlurOuter1"></feGaussianBlur>
            <feColorMatrix values="0 0 0 0 0.414386489   0 0 0 0 0.762223639   0 0 0 0 0.392089236  0 0 0 1 0" type="matrix" in="shadowBlurOuter1"></feColorMatrix>
        </filter>
        <linearGradient x1="30.6009494%" y1="93.3766234%" x2="93.7170484%" y2="13.0280246%" id="linearGradient-40">
            <stop stop-color="#042025" offset="0%"></stop>
            <stop stop-color="#0D6574" stop-opacity="0.195340806" offset="100%"></stop>
        </linearGradient>
        <linearGradient x1="23.2916903%" y1="14.537225%" x2="78.8050321%" y2="119.862794%" id="linearGradient-41">
            <stop stop-color="#F0FFFC" offset="0%"></stop>
            <stop stop-color="#7AE7F9" offset="100%"></stop>
        </linearGradient>
        <path d="M13.7781723,35.0357106 L12.7732976,21.1651263 C6.31950539,20.0790606 3.27026169,18.5219816 3.62556646,16.4938891 C3.98087122,14.4657967 7.36507317,13.9200289 13.7781723,14.8565858 C10.8191214,5.56273221 10.0793586,0.67786766 11.5588841,0.201992209 C13.7781723,-0.511820968 18.2121936,0.975973546 18.6504028,4.95163033 C18.9425422,7.60206819 19.8757487,9.43111949 21.4500221,10.4387842 C23.8725889,6.29052757 26.0535202,4.0143193 27.9928161,3.61015943 C30.90176,3.00391964 34.8085702,5.20050772 33.3199343,7.81964598 C32.3275104,9.56573816 28.370873,13.2338688 21.4500221,18.8240379 L21.4500221,22.2308321 C25.0725303,21.7427772 27.5262589,21.387542 28.811208,21.1651263 C30.7386316,20.8315028 33.4620562,25.1945698 29.5309279,26.6914807 C26.9101756,27.6894213 24.2165404,29.1273795 21.4500221,31.0053555 L21.4500221,35.0357106 C19.5306782,37.142204 16.973395,37.142204 13.7781723,35.0357106 Z" id="path-42"></path>
        <filter x="-89.9%" y="-73.8%" width="279.7%" height="247.6%" filterUnits="objectBoundingBox" id="filter-43">
            <feOffset dx="0" dy="0" in="SourceAlpha" result="shadowOffsetOuter1"></feOffset>
            <feGaussianBlur stdDeviation="9" in="shadowOffsetOuter1" result="shadowBlurOuter1"></feGaussianBlur>
            <feColorMatrix values="0 0 0 0 0.414386489   0 0 0 0 0.762223639   0 0 0 0 0.392089236  0 0 0 0.727156929 0" type="matrix" in="shadowBlurOuter1"></feColorMatrix>
        </filter>
        <linearGradient x1="71.7662952%" y1="4.65195012%" x2="50%" y2="100%" id="linearGradient-44">
            <stop stop-color="#52EEE2" offset="0%"></stop>
            <stop stop-color="#17AE9C" offset="100%"></stop>
        </linearGradient>
        <path d="M98.9169484,99.1035024 C96.2922699,54.8297991 82.548573,26.0402651 57.6858577,12.7349004 C32.8231425,-0.570464249 13.7868874,-3.33716131 0.577092472,4.43480924 C12.8175677,31.4511814 26.6101716,46.5128457 41.9549043,49.6198023 C64.9720033,54.2802372 68.9784962,55.2326446 73.3018796,67.3597681 C76.1841352,75.444517 84.7224915,86.0257618 98.9169484,99.1035024 Z" id="path-45"></path>
    </defs>
    <g id="Bots/AI" stroke="none" stroke-width="1" fill="none" fill-rule="evenodd" transform="translate(-463.000000, -249.000000)">
        <g id="Hero" transform="translate(0.000000, 1.000000)">
            <g id="Group-25" transform="translate(0.000000, -1.000000)">
                <g id="Floor" opacity="0.182687953" stroke="url(#linearGradient-1)" stroke-linecap="square" stroke-width="1.8">
                    <g id="Group-21" transform="translate(470.000000, 294.000000)">
                        <path d="M0.636295346,488.859066 L1029.59433,1182.90002" id="Line-3-Copy-40"></path>
                        <path d="M71.1387413,381.276608 L1259.59433,1182.90002" id="Line-3-Copy-45"></path>
                        <path d="M209.299438,320.647869 L1489.59433,1182.90002" id="Line-3-Copy-50"></path>
                        <path d="M354.433541,262.087445 L1719.59433,1182.90002" id="Line-3-Copy-55"></path>
                        <path d="M485.716539,195.501986 L1949.59433,1182.90002" id="Line-3-Copy-60"></path>
                        <path d="M608.02116,122.860536 L2179.59433,1182.90002" id="Line-3-Copy-65"></path>
                        <path d="M725.894508,47.2301541 L2409.59433,1182.90002" id="Line-3-Copy-70"></path>
                        <path d="M886.898358,0.691663326 L2639.59433,1182.90002" id="Line-3-Copy-75"></path>
                    </g>
                    <g id="Group-21-Copy-2" transform="translate(1555.000000, 738.500000) scale(-1, 1) translate(-1555.000000, -738.500000) ">
                        <path d="M0,0 L2189.59433,1476.90002" id="Line-3-Copy-27"></path>
                        <path d="M230,0 L2419.59433,1476.90002" id="Line-3-Copy-32"></path>
                        <path d="M460,0 L2649.59433,1476.90002" id="Line-3-Copy-37"></path>
                        <path d="M690,0 L2879.59433,1476.90002" id="Line-3-Copy-42"></path>
                        <path d="M1459.90582,364.171077 L3109.59433,1476.90002" id="Line-3-Copy-47"></path>
                        <path d="M1614.79782,313.510088 L2450.30917,877.069611" id="Line-3-Copy-52"></path>
                        <path d="M1751.56809,250.625843 L2644.91412,853.195345" id="Line-3-Copy-57"></path>
                    </g>
                </g>
                <g id="Illustration" transform="translate(836.000000, 327.000000)">
                    <g id="Group-51-Copy" transform="translate(515.000000, 0.000000)">
                        <path d="M11,7.87801321 L11,194.192048 C11,206.476618 17.1146312,217.955332 27.309521,224.809156 L230.464177,361.386031 C234.067812,363.808683 238.953083,362.851308 241.375735,359.247674 C242.247553,357.950867 242.713178,356.423691 242.713178,354.861073 L242.713178,171.281296 C242.713178,159.11694 236.716881,147.734399 226.684668,140.85499 L23.3088881,1.39371852 C19.727711,-1.06200903 14.8338329,-0.149651941 12.3781053,3.43152513 C11.4804313,4.74059938 11,6.29072177 11,7.87801321 Z" id="Path-35-Copy-5" stroke="#0D6574" stroke-width="2" opacity="0.200000003"></path>
                        <path d="M0,15.8780132 L7.10542736e-15,202.192048 C1.9520744e-14,214.476618 6.11463115,225.955332 16.309521,232.809156 L219.464177,369.386031 C223.067812,371.808683 227.953083,370.851308 230.375735,367.247674 C231.247553,365.950867 231.713178,364.423691 231.713178,362.861073 L231.713178,179.281296 C231.713178,167.11694 225.716881,155.734399 215.684668,148.85499 L12.3088881,9.39371852 C8.72771101,6.93799097 3.83383288,7.85034806 1.37810532,11.4315251 C0.480431271,12.7405994 1.4904646e-14,14.2907218 1.50990331e-14,15.8780132 Z" id="Path-35-Copy" fill="url(#linearGradient-2)" opacity="0.400000006"></path>
                        <path d="M210.471836,268.182611 C215.305547,270.60689 219.224043,268.641624 219.224043,263.793066 C219.224043,258.944508 215.305547,253.048708 210.471836,250.624428 C205.638126,248.200149 201.71963,250.165416 201.71963,255.013974 C201.71963,259.862532 205.638126,265.758332 210.471836,268.182611 Z" id="Oval-11-Copy" fill="#0D6574"></path>
                        <g id="Group-50" transform="translate(16.104121, 52.428373)">
                            <path d="M8.75220688,18.5965641 C13.5859173,21.0208434 17.5044138,19.0555771 17.5044138,14.2070188 C17.5044138,9.35846054 13.5859173,3.46266077 8.75220688,1.03838144 C3.91849649,-1.38589789 0,0.579368485 0,5.42792674 C0,10.276485 3.91849649,16.1722848 8.75220688,18.5965641 Z" id="Oval-11" fill="url(#linearGradient-3)"></path>
                            <path d="M22.3332176,9.08181862 L23.8031316,11.9447969 C26.6554158,17.5002428 28.1431625,23.6552722 28.1431625,29.9001504 L28.1431625,37.9827464 C28.1431625,48.9737696 33.6177104,59.2427414 42.7431261,65.3688641 L137.991904,129.311782 C143.212595,132.816564 150.285988,131.425545 153.79077,126.204854 C155.050581,124.328252 155.723329,122.119141 155.723329,119.858885 L155.723329,119.858885 C155.723329,106.511708 149.070599,94.0426491 137.984059,86.6105743 L22.3332176,9.08181862 Z" id="Path-35-Copy-2" fill="#0D6574"></path>
                            <path d="M46.4772365,41.1709111 L134.245292,98.3646241" id="Path-37" stroke="#FFFFFF" stroke-width="3.024" stroke-linecap="round" stroke-linejoin="round"></path>
                            <path d="M46.4772365,53.2800026 L87.3111512,79.8892648" id="Path-37-Copy" stroke="#FFFFFF" stroke-width="3.024" stroke-linecap="round" stroke-linejoin="round"></path>
                        </g>
                        <g id="Group-50-Copy" transform="translate(17.110629, 181.169680)">
                            <path d="M8.75220688,18.5965641 C13.5859173,21.0208434 17.5044138,19.0555771 17.5044138,14.2070188 C17.5044138,9.35846054 13.5859173,3.46266077 8.75220688,1.03838144 C3.91849649,-1.38589789 0,0.579368485 0,5.42792674 C0,10.276485 3.91849649,16.1722848 8.75220688,18.5965641 Z" id="Oval-11" fill="url(#linearGradient-3)"></path>
                            <path d="M22.3332176,9.08181862 L23.8031316,11.9447969 C26.6554158,17.5002428 28.1431625,23.6552722 28.1431625,29.9001504 L28.1431625,37.9827464 C28.1431625,48.9723043 33.6223838,59.2384038 42.7523428,65.3551211 L125.203818,120.594401 C130.433726,124.098237 137.513825,122.698978 141.01766,117.469069 C142.275097,115.592189 142.946435,113.383978 142.946435,111.124814 L142.946435,111.124814 C142.946435,97.7794665 136.287879,85.3139925 125.195681,77.8936525 L22.3332176,9.08181862 Z" id="Path-35-Copy-2" fill="#0D6574"></path>
                            <path d="M46.4772365,41.1709111 L117.096386,87.1896063" id="Path-37" stroke="#FFFFFF" stroke-width="3.024" stroke-linecap="round" stroke-linejoin="round"></path>
                            <path d="M46.4772365,53.2800026 L71.9215876,69.8607154" id="Path-37-Copy" stroke="#FFFFFF" stroke-width="3.024" stroke-linecap="round" stroke-linejoin="round"></path>
                        </g>
                        <g id="Group-49" transform="translate(108.286229, 184.518057)">
                            <path d="M0.391515891,8.40590496 L0.391515891,8.40590496 C0.129835093,17.6287937 4.59265059,26.3475684 12.227198,31.5286726 L71.3021697,71.6192719 C73.7144495,73.2563399 76.9970945,72.6279065 78.6341624,70.2156267 C79.2276901,69.3410419 79.5449956,68.3084173 79.5449956,67.251453 L79.5449956,67.251453 C79.5449956,61.7497443 84.0050117,57.2897281 89.5067204,57.2897281 L96.5662552,57.2897281 L13.1442305,1.80319143 C9.36906189,-0.707788487 4.27313169,0.317038895 1.76215177,4.09220746 C0.910082799,5.3732627 0.435151461,6.86797778 0.391515891,8.40590496 Z" id="Path-35-Copy-3" fill="url(#linearGradient-3)"></path>
                            <path d="M19.8075468,21.2968048 L61.084961,48.1950719" id="Path-37-Copy-2" stroke="#0D6574" stroke-width="3.024" stroke-linecap="round" stroke-linejoin="round"></path>
                        </g>
                    </g>
                    <g id="Bot-+-Chair" transform="translate(131.480000, 174.907162)">
                        <ellipse id="Oval-9" fill="#0D6574" cx="346.185" cy="379.825376" rx="9.765" ry="9.7714412"></ellipse>
                        <path d="M318.78,203.975323 C347.31103,208.954112 370.44,194.503061 370.44,171.697998 C370.44,148.892935 347.31103,126.369673 318.78,121.390885 C290.24897,116.412096 267.12,130.863147 267.12,153.66821 C267.12,176.473273 290.24897,198.996535 318.78,203.975323 Z" id="Oval-6" fill="#1E8A9D"></path>
                        <path d="M305.55,211.54031 C334.08103,216.519098 357.21,202.068048 357.21,179.262985 C357.21,156.457922 334.08103,133.93466 305.55,128.955871 C277.01897,123.977083 253.89,138.428134 253.89,161.233197 C253.89,184.03826 277.01897,206.561521 305.55,211.54031 Z" id="Oval-6-Copy" fill="#0D6574"></path>
                        <g id="Group-48" transform="translate(198.450000, 220.645447)">
                            <path d="M74.655,71.867374 C115.885818,71.867374 149.31,59.0251509 149.31,43.183466 C149.31,40.7341447 149.14068,34.8180154 148.80204,25.435078 C120.483095,18.1447313 95.7674154,14.4995579 74.655,14.4995579 C33.424182,14.4995579 0,27.341781 0,43.183466 C0,59.0251509 33.424182,71.867374 74.655,71.867374 Z" id="Oval-7-Copy" fill="#0D6574"></path>
                            <ellipse id="Oval-7" fill="#3CA8BB" cx="74.655" cy="28.683908" rx="74.655" ry="28.683908"></ellipse>
                            <path d="M38.9171219,53.8738268 C15.7289906,49.0069873 0,39.5512018 0,28.683908 C0,12.8422231 33.424182,0 74.655,0 C97.8282214,0 118.535444,4.05666486 132.228559,10.4225222 C130.405042,34.7780828 93.9026781,54.2157383 49.14,54.2157383 C45.678919,54.2157383 42.2672223,54.0995305 38.9171219,53.8738268 Z" id="Combined-Shape" fill="#0D6574" opacity="0.200000003"></path>
                        </g>
                        <path d="M322.246731,336.114534 L344.231645,356.189826 C347.722562,359.37752 349.711361,363.886778 349.711361,368.614133 L349.711361,372.120945 C349.711361,374.28245 347.959115,376.034696 345.79761,376.034696 L345.76283,376.034693 C343.620127,376.034693 341.78749,374.494527 341.418658,372.383807 C341.044961,370.245244 340.563361,368.907432 339.973857,368.370371 C339.100184,367.574419 333.191142,362.473071 322.246731,353.066325 L322.246731,336.114534 Z" id="Path-29" fill="#3CA8BB"></path>
                        <g id="Group-47">
                            <path d="M131.731929,162.871931 L311.526383,281.4575 C326.825827,291.54843 335.98667,308.68999 335.874543,327.017218 L335.242254,430.364679 C335.212892,435.16387 332.809155,439.637165 328.823246,442.310295 L240.281246,501.690551 L5.71681021,232.527735 L116.004606,162.724153 C120.819976,159.676399 126.974679,159.734231 131.731929,162.871931 Z" id="Path-25-Copy" fill="url(#linearGradient-4)"></path>
                            <path d="M335.794808,340.049861 L335.242254,430.364679 C335.212892,435.16387 332.809155,439.637165 328.823246,442.310295 L317.096247,450.17495 C311.042266,439.271384 313.7997,426.579856 315.812919,418.894683 C319.263538,405.72244 315.812919,410.23006 306.679731,392.524988 C297.546544,374.819917 317.435531,373.745146 315.812919,354.206777 C314.386686,337.033084 330.274562,329.184568 335.794808,340.049861 Z" id="Combined-Shape" fill="#0D6574" opacity="0.200000003"></path>
                            <path d="M22.5349407,231.275647 L220.427827,363.378246 C235.582504,373.49469 244.637206,390.551197 244.52573,408.771907 L244.009931,493.079078 C243.960971,501.081534 237.434009,507.529117 229.431553,507.480157 C226.596483,507.462812 223.828785,506.61415 221.471296,505.039296 L24.0840896,373.180337 C9.03567848,363.12767 2.35325571e-14,346.225309 2.13162821e-14,328.12805 L1.0658141e-14,243.327162 C9.67810445e-15,235.324556 6.48739397,228.837162 14.49,228.837162 C17.3536916,228.837162 20.1531723,229.685707 22.5349407,231.275647 Z" id="Path-25" fill="url(#linearGradient-5)"></path>
                            <g id="Group-43" transform="translate(7.560000, 238.297082)">
                                <mask id="mask-8" fill="white">
                                    <use xlink:href="#path-7"></use>
                                </mask>
                                <use id="Path-25-Copy-2" fill="url(#linearGradient-6)" xlink:href="#path-7"></use>
                                <path d="M27.2066326,-4.30821196 L215.856473,120.805638 C232.152447,131.613238 241.900389,149.909128 241.780758,169.462865 L241.325339,243.900908 C241.293409,249.119901 237.036694,253.324847 231.817701,253.292916 C229.978507,253.281664 228.182568,252.733954 226.650101,251.716945 L38.4293132,126.805799 C23.4778215,116.883367 14.49,100.131716 14.49,82.1873084 L14.49,2.51715963 C14.49,-2.00605247 18.1567879,-5.67284037 22.68,-5.67284037 C24.290218,-5.67284037 25.8647112,-5.19818328 27.2066326,-4.30821196 Z" id="Path-25-Copy-3" fill="#0D6574" mask="url(#mask-8)"></path>
                            </g>
                            <g id="Group-24" transform="translate(35.910000, 0.000000)">
                                <g id="Group-20" transform="translate(15.120000, 0.000000)">
                                    <g id="Group-18" transform="translate(20.160000, 109.692308)">
                                        <g id="Group-17" transform="translate(0.000000, 23.955791)">
                                            <g id="Group-16" transform="translate(101.430000, 0.000000)">
                                                <mask id="mask-10" fill="white">
                                                    <use xlink:href="#path-9"></use>
                                                </mask>
                                                <use id="Path-13" fill="#67CCBE" fill-rule="nonzero" xlink:href="#path-9"></use>
                                                <path d="M18.27,23.3253758 C27.1692406,23.7647494 31.9361611,28.830773 32.5707615,38.5234467" id="Path-18" stroke="#F8FAFC" stroke-width="1.26" opacity="0.699999988" mask="url(#mask-10)" transform="translate(25.420381, 30.924411) rotate(-7.000000) translate(-25.420381, -30.924411) "></path>
                                                <path d="M21.1547644,19.1568866 C30.054005,19.5962602 34.8209255,24.6622839 35.4555258,34.3549576" id="Path-18-Copy-2" stroke="#F8FAFC" stroke-width="1.26" opacity="0.699999988" mask="url(#mask-10)" transform="translate(28.305145, 26.755922) rotate(-14.000000) translate(-28.305145, -26.755922) "></path>
                                                <path d="M23.3953409,13.7150007 C32.2945816,14.1543743 37.0615021,19.2203979 37.6961024,28.9130716" id="Path-18-Copy-3" stroke="#F8FAFC" stroke-width="1.26" opacity="0.699999988" mask="url(#mask-10)" transform="translate(30.545722, 21.314036) rotate(-26.000000) translate(-30.545722, -21.314036) "></path>
                                                <path d="M24.5795456,8.467944 C33.4787863,8.90731761 38.2457067,13.9733413 38.8803071,23.666015" id="Path-18-Copy-4" stroke="#F8FAFC" stroke-width="1.26" opacity="0.699999988" mask="url(#mask-10)" transform="translate(31.729926, 16.066979) rotate(-38.000000) translate(-31.729926, -16.066979) "></path>
                                                <path d="M27.0995456,2.79420394 C35.9987863,3.23357755 40.7657067,8.29960121 41.4003071,17.9922749" id="Path-18-Copy-5" stroke="#F8FAFC" stroke-width="1.26" opacity="0.699999988" mask="url(#mask-10)" transform="translate(34.249926, 10.393239) rotate(-38.000000) translate(-34.249926, -10.393239) "></path>
                                                <path d="M15.12,27.7382847 C24.0192406,28.1776583 28.7861611,33.243682 29.4207615,42.9363557" id="Path-18-Copy" stroke="#F8FAFC" stroke-width="1.26" opacity="0.5" mask="url(#mask-10)"></path>
                                            </g>
                                            <path d="M54.4023581,41.7216232 C59.7926053,35.257408 100.045685,37.7911566 114.934879,27.1078691 C125.3472,28.0035747 131.693628,36.3200993 129.760572,45.5057609 C120.090966,62.7459954 95.2058683,80.49732 72.1618347,81.9374762 C49.5923489,82.7317691 42.0822507,53.8176372 54.4023581,41.7216232 Z" id="Path-14" fill="url(#radialGradient-11)"></path>
                                            <path d="M121.235331,28.7359473 C127.761654,31.7477951 131.263484,38.3640921 129.760572,45.5057609 C120.090966,62.7459954 95.2058683,80.49732 72.1618347,81.9374762 C59.5599172,82.3809783 51.6530175,73.5623783 49.2716321,63.5809427 C52.8779502,68.5968386 59.0530342,72.0195243 67.741532,71.7137481 C83.5963901,70.7228854 102.729023,62.8335722 116.273063,52.3924013 C114.371877,37.7686053 117.936551,32.5004802 121.235331,28.7359473 Z" id="Combined-Shape" fill-opacity="0.479999989" fill="#0D6574" opacity="0.400000006"></path>
                                            <path d="M57.0357815,41.6929734 C64.7882301,40.6027191 72.5252756,48.799557 74.3169564,61.5564371 C75.4154933,69.3780892 73.8488199,75.1980138 70.820796,79.8850768 C50.1522654,78.6082826 43.7948043,54.0381352 55.6623581,42.3864431 C55.8201134,42.1972563 56.0015385,42.0189629 56.2054862,41.8508197 C56.4783069,41.7851938 56.7551306,41.7324423 57.0357815,41.6929734 Z" id="Combined-Shape" fill="url(#linearGradient-12)" opacity="0.231544384"></path>
                                            <g id="Group-14" transform="translate(33.075000, 71.552166) rotate(-4.000000) translate(-33.075000, -71.552166) translate(1.890000, 47.911583)">
                                                <g id="Group-15">
                                                    <path d="M52.3787325,8.44139579 C43.0686976,5.67179427 36.619817,3.55081492 33.0320905,2.07845775 C27.6505008,-0.130078007 26.0224478,0.795077385 22.8970298,0.160825124 C21.9464244,2.72351948 24.5821081,5.88895603 28.6025178,7.37049044 C31.282791,8.35818005 39.2081958,8.7151485 52.3787325,8.44139579 Z" id="Path-16" fill="url(#linearGradient-13)"></path>
                                                    <path d="M25.3418699,28.4266141 L17.7643057,46.3928673 C21.5515854,47.4443837 24.4075467,46.8396319 26.3321895,44.5786119 C29.2191538,41.1870819 33.6959821,30.0548392 39.7769954,26.6441691 C42.9277566,24.8769953 54.9234139,31.4076362 59.6609014,26.8874866 C63.1693767,23.5399667 62.932458,10.8835035 55.5007196,7.91068743 C45.942713,8.30332 36.9084162,7.72625918 28.3978295,6.17950497 C22.1082082,4.84723385 17.279467,6.58408767 13.9116057,11.3900664 C7.17450093,21.0039962 2.42809484,25.6396274 0.239637664,28.0478461 C1.56306862,29.5677206 6.05665369,29.7719179 7.42064801,29.0011156 C8.32997756,28.4872474 11.6250338,25.6058656 17.3058168,20.3569702 L7.42064801,39.3474064 C9.76758687,41.0469981 11.9312394,40.778174 13.9116057,38.540934 C14.9815301,37.3322295 18.143697,33.9607895 23.3981062,28.4266141 L25.3418699,28.4266141 Z" id="Path-15" fill="url(#linearGradient-14)"></path>
                                                    <path d="M23.8695517,29.5829429 C27.542824,22.9742919 29.7691445,19.2063451 30.5485131,18.2791027 C31.3278817,17.3518603 33.2276266,16.988507 36.2477476,17.1890426" id="Path-17" stroke="#FFFFFF" stroke-width="1.26" stroke-linecap="round" stroke-linejoin="round"></path>
                                                    <path d="M15.9117131,22.0933465 L19.1703585,16.3771151 C20.6755153,13.7368079 23.5604917,12.1925459 26.5923016,12.4043184" id="Path-17-Copy" stroke="#FFFFFF" stroke-width="1.26" stroke-linecap="round" stroke-linejoin="round"></path>
                                                </g>
                                            </g>
                                        </g>
                                        <ellipse id="Oval-3" fill="url(#radialGradient-15)" cx="136.395" cy="18.5972591" rx="18.585" ry="18.5972591"></ellipse>
                                    </g>
                                    <g id="Group-13">
                                        <g id="Group-12" transform="translate(0.000000, 110.953139)">
                                            <ellipse id="Oval-Copy" fill="url(#linearGradient-16)" cx="216.09" cy="72.4977896" rx="72.45" ry="72.4977896"></ellipse>
                                            <path d="M147.530503,95.9963727 L221.517278,144.795229 C219.725531,144.928008 217.915651,144.995579 216.09,144.995579 C184.296161,144.995579 157.285609,124.502382 147.530503,95.9963727 Z" id="Combined-Shape" fill="#3CAAA6"></path>
                                            <path d="M69.0671282,77.1981107 C66.679834,90.5033573 75.1338036,107.128585 92.3218347,106.523683 C102.60438,105.881067 113.253493,101.990799 122.753806,96.3474318 C157.104418,118.762355 182.749842,135.696658 199.69008,147.150339 C200.010553,147.367018 200.010553,147.94896 199.69008,148.896164 L125.907619,197.668924 C124.220418,198.784223 122.029923,198.782915 120.344054,197.665603 L1.09125163,118.630662 L69.0671282,77.1981107 Z" id="Combined-Shape" fill="url(#linearGradient-17)"></path>
                                            <path d="M68.4371282,75.306864 C66.049834,88.6121107 74.5038036,105.237339 91.6918347,104.632436 C101.97438,103.98982 112.623493,100.099553 122.123806,94.4561851 L199.797004,146.972806 L125.619965,195.569771 C123.723805,196.812037 121.269957,196.805533 119.380409,195.553233 L0.461251631,116.739416 L68.4371282,75.306864 Z" id="Combined-Shape-Copy-3" fill="url(#linearGradient-18)"></path>
                                            <path d="M122.720036,100.513491 L100.17,115.253096 L128.047869,135.090435 C128.90977,135.703747 130.062966,135.713477 130.935093,135.114797 L153.889199,119.357729 L125.491688,100.522791 C124.652621,99.9662719 123.562818,99.9626152 122.720036,100.513491 Z" id="Path-21" fill="#0D6574" opacity="0.300000012"></path>
                                            <path d="M202.372209,45.2129169 C191.165827,48.6384689 185.562636,57.8675096 185.562636,72.9000388 C185.562636,83.8214401 165.067377,76.3708443 165.067377,63.314473 C165.067377,44.9204788 176.005623,36.2324327 183.719793,34.5589592 L202.372209,45.2129169 Z" id="Path-12" stroke="#0D6574" stroke-width="1.89" fill-opacity="0.280000001" fill="#0D6574" stroke-linecap="round" stroke-linejoin="round"></path>
                                            <path d="M155.023,33.4704292 C167.896519,13.3422288 190.436164,0 216.09,0 C241.925624,0 264.602767,13.5319909 277.429216,33.8993481 C264.052199,53.2827991 241.694925,65.9843163 216.373008,65.9843163 C190.864787,65.9843163 168.364994,53.0952109 155.022997,33.4704252 L155.023,33.4704292 Z" id="Combined-Shape" fill="#0D6574" opacity="0.200000003"></path>
                                            <path d="M198.45,142.831568 C229.937643,134.949175 253.26,106.448893 253.26,72.4977896 C253.26,38.5466862 229.937643,10.0464042 198.45,2.16401099 C204.096557,0.75049187 210.005693,0 216.09,0 C256.10303,0 288.54,32.458366 288.54,72.4977896 C288.54,112.537213 256.10303,144.995579 216.09,144.995579 C210.005693,144.995579 204.096557,144.245087 198.45,142.831568 Z" id="Combined-Shape" fill="#0D6574" opacity="0.200000003"></path>
                                            <g id="Group-23" transform="translate(97.650000, 117.257294)">
                                                <mask id="mask-20" fill="white">
                                                    <use xlink:href="#path-19"></use>
                                                </mask>
                                                <g id="Path-22">
                                                    <use fill="black" fill-opacity="1" filter="url(#filter-21)" xlink:href="#path-19"></use>
                                                    <use fill="#AFFFAA" fill-rule="evenodd" xlink:href="#path-19"></use>
                                                </g>
                                                <path d="M24.6688858,29.1116722 L-5.78670958,6.68931088 L-4.29329042,4.65816922 L34.100242,32.924688 L44.7455043,25.4455665 L46.1935546,27.5093407 L36.2416953,34.5012928 L40.9428097,37.9624002 L49.7855043,31.7497221 L51.2335546,33.8134963 L43.0842629,39.539005 L48.2235284,43.3226929 L54.8255043,38.6842933 L56.2735546,40.7480674 L50.3649816,44.8992977 L57.4316068,50.1019681 L55.9381877,52.1331097 L48.1891236,46.4280065 L43.7518778,49.5455155 L50.5016068,54.514877 L49.0081877,56.5460187 L41.5760197,51.0742243 L37.8992928,53.6574098 L44.2016068,58.2973704 L42.7081877,60.328512 L35.7234348,55.1861186 L32.0467079,57.7693041 L37.9016068,62.0798637 L36.4081877,64.1110054 L29.8708499,59.298013 L26.4007076,61.7360567 L32.8616068,66.4927727 L31.3681877,68.5239143 L24.2248496,63.2647656 L19.6240251,66.4972012 L18.1759749,64.433427 L22.0833963,61.6881607 L16.9441309,57.9044729 L14.5840251,59.56263 L13.1359749,57.4988558 L14.8026776,56.327868 L10.1015633,52.8667607 L9.54402513,53.2584744 L8.37970477,51.5990746 L2.80231654,47.492827 L-8.09597487,55.1497211 L-9.54402513,53.0859469 L0.673929106,45.9258417 L-30.3567096,23.0801155 L-28.8632904,21.0489738 L2.85257299,44.3991839 L6.32715823,41.9644112 L-25.3167096,18.6672066 L-23.8232904,16.6360649 L8.50580211,40.4377534 L12.1872365,37.8580337 L-19.0167096,14.8847132 L-17.5232904,12.8535715 L14.3658804,36.3313759 L18.0473148,33.7516562 L-12.7167096,11.1022198 L-11.2232904,9.07107815 L20.2259587,32.2249985 L24.6688858,29.1116722 Z M26.7665905,30.656068 L22.3293447,33.773577 L27.4871382,37.5709058 L31.924384,34.4533968 L26.7665905,30.656068 Z M20.1534867,35.3022858 L16.4767598,37.8854713 L21.6345532,41.6828001 L25.3112801,39.0996146 L20.1534867,35.3022858 Z M14.3009017,39.4141801 L10.6241748,41.9973656 L15.7819683,45.7946944 L19.4586952,43.2115089 L14.3009017,39.4141801 Z M8.4483168,43.5260745 L4.97817456,45.9641182 L10.135968,49.761447 L13.6061103,47.3234032 L8.4483168,43.5260745 Z M12.2774213,51.3380518 L16.9785357,54.7991592 L20.4486779,52.3611154 L15.7475635,48.9000081 L12.2774213,51.3380518 Z M17.9234215,47.3712992 L22.6245359,50.8324066 L26.3012628,48.2492211 L21.6001485,44.7881137 L17.9234215,47.3712992 Z M23.7760065,43.2594049 L28.4771209,46.7205123 L32.1538478,44.1373268 L27.4527334,40.6762194 L23.7760065,43.2594049 Z M29.6285914,39.1475106 L34.3297058,42.608618 L38.7669516,39.491109 L34.0658372,36.0300016 L29.6285914,39.1475106 Z M40.9084049,41.0677138 L36.4711591,44.1852228 L41.6104245,47.9689107 L46.0476703,44.8514017 L40.9084049,41.0677138 Z M34.295301,45.7139316 L30.6185741,48.2971171 L35.7578396,52.080805 L39.4345665,49.4976195 L34.295301,45.7139316 Z M28.4427161,49.8258259 L24.7659892,52.4090114 L29.9052546,56.1926993 L33.5819815,53.6095138 L28.4427161,49.8258259 Z M22.5901312,53.9377203 L19.1199889,56.375764 L24.2592544,60.1594519 L27.7293966,57.7214081 L22.5901312,53.9377203 Z" id="Combined-Shape" fill="url(#linearGradient-22)" fill-rule="nonzero" mask="url(#mask-20)"></path>
                                            </g>
                                            <path d="M92.700328,104.559142 C102.668679,103.733866 112.933739,99.9152605 122.123806,94.4561851 L132.764118,101.650343 L124.1183,196.265628 C123.770929,196.368218 123.415969,196.436773 123.058465,196.471307 L83.7976859,109.230076 L92.700328,104.559142 Z" id="Combined-Shape" fill="#0D6574" opacity="0.200000003"></path>
                                        </g>
                                        <g id="Group-10" transform="translate(135.450000, 0.000000)">
                                            <mask id="mask-25" fill="white">
                                                <use xlink:href="#path-24"></use>
                                            </mask>
                                            <use id="Oval" fill="url(#linearGradient-23)" xlink:href="#path-24"></use>
                                            <g id="Group-11" mask="url(#mask-25)">
                                                <g transform="translate(128.520000, 80.693192)">
                                                    <path d="M22.2961143,1.54997194 C19.0158173,-2.13761939 2.34929629,0.815248921 0.262154805,9.76231581 C-1.82498669,18.7093827 9.35202895,29.8106757 5.55243971,41.1592355 C7.06872219,42.1802422 8.9916005,42.6907455 11.3210746,42.6907455 C26.9498112,31.7122038 26.7165055,6.51921584 22.2961143,1.54997194 Z" id="Path-6" stroke="#70C9AC" stroke-width="1.26" fill="url(#linearGradient-26)" stroke-linecap="round" stroke-linejoin="round"></path>
                                                    <path d="M5.9321548,12.2839781 C4.22304025,19.6105356 12.2124054,29.8976568 11.5010766,42.897532 C9.99570878,43.2999547 8.01282982,42.7205225 5.55243971,41.1592355 C9.35202895,29.8106757 -1.82498669,18.7093827 0.262154805,9.76231581 C2.34929629,0.815248921 19.0158173,-2.13761939 22.2961143,1.54997194 C22.5440256,1.82866489 22.7801086,2.15532018 23.0021532,2.52561807 C16.8193163,2.39030868 7.46154515,5.72785439 5.9321548,12.2839781 Z" id="Combined-Shape" stroke="none" fill="#0D6574" opacity="0.200000003"></path>
                                                    <path d="M20.0924963,6.16143138 C14.7027914,8.69667933 12.0763018,11.1895976 12.2130273,13.6401861 C12.4181156,17.3160688 16.2581386,22.2198915 14.235583,29.1997601" id="Path-7" stroke="#0D6574" stroke-width="1.89" fill="url(#linearGradient-27)" stroke-linecap="round" stroke-linejoin="round"></path>
                                                </g>
                                            </g>
                                            <ellipse id="Oval-2" stroke="#0D6574" stroke-width="1.89" opacity="0.5" stroke-linecap="round" stroke-linejoin="round" stroke-dasharray="3.15,8.820000171661377" mask="url(#mask-25)" cx="121.905" cy="96.1383731" rx="87.255" ry="87.3125553"></ellipse>
                                            <path d="M6.17579196,45.7281592 C21.8834654,55.7674308 19.9707365,68.6120798 37.3976531,77.633951 C54.8245698,86.6558222 81.5970148,72.9528468 98.1026399,80.4534147 C122.051226,91.3362495 127.039802,135.616882 96.9542324,163.197571 C76.8971859,181.584696 43.067531,166.044517 -4.53473228,116.577034 C-7.03597886,63.1822012 -3.46580412,39.5659097 6.17579196,45.7281592 Z" id="Path-4" fill="#0D6574" mask="url(#mask-25)"></path>
                                            <g id="Path-11" stroke-linecap="round" stroke-linejoin="round" mask="url(#mask-25)">
                                                <use fill="black" fill-opacity="1" filter="url(#filter-29)" xlink:href="#path-28"></use>
                                                <use stroke="#A8FFA2" stroke-width="1.89" xlink:href="#path-28"></use>
                                            </g>
                                            <g id="Path-11-Copy-2" stroke-linecap="round" stroke-linejoin="round" mask="url(#mask-25)" transform="translate(36.043128, 126.453425) scale(-1, -1) translate(-36.043128, -126.453425) ">
                                                <use fill="black" fill-opacity="1" filter="url(#filter-31)" xlink:href="#path-30"></use>
                                                <use stroke="#A8FFA2" stroke-width="1.89" xlink:href="#path-30"></use>
                                            </g>
                                            <g id="Path-11-Copy" stroke-linecap="round" stroke-linejoin="round" mask="url(#mask-25)">
                                                <use fill="black" fill-opacity="1" filter="url(#filter-33)" xlink:href="#path-32"></use>
                                                <use stroke="#A8FFA2" stroke-width="1.89" xlink:href="#path-32"></use>
                                            </g>
                                            <path d="M6.98660319,38.0456111 C24.1117842,48.9908568 23.4238519,64.7923609 41.0260188,72.8306774 C58.6281857,80.8689938 88.6130892,65.118579 105.12248,75.6502439 C128.36368,90.4762619 135.141176,135.750478 102.340594,165.820131 C80.4735399,185.866566 56.5060545,183.375435 30.4381384,158.346739 L-27.141012,87.7695124 C-14.9009512,47.9018956 -3.52507943,31.3272618 6.98660319,38.0456111 Z" id="Path-4-Copy" stroke="#0D6574" stroke-width="1.89" stroke-linecap="round" stroke-linejoin="round" mask="url(#mask-25)"></path>
                                        </g>
                                        <g id="Group-18" transform="translate(140.490000, 150.038904)">
                                            <ellipse id="Oval-3" fill="url(#radialGradient-15)" cx="136.395" cy="18.5972591" rx="18.585" ry="18.5972591"></ellipse>
                                            <path d="M124.44297,32.8392525 C125.688758,27.7399691 130.285249,23.9557913 135.765,23.9557913 C141.544184,23.9557913 146.340942,28.1648295 147.260835,33.6865577 C144.204965,35.8938655 140.451774,37.1945181 136.395,37.1945181 C131.843488,37.1945181 127.67412,35.5572831 124.44297,32.8392525 Z" id="Combined-Shape" fill="#0D6574" opacity="0.200000003"></path>
                                            <g id="Group-17" transform="translate(0.000000, 23.955791)">
                                                <g id="Group-16" transform="translate(101.430000, 0.000000)">
                                                    <mask id="mask-35" fill="white">
                                                        <use xlink:href="#path-34"></use>
                                                    </mask>
                                                    <use id="Path-13" fill="#87E3D6" fill-rule="nonzero" xlink:href="#path-34"></use>
                                                    <path d="M18.27,23.3253758 C27.1692406,23.7647494 31.9361611,28.830773 32.5707615,38.5234467" id="Path-18" stroke="#F8FAFC" stroke-width="1.26" opacity="0.699999988" mask="url(#mask-35)" transform="translate(25.420381, 30.924411) rotate(-7.000000) translate(-25.420381, -30.924411) "></path>
                                                    <path d="M21.1547644,19.1568866 C30.054005,19.5962602 34.8209255,24.6622839 35.4555258,34.3549576" id="Path-18-Copy-2" stroke="#F8FAFC" stroke-width="1.26" opacity="0.699999988" mask="url(#mask-35)" transform="translate(28.305145, 26.755922) rotate(-14.000000) translate(-28.305145, -26.755922) "></path>
                                                    <path d="M23.3953409,13.7150007 C32.2945816,14.1543743 37.0615021,19.2203979 37.6961024,28.9130716" id="Path-18-Copy-3" stroke="#F8FAFC" stroke-width="1.26" opacity="0.699999988" mask="url(#mask-35)" transform="translate(30.545722, 21.314036) rotate(-26.000000) translate(-30.545722, -21.314036) "></path>
                                                    <path d="M24.5795456,8.467944 C33.4787863,8.90731761 38.2457067,13.9733413 38.8803071,23.666015" id="Path-18-Copy-4" stroke="#F8FAFC" stroke-width="1.26" opacity="0.699999988" mask="url(#mask-35)" transform="translate(31.729926, 16.066979) rotate(-38.000000) translate(-31.729926, -16.066979) "></path>
                                                    <path d="M27.0995456,2.79420394 C35.9987863,3.23357755 40.7657067,8.29960121 41.4003071,17.9922749" id="Path-18-Copy-5" stroke="#F8FAFC" stroke-width="1.26" opacity="0.699999988" mask="url(#mask-35)" transform="translate(34.249926, 10.393239) rotate(-38.000000) translate(-34.249926, -10.393239) "></path>
                                                    <path d="M15.12,27.7382847 C24.0192406,28.1776583 28.7861611,33.243682 29.4207615,42.9363557" id="Path-18-Copy" stroke="#F8FAFC" stroke-width="1.26" opacity="0.5" mask="url(#mask-35)"></path>
                                                    <path d="M30.629506,37.673125 C30.6432515,37.7477323 30.6563804,37.822544 30.6688886,37.8975555 C25.4332332,43.681567 18.5923582,47.8597835 10.2026808,50.3039948 C7.24983158,51.1642647 4.19951601,50.2155569 2.23619891,48.1085887 C1.60858176,47.4652806 1.0847266,46.7075103 0.700792357,45.8551427 C0.724717618,45.8596109 0.748815049,45.8637298 0.773086885,45.8675061 C0.644689802,45.5695337 0.533249333,45.2603409 0.440264189,44.9407512 C-0.775510178,40.7621373 1.62411291,36.3884714 5.79997236,35.1718951 C11.8405385,33.4120634 16.2893016,30.8449747 19.7672903,26.4895454 C23.6236945,27.5431931 26.7470603,29.8133103 28.6840859,32.7981408 C35.4296388,26.6276722 39.9771187,18.2807518 41.3168307,6.9546953 C41.5210216,5.22844533 41.0452701,3.56040802 40.1249484,2.14687795 C41.8746685,3.8001949 42.8474583,6.23206444 42.5428534,8.8072239 C41.1302098,20.7498515 37.1228598,30.4541618 30.629506,37.673125 Z" id="Combined-Shape" fill="#0D6574" fill-rule="nonzero" opacity="0.200000003" mask="url(#mask-35)"></path>
                                                </g>
                                                <path d="M54.4023581,42.3520388 C59.7926053,35.8878235 100.045685,38.4215721 114.934879,27.7382847 C125.3472,28.6339902 131.693628,36.9505149 129.760572,46.1361765 C120.090966,63.376411 95.2058683,81.1277355 72.1618347,82.5678918 C49.5923489,83.3621846 42.0822507,54.4480528 54.4023581,42.3520388 Z" id="Path-14" fill="url(#radialGradient-11)"></path>
                                                <path d="M129.603451,39.0329364 C130.201286,41.252393 130.281081,43.6627764 129.760572,46.1361765 C120.090966,63.376411 95.2058683,81.1277355 72.1618347,82.5678918 C59.5599172,83.0113938 51.6530175,74.1927939 49.2716321,64.2113583 C52.8779502,69.2272542 59.0530342,72.6499398 67.741532,72.3441636 C90.1684626,70.9425737 119.153735,55.7382057 129.603451,39.0329364 Z" id="Combined-Shape" fill-opacity="0.479999989" fill="#0D6574" opacity="0.535212862"></path>
                                                <path d="M57.0357815,42.323389 C64.7882301,41.2331347 72.5252756,49.4299725 74.3169564,62.1868527 C75.4154933,70.0085048 73.8488199,75.8284293 70.820796,80.5154924 C50.1522654,79.2386981 43.7948043,54.6685507 55.6623581,43.0168587 C55.8201134,42.8276718 56.0015385,42.6493785 56.2054862,42.4812352 C56.4783069,42.4156094 56.7551306,42.3628579 57.0357815,42.323389 Z" id="Combined-Shape" fill-opacity="0.479999989" fill="#0D6574" opacity="0.535212862"></path>
                                                <g id="Group-14" transform="translate(32.880644, 71.424830) rotate(-4.000000) translate(-32.880644, -71.424830) translate(1.880644, 47.924830)">
                                                    <g id="Group-15">
                                                        <path d="M52.3787325,8.44139579 C43.0686976,5.67179427 36.619817,3.55081492 33.0320905,2.07845775 C27.6505008,-0.130078007 26.0224478,0.795077385 22.8970298,0.160825124 C21.9464244,2.72351948 24.5821081,5.88895603 28.6025178,7.37049044 C31.282791,8.35818005 39.2081958,8.7151485 52.3787325,8.44139579 Z" id="Path-16" fill="url(#linearGradient-36)"></path>
                                                        <path d="M25.3418699,28.4266141 L17.7643057,46.3928673 C21.5515854,47.4443837 24.4075467,46.8396319 26.3321895,44.5786119 C29.2191538,41.1870819 33.6959821,30.0548392 39.7769954,26.6441691 C42.9277566,24.8769953 54.9234139,31.4076362 59.6609014,26.8874866 C63.1693767,23.5399667 62.932458,10.8835035 55.5007196,7.91068743 C45.942713,8.30332 36.9084162,7.72625918 28.3978295,6.17950497 C22.1082082,4.84723385 17.279467,6.58408767 13.9116057,11.3900664 C7.17450093,21.0039962 2.42809484,25.6396274 0.239637664,28.0478461 C1.56306862,29.5677206 6.05665369,29.7719179 7.42064801,29.0011156 C8.32997756,28.4872474 11.6250338,25.6058656 17.3058168,20.3569702 L7.42064801,39.3474064 C9.76758687,41.0469981 11.9312394,40.778174 13.9116057,38.540934 C14.9815301,37.3322295 18.143697,33.9607895 23.3981062,28.4266141 L25.3418699,28.4266141 Z" id="Path-15" fill="url(#linearGradient-37)"></path>
                                                        <path d="M23.8695517,29.5829429 C27.542824,22.9742919 29.7691445,19.2063451 30.5485131,18.2791027 C31.3278817,17.3518603 33.2276266,16.988507 36.2477476,17.1890426" id="Path-17" stroke="#0D6574" stroke-width="1.26" stroke-linecap="round" stroke-linejoin="round"></path>
                                                        <path d="M15.9117131,22.0933465 L19.1703585,16.3771151 C20.6755153,13.7368079 23.5604917,12.1925459 26.5923016,12.4043184" id="Path-17-Copy" stroke="#0D6574" stroke-width="1.26" stroke-linecap="round" stroke-linejoin="round"></path>
                                                    </g>
                                                </g>
                                            </g>
                                        </g>
                                    </g>
                                </g>
                                <g id="Group-22" transform="translate(0.000000, 121.039788)">
                                    <path d="M2.12663533,5.57670891 L15.129303,108.164565 L135.905445,188.493788 L135.985313,188.463634 C137.380853,187.936756 138.215497,186.503262 137.984807,185.02952 L123.349476,91.5332416 C122.066964,83.3400445 117.407333,76.060176 110.504135,71.4646148 L6.99721168,2.55851604 C5.54906047,1.59446023 3.59358032,1.9868971 2.62952451,3.43504831 C2.20995753,4.06529858 2.03143279,4.8255842 2.12663533,5.57670891 Z" id="Path-19-Copy" fill="#40E3B5"></path>
                                    <path d="M0.866635332,6.83754004 L13.3949191,105.682624 C13.6959721,108.057858 15.0213104,110.182418 17.0221959,111.497266 L133.967547,188.34593 C134.839876,188.919166 136.011737,188.676704 136.584973,187.804375 C136.843149,187.411493 136.945636,186.936495 136.872425,186.472112 L122.100508,92.7728248 C120.810804,84.5921444 116.154017,77.3254567 109.260183,72.7361292 L5.73721168,3.81934716 C4.28906047,2.85529136 2.33358032,3.24772822 1.36952451,4.69587943 C0.949957531,5.32612971 0.771432786,6.08641532 0.866635332,6.83754004 Z" id="Path-19" fill="#0D6574"></path>
                                    <g id="Oval-4">
                                        <use fill="black" fill-opacity="1" filter="url(#filter-39)" xlink:href="#path-38"></use>
                                        <use fill="#AFFFAA" fill-rule="evenodd" xlink:href="#path-38"></use>
                                    </g>
                                </g>
                            </g>
                            <g id="Group-46" transform="translate(206.010000, 271.709107)">
                                <path d="M33.6880705,66.8507283 L55.2979425,48.9510846 C59.0396268,45.8518152 59.5604069,40.3061264 56.4611375,36.5644421 C55.7228176,35.6730837 54.8158605,34.9361811 53.7922394,34.3959627 L53.7922394,34.3959627 C46.7145126,30.6606755 38.0961931,31.4738834 31.8420745,36.4671375 L8.84366828,54.8289393 L33.6880705,66.8507283 Z" id="Path-28" fill="url(#linearGradient-40)" opacity="0.200000003"></path>
                                <g id="Group-45">
                                    <g id="Group-44" transform="translate(0.000000, 24.586207)">
                                        <path d="M0,40.9770115 L0,8.82581786 L34.4973421,8.82581786 L34.4973421,40.9770115 C33.3680012,45.6034541 26.1101075,49.1724138 17.325,49.1724138 C8.5398925,49.1724138 1.12934093,45.6034541 0,40.9770115 Z" id="Combined-Shape" fill="url(#linearGradient-41)"></path>
                                        <path d="M23.31,8.82581786 L34.4973421,8.82581786 L34.4973421,40.9770115 C33.638426,44.4956356 29.2345664,47.402579 23.31,48.5929844 L23.31,8.82581786 Z" id="Combined-Shape" fill="#0D6574" opacity="0.100000001"></path>
                                        <ellipse id="Oval-5" fill="#ACF1FA" cx="17.325" cy="9.45623342" rx="17.325" ry="9.45623342"></ellipse>
                                        <ellipse id="Oval-5-Copy" fill="#0D6574" cx="17.64" cy="9.45623342" rx="13.86" ry="6.93457118"></ellipse>
                                    </g>
                                    <g id="Path-27">
                                        <use fill="black" fill-opacity="1" filter="url(#filter-43)" xlink:href="#path-42"></use>
                                        <use fill="#AFFFAA" fill-rule="evenodd" xlink:href="#path-42"></use>
                                    </g>
                                </g>
                            </g>
                            <polyline id="Path-51" stroke="#0D6574" stroke-width="4" opacity="0.5" stroke-linecap="round" stroke-linejoin="round" stroke-dasharray="1,11.81999969482422" points="547.327088 169.976541 547.327088 293.552538 440.784152 217.408912 281.314603 323.244121 247.109415 301.306078"></polyline>
                        </g>
                    </g>
                    <polyline id="Path-35" stroke="#0D6574" stroke-width="4" opacity="0.5" stroke-linecap="round" stroke-linejoin="round" stroke-dasharray="1,11.81999969482422" points="85 288 85 333.955943 177.130774 389.211292 207.884859 407.656027"></polyline>
                    <g id="Group-51" transform="translate(0.000000, 39.000000)">
                        <path d="M0,15.5414662 L2.13162821e-14,169.025432 C2.28863455e-14,181.845973 6.39327737,193.822197 17.0456214,200.956189 L195.188394,320.260359 C198.946645,322.777301 204.033694,321.771022 206.550636,318.012771 C207.453634,316.664431 207.935721,315.078227 207.935721,313.455444 L207.935721,162.753998 C207.935721,150.078973 201.685834,138.219095 191.230447,131.053822 L12.8198598,8.78569101 C9.08874818,6.22869006 3.99122577,7.1804948 1.43422482,10.9116064 C0.499974688,12.2748407 1.57396636e-15,13.8888225 1.77635684e-15,15.5414662 Z" id="Path-35-Copy" fill="#81E37B" opacity="0.622735507"></path>
                        <path d="M185.535,255.138662 C190.580121,257.662887 194.67,255.616599 194.67,250.568149 C194.67,245.5197 190.580121,239.380835 185.535,236.856611 C180.489879,234.332386 176.4,236.378674 176.4,241.427123 C176.4,246.475572 180.489879,252.614437 185.535,255.138662 Z" id="Oval-11-Copy" fill="#0D6574"></path>
                        <g id="Group-50" transform="translate(10.710000, 51.694076)">
                            <path d="M9.135,19.3632419 C14.1801212,21.8874667 18.27,19.8411785 18.27,14.7927295 C18.27,9.74428042 14.1801212,3.60541538 9.135,1.08119064 C4.08987881,-1.4430341 0,0.603254024 0,5.65170308 C0,10.7001521 4.08987881,16.8390172 9.135,19.3632419 Z" id="Oval-11" fill="url(#linearGradient-3)"></path>
                            <path d="M23.31,9.45623342 L24.8348605,12.4190899 C27.8178553,18.2151517 29.374053,24.639602 29.374053,31.1582361 L29.374053,39.5486555 C29.374053,50.9909981 35.080058,61.6797876 44.5872831,68.0468806 L144.057935,134.663468 C149.505218,138.311573 156.878487,136.853052 160.526593,131.405768 C161.835415,129.451459 162.534161,127.152383 162.534161,124.800289 L162.534161,124.800289 C162.534161,110.905045 155.600173,97.9262251 144.049787,90.2018222 L23.31,9.45623342 Z" id="Path-35-Copy-2" fill="#0D6574"></path>
                            <path d="M48.51,42.8682582 L140.116745,102.419888" id="Path-37" stroke="#FFFFFF" stroke-width="3.15" stroke-linecap="round" stroke-linejoin="round"></path>
                            <path d="M48.51,55.4765694 L91.1298575,83.1828478" id="Path-37-Copy" stroke="#FFFFFF" stroke-width="3.15" stroke-linecap="round" stroke-linejoin="round"></path>
                        </g>
                        <g id="Group-49" transform="translate(28.980000, 138.061008)">
                            <path d="M0.202502699,11.8109508 L0.202502699,11.8109508 C-0.0706948883,25.1834396 6.48625827,37.7741412 17.5995237,45.216817 L119.282958,113.315329 C123.304748,116.008766 128.748514,114.931923 131.441951,110.910133 C132.408269,109.467245 132.924161,107.769811 132.924161,106.033235 L132.924161,106.033235 C132.924161,96.9659573 140.274642,89.6154765 149.34192,89.6154765 L150.689876,89.6154765 L18.5436377,2.19332595 C13.0986177,-1.40886029 5.76440794,0.0850516595 2.1622217,5.53007168 C0.927766783,7.39605841 0.248202059,9.57405633 0.202502699,11.8109508 Z" id="Path-35-Copy-3" fill="url(#linearGradient-3)"></path>
                            <path d="M22.05,19.5428824 L113.656745,79.0945122" id="Path-37-Copy-2" stroke="#0D6574" stroke-width="3.15" stroke-linecap="round" stroke-linejoin="round"></path>
                            <path d="M22.05,32.1511936 L64.6698575,59.857472" id="Path-37-Copy-3" stroke="#0D6574" stroke-width="3.15" stroke-linecap="round" stroke-linejoin="round"></path>
                        </g>
                    </g>
                    <path d="M362.401162,104.661116 L362.401162,103.312385 C362.401162,99.0293056 365.870996,95.5571835 370.151252,95.5571835 C374.431508,95.5571835 377.901341,99.0293056 377.901341,103.312385 L377.917152,104.661116 L377.917152,120.17152 L361.727241,120.17152 C357.446985,120.17152 353.977152,116.699397 353.977152,112.416318 C353.977152,108.133238 357.446985,104.661116 361.727241,104.661116 L362.401162,104.661116 Z" id="Combined-Shape" fill="#0D6574" transform="translate(365.947152, 107.864352) rotate(55.000000) translate(-365.947152, -107.864352) "></path>
                    <path d="M326.403463,96.8395889 L326.403463,95.9744646 C326.403463,93.2271437 328.629138,91 331.374648,91 C334.120158,91 336.345834,93.2271437 336.345834,95.9744646 L336.355975,96.8395889 L336.355975,106.788518 L325.971186,106.788518 C323.225676,106.788518 321,104.561374 321,101.814053 C321,99.0667326 323.225676,96.8395889 325.971186,96.8395889 L326.403463,96.8395889 Z" id="Combined-Shape-Copy-8" fill="#0D6574"></path>
                    <path d="M395.713622,69.949484 L395.713622,69.0843597 C395.713622,66.3370388 397.939298,64.1098951 400.684808,64.1098951 C403.430318,64.1098951 405.655993,66.3370388 405.655993,69.0843597 L405.666134,69.949484 L405.666134,79.8984132 L395.281345,79.8984132 C392.535835,79.8984132 390.31016,77.6712695 390.31016,74.9239486 C390.31016,72.1766276 392.535835,69.949484 395.281345,69.949484 L395.713622,69.949484 Z" id="Combined-Shape-Copy-9" fill="#0D6574" transform="translate(397.988147, 72.004154) rotate(42.000000) translate(-397.988147, -72.004154) "></path>
                    <path d="M342.596318,46.6473609 L342.596318,45.9875705 C342.596318,43.8923156 344.293738,42.1937759 346.387612,42.1937759 C348.481486,42.1937759 350.178906,43.8923156 350.178906,45.9875705 L350.18664,46.6473609 L350.18664,54.2349502 L342.266641,54.2349502 C340.172767,54.2349502 338.475347,52.5364105 338.475347,50.4411556 C338.475347,48.3459006 340.172767,46.6473609 342.266641,46.6473609 L342.596318,46.6473609 Z" id="Combined-Shape-Copy-6" fill="#6AC264" transform="translate(344.330994, 48.214363) rotate(-285.000000) translate(-344.330994, -48.214363) "></path>
                    <path d="M379.875652,36.2158611 L379.875652,34.9391323 C379.875652,30.8847046 383.160249,27.5979415 387.212004,27.5979415 C391.263759,27.5979415 394.548355,30.8847046 394.548355,34.9391323 L394.563322,36.2158611 L394.563322,50.8982427 L379.237709,50.8982427 C375.185954,50.8982427 371.901357,47.6114796 371.901357,43.5570519 C371.901357,39.5026242 375.185954,36.2158611 379.237709,36.2158611 L379.875652,36.2158611 Z" id="Combined-Shape-Copy-11" fill="#6AC264" transform="translate(383.232339, 39.248092) rotate(-317.000000) translate(-383.232339, -39.248092) "></path>
                    <path d="M283.875652,42.2158611 L283.875652,40.9391323 C283.875652,36.8847046 287.160249,33.5979415 291.212004,33.5979415 C295.263759,33.5979415 298.548355,36.8847046 298.548355,40.9391323 L298.563322,42.2158611 L298.563322,56.8982427 L283.237709,56.8982427 C279.185954,56.8982427 275.901357,53.6114796 275.901357,49.5570519 C275.901357,45.5026242 279.185954,42.2158611 283.237709,42.2158611 L283.875652,42.2158611 Z" id="Combined-Shape-Copy-13" fill="#6AC264" transform="translate(287.232339, 45.248092) rotate(-317.000000) translate(-287.232339, -45.248092) "></path>
                    <path d="M381.936304,134.963085 L381.936304,134.616903 C381.936304,133.517554 382.826915,132.626356 383.925539,132.626356 C385.024163,132.626356 385.914774,133.517554 385.914774,134.616903 L385.918832,134.963085 L385.918832,138.944179 L381.763327,138.944179 C380.664703,138.944179 379.774092,138.052981 379.774092,136.953632 C379.774092,135.854283 380.664703,134.963085 381.763327,134.963085 L381.936304,134.963085 Z" id="Combined-Shape-Copy-10" fill="#0D6574" transform="translate(382.846462, 135.785268) rotate(-285.000000) translate(-382.846462, -135.785268) "></path>
                    <path d="M343.936304,138.963085 L343.936304,138.616903 C343.936304,137.517554 344.826915,136.626356 345.925539,136.626356 C347.024163,136.626356 347.914774,137.517554 347.914774,138.616903 L347.918832,138.963085 L347.918832,142.944179 L343.763327,142.944179 C342.664703,142.944179 341.774092,142.052981 341.774092,140.953632 C341.774092,139.854283 342.664703,138.963085 343.763327,138.963085 L343.936304,138.963085 Z" id="Combined-Shape-Copy-12" fill="#0D6574" transform="translate(344.846462, 139.785268) scale(-1, 1) rotate(-285.000000) translate(-344.846462, -139.785268) "></path>
                    <path d="M347.596318,155.647361 L347.596318,154.987571 C347.596318,152.892316 349.293738,151.193776 351.387612,151.193776 C353.481486,151.193776 355.178906,152.892316 355.178906,154.987571 L355.18664,155.647361 L355.18664,163.23495 L347.266641,163.23495 C345.172767,163.23495 343.475347,161.536411 343.475347,159.441156 C343.475347,157.345901 345.172767,155.647361 347.266641,155.647361 L347.596318,155.647361 Z" id="Combined-Shape-Copy-7" fill="#6AC264" transform="translate(349.330994, 157.214363) rotate(-285.000000) translate(-349.330994, -157.214363) "></path>
                    <g id="Group-12" transform="translate(537.500000, 602.500000) scale(-1, 1) translate(-537.500000, -602.500000) translate(461.000000, 510.000000)">
                        <path d="M137.700208,136.308136 L137.700208,168.34151 C132.202696,179.327721 122.861534,184.820826 109.676721,184.820826 C96.4919085,184.820826 88.120079,179.793092 84.5612327,169.737623 L83.8319498,138.321966 L137.700208,136.308136 Z" id="Path-39" fill="#0F798A"></path>
                        <ellipse id="Oval-4" fill="#0D6574" transform="translate(110.663441, 137.267000) rotate(-1.000000) translate(-110.663441, -137.267000) " cx="110.663441" cy="137.267" rx="26.972128" ry="14.3762513"></ellipse>
                        <g id="Path-44" transform="translate(0.000000, 12.381884)">
                            <mask id="mask-46" fill="white">
                                <use xlink:href="#path-45"></use>
                            </mask>
                            <use id="Mask" fill="url(#linearGradient-44)" xlink:href="#path-45"></use>
                            <path d="M90.1761511,41.8619908 C85.7734864,50.5249068 83.572154,58.8089827 83.572154,66.7142187 C83.572154,74.6194547 85.7734864,84.8199515 90.1761511,97.3157092 L107.270468,69.58885 L90.1761511,41.8619908 Z" fill="#25877C" mask="url(#mask-46)"></path>
                            <path d="M94.5819794,93.052956 C82.7073505,29.4690145 51.9093863,-0.171444666 2.1880868,4.1315785" id="Path-38" stroke="#0D6574" stroke-width="1.63296" mask="url(#mask-46)"></path>
                            <path d="M50.7251808,14.0588248 C40.5646892,12.7757898 31.4830283,14.494658 23.480198,19.2154294" id="Path-45" stroke="#0D6574" stroke-width="1.63296" mask="url(#mask-46)"></path>
                            <path d="M71.1188073,33.2145005 C64.2597539,32.2534324 56.2442951,33.7306745 47.072431,37.6462267" id="Path-46" stroke="#0D6574" stroke-width="1.63296" mask="url(#mask-46)"></path>
                            <path d="M79.3399294,46.0167616 C79.2797939,40.510101 80.4166553,37.3774176 82.7505134,36.6187114" id="Path-47" stroke="#0D6574" stroke-width="1.63296" mask="url(#mask-46)"></path>
                        </g>
                        <path d="M106.778376,130.438395 C94.0430508,123.279558 87.1039604,110.608332 87.1039604,96.2208691 C87.1039604,81.8334062 95.4620087,81.9349077 99.8609814,67.1442608 C104.259954,52.353614 96.3886958,55.9761337 97.3823724,40.6157531 C98.376049,25.2553725 117.455012,28.3799359 119.837603,10.3436011 C122.220194,-7.69273359 142.560046,-0.382645924 140.972397,18.7415662 C139.384747,37.8657784 158.845177,38.9177671 149.908787,56.2475422 C140.972397,73.5773174 137.596129,69.1652455 140.972397,82.0582752 C144.348664,94.951305 149.864127,122.239917 110.440846,130.438395 C109.630536,130.704762 108.232604,132.570645 106.778376,130.438395 Z" id="Path-37" fill="url(#linearGradient-44)"></path>
                        <path d="M106.11649,138.957339 C123.240577,74.8022401 131.802621,32.4054914 131.802621,11.7670926" id="Path-40" stroke="#0D6574" stroke-width="1.63296"></path>
                        <path d="M128.131708,49.2495757 C136.266163,49.1372565 142.970205,47.4606986 148.243834,44.219902" id="Path-41" stroke="#0D6574" stroke-width="1.63296"></path>
                        <path d="M119.457631,83.6619744 L102,67" id="Path-42" stroke="#0D6574" stroke-width="1.63296"></path>
                        <path d="M126.457631,57.5805629 L109,40.9185885" id="Path-42-Copy" stroke="#0D6574" stroke-width="1.63296"></path>
                        <path d="M115.886139,101.598361 L133.306931,88.7090164" id="Path-43" stroke="#0D6574" stroke-width="1.63296"></path>
                    </g>
                </g>
            </g>
        </g>
    </g>
</svg>