<svg xmlns="http://www.w3.org/2000/svg" id="Graphics" viewBox="0 0 360.3 152"><style>.st0{fill:#00c9a7}.st1,.st2{fill:none;stroke:#191c3c;stroke-miterlimit:10}.st2{stroke:#1e2022}.st3{fill:#fcd991}.st4{fill:#00c671}.st8{fill:#191c3c}.st10{fill:#377dff}.st11{fill:#dfe2ec}.st13{fill:#de4437}.st14{fill:#eceef4}.st15{fill:#fff}.st18{fill:#ffc107}.st23{fill:#fec55e}.st24{fill:#bf9447}.st25,.st26{opacity:.5;fill:#fff;enable-background:new}.st26{opacity:.3;fill:#191c3c}.st28{fill:#4d5068}.st29{fill:#272834}.st31{opacity:.3}.st32{fill:#231f20}.st37{fill:#575a8f}.st40{fill:#ddb758}.st41{fill:#efdcb4}.st42{fill:#093a66}.st43{fill:#424559}.st45{fill:#336dc1}.st46{fill:#c6e8f7}.st48{fill:#1e2022}</style><g id="Layer_13"><path d="M314.4 132.8c-.1 0-.1.1-.2.1-2.2 1-3.4.9-5.5-.1-2-.9-3.9-2-5.5-3.4-2.1-1.8-3.7-4.3-4-7-.1-.6-.1-1.3.3-1.8.5-.7 1.5-.8 2.3-.5s1.4.9 2 1.5c.3.2.6.5.9.6s.8 0 1-.3c.3-.5-.2-1.1-.6-1.4-1-.9-2-1.3-3.1-2.1-1.4-1-2.6-2.1-3.3-3.6-.7-1.5-.9-3.3-.1-4.8.2-.4.6-.9 1-1.1.8-.5 1.7-.5 2.6-.3s1.7.5 2.6.6c2.1.2 2.9-1.3 2.9-3.2 0-1.3-.4-2.6-.5-3.8-.1-2.3 1-4.7 3.1-5.7s4.9 0 5.7 2.1c.8 2.3-1 5 .2 7.2.4.7 1.3 1.7 2 2.2 1.1.7 2.8-.1 4.1-.1.3 0 .6.1.8.3.2.2.2.4.3.6.3 1.6-.3 3.4-1.5 4.5-1.4 1.3-3.8 1.9-4.4 3.9-.4 1.2-.2 4.3 1.7 4 .7-.1 1.2-.8 1.9-1.1.9-.3 1.9.3 2.3 1.1s.3 1.8-.1 2.7c-.5 1.3-1.6 2.4-2.6 3.5-2.2 2-3.6 4-6.3 5.4z" class="st0"/><path d="M311.5 104.3v47.6M317 112.5l-5.5 5.5-5.5-5.5M317 123.6l-5.5 5.5-5.5-5.5" class="st1"/><path d="M13.9 127.8c-.1 0-.1.1-.2.1-1.9.9-2.9.7-4.7-.1-1.7-.8-3.3-1.7-4.7-2.9-1.8-1.6-3.1-3.7-3.4-6-.1-.5-.1-1.1.3-1.5.4-.6 1.3-.7 2-.4s1.2.8 1.7 1.3c.2.2.5.4.8.5s.7 0 .8-.3c.2-.4-.2-.9-.6-1.2-.9-.7-1.7-1.1-2.6-1.8-1.2-.8-2.2-1.8-2.8-3.1s-.8-2.8-.1-4.1c.2-.4.5-.7.8-1 .6-.4 1.5-.4 2.2-.2s1.5.4 2.2.5c1.8.2 2.5-1.1 2.5-2.7 0-1.1-.4-2.2-.4-3.3-.1-1.9.8-4 2.6-4.8s4.2 0 4.8 1.8c.7 2-.9 4.2.2 6.1.3.6 1.1 1.5 1.7 1.8 1 .6 2.4-.1 3.5-.1.3 0 .5 0 .7.2.1.1.2.3.2.5.3 1.4-.2 2.9-1.3 3.8-1.2 1.1-3.2 1.6-3.7 3.3-.3 1-.2 3.7 1.5 3.4.6-.1 1-.7 1.6-.9.7-.3 1.6.2 1.9.9.3.7.2 1.6-.1 2.3-.5 1.1-1.3 2.1-2.2 3-1.8 2-2.9 3.7-5.2 4.9z" class="st0"/><path d="M11.4 103.5v48.2M16.1 110.5l-4.7 4.7-4.7-4.7M16.1 120l-4.7 4.7-4.7-4.7" class="st2"/><g><path d="M29.9 95.2c-.1 0-.2.1-.3.1-3.1 1.5-4.7 1.2-7.7-.2-2.7-1.3-5.4-2.8-7.7-4.8-2.9-2.5-5.1-6-5.6-9.8-.1-.9-.1-1.8.4-2.5.7-1 2.1-1.1 3.2-.7 1.1.4 2 1.3 2.9 2.1.4.3.8.7 1.3.8.5.1 1.1 0 1.3-.4.4-.7-.3-1.5-.9-2-1.4-1.2-2.8-1.9-4.3-2.9-1.9-1.3-3.6-2.9-4.7-5-1-2.1-1.3-4.6-.2-6.6.3-.6.8-1.2 1.4-1.6 1-.7 2.4-.6 3.6-.4 1.2.3 2.4.7 3.6.9 2.9.3 4.1-1.8 4-4.4 0-1.8-.6-3.6-.7-5.4-.2-3.2 1.4-6.5 4.2-7.9 2.9-1.4 6.9-.1 7.9 2.9 1.1 3.3-1.4 6.9.3 10 .5 1 1.8 2.4 2.8 3 1.6 1 3.9-.2 5.8-.1.4 0 .9.1 1.2.4.2.2.3.5.4.8.4 2.3-.4 4.7-2.1 6.3-1.9 1.8-5.3 2.7-6.1 5.4-.5 1.7-.3 6 2.4 5.5 1-.2 1.7-1.2 2.7-1.5 1.2-.4 2.6.4 3.1 1.6s.4 2.5-.1 3.7c-.7 1.9-2.2 3.4-3.6 4.8-2.8 3.2-4.7 6.1-8.5 7.9z" class="st3"/><path d="M25.8 55.5v95.3M33.5 67l-7.7 7.7-7.7-7.7M33.5 82.5l-7.7 7.7-7.7-7.7" class="st2"/></g><g><path d="M340.7 106.8c-.1.1-.3.1-.4.2-4.2 2-6.4 1.7-10.4-.2-3.7-1.7-7.3-3.8-10.4-6.5-3.9-3.5-6.9-8.1-7.6-13.3-.1-1.2-.1-2.4.6-3.4.9-1.3 2.9-1.5 4.4-.9s2.7 1.7 3.9 2.8c.5.5 1 .9 1.7 1.1s1.5 0 1.8-.6c.5-.9-.4-2-1.2-2.7-1.9-1.6-3.8-2.6-5.8-4-2.6-1.8-4.9-4-6.3-6.8s-1.7-6.3-.3-9c.4-.8 1.1-1.6 1.9-2.1 1.4-.9 3.3-.9 4.9-.5s3.2 1 4.9 1.2c4 .4 5.5-2.4 5.4-6-.1-2.4-.8-4.8-1-7.3-.2-4.3 1.9-8.9 5.8-10.7 3.9-1.8 9.3-.1 10.7 4 1.5 4.4-1.9 9.4.3 13.6.7 1.4 2.4 3.3 3.8 4.1 2.2 1.3 5.3-.2 7.8-.1.6 0 1.2.1 1.6.5.3.3.4.7.5 1.1.6 3.1-.5 6.4-2.8 8.5-2.6 2.4-7.2 3.6-8.3 7.3-.7 2.3-.4 8.1 3.3 7.5 1.4-.2 2.3-1.6 3.6-2 1.6-.6 3.5.5 4.3 2.1.7 1.6.5 3.4-.1 5.1-1 2.5-3 4.6-4.9 6.6-4 3.9-6.6 7.8-11.7 10.4z" class="st3"/><path d="M335.2 52.8v99.1M345.6 68.5l-10.4 10.4-10.5-10.4M345.6 89.5l-10.4 10.4-10.5-10.4" class="st2"/></g><g><path d="M242.8 151.7c.8.4 0 0 0 0zm-9.1-4.5c-1.4 1.5-3.1 3.3-2.5 3.6 2 1.2 9.2 1.1 11.7.9 17 .8 34.2-6 45.8-18.4-8-5.5-18.7-6.4-28.1-3.7-9.4 2.7-17.6 8.6-24.3 15.6-.5.6-2.1 1.5-2.6 2z" class="st4"/><path fill="#08492c" d="M233.7 147.2c.5-.5 2.1-1.4 2.6-1.9 6.8-7 15-12.9 24.3-15.6 4.5-1.3 9.3-1.8 14-1.3-5.4.2-10.8 1.6-15.5 4-8.5 4.3-15.3 11.4-20.5 19.4-2.9 0-6.1-.3-7.3-1-.7-.3 1-2.1 2.4-3.6z" opacity=".2"/><path d="M235.1 118.9c3.2-2.9 7.5-4.4 11.6-5.6 6.4-1.8 13-3.1 19.6-3.7-3.6 8-6.2 16-12.7 21.9-2.6 2.3-6.8 4.6-9.5 6.8-3.2 2.6-8.3 9.3-10.9 12.6-3 .6-5.3-3.7-6.6-6.7-1.7-3.8.2-9.6 1.5-13.5 1.6-4.4 3.6-8.7 7-11.8z" class="st4"/><path fill="#f5f7f9" d="M242.4 138.5c2.3-2.6 6-5.6 8.2-8.3 4.5-5.8 6-12.5 7.6-19.4 2.7-.5 5.4-.8 8.1-1.1-3.6 8-6.2 16-12.7 21.9-2.6 2.3-6.8 4.6-9.5 6.8-1.6 1.2-3.5 3.4-5.5 5.7 1.3-2.3 2.7-4.3 3.8-5.6z" opacity=".08"/><path d="M234.1 97.4c1.5 7.4 2.9 15 1.6 22.4-.5 3-1.5 5.9-2.4 8.8-1.1 3.8-1.7 6.1-2.7 9.9.8-.5-.8 1.8-1.6 3.1-.9 1.4-2.2 3.2-3.2 1.7-1.2-1.7-2.5-3.6-3-5.6-.6-2.4 0-6.4 0-8.9-.1-6.5-.1-13.1 2.1-19.2 1.8-4.8 5-9.1 9.2-12.2z" class="st4"/><path d="M283.9 134.7c-8.4-.3-16.7 0-24.9 2.3-7.7 2.2-14.7 5.8-21.1 10.7-.3.3-.7-.3-.3-.6 6.4-4.8 13.6-8.5 21.3-10.6 8.3-2.3 16.5-2.5 25-2 .1 0 .1.2 0 .2zM263.6 112.1c-6.8 3.2-13 7.4-18.4 12.7-5.8 5.7-9.7 12.5-14 19.2-.1.2-.4 0-.3-.2 7.4-13.9 17.9-25.7 32.7-31.9 0 0 .1.1 0 .2zM233.7 100.3c-4.4 13.2-9.6 25.8-6.6 40 .1.3-.4.4-.5.1-2.8-13.5 1.3-27.9 6.9-40.2.1 0 .2 0 .2.1z" class="st8"/><path d="M277.8 139.4c-.9-.9-1.8-1.9-2.8-2.7-1-.8-2.2-1.3-3.3-2-.1 0 0-.2.1-.2 2.3.9 4.7 2.8 6 4.9.1 0 .1.1 0 0zM271 142.7c-2.4-4.3-5.8-5.5-10.4-6.1-.4 0-.3-.5.1-.5 4.4.7 8.8 2 10.3 6.6.1.1.1.1 0 0zM262.6 143.3c-2.7-2.1-5.5-5.3-9.3-4.3-.2.1-.3-.2-.1-.3 3.8-1 6.9 2.1 9.5 4.5.1.1 0 .2-.1.1zM254.3 147.7c-2.5-3.2-6.2-6.1-10.4-3.9-.2.1-.5-.2-.2-.4 4.2-2.1 8.5.6 10.6 4.3.1 0 0 .1 0 0zM273.6 129.3c-.6 2.7-2.9 4.3-5.1 5.8-.2.1-.3-.2-.1-.3 2.2-1.4 4.3-2.9 5-5.6.1 0 .3 0 .2.1z" class="st8"/><path d="M264.7 129.9c-1 2.6-2.7 4.9-4.7 6.8-.2.2-.4-.1-.2-.2 2.1-1.9 3.5-4.1 4.9-6.6 0-.1 0 0 0 0zM257.2 132.9c-.5 1.3-1.1 2.4-1.9 3.5-.6.8-1.6 2.3-2.5 2.6-.1 0-.2 0-.2-.1l-.1-.1c-.1-.1-.1-.3 0-.4 0 0 .1 0 .1-.1h.3l.1.1c.1.1.1.2-.1.2-.3 0 1-1.4 1-1.4.4-.4.8-.8 1.1-1.3.8-1 1.5-2.1 2.1-3.2 0 .1.1.1.1.2zM250.9 136.1c-1.7 2.8-4.2 5.3-6.8 7.3-.3.2-.7-.2-.4-.4 2.7-2.1 4.8-4.5 7-7.1.1-.1.3.1.2.2zM259.6 121c-4.7-.3-8.7-.1-12.9 2.5-.3.2-.5-.3-.3-.4 3.7-2.4 8.9-3.8 13.2-2.3.2 0 .2.2 0 .2zM252.3 128.8c-2.3 0-4.4-.1-6.7.5-2 .5-3.9 1.2-5.9 1.9-.3.1-.4-.3-.1-.4 3.9-1.5 8.4-3.2 12.7-2.1v.1zM243.5 135.7c-1.6.1-3.2.2-4.7.5-1.8.3-3 1.2-4.2 2.6-.2.2-.5-.1-.3-.3 1.1-1.3 2.2-2.2 3.9-2.6 1.7-.4 3.5-.5 5.3-.4.1 0 .1.2 0 .2z" class="st8"/><path d="M250 115.5c-.1 1.7-1 3.4-1.7 4.9-.4 1-.8 2.7-2.1 2.9-.1 0-.2-.1-.1-.2 2.2-1.8 2.3-5.3 3.7-7.7.1 0 .2.1.2.1zM242.9 117.7c-.4 4.7-1.9 9.3-3.5 13.7-.1.2-.4.1-.3-.1 1.7-4.5 2.7-9 3.8-13.6-.2-.1 0-.1 0 0zM235.3 127.5c0 4-1 8-1.6 11.9 0 .3-.5.2-.5-.1.7-3.9 1.3-7.9 1.9-11.8 0-.1.2-.1.2 0zM235.1 107.8c-2.8 3.2-5.1 6.6-6.9 10.4-.1.3-.6 0-.5-.3 1.8-3.9 4.1-7.4 7.2-10.4.2-.1.4.1.2.3z" class="st8"/><path d="M226 108.5c1.3 3 1.6 6.9 1.8 10.1 0 .3-.4.3-.5 0-.1-1.9-.3-3.7-.6-5.6-.3-1.5-.7-3-.9-4.5 0-.1.2-.1.2 0zM231.2 119.9c-2.1 3.3-3.4 6.5-4.9 10.1 0 .1-.2 0-.2-.1.5-3.6 2.6-7.4 4.9-10.2.1 0 .2.1.2.2zM225.9 130.2c-.9-2.3-1.7-4.6-3-6.7-.1-.2.2-.3.3-.2 1.3 2 2.5 4.5 2.7 6.9.1 0 0 0 0 0z" class="st8"/></g></g><g id="Layer_7"><g id="XMLID_145_"><path id="XMLID_160_" fill="#f7f7f9" d="M174 151.9H72.7V31.1c0-.6.5-1.2 1.2-1.2h98.9c.6 0 1.2.5 1.2 1.2v120.8z"/><path id="XMLID_159_" d="M174 45.2V33.5c0-1.9-1.6-3.5-3.5-3.5H76.2c-1.9 0-3.5 1.6-3.5 3.5v11.7H174z" class="st10"/><path id="XMLID_158_" d="M87.3 51.5H160v39.4H87.3z" class="st11"/><path id="XMLID_157_" fill="#de4437" d="M91.3 83h63.3v2.4H91.3z" opacity=".1"/><path id="XMLID_156_" d="M91.3 83h35.6v2.4H91.3z" class="st13"/><path id="XMLID_155_" d="M156.9 99H90.3c-1.7 0-3 1.4-3 3 0 1.7 1.4 3 3 3h66.6c1.7 0 3-1.4 3-3 .1-1.6-1.3-3-3-3z" class="st14"/><path id="XMLID_154_" d="M157.2 112H90.6c-1.7 0-3 1.4-3 3 0 1.7 1.4 3 3 3h66.6c1.7 0 3-1.4 3-3 0-1.7-1.4-3-3-3z" class="st14"/><path id="XMLID_153_" d="M157.4 125H90.8c-1.7 0-3 1.4-3 3 0 1.7 1.4 3 3 3h66.6c1.7 0 3-1.4 3-3 0-1.7-1.3-3-3-3z" class="st14"/><path id="XMLID_152_" d="M157.6 138H91c-1.7 0-3 1.4-3 3 0 1.7 1.4 3 3 3h66.6c1.7 0 3-1.4 3-3 .1-1.7-1.3-3-3-3z" class="st14"/><path id="XMLID_151_" d="M84.6 37.5c0 1.1-.9 2-2 2s-2-.9-2-2 .9-2 2-2 2 .9 2 2z" class="st15"/><path id="XMLID_150_" d="M91.3 37.5c0 1.1-.9 2-2 2s-2-.9-2-2 .9-2 2-2 2 .9 2 2z" class="st15"/><path id="XMLID_149_" d="M98.1 37.5c0 1.1-.9 2-2 2s-2-.9-2-2 .9-2 2-2 2 .9 2 2z" class="st15"/><path id="XMLID_148_" fill="#414042" d="M170.5 29.9H166c1.9 0 3.5 1.6 3.5 3.5v118.5h4.5V33.4c0-1.9-1.6-3.5-3.5-3.5z" opacity=".2"/><circle id="XMLID_147_" cx="126.9" cy="84.2" r="2.7" class="st10"/><path id="XMLID_146_" d="M128.4 84.2c0 .8-.7 1.5-1.5 1.5s-1.5-.7-1.5-1.5.7-1.5 1.5-1.5c.9 0 1.5.7 1.5 1.5z" class="st13"/></g><path fill="#ffc107" d="M174 33.4v-2.3c0-.6-.5-1.2-1.2-1.2H153v12.9c0 2.6 2.1 4.6 4.6 4.6h7.8v27.7c0 19.1-6.2 37.6-17.7 52.9v14.9H139.4c-1.2 0-2.2 1-2.2 2.2v4.6c0 1.2 1 2.2 2.2 2.2H174V33.4z" opacity=".3"/><g id="XMLID_136_"><path id="XMLID_144_" d="M150.6 128H233v20.8h-82.4z" class="st13"/><path id="XMLID_143_" d="M233 128h-82.4c11.5-15.2 17.7-33.8 17.7-52.9V42.9h46.9v32.2c.1 19.1 6.3 37.7 17.8 52.9z" class="st18"/><path id="XMLID_142_" fill="#9496a4" d="M159.5 128h11.8v20.8h-11.8z"/><path id="XMLID_141_" fill="#f7c66f" d="M183.1 43h-5.9v32.2c0 19.1-6.2 37.6-17.7 52.9h11.8c11.5-15.2 11.8-33.8 11.8-52.9V43z"/><path id="XMLID_140_" fill="#231f20" d="M168.3 43h46.9v8.8h-46.9z" opacity=".3"/><path id="XMLID_139_" d="M212.4 1.9v10.8h-13.5V1.9c0-1-.8-1.9-1.9-1.9h-12c-1 0-1.9.8-1.9 1.9v10.8h-13.5V1.9c0-1-.8-1.9-1.9-1.9h-9.9c-1 0-1.9.8-1.9 1.9v40.8c0 2.6 2.1 4.6 4.6 4.6h60.8c2.6 0 4.6-2.1 4.6-4.6V1.9c0-1-.8-1.9-1.9-1.9h-9.9c-.9.1-1.7.9-1.7 1.9z" class="st18"/><path id="XMLID_138_" fill="#d69d0f" d="M241.2 151.9h-98.7c-1.2 0-2.2-1-2.2-2.2v-4.5c0-1.2 1-2.2 2.2-2.2h98.7c1.2 0 2.2 1 2.2 2.2v4.5c0 1.2-1 2.2-2.2 2.2z"/><path id="XMLID_137_" d="M241.2 142.9h-98.8c-1.2 0-2.2 1-2.2 2.2v2.5h103.2v-2.5c0-1.2-1-2.2-2.2-2.2z" class="st18"/></g><g id="XMLID_5_"><path id="XMLID_8_" d="M131.6 130h-44c-.3 0-.5-.2-.5-.5v-10.7c0-.3.2-.5.5-.5h44c.3 0 .5.2.5.5v10.7c0 .3-.3.5-.5.5z" class="st23"/><path d="M131.4 128.3H87.8c-.2 0-.5 0-.7-.1v1.4c0 .2.2.4.4.4h44.1c.2 0 .4-.2.4-.4v-1.4c-.1 0-.4.1-.6.1z" class="st24"/><path id="XMLID_7_" d="M110.6 118.3h10.7V130h-10.7z" class="st25"/><path id="XMLID_6_" d="M123.3 118.3h2.8V130h-2.8z" class="st25"/></g><g id="XMLID_1_"><path id="XMLID_4_" d="M129 140.9H85c-.3 0-.5-.2-.5-.5v-10.7c0-.3.2-.5.5-.5h44c.3 0 .5.2.5.5v10.7c0 .3-.3.5-.5.5z" class="st23"/><path d="M128.8 139.2H85.2c-.2 0-.5 0-.7-.1v1.4c0 .2.2.4.4.4H129c.2 0 .4-.2.4-.4v-1.4c-.1.1-.4.1-.6.1z" class="st24"/><path id="XMLID_3_" d="M108 129.3h10.7V141H108z" class="st25"/><path id="XMLID_2_" d="M120.7 129.2h2.8v11.7h-2.8z" class="st25"/></g><g id="XMLID_810_"><path id="XMLID_814_" d="M126.8 151.9h-44c-.3 0-.5-.2-.5-.5v-10.7c0-.3.2-.5.5-.5h44c.3 0 .5.2.5.5v10.7c0 .3-.2.5-.5.5z" class="st23"/><path d="M126.6 150.2H83c-.2 0-.5 0-.7-.1v1.4c0 .2.2.4.4.4h44.1c.2 0 .4-.2.4-.4v-1.4c-.1 0-.3.1-.6.1z" class="st24"/><path id="XMLID_812_" d="M105.9 140.2h10.7v11.7h-10.7z" class="st25"/><path id="XMLID_811_" d="M118.5 140.2h2.8v11.7h-2.8z" class="st25"/></g><path id="XMLID_135_" d="M135 68.8l-12 6.9c-.8.5-1.8-.1-1.8-1.1V60.7c0-.9 1-1.5 1.8-1.1l12 6.9c.9.7.9 1.8 0 2.3z" class="st10"/><path d="M71.7 26.2c-11.6 0-21 9.4-21 21s9.4 21 21 21 21-9.4 21-21-9.4-21-21-21z" class="st26"/><g id="XMLID_126_"><path id="XMLID_134_" d="M89.7 47.2c0 11.6-9.4 21-21 21s-21-9.4-21-21 9.4-21 21-21 21 9.4 21 21z" class="st23"/><path id="XMLID_133_" d="M87.4 47.2c0 10.3-8.4 18.7-18.7 18.7S50 57.5 50 47.2s8.4-18.7 18.7-18.7 18.7 8.4 18.7 18.7z" class="st3"/><path id="XMLID_132_" d="M85.2 47.2c0 9.1-7.4 16.5-16.5 16.5s-16.5-7.4-16.5-16.5 7.4-16.5 16.5-16.5 16.5 7.4 16.5 16.5z" class="st23"/><g id="XMLID_127_"><g id="XMLID_130_"><path id="XMLID_131_" d="M70.8 55.7h-6.1c-1.4 0-2.6-1.1-2.6-2.6v-1.3h3.6v.2h5c1 0 1.8-.8 1.8-1.8 0-.6-.5-1.1-1.1-1.1h-4.5c-2.6 0-4.8-2.1-4.8-4.8v-.7c0-3 2.4-5.4 5.4-5.4h6.1c1.4 0 2.6 1.1 2.6 2.6v1.5h-3.6v-.4h-5c-1 0-1.8.8-1.8 1.8v.7c0 .6.5 1.1 1.1 1.1h4.5c2.6 0 4.8 2.1 4.8 4.8 0 2.9-2.4 5.4-5.4 5.4z" class="st8"/></g><g id="XMLID_128_"><path id="XMLID_129_" d="M67.4 36.5H71v21.4h-3.6z" class="st8"/></g></g></g><path d="M127.3 151.4v-10.5h1.6c.2 0 .4-.2.4-.4V130h2.1c.2 0 .4-.2.4-.4V122.3h-9.1c-.2 0-.4.2-.4.4v2.1c0 .3.2.5.5.5h.4v7.2c0 .1 0 .2.1.4.1.3.3.6.5.8l.2.2 3 2.3c.4.3.4.8 0 1.1l-3 2.3c-.4.3-.7.9-.7 1.4v7.7h-.4c-.3 0-.5.2-.5.5v2.1c0 .2.2.4.4.4h3.8c.5.2.7 0 .7-.3z" class="st26"/><g id="XMLID_12_"><g id="XMLID_95_"><path id="XMLID_125_" fill="#fdfdfe" d="M166.4 151.9h-25.9c-3.1 0-5.6-2.5-5.6-5.6v-25.9c0-3.1 2.5-5.6 5.6-5.6h25.9c3.1 0 5.6 2.5 5.6 5.6v25.9c0 3.1-2.5 5.6-5.6 5.6z"/><path id="XMLID_124_" d="M166.6 114.7h-26.3c-3 0-5.5 2.4-5.5 5.5v5.7H172v-5.7c0-3.1-2.4-5.5-5.4-5.5z" class="st10"/><g id="XMLID_121_"><path id="XMLID_123_" d="M160.4 119.9c0 1.6-1.3 2.8-2.8 2.8-1.6 0-2.8-1.3-2.8-2.8 0-1.6 1.3-2.8 2.8-2.8 1.6 0 2.8 1.3 2.8 2.8z" class="st28"/><path id="XMLID_122_" d="M159.5 119.9c0 1.1-.9 1.9-1.9 1.9-1.1 0-1.9-.9-1.9-1.9 0-1.1.9-1.9 1.9-1.9 1.1 0 1.9.9 1.9 1.9z" class="st29"/></g><g id="XMLID_118_"><path id="XMLID_120_" d="M143.3 119.9c0 1.6-1.3 2.8-2.8 2.8-1.6 0-2.8-1.3-2.8-2.8 0-1.6 1.3-2.8 2.8-2.8s2.8 1.3 2.8 2.8z" class="st28"/><path id="XMLID_119_" d="M142.4 119.9c0 1.1-.9 1.9-1.9 1.9-1.1 0-1.9-.9-1.9-1.9 0-1.1.9-1.9 1.9-1.9s1.9.9 1.9 1.9z" class="st29"/></g><g id="XMLID_116_"><path id="XMLID_117_" d="M157.5 120.6c-.8 0-1.5-.7-1.5-1.5V114c0-2.7 2-5.1 4.6-5.3 3.1-.3 5.6 2.1 5.6 5.1v.9h-3v-.8c0-1.1-.8-2.1-1.9-2.2-1.3-.1-2.3.9-2.3 2.1v5.4c0 .7-.6 1.4-1.5 1.4z" class="st8"/></g><g id="XMLID_114_"><path id="XMLID_115_" d="M140.4 120.6c-.8 0-1.5-.7-1.5-1.5V114c0-2.7 2-5.1 4.6-5.3 3.1-.3 5.6 2.1 5.6 5.1v.9h-3v-.8c0-1.1-.8-2.1-1.9-2.2-1.3-.1-2.3.9-2.3 2.1v5.4c0 .7-.7 1.4-1.5 1.4z" class="st8"/></g><path id="XMLID_113_" fill="#8c98a4" d="M166.6 114.7h-2.8c3 0 5.5 2.4 5.5 5.5v26.3c0 3-2.4 5.5-5.5 5.5h2.7c3 0 5.5-2.4 5.5-5.5v-26.3c0-3.1-2.4-5.5-5.4-5.5z" opacity=".3"/><path id="XMLID_112_" d="M153.7 132.3h-2.8c-.3 0-.5-.2-.5-.5V129c0-.3.2-.5.5-.5h2.8c.3 0 .5.2.5.5v2.8c0 .3-.2.5-.5.5z" class="st11"/><path id="XMLID_111_" d="M159.8 132.3H157c-.3 0-.5-.2-.5-.5V129c0-.3.2-.5.5-.5h2.8c.3 0 .5.2.5.5v2.8c0 .3-.2.5-.5.5z" class="st11"/><path id="XMLID_110_" d="M165.9 132.3h-2.8c-.3 0-.5-.2-.5-.5V129c0-.3.2-.5.5-.5h2.8c.3 0 .5.2.5.5v2.8c0 .3-.2.5-.5.5z" class="st11"/><path id="XMLID_109_" d="M141.5 137.8h-2.8c-.3 0-.5-.2-.5-.5v-2.8c0-.3.2-.5.5-.5h2.8c.3 0 .5.2.5.5v2.8c0 .3-.2.5-.5.5z" class="st11"/><path id="XMLID_107_" d="M147.6 137.8h-2.8c-.3 0-.5-.2-.5-.5v-2.8c0-.3.2-.5.5-.5h2.8c.3 0 .5.2.5.5v2.8c0 .3-.2.5-.5.5z" class="st11"/><path id="XMLID_106_" d="M153.7 137.8h-2.8c-.3 0-.5-.2-.5-.5v-2.8c0-.3.2-.5.5-.5h2.8c.3 0 .5.2.5.5v2.8c0 .3-.2.5-.5.5z" class="st11"/><path id="XMLID_105_" d="M159.8 137.8H157c-.3 0-.5-.2-.5-.5v-2.8c0-.3.2-.5.5-.5h2.8c.3 0 .5.2.5.5v2.8c0 .3-.2.5-.5.5z" class="st11"/><path id="XMLID_104_" d="M165.9 137.8h-2.8c-.3 0-.5-.2-.5-.5v-2.8c0-.3.2-.5.5-.5h2.8c.3 0 .5.2.5.5v2.8c0 .3-.2.5-.5.5z" class="st11"/><path id="XMLID_103_" d="M141.5 143.3h-2.8c-.3 0-.5-.2-.5-.5V140c0-.3.2-.5.5-.5h2.8c.3 0 .5.2.5.5v2.8c0 .3-.2.5-.5.5z" class="st11"/><path id="XMLID_102_" d="M147.6 143.3h-2.8c-.3 0-.5-.2-.5-.5V140c0-.3.2-.5.5-.5h2.8c.3 0 .5.2.5.5v2.8c0 .3-.2.5-.5.5z" class="st11"/><path id="XMLID_101_" d="M153.7 143.3h-2.8c-.3 0-.5-.2-.5-.5V140c0-.3.2-.5.5-.5h2.8c.3 0 .5.2.5.5v2.8c0 .3-.2.5-.5.5z" class="st11"/><path id="XMLID_100_" d="M159.8 143.3H157c-.3 0-.5-.2-.5-.5V140c0-.3.2-.5.5-.5h2.8c.3 0 .5.2.5.5v2.8c0 .3-.2.5-.5.5z" class="st11"/><path id="XMLID_99_" d="M165.9 143.3h-2.8c-.3 0-.5-.2-.5-.5V140c0-.3.2-.5.5-.5h2.8c.3 0 .5.2.5.5v2.8c0 .3-.2.5-.5.5z" class="st11"/><path id="XMLID_98_" d="M141.5 148.8h-2.8c-.3 0-.5-.2-.5-.5v-2.8c0-.3.2-.5.5-.5h2.8c.3 0 .5.2.5.5v2.8c0 .3-.2.5-.5.5z" class="st11"/><path id="XMLID_97_" d="M147.6 148.8h-2.8c-.3 0-.5-.2-.5-.5v-2.8c0-.3.2-.5.5-.5h2.8c.3 0 .5.2.5.5v2.8c0 .3-.2.5-.5.5z" class="st11"/><path id="XMLID_96_" d="M153.7 148.8h-2.8c-.3 0-.5-.2-.5-.5v-2.8c0-.3.2-.5.5-.5h2.8c.3 0 .5.2.5.5v2.8c0 .3-.2.5-.5.5z" class="st11"/></g><g id="XMLID_93_" class="st31"><path id="XMLID_94_" d="M141.6 151.5v-2c0-.3-.3-.6-.6-.6h-.2v-7.7c0-.4-.2-.8-.4-1.1l-.3-.3-3-2.3c-.1-.1-.2-.2-.2-.3s-.1-.2-.1-.3c0-.2.1-.4.3-.5l3-2.3.3-.3c.1-.1.2-.2.2-.4.1-.3.2-.5.2-.8v-7.2h.2c.3 0 .6-.3.6-.6V122.8c0-.2-.2-.4-.4-.4h-6.4v24.5c0 2.8 2.3 5.1 5.1 5.1h1.3c.2-.1.4-.3.4-.5z" class="st32"/></g><g id="XMLID_13_"><g id="XMLID_33_"><g id="XMLID_91_"><path id="XMLID_92_" fill="#fbfcfd" d="M126 150v-8.9c0-.5.3-1.1.7-1.4l3-2.3c.4-.3.4-.8 0-1.1l-3-2.3c-.4-.3-.7-.9-.7-1.4v-8.5h13.5v8.5c0 .5-.3 1.1-.7 1.4l-3 2.3c-.4.3-.4.8 0 1.1l3 2.3c.4.3.7.9.7 1.4v8.9H126z"/></g><g id="XMLID_89_"><path id="XMLID_90_" fill="#eceff6" d="M128.2 139.7l3-2.3c.4-.3.4-.8 0-1.1l-3-2.3c-.4-.3-.7-.9-.7-1.4v-8.5H126v8.5c0 .5.3 1.1.7 1.4l3 2.3c.4.3.4.8 0 1.1l-3 2.3c-.4.3-.7.9-.7 1.4v8.9h1.5v-8.9c0-.4.3-1.1.7-1.4z"/></g><g id="XMLID_87_" opacity=".39"><path id="XMLID_88_" fill="#f9fafc" d="M138.8 134c.4-.3.7-.9.7-1.4v-8.5h-1.8v8.5c0 .5-.3 1.1-.7 1.4l-3 2.3c-.4.3-.4.8 0 1.1l3 2.3c.4.3.7.9.7 1.4v8.9h1.8v-8.9c0-.5-.3-1.1-.7-1.4l-3-2.3c-.4-.3-.4-.8 0-1.1l3-2.3z"/></g><g id="XMLID_85_"><path id="XMLID_86_" d="M127.5 149.1h10.3v-4c0-.8-.5-1.6-1.2-2l-3-1.5c-.7-.4-1.5-.3-2.2 0l-2.7 1.5c-.7.4-1.2 1.2-1.2 2v4z" class="st23"/></g><g id="XMLID_83_" class="st31"><path id="XMLID_84_" d="M126 124.1h13.5v2.2H126z" class="st32"/></g><g id="XMLID_81_"><path id="XMLID_82_" d="M139.8 125.3h-14.2c-.3 0-.5-.2-.5-.5v-2c0-.3.2-.5.5-.5h14.2c.3 0 .5.2.5.5v2c0 .3-.2.5-.5.5z" class="st37"/></g><g id="XMLID_79_"><path id="XMLID_80_" fill="#797ba5" d="M139.9 122.2h-14.5c-.2 0-.4.2-.4.4v.6h15.2v-.6c.1-.2-.1-.4-.3-.4z"/></g><g id="XMLID_42_" class="st31"><path id="XMLID_43_" d="M126 147.9h13.5v2H126z" class="st32"/></g><g id="XMLID_40_"><path id="XMLID_41_" d="M139.9 151.9h-14.2c-.3 0-.5-.2-.5-.5v-2c0-.3.2-.5.5-.5h14.2c.3 0 .5.2.5.5v2c0 .3-.3.5-.5.5z" class="st37"/></g><g id="XMLID_38_"><path id="XMLID_39_" fill="#41446b" d="M125.1 150.9v.6c0 .2.2.4.4.4H140c.2 0 .4-.2.4-.4v-.6h-15.3z"/></g><g id="XMLID_36_"><path id="XMLID_37_" d="M132.6 139.4h-.3c-.3 0-.5-.2-.5-.5v-1c0-.3.2-.5.5-.5h.3c.3 0 .5.2.5.5v1c0 .3-.2.5-.5.5z" class="st23"/></g><g id="XMLID_34_"><path id="XMLID_35_" d="M132.6 131.7c-2 0-3.8-.8-5.1-2.2v2c0 .9.5 1.7 1.2 2.1l2.5 1.4c.3.2.5.5.5.9v.6c0 .3.3.6.6.6s.6-.3.6-.6v-.6c0-.4.2-.8.6-.9l2.8-1.4c.8-.4 1.3-1.3 1.3-2.2v-2.1c-1.1 1.5-2.9 2.4-5 2.4z" class="st23"/></g></g><g id="XMLID_14_"><g id="XMLID_31_"><path id="XMLID_32_" d="M146.4 136.6h-.8c-.2 0-.4-.2-.4-.4s.2-.4.4-.4h.8c.2 0 .4.2.4.4s-.1.4-.4.4z" class="st28"/></g><g id="XMLID_29_"><path id="XMLID_30_" d="M146.9 139.3h-.1l-1.6-.4c-.2-.1-.3-.3-.3-.5.1-.2.3-.3.5-.3l1.6.4c.2.1.3.3.3.5-.1.2-.2.3-.4.3z" class="st28"/></g><g id="XMLID_27_"><path id="XMLID_28_" d="M145.1 141.5c-.1 0-.1 0-.2-.1l-.7-.4c-.2-.1-.3-.3-.1-.5.1-.2.3-.3.5-.1l.7.4c.2.1.3.3.1.5 0 .1-.2.2-.3.2z" class="st28"/></g><g id="XMLID_25_"><path id="XMLID_26_" d="M144.1 144.2c-.1 0-.2 0-.3-.1l-1.2-1.2c-.2-.2-.2-.4 0-.6.2-.2.4-.2.6 0l1.2 1.2c.2.2.2.4 0 .6-.1 0-.2.1-.3.1z" class="st28"/></g><g id="XMLID_23_"><path id="XMLID_24_" d="M141.5 145.1c-.1 0-.3-.1-.3-.2l-.4-.7c-.1-.2 0-.4.1-.5.2-.1.4 0 .5.1l.4.7c.1.2 0 .4-.1.5s-.1.1-.2.1z" class="st28"/></g><g id="XMLID_21_"><path id="XMLID_22_" d="M141.1 128.7c-.1 0-.1 0-.2-.1-.2-.1-.3-.3-.1-.5l.4-.7c.1-.2.3-.3.5-.1.2.1.3.3.1.5l-.4.7c-.1.2-.2.2-.3.2z" class="st28"/></g><g id="XMLID_19_"><path id="XMLID_20_" d="M143 130.2c-.1 0-.2 0-.3-.1-.2-.2-.2-.4 0-.6l1.2-1.2c.2-.2.4-.2.6 0 .2.2.2.4 0 .6l-1.2 1.2c-.1 0-.2.1-.3.1z" class="st28"/></g><g id="XMLID_17_"><path id="XMLID_18_" d="M144.4 132c-.1 0-.3-.1-.3-.2-.1-.2 0-.4.1-.5l.7-.4c.2-.1.4 0 .5.1.1.2 0 .4-.1.5l-.7.4c-.1.1-.1.1-.2.1z" class="st28"/></g><g id="XMLID_15_"><path id="XMLID_16_" d="M145.3 134.2c-.2 0-.3-.1-.4-.3-.1-.2.1-.4.3-.5l1.6-.4c.2-.1.4.1.5.3.1.2-.1.4-.3.5l-1.6.4h-.1z" class="st28"/></g></g></g></g></g><g id="Layer_8"><path d="M256.7 45.8h7.5v12.3h-7.5z" class="st40" transform="rotate(-41.306 260.485 51.961)"/><path d="M263.3 49.4l-3.7 7.1-6-6.7 5.6-5z" class="st26"/><path d="M262.8 48.8l-7.2 6.3c-2.2 1.9-5.6 1.7-7.5-.5l-2.4-2.8-1.7.9-.5-5.5c-1.8-.1-3.4-1.1-4.3-2.7l1.3-1.5 5.8-5.1c2.2-1.9 5.5-1.7 7.4.5l9.1 10.4z" class="st41"/><path d="M285.6 136.8l1.8 4.3-3.1 5H295v-3.9l-3.2-6.1zM346.1 136.5l3.2 2.9-.5 5.3 8.8-4.4-1.5-3.1-5.1-3.8z" class="st40"/><path d="M289.1 85.7l-19.3 19.4c-.9.9-1.1 2.2-.5 3.3l16.1 31.5 7.8-1.9s-7.2-23.5-11.1-29.3l23.8-15.3-16.8-7.7z" class="st42"/><path d="M289.1 85.7l-3.1 3.2-2 18.6 21.8-14.1z" class="st26"/><path d="M304.3 74.9s7.2 2 10.2 6.9l4 9.5 15.5 19.1s9.6 4.8 19.9 23.3l-6.4 5.7-20.5-20.5-26.4-22.6-10.7-6.2 14.4-15.2z" class="st42"/><path d="M261.5 55.6l-14 7-25.7 1-3.8-5-3-10.2c-.6 1-.9 2.1-.8 3.3l.7 5.5 1 6.3 2.5 4.1 30.5 2 13.6-5-1-9z" class="st40"/><path d="M290.3 89.7c1 .9 1.6 1.4 1.6 1.5 10.2-.9 14.3-10.4 15.7-15-1.9-.9-3.4-1.3-3.4-1.3l-13.9 14.8z" class="st26"/><path d="M264.1 50.2s6.7-2.7 12.3 1.3c0 0 21.8 20.5 29.3 22.2 0 0-2.8 16.3-16.3 17.5 0 0-5-5-14.5-10.3 0 0-12.8-6.2-16.7-22.3l5.9-8.4z" class="st13"/><path d="M294.2 143.4l-1.6 1.7-4.7.1-2.5-3-4.4 4.6-9.7.7v2.4l1.8 1.5H296v-8.1zM349 140.5l-1.7 4.5-2.1 2.4-4.3 1.6v2.1l2.4.8h9l8-8.8-4-6.3-1.2 1v1.8l-2.8 2.3z" class="st23"/><path d="M248.8 69.7l10.2-3.8-2.4-6.1-7.7 2.1-1.4.7-25.7 1-.8-1h-2.2l-3.8-5-.2-.9v.5l1 6.4 2.1 3.4 12.9 1.5zM267.7 56.2l-9.1 3.6c1.3 4.8 3.4 8.6 5.6 11.7l6.9-7.9c2.4-1 2.6-2.2 1.7-4.6h1c-.9-2.6-3.7-3.8-6.1-2.8z" class="st26"/><path d="M271.2 64l-11.5 4.5-3.5-8.8 11.5-4.5c2.4-1 5.2.2 6.1 2.7 1 2.4-.2 5.1-2.6 6.1z" class="st13"/><path d="M256.6 60.8l-10.3 2.8h-27.5l-3.8-5-3-10.2c-.6 1-.9 2.1-.8 3.3l.7 5.5.9 5.9c0 .3.2.6.3.9l2.3 3.7 31.7 3.8 12.3-3.8-2.8-6.9z" class="st40"/><path d="M295.9 150.1l-10.8-4h10.8zM359.8 142.3l-2.8 3-8.2-.2 6.2-2.8 2.9-3z" class="st43"/><linearGradient id="SVGID_1_" x1="237.818" x2="264.444" y1="174.466" y2="174.466" gradientTransform="matrix(1 0 0 -1 0 214.8)" gradientUnits="userSpaceOnUse"><stop offset="0" stop-color="#ffc107"/><stop offset="1" stop-color="#dc735c"/></linearGradient><path fill="url(#SVGID_1_)" d="M262.3 40.8c-.2-.2-.4-.5-.5-.7-.7-1-1.2-1.8-1.6-2.9-.2-.6-.4-1.2-.8-1.6-1.3-1.4-3.9-2-5.7-2.4-2.4-.4-4.8-1.9-7.1-1.1-.7.3-1.3.7-2 1.2-1.4 1-2.9 1.9-3.8 3.4-.4.6-.5 1.2-1.1 1.6-.5.4-1.2.6-1.5 1.2-.8 1.2-.3 2.7.1 4 .4 1.2.9 2.5 1.3 3.7.9-.5 1.2-1.5 1.7-2.3.8-1.2 3.7-3.3 5.2-2.7 1 .4 1.3 1.6 2 2.3.8.8 2.1 1.1 2.7 2.1.4.6.5 1.6 1.2 1.8-.3-.1-.4-2.1-.4-2.4 0-.8-.2-1.4-.3-2.2-.1-.5 0-1 .3-1.3.2-.2.5-.2.7-.4.1-.1.2-.2.3-.2.2-.1.5 0 .7.1 1.3.6 1.3 1.7 1.4 3 .2.1.4-.1.6-.2s.3-.1.5-.1c.9-.1 1.8-.2 2.6.4.9.7 1.3 1.5 1.7 2.5.2.4.5.9 1 1.1.2.1.4.1.6.1h1.2c.2 0 .4-.1.5-.2 1.2-.9-.2-2.6 0-3.7.1-.4.3-.7.6-.9-.4-.3-1.2-.4-1.5-.8-.2-.2 0-1.8.3-1.6-.2-.1-.5-.3-.7-.4 0-.1-.1-.2-.2-.4z"/></g><g id="Layer_9"><path d="M53.4 61.6l14 6.6c.4 0 .9.1 1.3.1 1.8 0 3.6-.3 5.2-.7h-.7l-1.5-.1 1.4-1.4c.4-.2.5-.7.3-1.1-.2-.4-.7-.5-1.1-.3l-2.7 1.4-15.7-9.8-4.1-4.6c-.1-.4-.2-.7-.3-.9 0 0-.6-2.8-1.7-6-.1.8-.2 1.6-.2 2.5.1 5.5 2.3 10.6 5.8 14.3.1.1.1 0 0 0z" class="st26"/><path d="M61.7 139.2h3.5v3.9h-3.5z" class="st40"/><path d="M26.2 137.4h3.9v3.5h-3.9z" class="st40" transform="rotate(-63.807 28.126 139.136)"/><path d="M36 73.4l5.9 12.8 12.3 18.6 5.6 35.7H67l-2.4-33.7-7.4-24.1-1.8-9.3z" class="st45"/><g class="st31"><path d="M39.6 81.2l16.8-2.6.8 4 .9 2.8c-1.9 4.9-3.8 11.7-4 19.2L41.8 86.1l-2.2-4.9z" class="st8"/></g><path d="M28.9 25.7h7.4v8.6h-7.4z" class="st40"/><path d="M28.8 30.5l7.5-2.7v-2.1h-7.5z" class="st26"/><path d="M37.6 30l-10 2.5v1.9s-3.9 5.2-3.7 7.9c.2 2.7 10.5 30 12 31h19.4S47.5 52.9 47 50.7c0 0-2.4-11-6.6-14.3 0 0-1.3-2.1-2.5-2.8.1.1-1.1-1.2-.3-3.6z" class="st46"/><path fill="#272834" d="M36.5 53.6l5.8-7.5-5.3-4.6c-1.8-1.9-4.8-1.9-6.7-.1-1.9 1.8-1.9 4.8-.1 6.7l6.3 5.5z" opacity=".3"/><path d="M37.3 52.7l5.7-7.5-7-5.4c-1.5-1.2-3.7-.9-4.9.7l-1.5 1.9c-1.2 1.5-.9 3.7.7 4.9l7 5.4z" class="st46"/><path d="M49.4 57.4c.8 2.3 1.8 4.8 2.7 7.2l-4.4-2.1-11.2-9 4.3-5.7 8.6 9.6z" class="st26"/><path d="M67.5 69.4l-18.3-8.6-11.2-9 4.3-5.7 9.1 10.2L68 66.7l-.6.8 3.3.1c1.4.1 5.3-.5 6.8 1.1l-6.7.7h-3.3z" class="st40"/><path d="M36 73.4s-1.2 5.7 0 9.4 2.9 5.9 2.9 5.9l-1.7 18.1-12.8 30.9 6.9 2.1 15-27 10.8-31-1.7-8.5-19.4.1z" class="st45"/><path d="M25.9 27.6h10.7c1.7 0 3-1.4 3-3v-3.5h2.2c.5-3.6-2.9-6.2-3.4-8-.9-2.8 1.2-3.7 1.2-3.7H25.9v18.2z" class="st41"/><path d="M34.9 72.3h21.4v3H34.9z" class="st48"/><path d="M68.4 68.3l2.2-2.1c.4-.2.5-.7.3-1.1-.2-.4-.7-.5-1.1-.3l-2.9 1.5c-.4.2-.5.7-.3 1.1.3.2 1.4 1.1 1.8.9z" class="st40"/><path d="M60.4 141.9h6.5l2.7 3h5.5c3.5 0 6.7 2 8.3 5.1H60.5l-.1-8.1z" class="st28"/><path d="M61.7 145.9c0 1.1.9 2 2 2s2-.9 2-2-.9-2-2-2-2 .9-2 2z" class="st15"/><path d="M59.6 150h24.7v1.9H59.6z" class="st23"/><path d="M24.5 138.8l6 2.5 1.3 3.8 6.5.1c3.2 1.3 4.1 1.4 4.3 4.9H30.5l-9.2-3.9 3.2-7.4z" class="st28"/><path d="M24 143c-.4 1 .1 2.2 1.1 2.7 1 .4 2.2-.1 2.7-1.1.4-1-.1-2.2-1.1-2.7-1-.4-2.2.1-2.7 1.1z" class="st15"/><path d="M29.5 149.8H43v1.9H29.5z" class="st23"/><path d="M24.4 143.8h1.9v10.1h-1.9z" class="st23" transform="rotate(-66.814 25.302 148.894)"/><path d="M39.7 21c-2.2 0-3.4 1.4-4.9 2.1-.7.3-2.2.7-2.6 0-.6-.9-.1-3.1 0-4.1s.3-3.5.7-4.3c.4-.9 1.3-1.9 2.2-2.3.5-.2 1-.3 1.5-.2.8.1 1.1.4 1.9.1s1.5-1 2-1.7c.3-.4.5-1 .4-1.5-.1-.7-.6-1.2-1.2-1.5-1.4-.8-2.6-.5-4.1 0-.7.2-1.5.3-2-.2-.2-.2-.3-.4-.5-.6-.9-1.1-2.7-1.2-3.7-.3-1 1-1.3 1.7-2.7 2.2-.9.3-2 .7-2.6 1.5-.9 1.4.2 2.1.4 3.4.1.6-.3 1.1-.7 1.6-.6 1-.9 3.7-.7 4.9.1.5.3 1.1.8 1.4 1 .8.9 1.9.9 3.2 0 1-.9 1.5-.9 2.4-.1 1.9 2.8 1.9 3.4.3.8-1.9.1-4.2.2-6.3 0-1.2 1.2-2.6 2.5-1.8.7.5.7 1.3.6 2-.1 1.1-.1 2.2-.1 3.4-.1 1.7-.7 3.9 1.1 5 1.6.9 3 .4 4.7.3.8 0 1.7 0 2.4-.5.9-.6 1.2-1.6 1.6-2.6.2-.7.4-1.4.6-2s.4-1.3.4-2c-.2-.8-.9-1.9-1.6-1.9z" class="st48"/></g></svg>