<svg xmlns="http://www.w3.org/2000/svg" id="Graphics" viewBox="0 0 383.2 193.4"><style>.st0{fill:#00c9a7}.st1{fill:none;stroke:#1e2022;stroke-miterlimit:10}.st2{fill:#377dff}.st3{fill:#fff}.st4{fill:#d8d8d8}.st5{fill:#ececec}.st6{fill:#b7d2f9}.st7{fill:#f2f3f7}.st8{fill:#dfe2ec}.st11{fill:#de4437}.st13{fill:#fec55e}.st14{opacity:.2;fill:#231f20;enable-background:new}.st16{fill:#4d5068}.st18{fill:#9e9e9e}.st19{fill:#c5c5c5}.st20{fill:#8184c4}.st21{opacity:.3;fill:#414042;enable-background:new}.st22{fill:#212121}.st23{fill:#fed17e}.st24{fill:#f1f2f2}.st25{fill:#414042}.st26{fill:#191c3c}.st29{opacity:.3}.st33{opacity:.2;fill:#191c3c;enable-background:new}.st34{fill:#fcd991}.st35{opacity:.3;fill:#231f20;enable-background:new}.st37{fill:#575a8f}.st39{opacity:.3;fill:#191c3c;enable-background:new}.st41{fill:#6371c5}.st43{fill:#ddb758}.st44{fill:#093a66}.st45{fill:#272834}.st46{fill:#efdcb4}.st51{fill:#e2c076}.st54{fill:#db6767}</style><g id="Layer_13"><path d="M58.7 102.7c-.1 0-.2.1-.3.1-2.7 1.3-4.2 1.1-6.8-.1-2.5-1.1-4.8-2.5-6.9-4.3-2.6-2.3-4.6-5.3-5-8.7-.1-.8-.1-1.6.4-2.2.6-.9 1.9-1 2.9-.6s1.8 1.1 2.5 1.9c.3.3.7.6 1.1.7.4.1 1 0 1.2-.4.4-.6-.3-1.3-.8-1.8-1.3-1.1-2.5-1.7-3.8-2.6-1.7-1.2-3.2-2.6-4.2-4.5-.9-1.8-1.1-4.1-.2-5.9.3-.6.7-1.1 1.2-1.4.9-.6 2.1-.6 3.2-.3 1.1.2 2.1.6 3.2.8 2.6.3 3.6-1.6 3.6-4 0-1.6-.6-3.2-.6-4.8-.2-2.8 1.2-5.8 3.8-7.1 2.6-1.2 6.1-.1 7.1 2.6 1 2.9-1.3 6.2.2 9 .5.9 1.6 2.2 2.5 2.7 1.4.9 3.5-.2 5.2-.1.4 0 .8.1 1 .3s.3.5.3.7c.4 2-.3 4.2-1.9 5.6-1.7 1.6-4.7 2.4-5.4 4.8-.5 1.5-.3 5.3 2.2 4.9.9-.1 1.5-1 2.4-1.3 1.1-.4 2.3.4 2.8 1.4s.3 2.3-.1 3.3c-.7 1.7-1.9 3-3.2 4.3-2.5 2.8-4.2 5.4-7.6 7z" class="st0"/><path d="M55.1 67.3v74.2M62 77.5l-6.9 6.9-6.9-6.9M62 91.4l-6.9 6.8-6.9-6.8" class="st1"/><g><path d="M369.3 145.3c-.1.1-.2.1-.3.2-3.4 1.6-5.1 1.3-8.4-.2-3-1.4-5.9-3-8.4-5.2-3.2-2.8-5.6-6.6-6.1-10.8-.1-.9-.1-2 .4-2.7.8-1 2.3-1.2 3.5-.7s2.2 1.4 3.1 2.3c.4.4.8.7 1.4.9.5.1 1.2 0 1.5-.5.4-.8-.3-1.7-1-2.2-1.6-1.3-3-2.1-4.7-3.2-2.1-1.5-4-3.2-5.1-5.5s-1.4-5.1-.2-7.3c.4-.7.9-1.3 1.5-1.7 1.2-.7 2.6-.7 4-.4 1.3.3 2.6.8 4 .9 3.2.3 4.5-1.9 4.4-4.9 0-2-.7-3.9-.8-5.9-.2-3.5 1.5-7.2 4.7-8.7 3.1-1.5 7.5-.1 8.7 3.2 1.2 3.6-1.6 7.6.3 11 .6 1.1 2 2.7 3 3.3 1.8 1.1 4.3-.2 6.3-.1.5 0 .9.1 1.3.4.2.2.3.6.4.9.5 2.5-.4 5.2-2.3 6.9-2.1 1.9-5.8 2.9-6.7 5.9-.6 1.9-.3 6.6 2.7 6.1 1.1-.2 1.9-1.3 2.9-1.6 1.3-.4 2.9.4 3.4 1.7.6 1.3.4 2.8-.1 4.1-.8 2.1-2.4 3.7-3.9 5.3-3.2 3.3-5.3 6.5-9.5 8.5z" class="st0"/><path d="M364.9 101.7V193M373.3 114.4l-8.4 8.4-8.5-8.4M373.3 131.3l-8.4 8.5-8.5-8.5" class="st1"/></g></g><g id="Layer_14"><g id="XMLID_79_"><path id="XMLID_802_" d="M124.1 183.5H6.8V111c0-.7.6-1.3 1.3-1.3h114.8c.7 0 1.3.6 1.3 1.3v72.5h-.1z" class="st2"/><path id="XMLID_799_" d="M12.8 116.4h105.3v61.1H12.8z" class="st3"/><path id="XMLID_76_" d="M131 186.8H0c3.7 3.7 8.8 5.8 14.1 5.8H117c5.2 0 10.2-2.1 14-5.8z" class="st4"/><path id="XMLID_75_" d="M0 183.1h131v3.7H0z" class="st5"/><path id="XMLID_77_" d="M73.6 186H57.4c-.6 0-1-.5-1-1 0-.6.5-1 1-1h16.2c.6 0 1 .5 1 1s-.5 1-1 1z" class="st4"/><path id="XMLID_80_" d="M35.8 134.9H23.2c-1.2 0-2.1-1-2.1-2.1 0-1.2 1-2.1 2.1-2.1h12.7c1.2 0 2.1 1 2.1 2.1 0 1.2-1 2.1-2.2 2.1z" class="st6"/><path id="XMLID_84_" d="M61.4 146.5H42.8c-1.2 0-2.1-1-2.1-2.1 0-1.2 1-2.1 2.1-2.1h18.6c1.2 0 2.1 1 2.1 2.1 0 1.2-1 2.1-2.1 2.1z" class="st7"/><path id="XMLID_87_" d="M75.9 146.5h-7.2c-1.2 0-2.1-1-2.1-2.1 0-1.2 1-2.1 2.1-2.1h7.2c1.2 0 2.1 1 2.1 2.1.1 1.2-.9 2.1-2.1 2.1z" class="st6"/><path id="XMLID_85_" d="M61.4 158.1h-30c-1.2 0-2.1-1-2.1-2.1 0-1.2 1-2.1 2.1-2.1h30c1.2 0 2.1 1 2.1 2.1 0 1.2-1 2.1-2.1 2.1z" class="st7"/><path id="XMLID_88_" d="M69.5 158.1h40c1.2 0 2.1-1 2.1-2.1 0-1.2-1-2.1-2.1-2.1h-40c-1.2 0-2.1 1-2.1 2.1 0 1.2.9 2.1 2.1 2.1z" class="st7"/><path id="XMLID_86_" d="M40.1 169.8h-17c-1.2 0-2.1-1-2.1-2.1 0-1.2 1-2.1 2.1-2.1h17c1.2 0 2.1 1 2.1 2.1.1 1.1-.9 2.1-2.1 2.1z" class="st7"/><path id="XMLID_89_" d="M47.3 169.8h5.5c1.2 0 2.1-1 2.1-2.1 0-1.2-1-2.1-2.1-2.1h-5.5c-1.2 0-2.1 1-2.1 2.1s.9 2.1 2.1 2.1z" class="st8"/><path id="XMLID_90_" d="M59.9 169.8h41.3c1.2 0 2.1-1 2.1-2.1 0-1.2-1-2.1-2.1-2.1H59.9c-1.2 0-2.1 1-2.1 2.1s1 2.1 2.1 2.1z" class="st7"/><path id="XMLID_83_" d="M75.9 134.9H44.4c-1.2 0-2.1-1-2.1-2.1 0-1.2 1-2.1 2.1-2.1h31.5c1.2 0 2.1 1 2.1 2.1.1 1.2-.9 2.1-2.1 2.1z" class="st7"/><path id="XMLID_91_" d="M83.1 134.9h11.1c1.2 0 2.1-1 2.1-2.1 0-1.2-1-2.1-2.1-2.1H83.1c-1.2 0-2.1 1-2.1 2.1 0 1.2.9 2.1 2.1 2.1z" class="st7"/></g></g><g id="Layer_7"><path d="M289.8 193.4h-185V5.1c0-2.8 2.3-5.1 5.1-5.1h174.7c2.8 0 5.1 2.3 5.1 5.1v188.3h.1z" class="st6"/><path fill="#f3f4f9" d="M111.6 30.2h172.2v163.2H111.6z"/><path fill="#e7eaf3" d="M126.9 42.2h141.5v54.4H126.9z"/><path d="M168.3 42.2h100.2v54.4H168.3z" class="st2"/><path d="M126.9 42.2h141.6v23.3H126.9z" class="st2"/><path d="M160.7 81.1c-1.5 0-2.7-1.2-2.7-2.7V60.5c0-1.5 1.2-2.7 2.7-2.7 1.5 0 2.7 1.2 2.7 2.7v17.9c0 1.5-1.2 2.7-2.7 2.7zM150.2 74.2c-1.5 0-2.7-1.2-2.7-2.7V60.7c0-1.5 1.2-2.7 2.7-2.7 1.5 0 2.7 1.2 2.7 2.7v10.8c0 1.5-1.2 2.7-2.7 2.7z" class="st2"/><path d="M155.5 54.7c-1.5 0-2.7 1.2-2.7 2.7v11c.1-1.4 1.2-2.5 2.6-2.5 1.4 0 2.5 1.1 2.6 2.5v-11c.1-1.5-1.1-2.7-2.5-2.7zM165.9 56.4c-1.5 0-2.7 1.2-2.7 2.7v11c.1-1.4 1.2-2.5 2.6-2.5s2.5 1.1 2.6 2.5V59c.1-1.4-1-2.6-2.5-2.6z" class="st2"/><path d="M154.9 12.8h92.3v7.6h-92.3z" class="st3"/><path d="M276.3 14h-7c-.5 0-.9-.4-.9-.9s.4-.9.9-.9h7c.5 0 .9.4.9.9s-.4.9-.9.9zM276.3 17.5h-7c-.5 0-.9-.4-.9-.9s.4-.9.9-.9h7c.5 0 .9.4.9.9s-.4.9-.9.9zM276.3 20.9h-7c-.5 0-.9-.4-.9-.9s.4-.9.9-.9h7c.5 0 .9.4.9.9s-.4.9-.9.9z" class="st2"/><circle cx="122.8" cy="16.6" r="3.7" class="st11"/><circle cx="133.7" cy="16.6" r="3.7" fill="#ffc107"/><circle cx="144.6" cy="16.6" r="3.7" class="st0"/><path d="M126.9 112.9h141.5v6.7H126.9zM126.9 128.7h141.5v6.7H126.9zM126.9 144.4h141.5v6.7H126.9zM126.9 160.2h141.5v6.7H126.9z" class="st8"/></g><g id="Layer_10"><path d="M93.7 49.1V193M116.3 49.1V193M93.7 70.2h22.6M93.7 60.4h22.6M93.7 79.9h22.6M93.7 89.6h22.6M93.7 99.3h22.6M93.7 109h22.6M93.7 118.8h22.6M93.7 128.5h22.6M93.7 138.2h22.6M93.7 147.9h22.6M93.7 157.7h22.6M93.7 167.4h22.6M93.7 177.1h22.6M93.7 186.8h22.6" class="st1"/></g><g id="Layer_12"><g id="XMLID_334_"><g id="XMLID_404_"><path id="XMLID_408_" d="M55.9 166.3h2l2.8-8.4c.2-.5.1-1-.1-1.5l-3.7-6.5h-.8l-.1 7c.1.1.7.3.8.4.5.5.5 1.4 0 1.9s-1.4.5-1.9 0-.5-1.4 0-1.9c.1-.1.5-.4.6-.4l.2-6.9h-.6l-3.8 6.5c-.3.5-.3 1-.2 1.5l2.7 8.4 2.1-.1z" class="st13"/><path id="XMLID_407_" d="M53.9 166.3h4l.9-2.8H53z" class="st14"/><path id="XMLID_406_" fill="#717386" d="M51.5 164.8h8.8v15.9h-8.8z"/><path id="XMLID_405_" d="M55.9 164.8h4.4v15.9h-4.4z" class="st16"/></g><g id="XMLID_392_"><path id="XMLID_401_" fill="#9a9dd0" d="M72 160.6v3.8c0 .7.6 1.3 1.3 1.3 1.4 0 2.5 1.1 2.5 2.5v10.3c0 1.3 1.1 2.4 2.5 2.3 1.2-.1 2-1.2 2-2.4v-10.1c0-1.4 1.1-2.5 2.5-2.5.7 0 1.3-.6 1.3-1.3v-3.9H72zm5.2 17.7c0-.4.4-.8.8-.8s.8.4.8.8-.4.8-.8.8-.8-.4-.8-.8z"/><path id="XMLID_400_" d="M72 148.9h12v8.7H72z" class="st13"/><path id="XMLID_399_" d="M72 148.9h4.8v8.7H72z" class="st13"/><path id="XMLID_398_" d="M72 157.1h12v3.5H72z" class="st18"/><path id="XMLID_397_" d="M72 157.3h12v.5H72z" class="st19"/><path id="XMLID_396_" d="M72 158.6h12v.5H72z" class="st19"/><path id="XMLID_395_" d="M72 159.8h12v.5H72z" class="st19"/><path id="XMLID_394_" d="M78 160.6v16.9c-.4 0-.8.4-.8.8s.4.8.8.8v1.6c-1.3 0-2.3-1-2.3-2.3v-10.3c0-1.4-1.1-2.5-2.5-2.5-.7 0-1.3-.6-1.3-1.3v-3.7H78z" class="st20"/><path id="XMLID_393_" d="M76.1 148.9v3.4c0 .5.4 1 1 1 .5 0 1-.4 1-1v-1c0-.4.4-.8.8-.8s.8.4.8.8v3.6c0 .4.4.8.8.8s.8-.4.8-.8v-1.7c.9 0 1.6-.7 1.6-1.6v-2.8h-6.8v.1z" class="st2"/></g><path id="XMLID_391_" d="M72 148.9V164.2c0 .7.6 1.3 1.3 1.3h.4v-12.9l-1.4-3.6-.3-.1z" class="st21"/><g id="XMLID_384_"><path id="XMLID_390_" d="M67.6 152.6h4.9V177h-4.9z" class="st13"/><path id="XMLID_389_" d="M72.6 178.2h-4.9v1.4c0 .6.5 1.2 1.2 1.2h2.6c.6 0 1.2-.5 1.2-1.2l-.1-1.4z" class="st13"/><path id="XMLID_388_" d="M67.6 177h4.9v1.2h-4.9z" class="st22"/><path id="XMLID_387_" d="M67.6 152.6h2.5V177h-2.5z" class="st23"/><path id="XMLID_386_" d="M69.9 146.9l-2.3 5.7h4.9l-2.3-5.7c0-.2-.2-.2-.3 0z" class="st24"/><path id="XMLID_385_" d="M70 146.5l-.6 1.5h1.3l-.6-1.5H70z" class="st22"/></g><path id="XMLID_383_" d="M58.4 164.8l2.3-6.8c.2-.5.1-1-.1-1.5l-3.2-5.7V180.4c0 .6.5 1.1 1.1 1.1h1.9v-15.9h-2v-.8z" class="st21"/><g id="XMLID_359_"><path id="XMLID_382_" d="M59.4 145.8h3.9c.6 0 1 .5 1 1v32.9c0 .6-.5 1-1 1h-3.9c-.6 0-1-.5-1-1v-32.9c0-.5.4-1 1-1z" class="st2"/><path id="XMLID_381_" d="M59.5 145.8h2.1v34.9h-2.1c-.6 0-1.1-.5-1.1-1.1v-32.7c0-.6.5-1.1 1.1-1.1z" class="st6"/><path id="XMLID_380_" d="M58.4 178.3h.7v.4h-.7z" class="st25"/><path id="XMLID_379_" d="M58.4 176.8h.7v.4h-.7z" class="st25"/><path id="XMLID_378_" d="M58.4 175.2h.7v.4h-.7z" class="st25"/><path id="XMLID_377_" d="M58.4 173.7h.7v.4h-.7z" class="st25"/><path id="XMLID_376_" d="M58.3 172.1h1.5v.4h-1.5z" class="st25"/><path id="XMLID_375_" d="M58.4 170.6h.7v.4h-.7z" class="st25"/><path id="XMLID_374_" d="M58.4 169h.7v.4h-.7z" class="st25"/><path id="XMLID_373_" d="M58.4 167.5h.7v.4h-.7z" class="st25"/><path id="XMLID_372_" d="M58.4 165.9h.7v.4h-.7z" class="st25"/><path id="XMLID_371_" d="M58.3 164.4h1.5v.4h-1.5z" class="st25"/><path id="XMLID_370_" d="M58.4 162.8h.7v.4h-.7z" class="st25"/><path id="XMLID_369_" d="M58.4 161.3h.7v.4h-.7z" class="st25"/><path id="XMLID_368_" d="M58.4 159.7h.7v.4h-.7z" class="st25"/><path id="XMLID_367_" d="M58.4 158.2h.7v.4h-.7z" class="st25"/><path id="XMLID_366_" d="M58.3 156.6h1.5v.4h-1.5z" class="st25"/><path id="XMLID_365_" d="M58.4 155.1h.7v.4h-.7z" class="st25"/><path id="XMLID_364_" d="M58.4 153.5h.7v.4h-.7z" class="st25"/><path id="XMLID_363_" d="M58.4 152h.7v.4h-.7z" class="st25"/><path id="XMLID_362_" d="M58.4 150.4h.7v.4h-.7z" class="st25"/><path id="XMLID_361_" d="M58.3 148.9h1.5v.4h-1.5z" class="st25"/><path id="XMLID_360_" d="M58.4 147.3h.7v.4h-.7z" class="st25"/></g><path id="XMLID_358_" d="M63.3 145.8v6.9h-.6v7.6h.6v20.4c.6 0 1-.5 1-1.1v-32.7c0-.6-.4-1-1-1.1z" class="st21"/><g id="XMLID_349_"><path id="XMLID_357_" d="M64.4 160H67v20.7h-2.6z" class="st26"/><path id="XMLID_356_" fill="#474963" d="M65.7 160H67v20.7h-1.3z"/><path id="XMLID_355_" d="M63.8 155.4h3.5v4.9h-3.5z" class="st26"/><path id="XMLID_354_" d="M63.8 155.4h3.5v.3h-3.5z" class="st3"/><path id="XMLID_353_" d="M63.8 152.7h3.5v2.7h-3.5z" class="st26"/><path id="XMLID_352_" d="M67.2 147.1l-2.8-2.4v8h2.8z" class="st18"/><path id="XMLID_351_" d="M64.4 145.6v7.1h2.8V148z" class="st5"/><path id="XMLID_350_" fill="#b1b1b1" d="M65.8 152.7h1.4V148l-1.4-1.2z"/></g><g id="XMLID_342_" class="st29"><path id="XMLID_348_" d="M58.4 180.7h4.9c.3 0 .5-.1.7-.3v-.1c.1-.1.1-.2.2-.3s.1-.3.1-.4v-9.1H51.5v10.2h6.9z" class="st21"/><path id="XMLID_347_" d="M67.6 179.4c0 .7.6 1.3 1.3 1.3h2.4c.7 0 1.3-.6 1.3-1.3v-9h-4.9v9h-.1z" class="st21"/><path id="XMLID_346_" d="M67 180.7v-10.2h-2.6v10.2h1.3z" class="st21"/><path id="XMLID_343_" d="M75.7 170.5v8c0 .2 0 .3.1.5 0 .1 0 .1.1.2 0 .1 0 .2.1.2 0 .1.1.2.1.2l.1.1c.1.1.1.2.2.3l.1.1c.1.1.2.2.3.2.4.3.9.4 1.5.4 1.2-.1 2-1.2 2-2.4v-7.8h-4.6zm2.3 8.6c-.4 0-.8-.4-.8-.8s.4-.8.8-.8.8.4.8.8-.3.8-.8.8z" class="st21"/></g><g id="XMLID_335_"><path id="XMLID_341_" d="M85.2 193H51v-21.4h36.3v19.3c0 1.1-.9 2.1-2.1 2.1z" class="st13"/><path id="XMLID_340_" fill="#bf9447" d="M49.4 193H51v-21.4h-3.7v19.3c0 1.1.9 2.1 2.1 2.1z"/><path id="XMLID_339_" d="M47.3 176.1h2.4l1.3-4.5-3.7.9z" class="st14"/><path id="XMLID_338_" d="M46.7 174.3h2.6c.2 0 .4-.1.4-.3l1.2-2.4h-3.7l-1 2c-.1.3.2.7.5.7z" class="st13"/><path id="XMLID_337_" d="M87.3 176.1v-3.6l-36.3-.9 2 4.5z" class="st14"/><path id="XMLID_336_" d="M88.3 174.3H53.2c-.2 0-.3-.1-.4-.2l-1.8-2.5h36.3l1.4 1.9c.3.3.1.8-.4.8z" class="st13"/></g></g><path fill="#8c98a4" d="M330.2 116.2H238c-1.2 0-2.1 1-2.1 2.2v75h96.4V118.5c0-1.3-.9-2.3-2.1-2.3z" opacity=".3"/><path id="XMLID_333_" fill="#f5f7f9" d="M339.4 193.4H239.1v-72.7c0-2.4 2-4.4 4.4-4.4h91.4c2.4 0 4.4 2 4.4 4.4v72.7h.1z"/><path id="XMLID_332_" d="M339.4 125.6v-7.4c0-1.2-1-2.2-2.2-2.2h-95.8c-1.2 0-2.2 1-2.2 2.2v7.4h100.2z" class="st2"/><path id="XMLID_331_" d="M246.6 121.1c0 .7-.6 1.3-1.3 1.3-.7 0-1.3-.6-1.3-1.3s.6-1.3 1.3-1.3c.8 0 1.3.6 1.3 1.3z" class="st3"/><path id="XMLID_330_" d="M250.9 121.1c0 .7-.6 1.3-1.3 1.3-.7 0-1.3-.6-1.3-1.3s.6-1.3 1.3-1.3c.7 0 1.3.6 1.3 1.3z" class="st3"/><path id="XMLID_329_" d="M255.2 121.1c0 .7-.6 1.3-1.3 1.3-.7 0-1.3-.6-1.3-1.3s.6-1.3 1.3-1.3 1.3.6 1.3 1.3z" class="st3"/><path id="XMLID_328_" d="M337.2 116.3h-2.8c1.2 0 2.2 1 2.2 2.2v74.9h2.8v-74.9c0-1.2-1-2.2-2.2-2.2z" class="st33"/><path d="M249.1 135.2h-1.6c-1 0-1.8-.8-1.8-1.8s.8-1.8 1.8-1.8h1.6c1 0 1.8.8 1.8 1.8s-.8 1.8-1.8 1.8zM249.1 144.3h-1.6c-1 0-1.8-.8-1.8-1.8s.8-1.8 1.8-1.8h1.6c1 0 1.8.8 1.8 1.8s-.8 1.8-1.8 1.8zM249.1 153.3h-1.6c-1 0-1.8-.8-1.8-1.8s.8-1.8 1.8-1.8h1.6c1 0 1.8.8 1.8 1.8s-.8 1.8-1.8 1.8zM249.1 162.3h-1.6c-1 0-1.8-.8-1.8-1.8s.8-1.8 1.8-1.8h1.6c1 0 1.8.8 1.8 1.8s-.8 1.8-1.8 1.8zM249.1 171.4h-1.6c-1 0-1.8-.8-1.8-1.8s.8-1.8 1.8-1.8h1.6c1 0 1.8.8 1.8 1.8s-.8 1.8-1.8 1.8zM249.1 180.4h-1.6c-1 0-1.8-.8-1.8-1.8s.8-1.8 1.8-1.8h1.6c1 0 1.8.8 1.8 1.8s-.8 1.8-1.8 1.8zM249.1 189.5h-1.6c-1 0-1.8-.8-1.8-1.8s.8-1.8 1.8-1.8h1.6c1 0 1.8.8 1.8 1.8s-.8 1.8-1.8 1.8zM327.4 135.2h-1.6c-1 0-1.8-.8-1.8-1.8s.8-1.8 1.8-1.8h1.6c1 0 1.8.8 1.8 1.8s-.8 1.8-1.8 1.8z" class="st8"/><path d="M327.4 144.3h-1.6c-1 0-1.8-.8-1.8-1.8s.8-1.8 1.8-1.8h1.6c1 0 1.8.8 1.8 1.8s-.8 1.8-1.8 1.8z" class="st20"/><path d="M327.4 153.3h-1.6c-1 0-1.8-.8-1.8-1.8s.8-1.8 1.8-1.8h1.6c1 0 1.8.8 1.8 1.8s-.8 1.8-1.8 1.8z" class="st34"/><path d="M327.4 162.3h-1.6c-1 0-1.8-.8-1.8-1.8s.8-1.8 1.8-1.8h1.6c1 0 1.8.8 1.8 1.8s-.8 1.8-1.8 1.8z" class="st20"/><path d="M327.4 171.4h-1.6c-1 0-1.8-.8-1.8-1.8s.8-1.8 1.8-1.8h1.6c1 0 1.8.8 1.8 1.8s-.8 1.8-1.8 1.8z" class="st34"/><path d="M327.4 180.4h-1.6c-1 0-1.8-.8-1.8-1.8s.8-1.8 1.8-1.8h1.6c1 0 1.8.8 1.8 1.8s-.8 1.8-1.8 1.8z" class="st20"/><path d="M327.4 189.5h-1.6c-1 0-1.8-.8-1.8-1.8s.8-1.8 1.8-1.8h1.6c1 0 1.8.8 1.8 1.8s-.8 1.8-1.8 1.8zM278.9 135.2h-23.1c-1 0-1.8-.8-1.8-1.8s.8-1.8 1.8-1.8h23.1c1 0 1.8.8 1.8 1.8s-.8 1.8-1.8 1.8z" class="st8"/><path d="M284.6 135.2h4.7c1 0 1.8-.8 1.8-1.8s-.8-1.8-1.8-1.8h-4.7c-1 0-1.8.8-1.8 1.8s.8 1.8 1.8 1.8zM266.3 144.3h-10.4c-1 0-1.8-.8-1.8-1.8s.8-1.8 1.8-1.8h10.4c1 0 1.8.8 1.8 1.8s-.8 1.8-1.8 1.8z" class="st13"/><path d="M275.6 144.3h31.2c1 0 1.8-.8 1.8-1.8s-.8-1.8-1.8-1.8h-31.2c-1 0-1.8.8-1.8 1.8s.8 1.8 1.8 1.8z" class="st2"/><path d="M299.8 153.3h-43.9c-1 0-1.8-.8-1.8-1.8s.8-1.8 1.8-1.8h43.9c1 0 1.8.8 1.8 1.8s-.8 1.8-1.8 1.8zM309.5 162.3h-53.6c-1 0-1.8-.8-1.8-1.8s.8-1.8 1.8-1.8h53.6c1 0 1.8.8 1.8 1.8s-.8 1.8-1.8 1.8z" class="st8"/><path d="M299.8 171.4h-16.2c-1 0-1.8-.8-1.8-1.8s.8-1.8 1.8-1.8h16.2c1 0 1.8.8 1.8 1.8s-.8 1.8-1.8 1.8z" class="st2"/><path d="M277 171.4h-21.1c-1 0-1.8-.8-1.8-1.8s.8-1.8 1.8-1.8H277c1 0 1.8.8 1.8 1.8s-.8 1.8-1.8 1.8zM289.3 180.4h-33.4c-1 0-1.8-.8-1.8-1.8s.8-1.8 1.8-1.8h33.4c1 0 1.8.8 1.8 1.8s-.8 1.8-1.8 1.8z" class="st8"/><path d="M295.3 180.4H306c1 0 1.8-.8 1.8-1.8s-.8-1.8-1.8-1.8h-10.7c-1 0-1.8.8-1.8 1.8s.8 1.8 1.8 1.8z" class="st13"/><path d="M299.8 189.5h-43.9c-1 0-1.8-.8-1.8-1.8s.8-1.8 1.8-1.8h43.9c1 0 1.8.8 1.8 1.8s-.8 1.8-1.8 1.8z" class="st8"/><g id="XMLID_320_"><path id="XMLID_327_" d="M270.2 181.1l-6.4-.5 5.1-5.9z" class="st13"/><path id="XMLID_326_" d="M265.1 186.9l-6.4-.5 5.1-5.8z" class="st13"/><path id="XMLID_325_" d="M277.6 192.7h-17.7l15.4-17.5z" class="st13"/><path id="XMLID_324_" d="M277.6 192.7l-12.5-5.8 5.1-5.9z" class="st23"/><path id="XMLID_323_" d="M258.7 186.4l1.2 6.3 5.1-5.8z" class="st23"/><path id="XMLID_322_" d="M263.8 180.6l1.3 6.3 5.1-5.8z" class="st23"/><path id="XMLID_321_" d="M268.9 174.7l1.3 6.3 5.1-5.8z" class="st23"/></g><g id="XMLID_121_"><g id="XMLID_307_"><path id="XMLID_319_" d="M249.3 191.3c-3.7 3.1-9.2 2.6-12.2-1.1-3.1-3.7-2.6-9.2 1.1-12.2 3.7-3.1 9.2-2.6 12.2 1.1 3.1 3.7 2.6 9.2-1.1 12.2z" class="st34"/><path d="M246.1 183l-2.8 5.9c0 .1-.1.1-.2.1h-.1c-.1 0-.2-.1-.2-.3l1-4.1-2.1.5h-.1c-.1 0-.1 0-.2-.1s-.1-.1-.1-.2l1-4.2c0-.1.1-.2.2-.2h1.7c.1 0 .2.1.2.2v.1l-.9 2.4 2-.5h.1c.1 0 .1 0 .2.1.3.1.3.2.3.3z" class="st3"/></g><path id="XMLID_306_" d="M242.6 184.9c0-2.9-1.3-5.4-3.3-7.2-.4.2-.8.5-1.2.8-2 1.7-3 4-3.1 6.4.1 1.9.7 3.7 2 5.3.6.8 1.4 1.4 2.2 1.9 2.1-1.7 3.4-4.3 3.4-7.2z" class="st35"/><g id="XMLID_150_"><path id="XMLID_305_" d="M241.1 183.8c0 5.3-4.3 9.5-9.5 9.5-5.3 0-9.5-4.3-9.5-9.5 0-5.3 4.3-9.5 9.5-9.5s9.5 4.3 9.5 9.5z" class="st2"/><path d="M234.1 187.1c0 .1 0 .2-.1.2 0 0-.5.2-1.1.2-1.6 0-3-1-3.4-2.5h-.5c-.1 0-.2-.1-.2-.2v-.6c0-.1.1-.2.2-.2h.3v-.6h-.4c-.1 0-.2-.1-.2-.2v-.6c0-.1.1-.2.2-.2h.5c.5-1.5 1.8-2.4 3.4-2.4.5 0 1 .1 1 .1s.1 0 .1.1v.1l-.2.8c0 .1-.1.1-.2.1 0 0-.4-.1-.7-.1-.9 0-1.6.5-2 1.3h2.5c.1 0 .1 0 .1.1v.1l-.1.6c0 .1-.1.1-.2.1h-2.6v.6h2.4c.1 0 .1 0 .1.1v.1l-.1.6c0 .1-.1.1-.2.1h-2c.3.8 1.1 1.3 2 1.3.5 0 .8-.1.8-.1h.1l.1.1.4 1z" class="st3"/></g><path id="XMLID_149_" d="M227.9 176.1c-3.3 1.4-5.7 4.6-5.9 8.4.2 3.2 2.1 6 4.7 7.6 4-2.9 5.4-8.3 3.3-12.9-.5-1.2-1.2-2.2-2.1-3.1z" class="st35"/><g id="XMLID_134_"><ellipse id="XMLID_148_" cx="218.9" cy="182.9" class="st13" rx="10.5" ry="10.5"/><path d="M225 179v6.9c0 .5-.4.9-.9.9H215c-.5 0-.9-.4-.9-.9V179c0-.5.4-.9.9-.9h9.1c.4 0 .9.4.9.9zm-10.3 0v1.3h9.5V179c0-.1-.1-.2-.2-.2h-9.1c-.1 0-.2.1-.2.2zm9.5 7v-3.5h-9.5v3.5c0 .1.1.2.2.2h9.1c.1 0 .2-.1.2-.2zm-8.7-1.3h1.5v.7h-1.5v-.7zm2.2 0h2.2v.7h-2.2v-.7z" class="st3"/></g><path id="XMLID_133_" d="M209.4 187.3c.7 1.5 1.7 2.7 2.8 3.6.6-.8 1.2-1.8 1.5-2.8 1.4-4.1.2-8.5-2.9-11.2-1.5 1.8-2.4 4.1-2.4 6.5.1 1.3.4 2.6 1 3.9z" class="st35"/><g id="XMLID_122_"><path id="XMLID_132_" d="M211.7 186.4c-1.9 5.4-7.9 8.3-13.3 6.4-5.4-1.9-8.3-7.9-6.4-13.3 1.9-5.4 7.8-8.3 13.3-6.4 5.5 2 8.3 7.9 6.4 13.3z" class="st0"/><path d="M202.2 186.6v.9c0 .1-.1.2-.2.2h-.7c-.1 0-.2-.1-.2-.2v-.9c-1.2-.2-1.9-.9-2-1s-.1-.2 0-.2l.6-.7.1-.1h.1s.8.7 1.7.7c.5 0 1.1-.3 1.1-.9 0-.5-.6-.8-1.4-1.1-1-.4-2.2-.9-2.2-2.2 0-1 .8-1.8 1.9-2v-1c0-.1.1-.2.2-.2h.7c.1 0 .2.1.2.2v.9c1.1.1 1.7.7 1.7.7.1.1.1.1 0 .2l-.4.8-.1.1h-.1s-.7-.6-1.5-.6c-.7 0-1.1.3-1.1.8 0 .6.7.8 1.4 1.1 1 .4 2.1.8 2.1 2.1s-.8 2.2-1.9 2.4z" class="st3"/></g></g><g id="XMLID_33_"><g id="XMLID_117_"><path id="XMLID_120_" d="M183.5 183.9c0 5.1-4.1 9.3-9.3 9.3-5.1 0-9.3-4.1-9.3-9.3s4.1-9.3 9.3-9.3c5.1 0 9.3 4.2 9.3 9.3z" class="st2"/><g id="XMLID_118_"><path id="XMLID_119_" d="M173.4 186.8l-3-3 1-1 2 1.9 3.6-3.7 1.1 1.1z" class="st3"/></g></g><path id="XMLID_116_" d="M165 183.9c0 2.9 1.4 5.6 3.5 7.2 1-.8 1.9-1.9 2.5-3.1 1.9-4 .8-8.6-2.4-11.4-2.3 1.8-3.6 4.4-3.6 7.3z" class="st35"/><g id="XMLID_107_"><path id="XMLID_115_" d="M169.2 188c-2.3 4.7-7.9 6.7-12.6 4.4-4.7-2.3-6.7-7.9-4.4-12.6 2.3-4.7 7.9-6.7 12.6-4.4 4.7 2.3 6.7 7.9 4.4 12.6z" class="st13"/><g id="XMLID_108_"><path id="XMLID_110_" d="M160.2 182.7l1-2.1 1.7.8-1 2.1 2.1 1-.7 1.5-2.1-1-1 2.1-1.7-.8 1-2.1-2-1 .7-1.5 2 1z" class="st3"/></g></g><path id="XMLID_105_" d="M156 175.7c-1.6.9-3 2.3-3.9 4.1-2.1 4.4-.5 9.7 3.6 12.2 2.8-1.7 4.7-4.7 4.7-8.2 0-3.4-1.8-6.4-4.4-8.1z" class="st35"/><g id="XMLID_34_"><circle id="XMLID_103_" cx="149.4" cy="183.7" r="9.6" class="st26"/><path d="M152.9 183.9c.2.3.3.7.3 1.2-.1.6-.3 1.1-.8 1.3-.4.2-1 .4-1.7.4v1.2h-.9v-1.2h-.7v1.2h-.9v-1.2h-1.7l.2-1h.7c.1 0 .2-.1.2-.3v-3.8c0-.2-.1-.3-.3-.3H146.5v-.9h1.7v-1.4h.9v1.4h.7v-1.3h.9v1.4c.6.1 1 .2 1.4.4s.6.6.6 1c.1.7-.2 1.1-.7 1.4.3 0 .7.2.9.5zm-3.8-.8h.1c.5 0 .9 0 1.1-.1.5-.1.7-.4.7-.7 0-.4-.2-.6-.7-.8-.3-.1-.6-.1-1.1-.1h-.2l.1 1.7zm.2 2.7c.6 0 1 0 1.3-.1.5-.1.8-.4.8-.8s-.3-.7-.8-.8c-.3-.1-.7-.1-1.3-.1h-.2v1.8h.2z" class="st3"/></g></g><g id="XMLID_29_"><path id="XMLID_30_" d="M125.9 185h2.3c.5 0 .9-.4.9-.9v-3c0-.5-.4-.9-.9-.9h-1.8c-.3 0-.6-.2-.7-.5-.1-.2-.1-.3-.2-.5-.1-.3-.1-.6.1-.8l1.3-1.3c.3-.3.3-.9 0-1.2l-2.1-2.1c-.3-.3-.9-.3-1.2 0l-1.3 1.3c-.2.2-.5.3-.8.1-.2-.1-.4-.2-.6-.2-.3-.1-.4-.4-.4-.7v-1.8c0-.5-.4-.9-.9-.9h-3c-.5 0-.9.4-.9.9v1.8c0 .3-.2.6-.5.7-.2.1-.4.1-.5.2-.3.1-.6.1-.8-.1l-1.3-1.3c-.3-.3-.9-.3-1.2 0l-2.1 2.1c-.3.3-.3.9 0 1.2l1.3 1.3c.2.2.3.5.2.8-.1.2-.2.4-.2.6-.1.3-.4.4-.7.4h-1.8c-.5 0-.9.4-.8.9v3c0 .5.4.9.9.8h1.8c.3 0 .6.2.7.5.1.2.1.3.2.5.1.3.1.6-.1.8l-1.3 1.3c-.3.3-.3.9 0 1.2l2.1 2.1c.3.3.9.3 1.2 0l1.3-1.3c.2-.2.5-.3.8-.1.2.1.4.2.6.2.3.1.4.4.4.7v1.8c0 .5.4.9.9.8h3c.5 0 .9-.4.8-.9v-1.8c0-.3.2-.6.5-.7.2-.1.3-.1.5-.2.3-.1.6-.1.8.1l1.3 1.3c.3.3.9.3 1.2 0l2.1-2.1c.3-.3.3-.9 0-1.2l-1.3-1.3c-.2-.2-.3-.5-.1-.8.1-.2.3-.8.3-.8zm-11.8-3.1c.5-2.6 3.2-4.1 5.6-3.2 1.9.7 3 2.7 2.6 4.7-.5 2.6-3.2 4.1-5.6 3.2-1.8-.7-2.9-2.7-2.6-4.7z" class="st13"/></g><g id="XMLID_857_"><g id="XMLID_868_"><path id="XMLID_901_" fill="#fdfdfe" d="M39.5 193H14.6c-1.2 0-2.2-1-2.2-2.2v-20.6h27.1c.4 0 .8.3.8.8v21.3c-.1.3-.4.7-.8.7z"/><path id="XMLID_900_" d="M15.3 189.1c-1 0-3 .2-3 2.3V169c0-1.3 1-2.3 2.3-2.3h.7v22.4z" class="st37"/></g><path id="XMLID_834_" d="M31.4 183.6h1.5c.3 0 .5-.2.5-.5v-1.9c0-.3-.2-.5-.5-.5h-1.2c-.2 0-.4-.1-.4-.3 0-.1-.1-.2-.1-.3-.1-.2-.1-.4.1-.5l.8-.8c.2-.2.2-.6 0-.8l-1.3-1.3c-.2-.2-.6-.2-.8 0l-.8.8c-.1.1-.3.2-.5.1-.1-.1-.2-.1-.4-.1-.2-.1-.3-.2-.3-.4v-1.2c0-.3-.2-.5-.5-.5h-1.9c-.3 0-.5.2-.5.5v1.2c0 .2-.1.4-.3.4-.1 0-.2.1-.3.1-.2.1-.4.1-.5-.1l-.9-.9c-.2-.2-.6-.2-.8 0l-1.3 1.3c-.2.2-.2.6 0 .8l.8.8c.1.1.2.3.1.5-.1.1-.1.2-.1.4-.1.2-.2.3-.4.3h-1.2c-.3 0-.5.2-.5.5v1.9c0 .3.2.5.5.5h1.2c.2 0 .4.1.4.3 0 .1.1.2.1.3.1.2.1.4-.1.5l-.8.8c-.2.2-.2.6 0 .8l1.3 1.3c.2.2.6.2.8 0l.8-.8c.1-.1.3-.2.5-.1.1.1.2.1.4.1.2.1.3.2.3.4v1.2c0 .3.2.5.5.5h1.9c.3 0 .5-.2.5-.5v-1.2c0-.2.1-.4.3-.4.1 0 .2-.1.3-.1.2-.1.4-.1.5.1l.8.8c.2.2.6.2.8 0l1.3-1.3c.2-.2.2-.6 0-.8l-.8-.8c-.1-.1-.2-.3-.1-.5.2-.2.3-.6.3-.6zm-7.5-2c.3-1.7 2-2.6 3.6-2 1.2.5 1.9 1.7 1.7 3-.3 1.7-2 2.6-3.6 2-1.2-.4-1.9-1.7-1.7-3z" class="st2"/><path id="XMLID_858_" d="M40.2 192.4v-21.7c0-.3-.3-.6-.6-.6h-1.8V192.3c0 .3.3.6.6.6h1.2c.4.1.6-.2.6-.5z" class="st21"/><g id="XMLID_838_"><path id="XMLID_856_" d="M38.6 168.3h2.5v21.6h-2.5z" class="st13"/><path id="XMLID_855_" d="M41.1 189.8h-2.5v2.3c0 .5.4.8.8.8h.9c.5 0 .8-.4.8-.8v-2.3z" class="st37"/><path id="XMLID_852_" fill="#fde1a7" d="M38.6 168.3h1.3v21.6h-1.3z"/><path id="XMLID_851_" d="M39.7 165.3l-1.2 2.9h2.6l-1.2-2.9c0-.1-.1-.1-.2 0z" class="st24"/><path id="XMLID_850_" d="M39.8 165.2l-.3.8h.7l-.4-.8c0-.1 0-.1 0 0z" class="st22"/><path id="XMLID_854_" d="M38.6 189.2h2.5v.6h-2.5z" class="st22"/></g></g></g><g id="Layer_11"><path d="M339.4 182.9l-.7.3-.4-.8 1.1-.3v-1.9l-9.4-22.7-1.3-14.2s1.3-1.7 2.3-4.6c.6-1.8.4-4.3.2-5.9h.6v-2.4h-.3c1.2-2.3 3.8-8.9 5.9-14.5h-16.9l-.7.7v-.7h-31.7v9c0 1.2.9 2.1 2.1 2.1h8.8c-.3.1-.6.3-.8.5l5.3.6h2.7l2.3-1.1h8.8c-.5 1.5-1 2.7-1.3 3.4h-1v2.4h.4l-1 5.1-.1.6-5.8 18.9-1.9 26.5h1.4v1.1h-1.3l-2.1 2.4h-4.5c-2.7 0-5.3 1.5-6.5 4h-.7v1.5h19.5v-1.5h-.7V185h-1v-1.1h1.5l4.4-28.1v-.1l2.6-3.9 3.6 10.3 11.8 21.2.9-.3.6 1.1-.8.4-1 3-5.1.1c-2.5 1-3.1 1.1-3.4 3.6h-.4v1.5H336l3.4-1.4v-8.4z" class="st39"/><g id="XMLID_49_"><g id="XMLID_64_"><path id="XMLID_67_" d="M318.1 107.9l-22.7 11.3c-.4.2-.8 0-1-.3l-6.9-13.9c-.2-.4 0-.8.3-1l22.7-11.3c.4-.2.8 0 1 .3l6.9 13.9c.2.4 0 .8-.3 1z" class="st13"/><path id="XMLID_66_" d="M318.4 107.3l-15.5-2.6c-.4-.1-.8.1-.9.5l-7.2 13.9c.3.1.6.2.8 0l22.3-11.1c.3-.1.4-.4.5-.7z" class="st23"/><path id="XMLID_65_" d="M287.5 104.5l15.5 2.6c.4.1.8-.1.9-.5l7.2-13.9c-.3-.1-.6-.2-.8 0L288 103.8c-.3.2-.5.5-.5.7z" class="st23"/></g><path id="XMLID_58_" d="M292.2 101.8c2.4 2.7 6.4 3.5 9.8 1.9 3.4-1.7 5.1-5.4 4.4-8.9l-14.2 7z" class="st35"/><g id="XMLID_52_"><path id="XMLID_57_" d="M305.4 91.8c2 4.1.4 9.1-3.7 11.1s-9.1.4-11.1-3.7c-2-4.1-.4-9.1 3.7-11.1s9.1-.4 11.1 3.7z" class="st2"/><path id="XMLID_56_" fill="#71a2ea" d="M302.5 93.3c1.2 2.5.2 5.5-2.3 6.8-2.5 1.2-5.5.2-6.8-2.3-1.2-2.5-.2-5.5 2.3-6.8 2.5-1.2 5.6-.2 6.8 2.3z"/><g id="XMLID_53_"><path id="XMLID_55_" d="M300.5 97.7l-1.2.6-2.4-4.8-1.1.6-.6-1.2 2.3-1.2z" class="st3"/></g></g></g><g id="XMLID_43_"><path id="XMLID_48_" d="M317.6 116.5l-17.9-10.8c-.3-.2-.4-.6-.2-1l7.3-12.1c.2-.3.6-.4 1-.2l17.9 10.8c.3.2.4.6.2 1l-7.3 12.1c-.2.3-.7.4-1 .2z" class="st3"/><path id="XMLID_47_" d="M315.5 109l-10.2-6.1c1.7-2.8 5.3-3.7 8.1-2 2.9 1.7 3.8 5.3 2.1 8.1z" class="st13"/><path id="XMLID_46_" d="M305.5 106.6l8.9-2.1 1.9 8.7z" class="st37"/><path id="XMLID_45_" d="M300.9 103.9l9-2.2 1.9 8.7z" class="st41"/><path id="XMLID_44_" d="M318 103.2l2 1.2c.2.1.3.4.1.6-.1.2-.4.3-.6.1l-.1-.1c-.2-.1-.4-.1-.5.1-.1.2-.1.4.1.5l2.1 1.3c.2.1.2.3.1.5s-.3.2-.5.1l-6.6-4c-.2-.1-.2-.3-.1-.5s.3-.2.5-.1l.4.3c.2.1.4.1.5-.1.1-.2.1-.4-.1-.5l-1.9-1.1c-.2-.1-.3-.4-.1-.6.1-.2.4-.3.6-.1l4.1 2.4z" class="st41"/></g><g id="XMLID_35_"><g id="XMLID_36_"><path id="XMLID_42_" d="M319.6 127h-26.5v-16.9h28.7v14.8c0 1.2-1 2.1-2.2 2.1z" class="st34"/><path id="XMLID_41_" fill="#bda36d" d="M292.3 127h.8v-16.9h-3v14.8c0 1.2 1 2.1 2.2 2.1z"/><path id="XMLID_40_" d="M290.1 113.7h1.9l1.1-3.6-3 .7z" class="st33"/><path id="XMLID_39_" d="M289.7 112.3h2.1c.1 0 .3-.1.4-.2l.9-1.9h-3l-.8 1.6c-.1.2.1.5.4.5z" class="st34"/><path id="XMLID_38_" d="M321.8 113.7v-2.9l-28.7-.7 1.5 3.6z" class="st33"/><path id="XMLID_37_" d="M322.6 112.3h-27.7c-.1 0-.2-.1-.3-.2l-1.5-2h28.7l1.1 1.5c.2.3 0 .7-.3.7z" class="st34"/></g></g><path d="M309.9 183.1h2.8v3.1h-2.8z" class="st43"/><path d="M337.7 181.5h2.8v3.1h-2.8z" class="st43" transform="rotate(-26.195 339.092 183.045)"/><path d="M332.9 131.3l-4.6 10-9.7 14.6-4.4 28.1h-5.7l1.9-26.5 5.8-18.9 1.5-7.3z" class="st11"/><g class="st29"><path d="M330.1 137.4l-13.2-2-.6 3.1-.7 2.2c1.5 3.8 3 9.2 3.1 15.1l9.6-14.5 1.8-3.9z" class="st26"/></g><path d="M332.7 93.8h5.8v6.8h-5.8z" class="st43"/><path d="M338.5 97.5l-5.8-2.1v-1.6h5.8z" class="st39"/><path d="M331.6 97.2l7.8 2v1.5s3.1 4.1 2.9 6.2-8.2 23.6-9.4 24.4h-15.3s6.1-16 6.5-17.8c0 0 1.9-8.6 5.2-11.3 0 0 1-1.7 2-2.2 0 .1.9-1 .3-2.8z" class="st44"/><path d="M332.5 115.7l-4.6-5.9 4.2-3.6c1.4-1.5 3.8-1.5 5.3-.1s1.5 3.8.1 5.3l-5 4.3z" class="st45"/><path d="M331.8 115l-4.5-5.9 4.9-3.8c1.5-1.2 3.7-.9 4.9.7l.3.3c1.2 1.5.9 3.7-.7 4.9l-4.9 3.8z" class="st44"/><path d="M322.4 118.7c-.7 1.8-1.4 3.8-2.1 5.7l3.4-1.6 8.8-7.1-3.4-4.5-6.7 7.5z" class="st26"/><path d="M308.2 128.1l14.4-6.8 8.8-7.1-3.4-4.5-7.2 8-13 8.1.5.6-2.6.1c-1.1 0-4.1-.4-5.3.9l5.3.6 2.5.1z" class="st43"/><path d="M332.9 131.3s.9 4.5 0 7.4-2.3 4.6-2.3 4.6l1.3 14.2 10.1 24.3-5.4 1.6-11.8-21.2-8.5-24.3 1.3-6.6h15.3z" class="st11"/><path d="M340.8 95.3h-8.4c-1.3 0-2.4-1.1-2.4-2.4v-2.7h-2.1C327 83.1 330 81 330 81h10.8v14.3z" class="st46"/><path fill="#2e5f7a" d="M344 82.2c-.2-1.2-1-3.2-2.1-3.8-.6-.3-1.3-.3-1.9 0 0-.8-.5-1.8-1.3-1.8-.5 0-1.1.2-1.6.3-1.8.6-3.6 1.2-5.5 1.1-2 0-3.7-.8-5-2.2 0 1.1.2 2.2.5 3.3.1.4.3.8.5 1.1.3.5.8.8 1.4 1.2 1.5 1 2.6.4 4.2.5.7 0 1.3.2 2 .2.6 0 1.4-.2 2 .1 1.9 1-2.5 3.6-2.5 4.5 1-.5 2-1.1 2.9-1.6-1 1.2-2.1 2.5-2.1 4.1.7-.7 1.6-1.2 2.6-1.4-.3.7-.6 1.3-1 2-.1.2-.2.5 0 .6.3.2.7-.4 1-.2-.4.9-.8 1.8-1.2 2.8.4-.2.8-.4 1-.7-.3 1-.2 2.1.2 3 .7-.1 1.3.5 2.1.6.7.1 1.1-.4 1.6-.6.7-.3 1.7-.3 2.4-.1-.3-.5-.6-1-.7-1.6-.4-1.5.4-2.6.6-4 .2-1.7.2-3.4.2-5.1-.1-.8-.1-1.6-.3-2.3z"/><path d="M317 130.5h16.8v2.4H317z" class="st45"/><path d="M307.4 127.3l-1.7-1.7c-.3-.2-.4-.5-.3-.8.2-.3.5-.4.8-.3l2.3 1.2c.3.2.4.5.3.8-.2.3-1.1.9-1.4.8z" class="st43"/><path d="M313.7 185.1h-5.1l-2.1 2.4h-4.4c-2.7 0-5.3 1.5-6.5 4h18v-6.4h.1z" class="st16"/><path d="M312.7 188.3c0 .9-.7 1.6-1.6 1.6s-1.6-.7-1.6-1.6c0-.9.7-1.6 1.6-1.6s1.6.7 1.6 1.6z" class="st3"/><path d="M294.9 191.5h19.5v1.5h-19.5z" class="st13"/><path d="M342 182.7l-4.7 2-1 3-5.1.1c-2.5 1.1-3.2 1.1-3.4 3.8h9.4l7.2-3-2.4-5.9z" class="st16"/><path d="M342.3 186c.3.8 0 1.7-.9 2.1-.8.3-1.7 0-2.1-.9-.3-.8 0-1.7.9-2.1.8-.3 1.7.1 2.1.9z" class="st3"/><path d="M327.4 191.4H338v1.5h-10.6z" class="st13"/><path d="M337.4 189.9h7.9v1.5h-7.9z" class="st13" transform="rotate(-23.186 341.348 190.64)"/></g><g id="Layer_8"><path d="M154.4 66.9c0-.1-.1-.2-.2-.3-.1-.1-.2-.1-.4-.1H153.5c0-.5 0-1-.1-1.5h-.1v-.4c-5.5 0-10.9-.1-16.4-.1v.3h-.1c-.1 1.3-.2 2.5 0 3.8h.1v.3c5.5 0 10.9.1 16.4.1v-.3h.2c.1-.6.1-1.1.1-1.7H153.9V72.4c0 .1-.1.1-.1.2l-.2.1-.4.2-.8.4-3 1.4-3 1.4-.4.2c-.1.1-.2.1-.3.2-.1.1-.1.2-.2.3 0 .1-.1.2-.1.3V79h-.8v.3c0 .1 0 .1.1.1h.7-.7c-.2 0-.3.1-.3.3l-.1 1.2c-.5.2-1.1.4-1.6.6s-1 .4-1.3.9c-.2.3-.3.6-.3 1-.1.7-.1 1.4 0 2.2v.6l-.3-.1-12.6 8.7s-7.3-3.8-10.9-5.3c-2.4-1-3.9-.6-4.6-.3l-.6-3.2c.8.1 1.7-.1 2.6-.1.7 0 1.4 0 1.9-.4.7-.5 1-1.3 1.2-2.1.2-.5.3-1.1.5-1.6s.3-1 .3-1.6c0-.5-.2-1-.6-1.3h.7c.2 0 .4-.2.3-.4-.2-1-.5-2-.7-3-.2-1.1 0-2.2-.7-3.2.2-.2.3-.4.5-.6.2-.4.4-.8.3-1.2-.1-.5-.5-1-.9-1.2-1.2-.6-2.1-.4-3.3 0-.5.2-1.2.2-1.6-.2-.2-.1-.3-.3-.4-.5-.7-.9-2.2-1-3-.2s-1.1 1.4-2.2 1.8c-.7.2-1.5.5-2 1.1v2.1c.1.2.2.4.2.7.1.3-.1.6-.2.8v4.5c.6.6.5 1.4.5 2.3 0 .5-.3.8-.5 1.2v1.5c.4.5 1.2.5 1.8.2v.3c0 .2.2.4.4.4h.4l-.6 4.3h-.9l-1.2.4v87h2.2v-1.4h-.6v-.4l-.6-2.2h-.4v-.3h.8l1.5-26.3 6.3-17.2 9.4 10.7-7.3 22.3.9.1-.3.6h-.5l-1.3 1.6v1.3h-.5v1h14.9v-1h-.3v-.1c0-.9-.6-1.7-1.5-1.8l-4.7-1h-3.3l.2-.4.9.1 11.8-24.6-11.6-20-.6-1 1.4-17.5 9.7 1.3c.5.1 1-.1 1.4-.5.1-.1.2-.3.3-.4L143.8 88v.3c0 .2.1.3.3.3h2.6c.2 0 .3-.1.3-.3l-.1-1.7c.4-.2.7-.5.9-1 .2-.6 0-.7-.1-1.2-.1-.4.1-.7-.3-.9 0 0-.1 0-.1-.1s0-.2.1-.2c.3-.3.2-.9-.1-1.1-.1-.1-.3-.2-.5-.3l-.1-2c0-.2-.2-.3-.3-.3h-.5.6c.1 0 .1 0 .1-.1v-.3h-.7v-2c0-.1.1-.1.1-.2l.4-.2 3-1.4 3-1.4.8-.4.4-.2.2-.1c.1 0 .1-.1.1-.1.2-.1.3-.3.3-.5V66.9c.2.1.2 0 .2 0zm-10.6 20.7l-.2-.1c.1 0 .1 0 .2-.1v.2z" class="st39"/><path d="M152.4 67.1v-.2c0-.1-.1-.2-.2-.3-.1-.1-.2-.1-.4-.1h-1.9v.5h1.9V72.4c0 .1-.1.1-.1.2l-.2.1-.4.2-.8.4-3 1.4-3 1.4-.4.2c-.1.1-.2.1-.3.2-.1.1-.1.2-.2.3 0 .1-.1.2-.1.3v2.3h.5V77c0-.1.1-.1.1-.2l.4-.2 3-1.4 3-1.4.8-.4.4-.2.2-.1c.1 0 .1-.1.1-.1.2-.1.3-.3.3-.5v-5.6c.3.3.3.2.3.2z" class="st3"/><path d="M151.3 68.8h-.3V65h.3c.2 1.2.2 2.5 0 3.8zM134.6 68.6h.3v-3.8h-.3c-.1 1.2-.1 2.5 0 3.8z" class="st13"/><path fill="#5891ed" d="M151.2 64.6c.1 1.5.1 3 0 4.5-5.5 0-10.9-.1-16.4-.1-.1-1.5-.1-3 0-4.5 5.4 0 10.9 0 16.4.1z"/><path d="M134.7 66.7c0 .7 0 1.5.1 2.2 5.5 0 10.9.1 16.4.1.1-.7.1-1.5.1-2.2-5.6 0-11.1-.1-16.6-.1z" class="st2"/><path d="M141.7 88.3c0 .2.1.3.3.3h2.6c.2 0 .3-.1.3-.3l-.3-8.5c0-.2-.2-.3-.3-.3h-1.9c-.2 0-.3.1-.3.3l-.4 8.5z" class="st13"/><path fill="#bf9855" d="M144.5 79.1v.3c0 .1 0 .1-.1.1h-2c-.1 0-.1 0-.1-.1v-.3h2.2z"/><path fill="#feca71" d="M143.5 79.5h-1c-.2 0-.3.1-.3.3l-.4 8.5c0 .2.1.3.3.3h1.3l.1-9.1z"/><path d="M145.2 82.1c-.8-.8-2.2.2-3 .5.5-.2.7-1.1.3-1.5-.1-.1-.1-.1-.2-.1h-.3c-.5.2-1.1.4-1.6.6s-1 .4-1.3.9c-.2.3-.3.6-.3 1-.1.7-.1 1.4 0 2.2v.8c.5.6 1.3.6 2 1 .2.1.4.2.6.1.2 0 .4-.1.6-.2.7-.3 1.5-.6 2.3-.6.7 0 1.3-.4 1.5-1.1.2-.6 0-.7-.1-1.2-.1-.4.1-.7-.3-.9 0 0-.1 0-.1-.1s0-.2.1-.2c.2-.4.1-.9-.2-1.2zM101 170.8h2.5v3.6H101z" class="st51"/><path d="M114.5 161.2h3.6v2.5h-3.6z" class="st51" transform="rotate(-64.278 116.252 162.476)"/><path d="M100.5 68.9c0-.2 0-.4-.1-.6-.2-.3-.5-.4-.8-.4s-.6 0-.9-.1c-.3-.1-.5-.3-.8-.3-.7-.1-1.3.9-2 .7-.2 0-.3-.1-.5-.2-.6-.2-1.2.3-1.3.9-.2.6 0 1.2.1 1.8.2.8.9 2.2 1.4 2.9 1.3 0 1.6.4 2.9.5 0 0 .6-1 .5-1h.1c.1-.3.5-.6.7-.9.3-.3.6-.7.8-1.1.1-.3.1-.7.1-1.1-.2-.3-.2-.7-.2-1.1zM110.6 90.2h-5.8l1-7.6h3.3z" class="st51"/><path d="M102.8 115.1L98 145.2l2.4 27.6h3.9l1.6-26.3 6.3-17.2 9.4 10.7-7.4 22.3 4.5.2 11.8-24.6-13.3-22.8z" class="st44"/><path fill="#113651" d="M104.8 115.1h-2L98 145.2l2.4 27.6h.5l-.9-27.6z"/><path d="M122 139.6l-8.3-11.8-1.5 1.5 9.4 10.7z" class="st45"/><path d="M109.1 82.6h-3.3l-.6 4.6 4.5-1.5z" class="st39"/><path d="M112 85.4h-6.9c-.2 0-.4-.2-.4-.4V70.6h6.9c.9 0 1.7.2 2.5.6 2.3 1.2 1.8 2.8 2 4.3.2 1 .5 2 .7 3 0 .2-.1.4-.3.4-.6 0-1.6.1-1.6.1l.4 2.5c.3 2-1.3 3.9-3.3 3.9z" class="st46"/><path fill="#1e2022" d="M115.7 78.9c-1.7-1-2.7 1.1-3.9 1.7-.6.2-1.4.2-1.7-.4-.5-.7-.9-2.1-.8-2.9.1-.8.2-1.6.5-2.3.4-.7 1-1.5 1.8-1.9.4-.2.8-.3 1.2-.2.6.1.9.3 1.5.1.6-.2 1.2-.8 1.6-1.4.2-.4.4-.8.3-1.2-.1-.5-.5-1-.9-1.2-1.2-.6-2.1-.4-3.3 0-.5.2-1.2.2-1.6-.2-.2-.1-.3-.3-.4-.5-.7-.9-2.2-1-3-.2s-1.1 1.4-2.2 1.8c-.7.2-1.6.6-2.1 1.2-.7 1.1.2 1.7.3 2.7.1.5-.3.9-.5 1.3-.5.8-.7 1.8-.5 2.7.1.4.3.9.6 1.1.8.6.7 1.5.7 2.5 0 .8-.7 1.2-.7 1.9-.1 1.5 2.2 1.5 2.7.3.6-1.6.1-3.4.1-5 0-.9 1-2.1 2-1.4.6.4.5 1 .5 1.6 0 .9-.1 1.8-.1 2.7-.1 1.3-.6 3.1.8 4 1.3.7 2.4.3 3.8.3.7 0 1.4 0 1.9-.4.7-.5 1-1.3 1.2-2.1.2-.5.3-1.1.5-1.6s.3-1 .3-1.6c0-.6-.2-1.1-.6-1.4z"/><path d="M102.8 115.1l-.8 4.9c1.4 0 3.3.3 4.6-.2 1.5-.6 2.8-1.9 4.5-1.8.8.1 1.5.4 2.2.6 1 .3 2.1.3 3.1.1.9-.2 1.6-.7 2.5-.9l-1.6-2.7h-14.5z" class="st39"/><path d="M109.9 89.6s1.5-1.5 5.1 0c3.5 1.5 10.9 5.3 10.9 5.3l12.6-8.7 3.6 1.6-11 12.1c-.3.6-1 1-1.7.9l-9.7-1.3-1.4 17.5c-.9.1-1.6.7-2.5.9-1 .2-2 .2-3-.1-.7-.2-1.4-.6-2.1-.6-1.6-.1-2.8 1.1-4.3 1.7-1.4.6-3.8.1-5.2.3-.4-1.8 1.2-4 1-5.9-.3-2.9-.9-6-2.6-8.4l-8.9-17.2L95 73.8h4.1l-2.3 11.6 3.3 5.8 4.1-1.5 5.7-.1z" class="st11"/><path d="M127.3 94.9l11.6-8.5-.5-.3-12.5 8.8zM103 119c.7 0 1.4.1 2 0h-2zM103.6 113.2c-.3-2.9-.9-6-2.6-8.4l-8.9-17.2 3.3-13.9h-.5l-4.3 13.9 8.9 17.2c1.7 2.4 2.3 5.5 2.6 8.4.2 1.9-1.4 4.1-1 5.9.4-.1.9-.1 1.5 0-.3-1.9 1.2-4.1 1-5.9z" class="st54"/><g><path fill="#d15a5a" d="M127.8 99.3l-9.7-1.3s-.8 19.1.1 18.9l1.4-17.5 9.7 1.3c.7.1 1.4-.3 1.7-.9 0 .1-2.5-.4-3.2-.5z"/></g><path d="M104.5 177.1H100v-2l.6-2h3.3l.6 2.2z" class="st11"/><path d="M99.4 175.7h5.7v1.4h-5.7z" class="st16"/><path d="M127.1 166.8h-14v-2.3l1.3-1.6h6.5l4.7 1c.9.2 1.5 1 1.5 1.8v1.1z" class="st11"/><path d="M112.6 165.8h14.9v1h-14.9z" class="st16"/></g></svg>