<?xml version="1.0" encoding="utf-8"?>
<!-- Generator: Adobe Illustrator 22.0.1, SVG Export Plug-In . SVG Version: 6.00 Build 0)  -->
<svg version="1.1" id="Layer_1" xmlns="http://www.w3.org/2000/svg" xmlns:xlink="http://www.w3.org/1999/xlink" x="0px" y="0px"
	 viewBox="0 0 1024 640" style="enable-background:new 0 0 1024 640;" xml:space="preserve">
<style type="text/css">
	.st0{fill:#9C7761;}
	.st1{fill:#E5E8EC;}
	.st2{fill:none;stroke:#FFC500;stroke-width:18.8179;stroke-miterlimit:10;stroke-dasharray:3.8965,39.1058;}
	.st3{fill:url(#SVGID_1_);}
	.st4{fill:#FFC500;}
	.st5{fill:#42526E;}
	.st6{fill:#F1DAD5;}
	.st7{fill:#FFAB00;}
	.st8{fill:#FF991F;}
	.st9{fill:#FFC400;}
	.st10{fill:#172B4D;}
	.st11{fill:none;stroke:#0065FF;stroke-width:4.6413;stroke-linecap:round;stroke-miterlimit:10;}
	.st12{fill:#2DB07C;}
	.st13{fill:#48CC8C;}
	.st14{fill:url(#SVGID_2_);}
	.st15{fill:#243759;}
	.st16{fill:#0052CC;}
	.st17{fill:#0065FF;}
	.st18{fill:url(#_Clipping_Path_3_1_);}
	.st19{clip-path:url(#SVGID_4_);}
	.st20{fill:none;stroke:#FF991F;stroke-width:2.4283;stroke-miterlimit:10;}
	.st21{opacity:0.72;fill:url(#_Path__1_);enable-background:new    ;}
	.st22{fill:url(#SVGID_5_);}
	.st23{clip-path:url(#SVGID_7_);}
	.st24{fill:none;stroke:#2DB07C;stroke-width:2.4283;stroke-miterlimit:10;}
	.st25{fill:#A27F68;}
	.st26{fill:#008364;}
	.st27{fill:#64E6A4;}
	.st28{fill:#FF8B00;}
	.st29{fill:none;stroke:#0065FF;stroke-width:4.4715;stroke-linecap:round;stroke-miterlimit:10;}
	.st30{fill:#B5917C;}
	.st31{fill:#97A0AF;}
	.st32{fill:#A5ADBA;}
	.st33{fill:#F0F2F5;}
</style>
<g>
	<g id="Layer_1_1_">
		<path class="st0" d="M333.5,323.7c0,0,0.2,4.1,0,5.7c-0.3,1.4-0.9,2.8-1.6,4.1c0,0,11.7,3,12.6,3.1c0.9,0.1,2.7-7.6,2.7-7.6
			L333.5,323.7"/>
		<path class="st1" d="M344.1,164.9l-17.5,14l-16.4-14c6.3-0.6,12.6,1.8,16.9,6.4C331.4,166.4,337.8,163.9,344.1,164.9z"/>
		<path class="st1" d="M388.6,182.9l-17.5,14l-16.4-14c6.3-0.6,12.6,1.8,16.9,6.4C375.8,184.4,382.2,181.9,388.6,182.9z"/>
		<circle class="st2" cx="190.9" cy="148.2" r="68.5"/>
		
			<radialGradient id="SVGID_1_" cx="-14264.3135" cy="491.8194" r="132.4563" gradientTransform="matrix(-1 0 0 -1 -14073.4404 640)" gradientUnits="userSpaceOnUse">
			<stop  offset="0" style="stop-color:#FFE580"/>
			<stop  offset="1" style="stop-color:#FFFFFF;stop-opacity:0"/>
		</radialGradient>
		<circle class="st3" cx="190.9" cy="148.2" r="132.5"/>
		<circle class="st4" cx="190.9" cy="148.2" r="34"/>
		<path class="st5" d="M763.4,185.1l7.6-3.4l5.9,4c-0.4,0.7-0.5,1.5-0.1,2.2c0.9,1.1,2.5,1.2,3.5,0.3c0,0,0,0,0,0l12.2,8.7l-1.4,3.7
			c-2.4-0.8-4.9-1.3-7.4-1.6c-2.2-0.3-4.4-0.3-6.6-0.2c-3.4,0-8.7-1-16.7-6.2L763.4,185.1z"/>
		<path class="st6" d="M633,131.9c0.6,1.4,6.4,0.7-2.6,4.4c-1.5,0.9-3.4,1.3-5.2,0.9c-2.7-0.7-2.7-3.3-5.3-3.6
			c-1.2,0.2-2.3,0.2-3.5,0c-0.9-0.2-1.5-0.9-1.7-1.8c0.2-0.6,1.7-0.2,4.5-0.5c1.7-0.4,3.4-0.6,5.2-0.8c1,0,1.6,0,3.6,0
			c0.5,0,1,0,1.6,0C631,130.5,632.2,131,633,131.9z"/>
		<path class="st6" d="M623.3,131l-8.7,3.9c-0.5,0.4-0.6,1-0.2,1.5c0.5,0,1,0.2,1.3,0.7c0,0.3-0.3,0.5-0.3,0.9
			c0.3,0.6,0.9,1,1.6,1.1c0.4,0.1,0.8,0.2,1.3,0.2l1.3,0.8c0.7,0,1.4-0.1,2-0.3c0.6,0.1,1.2,0.5,1.6,1c0.6,0.6,6.4-4.2,6.4-4.2
			c0.6-0.2,0.8-0.9,0.6-1.5c-0.1-0.2-0.2-0.4-0.4-0.5l-5.3-3.4C624,130.9,623.6,130.9,623.3,131z"/>
		<path class="st7" d="M740.7,122.5c-0.4-1-0.8-2-1.3-2.9c-0.6-1.1-1.2-2.2-2-3.2c-0.7,0.3-1.8,0.6-3.2,1c-1.4,0.4-2.2,0.5-2.6,0.6
			c-2.9,0.6-8.3,1.6-23,3.9c-3.7,4.9-6.3,10.6-7.3,16.7c-3.4,18-5.2,40.8-6.3,49.2c-0.8,5.8,3.2,11.1,8.9,11.9
			c1.9,0.3,3.8,0,5.6-0.7c1.7-0.9,3.1-2.3,3.9-4.1c4.8-8.1,1.2-13.6,4.7-24c1.7-5,4.7-10.3,5.7-10c0.4,0.6,0.6,1.3,0.4,2.1
			c0,5.2,0.7,15.6,1,21.5c0.8,15.8,16.7,14.4,16.5,0c-0.2-10.6,4-44.3,2.2-52.4C743.1,128.8,742,125.6,740.7,122.5z"/>
		<path class="st8" d="M743.9,132.2c9.9-12,9.2-29.3,1.9-40.4c-7.9-12-22-14-23.3-14.1c-5.8-0.7-14.4,0.5-15.3,3.6
			c-0.9,3.1,9.3,8.3,11.6,9.5c11.2-1.8,21.6,5.9,23.4,17c0.8,5.1-0.3,10.2-3.2,14.5C740.7,125.2,742.2,129.4,743.9,132.2z"/>
		<path class="st9" d="M723.2,162.9c3.3-5.1,7.3-9.7,11.9-13.6c2.9-2,5.4-4.7,7.1-7.9c1.4-2.9,2-6,1.7-9.2c-0.8-3.3-1.9-6.5-3.1-9.6
			c-0.4-1-0.8-2-1.3-2.9c-0.6-1.1-1.2-2.2-2-3.2c-0.7,0.3-1.8,0.6-3.2,1c-1.4,0.4-2.2,0.5-2.6,0.6c-2.9,0.6-8.3,1.6-23,3.9
			c-3.7,4.9-6.3,10.6-7.3,16.7c-3.4,18-5.2,40.8-6.3,49.2c-0.8,5.8,3.2,11.1,8.9,11.9c1.9,0.3,3.8,0,5.6-0.7
			c1.9-0.7,3.3-2.2,3.9-4.1C715.4,187.1,720,164.1,723.2,162.9z"/>
		<path class="st7" d="M763.1,195.8h-28.9c-4.6,0-8.3-3.7-8.3-8.3v-2.2c0-4.6,3.7-8.3,8.3-8.3h28.9l7,3.2V194L763.1,195.8z"/>
		<path class="st10" d="M687.4,52.7c-3.2,0-6.7,5.8-7.7,10.6c-0.8,2.9-0.6,6,0.5,8.7c1.1,2.4,3.2,4.4,2.8,7.1
			c-0.2,0.7-0.3,1.4-0.3,2.1c0.3,1.7,1.3,3.1,2.9,3.8c0.6,0.3,2,0.8,7.4-1.2l1-0.4c3.5-1.4,5.3-5.1,4.4-8.7
			C693.8,56.6,690,52.7,687.4,52.7z"/>
		<polygon class="st6" points="695.1,75.3 698.5,84.7 712.3,80 708.5,69.7 		"/>
		<path class="st6" d="M682.2,57.8c0.2,3.8,0.9,7.5,2.2,11c0.3,0.5,0.3,1.1,0,1.6c-0.3,1-1,1.9-0.4,2.2c0.6,0.3,2.2,0,2.6,0.3
			l5.4,7.4l3.6-1.5l12.2-5.1c-0.5-0.2-12.3-6-12.8-6.6c-0.4-0.8-1.3-1.3-2.2-1.4c-0.9,0.3-6.8-4-7.8-4.4c-0.8-0.4-1.5-1-1.8-1.8
			C682.7,58.5,682.2,57.8,682.2,57.8z"/>
		<path class="st10" d="M682.1,57.8c1.3,2.4,3.4,4.4,5.8,5.7c4,2.2,7.1,5.8,8.7,10c0.9,2.8,3.9,4.4,6.7,3.6c0.2-0.1,0.5-0.2,0.7-0.3
			c1.6-0.7,3.2-1.6,4.6-2.7c1.5-1.2,2.8-2.8,3.5-4.6c1.5-4-0.6-8.1-1.7-10.3c-1.7-3.2-4.3-5.9-7.4-7.7c-1-0.6-2-1-3.1-1.4
			C695.7,48.7,685.3,49.8,682.1,57.8z"/>
		<path class="st7" d="M728,78.9c-1.1-0.5-2.3-0.8-3.5-1.1c-2.6-0.6-5.4-0.7-8.1-0.5c-9.1,1.1-17.8,4.2-25.5,9.2
			c-6.7,4.5-5.7,5.8-14.9,13.9c-8.5,7.6-17.8,14.2-27.9,19.7c-7.3,3.9-15,7-23,9.4l4.4,8.7c6.5-1.9,12.9-4.3,19.1-7.1
			c12.3-5.6,25.4-13.1,25.4-13.1c9.9-5.8,12-7.6,14.8-6.8c2,0.6,7.5,3.5,8.5,23.7c0,0,9.4,0.6,23.1-6c8.3-4,12.1-4.9,18.8-9.1
			c-4.6-8.4-8.2-17.4-10.9-26.6C727.2,88.4,728,82.8,728,78.9z"/>
		<path class="st5" d="M744.8,185.1l7.6-3.4l5.9,4c-0.4,0.7-0.5,1.5-0.1,2.2c0.9,1.1,2.5,1.2,3.5,0.3c0,0,0,0,0,0L774,197l-1.4,3.7
			c-2.4-0.8-4.9-1.3-7.4-1.6c-2.2-0.3-4.4-0.3-6.6-0.2c-3.4,0-8.7-1-16.7-6.2L744.8,185.1z"/>
		<path class="st9" d="M746,199.9h-41.5c-5.2-0.3-9.2-4.7-8.9-9.8c0.2-4.8,4.1-8.7,8.9-8.9l38.2,1.5l6.4,2.2l-0.6,15L746,199.9z"/>
		<line class="st11" x1="704.7" y1="132.2" x2="739.5" y2="119.6"/>
		
			<ellipse transform="matrix(0.9901 -0.1406 0.1406 0.9901 -10.0172 104.0718)" class="st12" cx="731.7" cy="123" rx="10.6" ry="10.6"/>
		<path class="st13" d="M728,122.5L728,122.5c-7,2.6-14.7-0.9-17.3-7.9l-7.8-20.9c-2.6-7,0.9-14.7,7.9-17.3l0,0
			c7-2.6,14.7,0.9,17.3,7.9l7.8,20.9C738.5,112.2,735,119.9,728,122.5z"/>
		<path class="st12" d="M738.7,104.3L738.7,104.3c-1.5,0.6-3.1-0.1-3.8-1.6l-5.8-13.8c-0.6-1.5,0.1-3.2,1.5-3.8l0,0
			c1.5-0.6,3.1,0.1,3.8,1.6l5.8,13.8C740.9,102,740.2,103.7,738.7,104.3z"/>
		<path class="st7" d="M709.1,55.8c-5.2,1.5-10.6,3-15.9,4.8s-10.5,3.4-15.4,5c-3.6-8.4,0.4-18.1,8.8-21.6
			c8.4-3.6,18.1,0.4,21.6,8.8C708.5,53.6,708.8,54.7,709.1,55.8z"/>
		<path class="st11" d="M510.4,326.8c91.6-31,163.5-103,194.3-194.7"/>
		
			<linearGradient id="SVGID_2_" gradientUnits="userSpaceOnUse" x1="24.7245" y1="99.2112" x2="598.1491" y2="99.2112" gradientTransform="matrix(1 0 0 -1 0 640)">
			<stop  offset="0" style="stop-color:#57D9A3"/>
			<stop  offset="1" style="stop-color:#00875A"/>
		</linearGradient>
		<path class="st14" d="M76.8,586.6c23.1-25,26.2-40.7,45.2-47.1c24-8.2,33.8,11.9,57,5.9c32.8-8.5,27-52.2,68.7-77.6
			c2.5-1.5,34.5-20.4,70.7-11.8c34.8,8.3,60.7,38.9,66.3,45.5c13.1,15.4,13.9,22.7,24,26.2c20.2,6.9,31.8-17,61.9-22.6
			c43.7-8.2,83.8,30.3,97.2,43.2c15.9,15.3,34.7,33.3,29.5,52.1c-5.6,19.9-34.6,26.7-38.3,27.5H24.7
			C44.1,616.8,61.6,602.9,76.8,586.6z"/>
		<rect x="153.3" y="503" class="st15" width="228.3" height="123.9"/>
		<rect x="406.2" y="454.5" class="st16" width="228.3" height="172.5"/>
		<rect id="_Rectangle_" x="663.4" y="198.6" class="st17" width="228.3" height="428.4"/>
		<path class="st9" d="M992.6,515.4c-10.5,11.6-20.2,12.5-21.4,21.3c-1.4,10.4,11.4,13.6,13.7,25c4.6,23.4-42.4,47.4-47.5,49.9
			c-23.6,11.8-54.6,18.9-59.4,11.9c-4.6-6.6,19.5-17.1,18.4-35.9c-1.3-21.5-34.4-30.1-30.9-46.3c2-9.1,12.6-7.5,19.7-18.7
			c13.5-21.6-12.9-47.6-0.6-58.8c7.6-7,19.7,1.4,29.3-6c12-9.3-1.9-26.4,8.1-47.6c7.8-16.6,28.4-31.7,43.3-28.1
			c12.1,3,18.6,17.9,20.2,27.6c3,17.8-9.5,25-3.6,37.4c5.2,10.9,16.1,8.2,22.6,19.2C1012.9,480.9,1004.2,502.5,992.6,515.4z"/>
		
			<linearGradient id="_Clipping_Path_3_1_" gradientUnits="userSpaceOnUse" x1="4741.73" y1="13.7105" x2="4741.73" y2="258.3364" gradientTransform="matrix(-1 0 0 -1 5678.25 640)">
			<stop  offset="0" style="stop-color:#FFC400"/>
			<stop  offset="1" style="stop-color:#FFF0B2"/>
		</linearGradient>
		<path id="_Clipping_Path_3" class="st18" d="M992.6,515.4c-10.5,11.6-20.2,12.5-21.4,21.3c-1.4,10.4,11.4,13.6,13.7,25
			c4.6,23.4-42.4,47.4-47.5,49.9c-23.6,11.8-54.6,18.9-59.4,11.9c-4.6-6.6,19.5-17.1,18.4-35.9c-1.3-21.5-34.4-30.1-30.9-46.3
			c2-9.1,12.6-7.5,19.7-18.7c13.5-21.6-12.9-47.6-0.6-58.8c7.6-7,19.7,1.4,29.3-6c12-9.3-1.9-26.4,8.1-47.6
			c7.8-16.6,28.4-31.7,43.3-28.1c12.1,3,18.6,17.9,20.2,27.6c3,17.8-9.5,25-3.6,37.4c5.2,10.9,16.1,8.2,22.6,19.2
			C1012.9,480.9,1004.2,502.5,992.6,515.4z"/>
		<g>
			<defs>
				<path id="SVGID_3_" d="M992.6,515.4c-10.5,11.6-20.2,12.5-21.4,21.3c-1.4,10.4,11.4,13.6,13.7,25c4.6,23.4-42.4,47.4-47.5,49.9
					c-23.6,11.8-54.6,18.9-59.4,11.9c-4.6-6.6,19.5-17.1,18.4-35.9c-1.3-21.5-34.4-30.1-30.9-46.3c2-9.1,12.6-7.5,19.7-18.7
					c13.5-21.6-12.9-47.6-0.6-58.8c7.6-7,19.7,1.4,29.3-6c12-9.3-1.9-26.4,8.1-47.6c7.8-16.6,28.4-31.7,43.3-28.1
					c12.1,3,18.6,17.9,20.2,27.6c3,17.8-9.5,25-3.6,37.4c5.2,10.9,16.1,8.2,22.6,19.2C1012.9,480.9,1004.2,502.5,992.6,515.4z"/>
			</defs>
			<clipPath id="SVGID_4_">
				<use xlink:href="#SVGID_3_"  style="overflow:visible;"/>
			</clipPath>
			<g class="st19">
				<line class="st20" x1="969.6" y1="374.6" x2="892.3" y2="638.1"/>
				<polyline class="st20" points="981.1,543.9 900.3,612.4 865.2,530.7 				"/>
				<polyline class="st20" points="1009.2,473.3 918.6,550.2 883.4,468.6 				"/>
				<polyline class="st20" points="1009.3,419.1 939.8,478.1 904.6,396.4 				"/>
				<polyline class="st20" points="1022.4,374.2 952.9,433.2 917.8,351.6 				"/>
			</g>
		</g>
		
			<linearGradient id="_Path__1_" gradientUnits="userSpaceOnUse" x1="781.7211" y1="75.9137" x2="948.913" y2="243.1056" gradientTransform="matrix(1 0 0 -1 0 640)">
			<stop  offset="0.19" style="stop-color:#0049B0;stop-opacity:0"/>
			<stop  offset="0.24" style="stop-color:#0049B0;stop-opacity:0.11"/>
			<stop  offset="0.38" style="stop-color:#0049B0;stop-opacity:0.38"/>
			<stop  offset="0.51" style="stop-color:#0049B0;stop-opacity:0.6"/>
			<stop  offset="0.64" style="stop-color:#0049B0;stop-opacity:0.78"/>
			<stop  offset="0.77" style="stop-color:#0049B0;stop-opacity:0.9"/>
			<stop  offset="0.89" style="stop-color:#0049B0;stop-opacity:0.97"/>
			<stop  offset="1" style="stop-color:#0049B0"/>
		</linearGradient>
		<path id="_Path_" class="st21" d="M816.6,489.7c-3.1,14.6-10.9,12.5-16,28.5c-10.4,32.1,12.2,65.7,22,80.2
			c13.5,20.1,26.6,39.6,44.5,38.8c21.3-0.9,40.9-29.9,42.8-54.9c1.5-20-9.1-27.1-3.6-44c6.2-18.6,24.9-18.9,26.2-33.3
			c1.2-13.4-14.4-15.6-18.9-34.5c-5.1-21.6,12.4-31.2,5.9-49.3c-5.7-15.6-20.4-12.7-26.2-28.5c-6.6-18,9.8-29,3-45.7
			c-4.8-11.9-18.7-19.3-30.7-19.8c-20.7-1-38.7,18-41.7,35.2c-3.1,18,11.9,29.3,5.1,42.4c-6,11.6-19.7,6.7-25.8,17.3
			C793.4,439,822.9,459.9,816.6,489.7z"/>
		
			<linearGradient id="SVGID_5_" gradientUnits="userSpaceOnUse" x1="566.8214" y1="47.0754" x2="959.1243" y2="47.0754" gradientTransform="matrix(1 0 0 -1 0 640)">
			<stop  offset="0" style="stop-color:#57D9A3"/>
			<stop  offset="1" style="stop-color:#00875A"/>
		</linearGradient>
		<path class="st22" d="M878.9,561.9c-20.7-8.7-42.2,0-43.8,0.6c-19.3,8.1-17.5,20-33.8,25.5c-22.8,7.8-33-13.5-58.1-6.6
			c-18.2,5-20.6,18.3-41.7,20.9c-12.1,1.5-10-3.1-24.8-2c-16.6,1.2-26,7.4-49.8,7.3h-1.1c-7,0-22.5,3.8-59,20.2l392.3-0.9
			c-13-4.2-25.2-10.8-35.8-19.4C899.5,588,899.5,570.5,878.9,561.9z"/>
		<path id="_Clipping_Path_4" class="st13" d="M834.4,479.6c-3.1,14.6-10.9,12.5-16,28.5c-10.4,32.1,12.2,65.7,22,80.2
			c13.5,20.1,26.6,39.6,44.5,38.8c21.3-0.9,40.9-29.9,42.8-54.9c1.5-20-9.1-27.1-3.6-44c6.2-18.6,24.9-18.9,26.2-33.3
			c1.2-13.4-14.4-15.6-18.9-34.5c-5.1-21.6,12.4-31.2,5.9-49.3c-5.7-15.6-20.4-12.7-26.2-28.5c-6.6-18,9.8-29,3-45.7
			c-4.8-11.9-18.7-19.3-30.7-19.8c-20.7-1-38.7,18-41.7,35.2c-3.1,18,11.9,29.4,5.1,42.5c-6,11.6-19.7,6.7-25.8,17.3
			C811.1,428.9,840.7,449.8,834.4,479.6z"/>
		<g>
			<defs>
				<path id="SVGID_6_" d="M834.4,479.6c-3.1,14.6-10.9,12.5-16,28.5c-10.4,32.1,12.2,65.7,22,80.2c13.5,20.1,26.6,39.6,44.5,38.8
					c21.3-0.9,40.9-29.9,42.8-54.9c1.5-20-9.1-27.1-3.6-44c6.2-18.6,24.9-18.9,26.2-33.3c1.2-13.4-14.4-15.6-18.9-34.5
					c-5.1-21.6,12.4-31.2,5.9-49.3c-5.7-15.6-20.4-12.7-26.2-28.5c-6.6-18,9.8-29,3-45.7c-4.8-11.9-18.7-19.3-30.7-19.8
					c-20.7-1-38.7,18-41.7,35.2c-3.1,18,11.9,29.4,5.1,42.5c-6,11.6-19.7,6.7-25.8,17.3C811.1,428.9,840.7,449.8,834.4,479.6z"/>
			</defs>
			<clipPath id="SVGID_7_">
				<use xlink:href="#SVGID_6_"  style="overflow:visible;"/>
			</clipPath>
			<g class="st23">
				<line class="st24" x1="883" y1="298" x2="883" y2="647.7"/>
				<polyline class="st24" points="950.3,525.9 883.6,627.1 808.3,536.1 				"/>
				<polyline class="st24" points="950.3,439.8 883.6,541 808.3,450 				"/>
				<polyline class="st24" points="950.3,339.8 883.6,441.1 808.3,350.1 				"/>
				<polyline class="st24" points="950.3,277.8 883.6,379 808.3,288 				"/>
			</g>
		</g>
		<path class="st25" d="M570.3,240.1c1.4,1.4-1.9,8.1,6.3-1.3c1.8-1.5,3-3.6,3.3-5.9c0.3-3.5-2.8-4.7-2.2-7.9
			c0.4-1.7,1.5-2.4,1.3-4.4c0.1-1.1-0.5-2.2-1.5-2.9c-0.8,0-0.9,1.9-2.5,5.3c-1.6,3.4-2.2,3.1-3.2,5.9c-0.4,1.2-0.6,1.9-1.5,4.4
			c-0.3,0.6-0.5,1.3-0.6,1.9C569.6,236.6,569.1,239,570.3,240.1z"/>
		<path class="st12" d="M488.4,280c0.3-5,6.2-7.6,14.5-10.9c21.3-8.9,30.6-9.2,41.5-14.1c10.6-5,19.7-12.6,26.4-22.2l5.3,8.3
			c-8.4,9.7-17.9,18.4-28.4,25.9c-7.3,5.1-14.9,9.7-22.9,13.8c-14.9,7.6-22.2,8.7-26.8,13c-0.5,0.6-1.2,0.9-1.9,0.9
			C492.8,294.4,488,285.6,488.4,280z"/>
		<path class="st25" d="M573.3,227.9l8.4-9.1c0.6-0.4,1.5-0.3,1.9,0.3c-0.2,0.6-0.1,1.3,0.3,1.8c0.3,0.2,0.7-0.2,1.1,0
			c0.6,0.7,0.8,1.6,0.7,2.4c0,0.5-0.1,1.1-0.3,1.6l0.4,1.9c0.2,0.7,0,1.4-0.5,1.9l-0.2,2.8c0.4,1-2.8,3.6-2.9,3.7l-4.9,2.2
			c-0.5,0.6-1.4,0.6-2,0.1c-0.2-0.2-0.4-0.5-0.4-0.8l-1.9-7.8C573,228.7,573.1,228.2,573.3,227.9z"/>
		<path class="st26" d="M482.5,323.2c-1.6,3.2-2.9,6.5-3.9,10c-4.5,15.9,0.7,24.7,1.5,44c0.2,11-0.5,21.9-2.3,32.8
			c0,0-2.9,21.8,2.6,32.8c0.6,1.2,1.9,3.8,3.8,3.8l0,0c1.9,0,3.6,0,5.3-0.2c1.9-0.3,3.4-1.9,3.6-3.9c2.2-8.3,5.5-43,5.8-54.7
			c0.2-10.9,2.4-49.2-2.2-55.9C495.1,329.5,491.7,325.4,482.5,323.2z"/>
		<path class="st25" d="M570.3,240.1c1.4,1.4-1.9,8.1,6.3-1.3c1.8-1.5,3-3.6,3.3-5.9c0.3-3.5-2.8-4.7-2.2-7.9
			c0.4-1.7,1.5-2.4,1.3-4.4c0.1-1.1-0.5-2.2-1.5-2.9c-0.8,0-0.9,1.9-2.5,5.3c-1.6,3.4-2.2,3.1-3.2,5.9c-0.4,1.2-0.6,1.9-1.5,4.4
			c-0.3,0.6-0.5,1.3-0.6,1.9C569.6,236.6,569.1,239,570.3,240.1z"/>
		<path class="st12" d="M488.4,280c0.3-5,6.2-7.6,14.5-10.9c21.3-8.9,30.6-9.2,41.5-14.1c10.6-5,19.7-12.6,26.4-22.2l5.3,8.3
			c-8.4,9.7-17.9,18.4-28.4,25.9c-7.3,5.1-14.9,9.7-22.9,13.8c-14.9,7.6-22.2,8.7-26.8,13c-0.5,0.6-1.2,0.9-1.9,0.9
			C492.8,294.4,488,285.6,488.4,280z"/>
		<path class="st25" d="M504.8,262.6l-4.3-4.8l0,0c-1.5-3-3.8-5.5-6.7-7.1c-1.9-1-4-1.3-6.1-0.9c-4.6,1.3-7.9,5.3-8.4,10
			c-1,7.7,6.2,12.8,7.1,13.4c3.2,2.4,7.3,3.3,11.2,2.5c2.8-0.7,5.2-2.2,7.1-4.4l-2-6.7L504.8,262.6z"/>
		<path class="st5" d="M489.1,263.7c-0.3-2.2,0.3-4.4,1.7-6.1c2.6-3.7,6.3-3.6,6.3-5.5c0.1-1.9-2.7-3-4.3-3.5
			c-6.5-1.9-13.3,1.9-15.2,8.4c-0.7,2.4-0.6,4.9,0.1,7.2c1.3,2.8,3.6,3.1,4.8,6.9c0.5,1.6,0.5,3.1,1.7,3.7c1,0.6,2.2,0.4,3.1-0.4
			c0.6-1.3,0.5-2.7-0.2-4c-1.2-3.1-3.3-4-3-5.9c0-0.4,0.3-0.8,0.6-1.1c1.1-0.2,2.2,5,4.1,5c0.6-0.1,1.1-0.5,1.4-1
			C490.7,266.2,489.6,265.3,489.1,263.7z"/>
		<path class="st25" d="M586.8,257.1c-1.6,0.4-3.3-1.9-4-3.5c-0.8-1.8-0.8-3.8,0-5.5c1-2.2,2.6-2.1,4.7-4.8c2.1-2.8,2.2-5.1,2.9-5.1
			c0.7,0,1.1,1.8,1.1,3.4c0,3-1.9,3.5-2.4,6.7c-0.4,2.6,0.6,3.1-0.2,5.6C588.8,255.3,588,256.4,586.8,257.1z"/>
		<path class="st25" d="M584.3,247.1c0,0,9.2-3.3,10.5-5.6c1.3-2.2,1.1-4.1,2.2-4.1s0.7,3.8,1.2,4.2s1.3,0,1.4,1.2
			c0.3,1.3,0.3,2.6,0,3.9c-1.4,3-3.5,5.7-6,7.8c-2,1.2-6.1,3.8-8.5,3.5c-2.4-0.3-1.5-9-1.5-9L584.3,247.1z"/>
		<path class="st13" d="M522,277.6c0.7,2.8,15.6,9.7,8.7,15c-4.2,3.3-11.6,11.4-13.6,16.6c-1,2.3-1.9,4.6-2.5,7.1
			c-0.7,5.4-4.8,9.8-10.2,10.9c-12.4,2.4-27.5,5.1-25.9-3c1.9-9.4,3-34,9.9-46.8C491.9,271.1,502.4,275.9,522,277.6z"/>
		<path class="st13" d="M492.2,288.2c2.7-10.5,24.5-7.7,50.8-16.5c14.3-4.9,27.6-12.2,39.3-21.6l6.4,7.6
			c-10.5,12.1-23.4,21.8-37.8,28.7c-18.3,8.4-42.8,12.8-49.7,17.8c-0.6,0.5-1.4,0.8-2.2,0.7C495.1,304.5,490.7,294.2,492.2,288.2z"
			/>
		<path class="st26" d="M478.2,325.4h25.6c6.3,0,11.4,5.1,11.4,11.4l0,0v8.2l0,0H486c-4.3,0-7.8-3.5-7.8-7.8v0V325.4L478.2,325.4z"
			/>
		<path class="st27" d="M497.3,249.8c-3.3,2.6-6.7,5.2-10.1,8c-3.4,2.8-6.6,5.4-9.7,8c-4.9-5-4.8-13.1,0.2-18.1
			c5-4.9,13.1-4.8,18.1,0.2C496.3,248.5,496.8,249.2,497.3,249.8z"/>
		<circle class="st28" cx="469.1" cy="328.3" r="10.2"/>
		<path class="st7" d="M480.3,279.8L480.3,279.8c7,1.5,11.4,8.4,9.9,15.4l-4.5,20.9c-1.5,7-8.4,11.4-15.4,9.9l0,0
			c-7-1.5-11.4-8.4-9.9-15.4l4.5-20.9C466.5,282.7,473.3,278.3,480.3,279.8z"/>
		<path class="st8" d="M464.9,292.1L464.9,292.1c1.5,0.4,2.4,1.9,2,3.4l-3.6,14c-0.4,1.5-1.9,2.4-3.4,2h0c-1.5-0.4-2.4-1.9-2-3.4
			l3.6-14C461.9,292.6,463.5,291.8,464.9,292.1z"/>
		<path class="st5" d="M503.6,460.8c-5.4,0.3-17.1,1.2-18.4-1.1c-0.2-0.4-0.5-0.7-0.9-0.8c-0.5,0.1-0.9,0.3-1.2,0.7
			c-0.6,0.5-1.8,0.8-4.6-0.3c-0.5,0-0.9-0.2-1.2-0.5c-0.3-0.3-0.5-0.7-0.5-1.2l0.4-6.8c0.2-1.6,1.5-2.7,3.1-2.5
			c1.1,0.1,2.1,0.1,3.2,0c3.3-0.5,4.5-2.2,6.1-1.7c1.6,0.5,1.3,2.2,2.5,4.2c0.7,0.7,1.5,1.3,2.4,1.9c3.4,2.3,7.3,3.7,11.4,4l0.4,4.1
			L503.6,460.8z"/>
		<polygon class="st5" points="477.3,428.5 477.1,452.7 490.8,453.4 498,428.8 		"/>
		<path class="st5" d="M572.8,440.2c-5,1.9-15.9,6.2-17.9,4.4c-0.3-0.3-0.7-0.5-1.1-0.5c-0.4,0.2-0.8,0.5-0.9,1
			c-0.4,0.7-1.5,1.3-4.4,1.1c-0.4,0.1-0.9,0.1-1.3-0.2c-0.4-0.2-0.7-0.6-0.8-1l-1.6-6.6c-0.3-1.5,0.7-3,2.2-3.3c1.1-0.2,2.1-0.5,3-1
			c3-1.4,3.7-3.4,5.3-3.4c1.6,0,1.9,1.7,3.6,3.3c0.9,0.4,1.9,0.8,2.8,1.1c3.9,1.2,8.1,1.3,12.1,0.4l1.6,3.8L572.8,440.2z"/>
		<path class="st26" d="M513.3,328.3c11.2,14.1,21.2,29.1,29.8,44.9c2,3.8,3.7,7.7,5.2,11.7c4,10.4,7.6,18.9,8.2,30
			c0.3,5.5-0.1,11.1-1.3,16.5l-9.8,0.5c-9.8-17-16.6-35.5-20-54.8c-11.6-7-22.6-14.8-33.1-23.4c0,0-8.4-7.4-7.6-12.6l0,0
			c0.3-2.2,0.7-4,0.9-4.9c0.5-2.8,1-5.1,1.4-6.7C495.7,330.5,504.6,330,513.3,328.3z"/>
		<polygon class="st5" points="538.2,417 545.1,440.2 558.4,436.9 558.1,411.2 		"/>
		<line class="st29" x1="481.2" y1="326.4" x2="510.3" y2="326.8"/>
		<path class="st30" d="M399.7,367.8c-0.6,1-1,2.1-1.2,3.2c-0.1,0.9,0,1.8,0.4,2.6c1.3,2.2,5.7,2.5,8.6,1c1.1-0.7,2.2-1.6,2.9-2.6
			c1.4-1.6,1.3-2.2,1.2-2.4c-0.2-0.4-0.6-0.8-1.1-0.9c0.8-0.4,1.3-1.2,1.3-2c-0.3-0.7-0.8-1.2-1.5-1.5c0.4-0.6,0.5-1.4,0.3-2.2
			c-0.5-0.2-1-0.3-1.6-0.1c-0.8,0.1-1.6,0.2-2.4,0.2c-1.2-0.4-1.2-1.8-2.2-2c-0.6,0-1.1,0.2-1.6,0.6c-0.9,0.9-1.5,2-1.8,3.2
			C400.5,366.2,400.5,365.9,399.7,367.8z"/>
		<path class="st30" d="M295,400.1c-0.8-0.9-1.7-1.6-2.8-2.2c-0.8-0.4-1.8-0.6-2.7-0.4c-2.6,0.5-4.4,4.8-3.8,8
			c0.3,1.3,0.8,2.6,1.6,3.7c1.1,1.8,1.7,2,2,2c0.5-0.1,0.9-0.3,1.2-0.7c0.1,0.9,0.7,1.6,1.6,1.9c0.7-0.1,1.4-0.4,2-1
			c0.5,0.6,1.2,1,2,1c0.4-0.4,0.6-0.9,0.6-1.5c0.1-0.8,0.3-1.6,0.6-2.4c0.7-1.1,2.2-0.6,2.7-1.6c0.2-0.6,0.2-1.2,0-1.7
			c-0.6-1.1-1.5-2.1-2.5-2.8C296.2,401.4,296.5,401.6,295,400.1z"/>
		<path class="st31" d="M335.8,398c13.4,18.6,13.5,30.8,11.4,38.3c-2.4,8.7-8.2,12.4-22.5,29.3c-8.3,9.8-14.7,18.3-18.8,24l-6.9-5.4
			c3.1-5.7,5.1-11.9,5.9-18.3c0.2-3.3,1-6.5,2.4-9.4c1.1-2,2.3-3.8,3.7-5.5c4.4-5.9,8-10.3,10.2-12.7c1.6-1.8,3-3.3,4-4.4
			c-1.1-2.9-3.5-9.1-6.6-17.2c-4.7-12.4-6.9-18.7-5.3-26c0.4-1.6,0.9-3.2,1.6-4.7C320.5,391.8,327.8,396,335.8,398z"/>
		<path class="st15" d="M340.6,356.5c1.1,5.1,3.1,9.9,5.9,14.2c3.2,4.5,7.5,8.2,12.4,10.8c5.7,1.5,11.5,2.2,17.4,1.9
			c9.3-0.5,18.4-3.1,26.5-7.9l-4-7.5c-11.8,1.2-23.7,1-35.5-0.6c-4.5-9.3-7.6-16.3-9.7-21.3c-1.6-3.7-3.4-8.5-7.9-10.1
			c-1.8-0.8-3.8-0.8-5.5,0C335.5,339,339.5,352.9,340.6,356.5z"/>
		<path class="st15" d="M327.3,359l-8.1,40.2h26.5c3.6-6.9,3.8-11.6,3.2-14.7c-0.2-1.1-0.4-2.1-0.5-3.2c-0.1-3.7,1-7.2,2.9-10.3
			c2-3.5,3.7-10.1,2.3-24c-0.1-1.5-0.5-3-1.1-4.4c-3.3-7.4-12.5-9.1-13.9-9.3l-1.1,5.7c-2.9-0.4-5.7,1.5-6.4,4.4L327.3,359z"/>
		<path class="st32" d="M341.7,335.2c6.6,1.1,7.1,7.4,7.2,12.7c0.1,13.3-2.2,25.2-5.2,38.1h-28.9l7.3-44.2l4.5-4.2
			c2.8-2.6,6.6-3.8,10.4-3.2L341.7,335.2z"/>
		<path class="st30" d="M351.3,305.7c0.3,1.3,0.7,2.8,0.9,4.4c0.3,2,0.5,4,0.5,6c0.1,0.3,0.3,0.9,0.7,1.6c1,2.1,2.2,3.3,1.8,3.8
			c0,0-1.5,0.5-1.7,0.7c-0.2,0.2-0.6,5-1.7,6.7c-1.6,2.6-14.1,4.5-17.1-2.6c-0.8-1.4-1.5-3-1.9-4.5c0.6,0,1.2-0.1,1.7-0.3
			c1.1-0.5,2-1.2,2.6-2.2c1.4-2.2,5.1-7.5,9.2-9.3c1-0.4,1.9-0.9,2.7-1.6C350,307.6,350.7,306.8,351.3,305.7z"/>
		<path class="st33" d="M350.8,308.6c-2.2,1.2-3.3,0.5-3.9,1.6c-0.7,1-0.8,8-1.2,8.2c-1-0.1-2-0.6-2.6-1.5c-0.2-0.4-0.6-0.7-1-0.9
			c-0.5,0.1-1,0.4-1.3,0.9c-1.1,1.5-6,7.3-8.1,6.7c-0.5-0.1-0.7-0.6-1.5-3.1c-1.6-4.7-5.4-12,0.6-15.3c1.3-0.7,1.9-1.5,12.7-3.3
			c4.9-0.9,7.1-1.2,8.4,0.2c0.8,0.9,1.1,2.2,0.8,3.4C353.1,306.9,352.1,308,350.8,308.6z"/>
		<path class="st32" d="M391.9,411.3c-9.9,0-19.8,0.6-29.6,1.7c-12.2,1.5-19.7,3.4-29.8,0.5c-5.2-1.3-9.9-4.1-13.6-7.9
			c-2.2-2.2-3.8-4.9-4.8-7.9c-0.6-1.9-0.9-3.8-0.9-5.7v-1.3h59.4c10.7,0,19.3,8.7,19.3,19.3C392,410.4,391.9,410.9,391.9,411.3z"/>
		<path class="st32" d="M390.5,401c1.9,4.8,4.6,9.2,8,13.1c2.2,2.4,3.9,3.8,4.6,6.6c0.7,3.9-0.2,7.9-2.5,11.1l-5.6,3.2
			c-3.8,0.7-7.7-0.2-10.8-2.4c-2.9-2.8-5.3-6.1-7.2-9.7c-2.1-3.8-4.2-7.7-6.3-11.8c-3.1-6-5.9-11.9-8.5-17.6l0,0
			C372.2,387.7,384.8,391.1,390.5,401C390.5,401,390.5,401,390.5,401z"/>
		<path class="st5" d="M427.4,443.7c-4,3.6-12.6,11.6-15.1,10.6c-0.4-0.2-0.8-0.2-1.2,0c-0.3,0.3-0.5,0.8-0.5,1.3
			c-0.2,0.8-0.9,1.7-3.8,2.6c-0.4,0.3-0.8,0.4-1.3,0.3c-0.4-0.1-0.8-0.3-1.1-0.6l-3.9-5.6c-0.8-1.3-0.4-3.1,0.9-3.9
			c0.9-0.6,1.7-1.2,2.5-2c2.2-2.4,2.2-4.5,3.7-5.1c1.6-0.6,2.4,0.9,4.6,1.7c1,0.1,2,0.1,3,0c4.1-0.3,8-1.7,11.4-4l2.8,3L427.4,443.7
			z"/>
		<polygon class="st5" points="386.8,434.7 401.6,453.8 412.8,445.8 403.2,422.1 		"/>
		<path class="st5" d="M322.2,502.6c-5.3-0.8-16.9-2.4-17.8-4.9c-0.1-0.4-0.4-0.8-0.7-1c-0.5-0.1-0.9,0.1-1.3,0.4
			c-0.7,0.4-2,0.4-4.4-1.2c-0.4-0.1-0.8-0.4-1.1-0.8c-0.2-0.4-0.3-0.8-0.2-1.2l1.8-6.6c0.5-1.5,2.1-2.3,3.6-1.8
			c1,0.3,2.1,0.6,3.1,0.6c3.3,0.2,4.9-1.1,6.3-0.3s0.8,2.4,1.6,4.6c0.6,0.8,1.2,1.6,1.9,2.3c2.8,3,6.4,5.1,10.4,6.3l-0.6,4
			L322.2,502.6z"/>
		<polygon class="st5" points="303.3,465.5 298,489.1 311.2,492.6 323.5,470.2 		"/>
		<line class="st29" x1="323.5" y1="388.2" x2="348.9" y2="388.2"/>
		<path class="st15" d="M318.2,351.8c0,0-4.7,12.8-4.5,16.7c0,0.9,0.1,1.8,0.3,2.7c0.2,0.9,0.3,1.4,0.4,2.2c0,0.6,0,1.2,0,1.7
			c-0.2,2.6-3.1,5.6-3.6,9.4c-0.3,1.9,0.2,3.8,1.4,5.4c0.8,0.9,1.7,1.6,2.8,2c0.7,0.2,1.4,0.4,2.2,0.4h10c4.9,0,9.1-3.6,9.9-8.5
			l6.7-43.7c0.5-3.2-1.7-6.2-4.9-6.7c-0.1,0-0.1,0-0.2,0l-9.1-1.1c-4-0.4-7.8,2.2-8.7,6.1C320.6,342.9,319.8,347.5,318.2,351.8z"/>
		<path class="st15" d="M337,334.4c-0.3-2.1-17.8-5.6-36.1,3.9c-4,2.1-17.8,9.1-20.7,22.3c0,0.2,0,0.4-0.1,0.7
			c-0.6,3.6-0.5,7.3,0.2,10.9c1.1,6.4,2.2,7.3,2.2,12c0,1.7-0.2,1.8-0.2,3.4c0,3.8,0.7,7.6,2.2,11.1l5.2,0.2c2,0,4,0.2,5.2,0.2
			c1.9-12.9,1.8-26.1-0.4-39c8.2-2,15.3-4,21-5.7c11-3.3,17.5-5.7,18-9.7c0.3-2.2-1.1-4.1,0.2-6.8
			C335.1,335.2,337.1,335.1,337,334.4z"/>
		<path class="st29" d="M348.8,388.2c22.9,5.6,46.9,4.9,69.4-2.1c45.9-14.4,68.2-50.2,73.7-59.6"/>
		<path class="st5" d="M351,302.1c-3.7,2.9-7.5,5.9-11.3,8.9c-3.8,3-7.4,6-10.9,8.9c-5.2-6-4.5-15,1.4-20.1s15-4.5,20.1,1.4
			C350.5,301.5,350.7,301.8,351,302.1z"/>
	</g>
</g>
</svg>
